<?xml version="1.0" encoding="utf-8" standalone="no"?>
<!DOCTYPE svg PUBLIC "-//W3C//DTD SVG 1.1//EN"
  "http://www.w3.org/Graphics/SVG/1.1/DTD/svg11.dtd">
<svg xmlns:xlink="http://www.w3.org/1999/xlink" width="1008pt" height="432pt" viewBox="0 0 1008 432" xmlns="http://www.w3.org/2000/svg" version="1.1">
 <metadata>
  <rdf:RDF xmlns:dc="http://purl.org/dc/elements/1.1/" xmlns:cc="http://creativecommons.org/ns#" xmlns:rdf="http://www.w3.org/1999/02/22-rdf-syntax-ns#">
   <cc:Work>
    <dc:type rdf:resource="http://purl.org/dc/dcmitype/StillImage"/>
    <dc:date>2023-10-27T07:42:28.333910</dc:date>
    <dc:format>image/svg+xml</dc:format>
    <dc:creator>
     <cc:Agent>
      <dc:title>Matplotlib v3.7.2, https://matplotlib.org/</dc:title>
     </cc:Agent>
    </dc:creator>
   </cc:Work>
  </rdf:RDF>
 </metadata>
 <defs>
  <style type="text/css">*{stroke-linejoin: round; stroke-linecap: butt}</style>
 </defs>
 <g id="figure_1">
  <g id="patch_1">
   <path d="M 0 432 
L 1008 432 
L 1008 0 
L 0 0 
z
" style="fill: #ffffff"/>
  </g>
  <g id="axes_1">
   <g id="patch_2">
    <path d="M 126 378 
L 481.090909 378 
L 481.090909 51.84 
L 126 51.84 
z
" style="fill: #ffffff"/>
   </g>
   <g id="matplotlib.axis_1">
    <g id="xtick_1">
     <g id="line2d_1">
      <path d="M 142.140496 378 
L 142.140496 51.84 
" clip-path="url(#pb0842c0ead)" style="fill: none; stroke-dasharray: 2.96,1.28; stroke-dashoffset: 0; stroke: #b0b0b0; stroke-width: 0.8"/>
     </g>
     <g id="line2d_2">
      <defs>
       <path id="m3b17b4051a" d="M 0 0 
L 0 3.5 
" style="stroke: #000000; stroke-width: 0.8"/>
      </defs>
      <g>
       <use xlink:href="#m3b17b4051a" x="142.140496" y="378" style="stroke: #000000; stroke-width: 0.8"/>
      </g>
     </g>
     <g id="text_1">
      <!-- 0.0 -->
      <g transform="translate(134.188933 392.598437) scale(0.1 -0.1)">
       <defs>
        <path id="DejaVuSans-30" d="M 2034 4250 
Q 1547 4250 1301 3770 
Q 1056 3291 1056 2328 
Q 1056 1369 1301 889 
Q 1547 409 2034 409 
Q 2525 409 2770 889 
Q 3016 1369 3016 2328 
Q 3016 3291 2770 3770 
Q 2525 4250 2034 4250 
z
M 2034 4750 
Q 2819 4750 3233 4129 
Q 3647 3509 3647 2328 
Q 3647 1150 3233 529 
Q 2819 -91 2034 -91 
Q 1250 -91 836 529 
Q 422 1150 422 2328 
Q 422 3509 836 4129 
Q 1250 4750 2034 4750 
z
" transform="scale(0.015625)"/>
        <path id="DejaVuSans-2e" d="M 684 794 
L 1344 794 
L 1344 0 
L 684 0 
L 684 794 
z
" transform="scale(0.015625)"/>
       </defs>
       <use xlink:href="#DejaVuSans-30"/>
       <use xlink:href="#DejaVuSans-2e" x="63.623047"/>
       <use xlink:href="#DejaVuSans-30" x="95.410156"/>
      </g>
     </g>
    </g>
    <g id="xtick_2">
     <g id="line2d_3">
      <path d="M 206.702479 378 
L 206.702479 51.84 
" clip-path="url(#pb0842c0ead)" style="fill: none; stroke-dasharray: 2.96,1.28; stroke-dashoffset: 0; stroke: #b0b0b0; stroke-width: 0.8"/>
     </g>
     <g id="line2d_4">
      <g>
       <use xlink:href="#m3b17b4051a" x="206.702479" y="378" style="stroke: #000000; stroke-width: 0.8"/>
      </g>
     </g>
     <g id="text_2">
      <!-- 0.2 -->
      <g transform="translate(198.750917 392.598437) scale(0.1 -0.1)">
       <defs>
        <path id="DejaVuSans-32" d="M 1228 531 
L 3431 531 
L 3431 0 
L 469 0 
L 469 531 
Q 828 903 1448 1529 
Q 2069 2156 2228 2338 
Q 2531 2678 2651 2914 
Q 2772 3150 2772 3378 
Q 2772 3750 2511 3984 
Q 2250 4219 1831 4219 
Q 1534 4219 1204 4116 
Q 875 4013 500 3803 
L 500 4441 
Q 881 4594 1212 4672 
Q 1544 4750 1819 4750 
Q 2544 4750 2975 4387 
Q 3406 4025 3406 3419 
Q 3406 3131 3298 2873 
Q 3191 2616 2906 2266 
Q 2828 2175 2409 1742 
Q 1991 1309 1228 531 
z
" transform="scale(0.015625)"/>
       </defs>
       <use xlink:href="#DejaVuSans-30"/>
       <use xlink:href="#DejaVuSans-2e" x="63.623047"/>
       <use xlink:href="#DejaVuSans-32" x="95.410156"/>
      </g>
     </g>
    </g>
    <g id="xtick_3">
     <g id="line2d_5">
      <path d="M 271.264463 378 
L 271.264463 51.84 
" clip-path="url(#pb0842c0ead)" style="fill: none; stroke-dasharray: 2.96,1.28; stroke-dashoffset: 0; stroke: #b0b0b0; stroke-width: 0.8"/>
     </g>
     <g id="line2d_6">
      <g>
       <use xlink:href="#m3b17b4051a" x="271.264463" y="378" style="stroke: #000000; stroke-width: 0.8"/>
      </g>
     </g>
     <g id="text_3">
      <!-- 0.4 -->
      <g transform="translate(263.3129 392.598437) scale(0.1 -0.1)">
       <defs>
        <path id="DejaVuSans-34" d="M 2419 4116 
L 825 1625 
L 2419 1625 
L 2419 4116 
z
M 2253 4666 
L 3047 4666 
L 3047 1625 
L 3713 1625 
L 3713 1100 
L 3047 1100 
L 3047 0 
L 2419 0 
L 2419 1100 
L 313 1100 
L 313 1709 
L 2253 4666 
z
" transform="scale(0.015625)"/>
       </defs>
       <use xlink:href="#DejaVuSans-30"/>
       <use xlink:href="#DejaVuSans-2e" x="63.623047"/>
       <use xlink:href="#DejaVuSans-34" x="95.410156"/>
      </g>
     </g>
    </g>
    <g id="xtick_4">
     <g id="line2d_7">
      <path d="M 335.826446 378 
L 335.826446 51.84 
" clip-path="url(#pb0842c0ead)" style="fill: none; stroke-dasharray: 2.96,1.28; stroke-dashoffset: 0; stroke: #b0b0b0; stroke-width: 0.8"/>
     </g>
     <g id="line2d_8">
      <g>
       <use xlink:href="#m3b17b4051a" x="335.826446" y="378" style="stroke: #000000; stroke-width: 0.8"/>
      </g>
     </g>
     <g id="text_4">
      <!-- 0.6 -->
      <g transform="translate(327.874884 392.598437) scale(0.1 -0.1)">
       <defs>
        <path id="DejaVuSans-36" d="M 2113 2584 
Q 1688 2584 1439 2293 
Q 1191 2003 1191 1497 
Q 1191 994 1439 701 
Q 1688 409 2113 409 
Q 2538 409 2786 701 
Q 3034 994 3034 1497 
Q 3034 2003 2786 2293 
Q 2538 2584 2113 2584 
z
M 3366 4563 
L 3366 3988 
Q 3128 4100 2886 4159 
Q 2644 4219 2406 4219 
Q 1781 4219 1451 3797 
Q 1122 3375 1075 2522 
Q 1259 2794 1537 2939 
Q 1816 3084 2150 3084 
Q 2853 3084 3261 2657 
Q 3669 2231 3669 1497 
Q 3669 778 3244 343 
Q 2819 -91 2113 -91 
Q 1303 -91 875 529 
Q 447 1150 447 2328 
Q 447 3434 972 4092 
Q 1497 4750 2381 4750 
Q 2619 4750 2861 4703 
Q 3103 4656 3366 4563 
z
" transform="scale(0.015625)"/>
       </defs>
       <use xlink:href="#DejaVuSans-30"/>
       <use xlink:href="#DejaVuSans-2e" x="63.623047"/>
       <use xlink:href="#DejaVuSans-36" x="95.410156"/>
      </g>
     </g>
    </g>
    <g id="xtick_5">
     <g id="line2d_9">
      <path d="M 400.38843 378 
L 400.38843 51.84 
" clip-path="url(#pb0842c0ead)" style="fill: none; stroke-dasharray: 2.96,1.28; stroke-dashoffset: 0; stroke: #b0b0b0; stroke-width: 0.8"/>
     </g>
     <g id="line2d_10">
      <g>
       <use xlink:href="#m3b17b4051a" x="400.38843" y="378" style="stroke: #000000; stroke-width: 0.8"/>
      </g>
     </g>
     <g id="text_5">
      <!-- 0.8 -->
      <g transform="translate(392.436867 392.598437) scale(0.1 -0.1)">
       <defs>
        <path id="DejaVuSans-38" d="M 2034 2216 
Q 1584 2216 1326 1975 
Q 1069 1734 1069 1313 
Q 1069 891 1326 650 
Q 1584 409 2034 409 
Q 2484 409 2743 651 
Q 3003 894 3003 1313 
Q 3003 1734 2745 1975 
Q 2488 2216 2034 2216 
z
M 1403 2484 
Q 997 2584 770 2862 
Q 544 3141 544 3541 
Q 544 4100 942 4425 
Q 1341 4750 2034 4750 
Q 2731 4750 3128 4425 
Q 3525 4100 3525 3541 
Q 3525 3141 3298 2862 
Q 3072 2584 2669 2484 
Q 3125 2378 3379 2068 
Q 3634 1759 3634 1313 
Q 3634 634 3220 271 
Q 2806 -91 2034 -91 
Q 1263 -91 848 271 
Q 434 634 434 1313 
Q 434 1759 690 2068 
Q 947 2378 1403 2484 
z
M 1172 3481 
Q 1172 3119 1398 2916 
Q 1625 2713 2034 2713 
Q 2441 2713 2670 2916 
Q 2900 3119 2900 3481 
Q 2900 3844 2670 4047 
Q 2441 4250 2034 4250 
Q 1625 4250 1398 4047 
Q 1172 3844 1172 3481 
z
" transform="scale(0.015625)"/>
       </defs>
       <use xlink:href="#DejaVuSans-30"/>
       <use xlink:href="#DejaVuSans-2e" x="63.623047"/>
       <use xlink:href="#DejaVuSans-38" x="95.410156"/>
      </g>
     </g>
    </g>
    <g id="xtick_6">
     <g id="line2d_11">
      <path d="M 464.950413 378 
L 464.950413 51.84 
" clip-path="url(#pb0842c0ead)" style="fill: none; stroke-dasharray: 2.96,1.28; stroke-dashoffset: 0; stroke: #b0b0b0; stroke-width: 0.8"/>
     </g>
     <g id="line2d_12">
      <g>
       <use xlink:href="#m3b17b4051a" x="464.950413" y="378" style="stroke: #000000; stroke-width: 0.8"/>
      </g>
     </g>
     <g id="text_6">
      <!-- 1.0 -->
      <g transform="translate(456.998851 392.598437) scale(0.1 -0.1)">
       <defs>
        <path id="DejaVuSans-31" d="M 794 531 
L 1825 531 
L 1825 4091 
L 703 3866 
L 703 4441 
L 1819 4666 
L 2450 4666 
L 2450 531 
L 3481 531 
L 3481 0 
L 794 0 
L 794 531 
z
" transform="scale(0.015625)"/>
       </defs>
       <use xlink:href="#DejaVuSans-31"/>
       <use xlink:href="#DejaVuSans-2e" x="63.623047"/>
       <use xlink:href="#DejaVuSans-30" x="95.410156"/>
      </g>
     </g>
    </g>
    <g id="text_7">
     <!-- False Positive Rate (Positive label: 1) -->
     <g transform="translate(212.17983 406.276563) scale(0.1 -0.1)">
      <defs>
       <path id="DejaVuSans-46" d="M 628 4666 
L 3309 4666 
L 3309 4134 
L 1259 4134 
L 1259 2759 
L 3109 2759 
L 3109 2228 
L 1259 2228 
L 1259 0 
L 628 0 
L 628 4666 
z
" transform="scale(0.015625)"/>
       <path id="DejaVuSans-61" d="M 2194 1759 
Q 1497 1759 1228 1600 
Q 959 1441 959 1056 
Q 959 750 1161 570 
Q 1363 391 1709 391 
Q 2188 391 2477 730 
Q 2766 1069 2766 1631 
L 2766 1759 
L 2194 1759 
z
M 3341 1997 
L 3341 0 
L 2766 0 
L 2766 531 
Q 2569 213 2275 61 
Q 1981 -91 1556 -91 
Q 1019 -91 701 211 
Q 384 513 384 1019 
Q 384 1609 779 1909 
Q 1175 2209 1959 2209 
L 2766 2209 
L 2766 2266 
Q 2766 2663 2505 2880 
Q 2244 3097 1772 3097 
Q 1472 3097 1187 3025 
Q 903 2953 641 2809 
L 641 3341 
Q 956 3463 1253 3523 
Q 1550 3584 1831 3584 
Q 2591 3584 2966 3190 
Q 3341 2797 3341 1997 
z
" transform="scale(0.015625)"/>
       <path id="DejaVuSans-6c" d="M 603 4863 
L 1178 4863 
L 1178 0 
L 603 0 
L 603 4863 
z
" transform="scale(0.015625)"/>
       <path id="DejaVuSans-73" d="M 2834 3397 
L 2834 2853 
Q 2591 2978 2328 3040 
Q 2066 3103 1784 3103 
Q 1356 3103 1142 2972 
Q 928 2841 928 2578 
Q 928 2378 1081 2264 
Q 1234 2150 1697 2047 
L 1894 2003 
Q 2506 1872 2764 1633 
Q 3022 1394 3022 966 
Q 3022 478 2636 193 
Q 2250 -91 1575 -91 
Q 1294 -91 989 -36 
Q 684 19 347 128 
L 347 722 
Q 666 556 975 473 
Q 1284 391 1588 391 
Q 1994 391 2212 530 
Q 2431 669 2431 922 
Q 2431 1156 2273 1281 
Q 2116 1406 1581 1522 
L 1381 1569 
Q 847 1681 609 1914 
Q 372 2147 372 2553 
Q 372 3047 722 3315 
Q 1072 3584 1716 3584 
Q 2034 3584 2315 3537 
Q 2597 3491 2834 3397 
z
" transform="scale(0.015625)"/>
       <path id="DejaVuSans-65" d="M 3597 1894 
L 3597 1613 
L 953 1613 
Q 991 1019 1311 708 
Q 1631 397 2203 397 
Q 2534 397 2845 478 
Q 3156 559 3463 722 
L 3463 178 
Q 3153 47 2828 -22 
Q 2503 -91 2169 -91 
Q 1331 -91 842 396 
Q 353 884 353 1716 
Q 353 2575 817 3079 
Q 1281 3584 2069 3584 
Q 2775 3584 3186 3129 
Q 3597 2675 3597 1894 
z
M 3022 2063 
Q 3016 2534 2758 2815 
Q 2500 3097 2075 3097 
Q 1594 3097 1305 2825 
Q 1016 2553 972 2059 
L 3022 2063 
z
" transform="scale(0.015625)"/>
       <path id="DejaVuSans-20" transform="scale(0.015625)"/>
       <path id="DejaVuSans-50" d="M 1259 4147 
L 1259 2394 
L 2053 2394 
Q 2494 2394 2734 2622 
Q 2975 2850 2975 3272 
Q 2975 3691 2734 3919 
Q 2494 4147 2053 4147 
L 1259 4147 
z
M 628 4666 
L 2053 4666 
Q 2838 4666 3239 4311 
Q 3641 3956 3641 3272 
Q 3641 2581 3239 2228 
Q 2838 1875 2053 1875 
L 1259 1875 
L 1259 0 
L 628 0 
L 628 4666 
z
" transform="scale(0.015625)"/>
       <path id="DejaVuSans-6f" d="M 1959 3097 
Q 1497 3097 1228 2736 
Q 959 2375 959 1747 
Q 959 1119 1226 758 
Q 1494 397 1959 397 
Q 2419 397 2687 759 
Q 2956 1122 2956 1747 
Q 2956 2369 2687 2733 
Q 2419 3097 1959 3097 
z
M 1959 3584 
Q 2709 3584 3137 3096 
Q 3566 2609 3566 1747 
Q 3566 888 3137 398 
Q 2709 -91 1959 -91 
Q 1206 -91 779 398 
Q 353 888 353 1747 
Q 353 2609 779 3096 
Q 1206 3584 1959 3584 
z
" transform="scale(0.015625)"/>
       <path id="DejaVuSans-69" d="M 603 3500 
L 1178 3500 
L 1178 0 
L 603 0 
L 603 3500 
z
M 603 4863 
L 1178 4863 
L 1178 4134 
L 603 4134 
L 603 4863 
z
" transform="scale(0.015625)"/>
       <path id="DejaVuSans-74" d="M 1172 4494 
L 1172 3500 
L 2356 3500 
L 2356 3053 
L 1172 3053 
L 1172 1153 
Q 1172 725 1289 603 
Q 1406 481 1766 481 
L 2356 481 
L 2356 0 
L 1766 0 
Q 1100 0 847 248 
Q 594 497 594 1153 
L 594 3053 
L 172 3053 
L 172 3500 
L 594 3500 
L 594 4494 
L 1172 4494 
z
" transform="scale(0.015625)"/>
       <path id="DejaVuSans-76" d="M 191 3500 
L 800 3500 
L 1894 563 
L 2988 3500 
L 3597 3500 
L 2284 0 
L 1503 0 
L 191 3500 
z
" transform="scale(0.015625)"/>
       <path id="DejaVuSans-52" d="M 2841 2188 
Q 3044 2119 3236 1894 
Q 3428 1669 3622 1275 
L 4263 0 
L 3584 0 
L 2988 1197 
Q 2756 1666 2539 1819 
Q 2322 1972 1947 1972 
L 1259 1972 
L 1259 0 
L 628 0 
L 628 4666 
L 2053 4666 
Q 2853 4666 3247 4331 
Q 3641 3997 3641 3322 
Q 3641 2881 3436 2590 
Q 3231 2300 2841 2188 
z
M 1259 4147 
L 1259 2491 
L 2053 2491 
Q 2509 2491 2742 2702 
Q 2975 2913 2975 3322 
Q 2975 3731 2742 3939 
Q 2509 4147 2053 4147 
L 1259 4147 
z
" transform="scale(0.015625)"/>
       <path id="DejaVuSans-28" d="M 1984 4856 
Q 1566 4138 1362 3434 
Q 1159 2731 1159 2009 
Q 1159 1288 1364 580 
Q 1569 -128 1984 -844 
L 1484 -844 
Q 1016 -109 783 600 
Q 550 1309 550 2009 
Q 550 2706 781 3412 
Q 1013 4119 1484 4856 
L 1984 4856 
z
" transform="scale(0.015625)"/>
       <path id="DejaVuSans-62" d="M 3116 1747 
Q 3116 2381 2855 2742 
Q 2594 3103 2138 3103 
Q 1681 3103 1420 2742 
Q 1159 2381 1159 1747 
Q 1159 1113 1420 752 
Q 1681 391 2138 391 
Q 2594 391 2855 752 
Q 3116 1113 3116 1747 
z
M 1159 2969 
Q 1341 3281 1617 3432 
Q 1894 3584 2278 3584 
Q 2916 3584 3314 3078 
Q 3713 2572 3713 1747 
Q 3713 922 3314 415 
Q 2916 -91 2278 -91 
Q 1894 -91 1617 61 
Q 1341 213 1159 525 
L 1159 0 
L 581 0 
L 581 4863 
L 1159 4863 
L 1159 2969 
z
" transform="scale(0.015625)"/>
       <path id="DejaVuSans-3a" d="M 750 794 
L 1409 794 
L 1409 0 
L 750 0 
L 750 794 
z
M 750 3309 
L 1409 3309 
L 1409 2516 
L 750 2516 
L 750 3309 
z
" transform="scale(0.015625)"/>
       <path id="DejaVuSans-29" d="M 513 4856 
L 1013 4856 
Q 1481 4119 1714 3412 
Q 1947 2706 1947 2009 
Q 1947 1309 1714 600 
Q 1481 -109 1013 -844 
L 513 -844 
Q 928 -128 1133 580 
Q 1338 1288 1338 2009 
Q 1338 2731 1133 3434 
Q 928 4138 513 4856 
z
" transform="scale(0.015625)"/>
      </defs>
      <use xlink:href="#DejaVuSans-46"/>
      <use xlink:href="#DejaVuSans-61" x="48.394531"/>
      <use xlink:href="#DejaVuSans-6c" x="109.673828"/>
      <use xlink:href="#DejaVuSans-73" x="137.457031"/>
      <use xlink:href="#DejaVuSans-65" x="189.556641"/>
      <use xlink:href="#DejaVuSans-20" x="251.080078"/>
      <use xlink:href="#DejaVuSans-50" x="282.867188"/>
      <use xlink:href="#DejaVuSans-6f" x="339.544922"/>
      <use xlink:href="#DejaVuSans-73" x="400.726562"/>
      <use xlink:href="#DejaVuSans-69" x="452.826172"/>
      <use xlink:href="#DejaVuSans-74" x="480.609375"/>
      <use xlink:href="#DejaVuSans-69" x="519.818359"/>
      <use xlink:href="#DejaVuSans-76" x="547.601562"/>
      <use xlink:href="#DejaVuSans-65" x="606.78125"/>
      <use xlink:href="#DejaVuSans-20" x="668.304688"/>
      <use xlink:href="#DejaVuSans-52" x="700.091797"/>
      <use xlink:href="#DejaVuSans-61" x="767.324219"/>
      <use xlink:href="#DejaVuSans-74" x="828.603516"/>
      <use xlink:href="#DejaVuSans-65" x="867.8125"/>
      <use xlink:href="#DejaVuSans-20" x="929.335938"/>
      <use xlink:href="#DejaVuSans-28" x="961.123047"/>
      <use xlink:href="#DejaVuSans-50" x="1000.136719"/>
      <use xlink:href="#DejaVuSans-6f" x="1056.814453"/>
      <use xlink:href="#DejaVuSans-73" x="1117.996094"/>
      <use xlink:href="#DejaVuSans-69" x="1170.095703"/>
      <use xlink:href="#DejaVuSans-74" x="1197.878906"/>
      <use xlink:href="#DejaVuSans-69" x="1237.087891"/>
      <use xlink:href="#DejaVuSans-76" x="1264.871094"/>
      <use xlink:href="#DejaVuSans-65" x="1324.050781"/>
      <use xlink:href="#DejaVuSans-20" x="1385.574219"/>
      <use xlink:href="#DejaVuSans-6c" x="1417.361328"/>
      <use xlink:href="#DejaVuSans-61" x="1445.144531"/>
      <use xlink:href="#DejaVuSans-62" x="1506.423828"/>
      <use xlink:href="#DejaVuSans-65" x="1569.900391"/>
      <use xlink:href="#DejaVuSans-6c" x="1631.423828"/>
      <use xlink:href="#DejaVuSans-3a" x="1659.207031"/>
      <use xlink:href="#DejaVuSans-20" x="1692.898438"/>
      <use xlink:href="#DejaVuSans-31" x="1724.685547"/>
      <use xlink:href="#DejaVuSans-29" x="1788.308594"/>
     </g>
    </g>
   </g>
   <g id="matplotlib.axis_2">
    <g id="ytick_1">
     <g id="line2d_13">
      <path d="M 126 363.174545 
L 481.090909 363.174545 
" clip-path="url(#pb0842c0ead)" style="fill: none; stroke-dasharray: 2.96,1.28; stroke-dashoffset: 0; stroke: #b0b0b0; stroke-width: 0.8"/>
     </g>
     <g id="line2d_14">
      <defs>
       <path id="m25d1da97b7" d="M 0 0 
L -3.5 0 
" style="stroke: #000000; stroke-width: 0.8"/>
      </defs>
      <g>
       <use xlink:href="#m25d1da97b7" x="126" y="363.174545" style="stroke: #000000; stroke-width: 0.8"/>
      </g>
     </g>
     <g id="text_8">
      <!-- 0.0 -->
      <g transform="translate(103.096875 366.973764) scale(0.1 -0.1)">
       <use xlink:href="#DejaVuSans-30"/>
       <use xlink:href="#DejaVuSans-2e" x="63.623047"/>
       <use xlink:href="#DejaVuSans-30" x="95.410156"/>
      </g>
     </g>
    </g>
    <g id="ytick_2">
     <g id="line2d_15">
      <path d="M 126 303.872727 
L 481.090909 303.872727 
" clip-path="url(#pb0842c0ead)" style="fill: none; stroke-dasharray: 2.96,1.28; stroke-dashoffset: 0; stroke: #b0b0b0; stroke-width: 0.8"/>
     </g>
     <g id="line2d_16">
      <g>
       <use xlink:href="#m25d1da97b7" x="126" y="303.872727" style="stroke: #000000; stroke-width: 0.8"/>
      </g>
     </g>
     <g id="text_9">
      <!-- 0.2 -->
      <g transform="translate(103.096875 307.671946) scale(0.1 -0.1)">
       <use xlink:href="#DejaVuSans-30"/>
       <use xlink:href="#DejaVuSans-2e" x="63.623047"/>
       <use xlink:href="#DejaVuSans-32" x="95.410156"/>
      </g>
     </g>
    </g>
    <g id="ytick_3">
     <g id="line2d_17">
      <path d="M 126 244.570909 
L 481.090909 244.570909 
" clip-path="url(#pb0842c0ead)" style="fill: none; stroke-dasharray: 2.96,1.28; stroke-dashoffset: 0; stroke: #b0b0b0; stroke-width: 0.8"/>
     </g>
     <g id="line2d_18">
      <g>
       <use xlink:href="#m25d1da97b7" x="126" y="244.570909" style="stroke: #000000; stroke-width: 0.8"/>
      </g>
     </g>
     <g id="text_10">
      <!-- 0.4 -->
      <g transform="translate(103.096875 248.370128) scale(0.1 -0.1)">
       <use xlink:href="#DejaVuSans-30"/>
       <use xlink:href="#DejaVuSans-2e" x="63.623047"/>
       <use xlink:href="#DejaVuSans-34" x="95.410156"/>
      </g>
     </g>
    </g>
    <g id="ytick_4">
     <g id="line2d_19">
      <path d="M 126 185.269091 
L 481.090909 185.269091 
" clip-path="url(#pb0842c0ead)" style="fill: none; stroke-dasharray: 2.96,1.28; stroke-dashoffset: 0; stroke: #b0b0b0; stroke-width: 0.8"/>
     </g>
     <g id="line2d_20">
      <g>
       <use xlink:href="#m25d1da97b7" x="126" y="185.269091" style="stroke: #000000; stroke-width: 0.8"/>
      </g>
     </g>
     <g id="text_11">
      <!-- 0.6 -->
      <g transform="translate(103.096875 189.06831) scale(0.1 -0.1)">
       <use xlink:href="#DejaVuSans-30"/>
       <use xlink:href="#DejaVuSans-2e" x="63.623047"/>
       <use xlink:href="#DejaVuSans-36" x="95.410156"/>
      </g>
     </g>
    </g>
    <g id="ytick_5">
     <g id="line2d_21">
      <path d="M 126 125.967273 
L 481.090909 125.967273 
" clip-path="url(#pb0842c0ead)" style="fill: none; stroke-dasharray: 2.96,1.28; stroke-dashoffset: 0; stroke: #b0b0b0; stroke-width: 0.8"/>
     </g>
     <g id="line2d_22">
      <g>
       <use xlink:href="#m25d1da97b7" x="126" y="125.967273" style="stroke: #000000; stroke-width: 0.8"/>
      </g>
     </g>
     <g id="text_12">
      <!-- 0.8 -->
      <g transform="translate(103.096875 129.766491) scale(0.1 -0.1)">
       <use xlink:href="#DejaVuSans-30"/>
       <use xlink:href="#DejaVuSans-2e" x="63.623047"/>
       <use xlink:href="#DejaVuSans-38" x="95.410156"/>
      </g>
     </g>
    </g>
    <g id="ytick_6">
     <g id="line2d_23">
      <path d="M 126 66.665455 
L 481.090909 66.665455 
" clip-path="url(#pb0842c0ead)" style="fill: none; stroke-dasharray: 2.96,1.28; stroke-dashoffset: 0; stroke: #b0b0b0; stroke-width: 0.8"/>
     </g>
     <g id="line2d_24">
      <g>
       <use xlink:href="#m25d1da97b7" x="126" y="66.665455" style="stroke: #000000; stroke-width: 0.8"/>
      </g>
     </g>
     <g id="text_13">
      <!-- 1.0 -->
      <g transform="translate(103.096875 70.464673) scale(0.1 -0.1)">
       <use xlink:href="#DejaVuSans-31"/>
       <use xlink:href="#DejaVuSans-2e" x="63.623047"/>
       <use xlink:href="#DejaVuSans-30" x="95.410156"/>
      </g>
     </g>
    </g>
    <g id="text_14">
     <!-- True Positive Rate (Positive label: 1) -->
     <g transform="translate(97.017187 304.348906) rotate(-90) scale(0.1 -0.1)">
      <defs>
       <path id="DejaVuSans-54" d="M -19 4666 
L 3928 4666 
L 3928 4134 
L 2272 4134 
L 2272 0 
L 1638 0 
L 1638 4134 
L -19 4134 
L -19 4666 
z
" transform="scale(0.015625)"/>
       <path id="DejaVuSans-72" d="M 2631 2963 
Q 2534 3019 2420 3045 
Q 2306 3072 2169 3072 
Q 1681 3072 1420 2755 
Q 1159 2438 1159 1844 
L 1159 0 
L 581 0 
L 581 3500 
L 1159 3500 
L 1159 2956 
Q 1341 3275 1631 3429 
Q 1922 3584 2338 3584 
Q 2397 3584 2469 3576 
Q 2541 3569 2628 3553 
L 2631 2963 
z
" transform="scale(0.015625)"/>
       <path id="DejaVuSans-75" d="M 544 1381 
L 544 3500 
L 1119 3500 
L 1119 1403 
Q 1119 906 1312 657 
Q 1506 409 1894 409 
Q 2359 409 2629 706 
Q 2900 1003 2900 1516 
L 2900 3500 
L 3475 3500 
L 3475 0 
L 2900 0 
L 2900 538 
Q 2691 219 2414 64 
Q 2138 -91 1772 -91 
Q 1169 -91 856 284 
Q 544 659 544 1381 
z
M 1991 3584 
L 1991 3584 
z
" transform="scale(0.015625)"/>
      </defs>
      <use xlink:href="#DejaVuSans-54"/>
      <use xlink:href="#DejaVuSans-72" x="46.333984"/>
      <use xlink:href="#DejaVuSans-75" x="87.447266"/>
      <use xlink:href="#DejaVuSans-65" x="150.826172"/>
      <use xlink:href="#DejaVuSans-20" x="212.349609"/>
      <use xlink:href="#DejaVuSans-50" x="244.136719"/>
      <use xlink:href="#DejaVuSans-6f" x="300.814453"/>
      <use xlink:href="#DejaVuSans-73" x="361.996094"/>
      <use xlink:href="#DejaVuSans-69" x="414.095703"/>
      <use xlink:href="#DejaVuSans-74" x="441.878906"/>
      <use xlink:href="#DejaVuSans-69" x="481.087891"/>
      <use xlink:href="#DejaVuSans-76" x="508.871094"/>
      <use xlink:href="#DejaVuSans-65" x="568.050781"/>
      <use xlink:href="#DejaVuSans-20" x="629.574219"/>
      <use xlink:href="#DejaVuSans-52" x="661.361328"/>
      <use xlink:href="#DejaVuSans-61" x="728.59375"/>
      <use xlink:href="#DejaVuSans-74" x="789.873047"/>
      <use xlink:href="#DejaVuSans-65" x="829.082031"/>
      <use xlink:href="#DejaVuSans-20" x="890.605469"/>
      <use xlink:href="#DejaVuSans-28" x="922.392578"/>
      <use xlink:href="#DejaVuSans-50" x="961.40625"/>
      <use xlink:href="#DejaVuSans-6f" x="1018.083984"/>
      <use xlink:href="#DejaVuSans-73" x="1079.265625"/>
      <use xlink:href="#DejaVuSans-69" x="1131.365234"/>
      <use xlink:href="#DejaVuSans-74" x="1159.148438"/>
      <use xlink:href="#DejaVuSans-69" x="1198.357422"/>
      <use xlink:href="#DejaVuSans-76" x="1226.140625"/>
      <use xlink:href="#DejaVuSans-65" x="1285.320312"/>
      <use xlink:href="#DejaVuSans-20" x="1346.84375"/>
      <use xlink:href="#DejaVuSans-6c" x="1378.630859"/>
      <use xlink:href="#DejaVuSans-61" x="1406.414062"/>
      <use xlink:href="#DejaVuSans-62" x="1467.693359"/>
      <use xlink:href="#DejaVuSans-65" x="1531.169922"/>
      <use xlink:href="#DejaVuSans-6c" x="1592.693359"/>
      <use xlink:href="#DejaVuSans-3a" x="1620.476562"/>
      <use xlink:href="#DejaVuSans-20" x="1654.167969"/>
      <use xlink:href="#DejaVuSans-31" x="1685.955078"/>
      <use xlink:href="#DejaVuSans-29" x="1749.578125"/>
     </g>
    </g>
   </g>
   <g id="line2d_25">
    <path d="M 142.140496 363.174545 
L 142.140496 67.148368 
L 142.661998 66.665455 
L 464.950413 66.665455 
L 464.950413 66.665455 
" clip-path="url(#pb0842c0ead)" style="fill: none; stroke: #1f77b4; stroke-width: 1.5; stroke-linecap: square"/>
   </g>
   <g id="line2d_26">
    <path d="M 142.140496 363.174545 
L 142.661998 363.174545 
L 142.661998 362.691632 
L 143.1835 362.691632 
L 143.1835 362.208718 
L 143.705003 362.208718 
L 143.705003 361.725804 
L 144.226505 361.725804 
L 144.226505 360.759976 
L 144.748007 360.759976 
L 144.748007 357.37958 
L 145.26951 357.37958 
L 145.26951 356.896666 
L 145.791012 356.896666 
L 145.791012 355.930838 
L 146.312514 355.930838 
L 146.312514 354.482097 
L 147.355519 354.482097 
L 147.355519 353.999183 
L 147.877021 353.999183 
L 147.877021 352.067527 
L 148.398523 352.067527 
L 148.398523 351.1017 
L 148.920026 351.1017 
L 149.441528 350.618786 
L 149.441528 349.652958 
L 149.96303 349.652958 
L 149.96303 349.170044 
L 150.484533 349.170044 
L 150.484533 348.204217 
L 151.006035 348.204217 
L 151.006035 342.409251 
L 151.527537 342.409251 
L 151.527537 337.580113 
L 152.049039 337.580113 
L 152.049039 337.097199 
L 152.570542 337.097199 
L 152.570542 325.990181 
L 153.092044 325.990181 
L 153.092044 312.951507 
L 153.613546 312.951507 
L 153.613546 303.776145 
L 154.135049 303.776145 
L 154.135049 299.42992 
L 154.656551 299.42992 
L 154.656551 295.083696 
L 155.178053 295.083696 
L 155.178053 294.117868 
L 155.699555 294.117868 
L 155.699555 289.28873 
L 156.221058 289.28873 
L 156.221058 284.459591 
L 156.74256 284.459591 
L 156.74256 280.113367 
L 157.264062 280.113367 
L 157.264062 279.630453 
L 157.785565 279.630453 
L 157.785565 278.664625 
L 158.307067 278.664625 
L 158.307067 268.523435 
L 159.350071 268.523435 
L 159.350071 266.108866 
L 159.871574 266.108866 
L 159.871574 262.728469 
L 160.393076 262.728469 
L 160.393076 256.933503 
L 160.914578 256.933503 
L 160.914578 255.967675 
L 161.436081 255.967675 
L 161.436081 254.03602 
L 162.479085 254.03602 
L 162.479085 246.792313 
L 163.000587 246.792313 
L 163.000587 246.309399 
L 163.52209 246.309399 
L 163.52209 241.480261 
L 164.043592 241.480261 
L 164.043592 231.821984 
L 164.565094 231.821984 
L 164.565094 231.33907 
L 165.086597 231.33907 
L 165.086597 228.441587 
L 165.608099 228.441587 
L 165.608099 226.992846 
L 166.651103 226.992846 
L 166.651103 224.578277 
L 167.172606 224.578277 
L 167.172606 222.646621 
L 167.694108 222.646621 
L 167.694108 217.334569 
L 168.737113 217.334569 
L 168.737113 216.368741 
L 169.258615 216.368741 
L 169.258615 212.505431 
L 170.30162 212.505431 
L 170.30162 204.295896 
L 170.823122 204.295896 
L 170.823122 201.881327 
L 171.344624 201.881327 
L 171.344624 200.432585 
L 171.866126 200.432585 
L 171.866126 198.018016 
L 172.387629 198.018016 
L 172.387629 196.086361 
L 172.909131 196.086361 
L 172.909131 192.705964 
L 173.430633 192.705964 
L 173.430633 183.047687 
L 173.952136 183.047687 
L 173.952136 182.564773 
L 174.473638 182.564773 
L 174.473638 176.769808 
L 175.516642 176.769808 
L 175.516642 174.838152 
L 176.038145 174.838152 
L 176.038145 173.389411 
L 177.081149 173.389411 
L 177.081149 171.940669 
L 177.602652 171.940669 
L 177.602652 170.974842 
L 179.688661 170.974842 
L 179.688661 170.491928 
L 180.210163 170.491928 
L 180.210163 170.009014 
L 180.731665 170.009014 
L 180.731665 169.5261 
L 181.253168 169.5261 
L 181.253168 167.594445 
L 181.77467 167.594445 
L 181.77467 167.111531 
L 182.296172 167.111531 
L 182.296172 166.628617 
L 182.817674 166.628617 
L 182.817674 164.696962 
L 183.339177 164.696962 
L 183.339177 162.282393 
L 183.860679 162.282393 
L 183.860679 159.867824 
L 184.903684 159.867824 
L 184.903684 159.38491 
L 185.425186 159.38491 
L 185.425186 154.555771 
L 187.511195 154.555771 
L 187.511195 153.589944 
L 188.032697 153.589944 
L 188.032697 151.658288 
L 189.597204 151.658288 
L 189.597204 151.175375 
L 190.118707 151.175375 
L 190.118707 149.243719 
L 190.640209 149.243719 
L 190.640209 145.380409 
L 191.161711 145.380409 
L 191.161711 144.897495 
L 191.683213 144.897495 
L 191.683213 144.414581 
L 192.204716 144.414581 
L 192.204716 143.448753 
L 192.726218 143.448753 
L 192.726218 140.068357 
L 193.24772 140.068357 
L 193.24772 137.170874 
L 193.769223 137.170874 
L 193.769223 136.205046 
L 194.812227 136.205046 
L 194.812227 134.273391 
L 195.333729 134.273391 
L 195.333729 133.307563 
L 196.376734 133.307563 
L 196.376734 132.341735 
L 196.898236 132.341735 
L 196.898236 131.858821 
L 198.462743 131.858821 
L 198.462743 131.375908 
L 200.02725 131.375908 
L 200.02725 130.41008 
L 200.548752 130.41008 
L 200.548752 129.444252 
L 201.591757 129.444252 
L 201.591757 128.478425 
L 203.156264 128.478425 
L 203.156264 127.512597 
L 204.199268 127.512597 
L 204.199268 126.546769 
L 204.720771 126.546769 
L 204.720771 126.063855 
L 205.242273 126.063855 
L 205.242273 125.580942 
L 206.285278 125.580942 
L 206.285278 123.166373 
L 206.80678 123.166373 
L 206.80678 122.683459 
L 207.328282 122.683459 
L 207.328282 122.200545 
L 208.371287 122.200545 
L 208.371287 121.717631 
L 209.414291 121.717631 
L 209.414291 121.234717 
L 209.935794 121.234717 
L 209.935794 120.26889 
L 210.978798 120.26889 
L 210.978798 119.785976 
L 211.5003 119.785976 
L 211.5003 119.303062 
L 212.021803 119.303062 
L 212.021803 116.888493 
L 212.543305 116.888493 
L 212.543305 116.405579 
L 214.629314 116.405579 
L 214.629314 115.922665 
L 215.150816 115.922665 
L 215.150816 114.956837 
L 218.27983 114.956837 
L 218.27983 114.473924 
L 219.322835 114.473924 
L 219.322835 113.99101 
L 219.844337 113.99101 
L 219.844337 113.025182 
L 220.365839 113.025182 
L 220.365839 112.542268 
L 220.887342 112.542268 
L 220.887342 111.576441 
L 221.408844 111.576441 
L 221.408844 110.127699 
L 224.016355 110.127699 
L 224.016355 109.644785 
L 225.05936 109.644785 
L 225.05936 109.161871 
L 225.580862 109.161871 
L 225.580862 107.230216 
L 226.623867 107.230216 
L 226.623867 106.747302 
L 227.145369 106.747302 
L 227.145369 106.264389 
L 227.666871 106.264389 
L 227.666871 105.781475 
L 228.188374 105.781475 
L 228.188374 102.883992 
L 229.231378 102.883992 
L 229.231378 102.401078 
L 229.752881 102.401078 
L 229.752881 101.918164 
L 230.795885 101.918164 
L 230.795885 101.43525 
L 231.317387 101.43525 
L 231.317387 100.469423 
L 234.967903 100.469423 
L 234.967903 99.503595 
L 236.010908 99.503595 
L 236.010908 99.020681 
L 237.053913 99.020681 
L 237.053913 98.537767 
L 238.096917 98.537767 
L 238.096917 98.054853 
L 238.618419 98.054853 
L 238.618419 97.089026 
L 239.661424 97.089026 
L 239.661424 96.606112 
L 240.704429 96.606112 
L 240.704429 96.123198 
L 243.31194 96.123198 
L 243.31194 94.674457 
L 244.876447 94.674457 
L 244.876447 94.191543 
L 245.397949 94.191543 
L 245.397949 93.708629 
L 248.526963 93.708629 
L 248.526963 93.225715 
L 249.048465 93.225715 
L 249.048465 91.776974 
L 250.612972 91.776974 
L 250.612972 90.328232 
L 252.698981 90.328232 
L 252.698981 89.845318 
L 253.220484 89.845318 
L 253.220484 88.396577 
L 253.741986 88.396577 
L 253.741986 87.913663 
L 256.349497 87.913663 
L 256.349497 87.430749 
L 257.914004 87.430749 
L 257.914004 86.464922 
L 262.086023 86.464922 
L 262.086023 85.982008 
L 264.172032 85.982008 
L 264.172032 85.499094 
L 264.693534 85.499094 
L 264.693534 85.01618 
L 267.822548 85.01618 
L 267.822548 84.050352 
L 274.602077 84.050352 
L 274.602077 82.601611 
L 278.252593 82.601611 
L 278.252593 81.635783 
L 279.8171 81.635783 
L 279.8171 80.669956 
L 280.860105 80.669956 
L 280.860105 79.704128 
L 281.381607 79.704128 
L 281.381607 79.221214 
L 284.510621 79.221214 
L 284.510621 78.7383 
L 287.639635 78.7383 
L 287.639635 78.255386 
L 289.725644 78.255386 
L 289.725644 77.289559 
L 291.290151 77.289559 
L 291.290151 76.806645 
L 293.897662 76.806645 
L 293.897662 76.323731 
L 294.419164 76.323731 
L 294.419164 75.840817 
L 294.940667 75.840817 
L 294.940667 75.357903 
L 299.634187 75.357903 
L 299.634187 74.87499 
L 300.15569 74.87499 
L 300.15569 74.392076 
L 301.198694 74.392076 
L 301.198694 73.909162 
L 306.935219 73.909162 
L 306.935219 73.426248 
L 311.107238 73.426248 
L 311.107238 72.943334 
L 317.365265 72.943334 
L 317.365265 72.46042 
L 319.451274 72.46042 
L 319.451274 71.977507 
L 325.1878 71.977507 
L 325.1878 71.494593 
L 326.752306 71.494593 
L 326.752306 71.011679 
L 327.273809 71.011679 
L 327.273809 70.528765 
L 335.617845 70.528765 
L 335.617845 70.045851 
L 355.434932 70.045851 
L 355.434932 69.562938 
L 355.956435 69.562938 
L 355.956435 69.080024 
L 383.074554 69.080024 
L 383.074554 68.59711 
L 384.117558 68.59711 
L 384.117558 68.114196 
L 386.203567 68.114196 
L 386.203567 67.631282 
L 434.181778 67.631282 
L 434.181778 67.148368 
L 443.047317 67.148368 
L 443.047317 66.665455 
L 464.950413 66.665455 
L 464.950413 66.665455 
" clip-path="url(#pb0842c0ead)" style="fill: none; stroke: #ff7f0e; stroke-width: 1.5; stroke-linecap: square"/>
   </g>
   <g id="line2d_27">
    <path d="M 142.140496 363.174545 
L 142.140496 353.033355 
L 142.661998 353.033355 
L 142.661998 331.785147 
L 143.1835 331.785147 
L 143.1835 328.887664 
L 143.705003 328.887664 
L 143.705003 322.609784 
L 144.226505 322.609784 
L 144.226505 282.527936 
L 144.748007 282.527936 
L 144.748007 279.630453 
L 145.26951 279.630453 
L 145.26951 271.420918 
L 145.791012 271.420918 
L 145.791012 270.45509 
L 146.312514 270.45509 
L 146.312514 259.830986 
L 146.834016 259.830986 
L 146.834016 259.348072 
L 147.355519 259.348072 
L 147.355519 258.865158 
L 147.877021 258.865158 
L 147.877021 250.17271 
L 148.398523 250.17271 
L 148.398523 206.227551 
L 148.920026 205.744637 
L 148.920026 203.330068 
L 149.441528 203.330068 
L 149.441528 200.915499 
L 149.96303 200.915499 
L 149.96303 189.808481 
L 150.484533 189.808481 
L 150.484533 186.428084 
L 151.006035 186.428084 
L 151.006035 184.496429 
L 151.527537 184.496429 
L 151.527537 170.491928 
L 152.049039 170.491928 
L 152.049039 170.009014 
L 152.570542 170.009014 
L 152.570542 168.560272 
L 153.092044 168.560272 
L 153.092044 165.179876 
L 153.613546 165.179876 
L 153.613546 159.867824 
L 154.135049 159.867824 
L 154.135049 156.487427 
L 154.656551 156.487427 
L 154.656551 154.072858 
L 155.178053 154.072858 
L 155.178053 148.760805 
L 155.699555 148.760805 
L 155.699555 147.794978 
L 156.221058 147.794978 
L 156.221058 145.863322 
L 156.74256 145.863322 
L 156.74256 141.517098 
L 157.264062 141.517098 
L 157.264062 139.585443 
L 158.307067 139.585443 
L 158.307067 136.68796 
L 158.828569 136.68796 
L 158.828569 135.239218 
L 159.350071 135.239218 
L 159.350071 133.790477 
L 159.871574 133.790477 
L 159.871574 130.41008 
L 160.393076 130.41008 
L 160.393076 129.444252 
L 160.914578 129.444252 
L 160.914578 121.717631 
L 161.436081 121.717631 
L 161.436081 114.473924 
L 162.479085 114.473924 
L 162.479085 113.508096 
L 163.000587 113.508096 
L 163.000587 113.025182 
L 163.52209 113.025182 
L 163.52209 112.542268 
L 164.043592 112.542268 
L 164.043592 111.576441 
L 164.565094 111.576441 
L 164.565094 110.610613 
L 165.086597 110.610613 
L 165.086597 107.71313 
L 165.608099 107.71313 
L 165.608099 106.747302 
L 166.129601 106.747302 
L 166.129601 102.883992 
L 166.651103 102.883992 
L 166.651103 101.43525 
L 167.694108 101.43525 
L 167.694108 99.503595 
L 168.21561 99.503595 
L 168.21561 99.020681 
L 169.258615 99.020681 
L 169.258615 98.537767 
L 169.780117 98.537767 
L 169.780117 98.054853 
L 170.30162 98.054853 
L 170.30162 97.57194 
L 171.344624 97.57194 
L 171.344624 96.606112 
L 171.866126 96.606112 
L 171.866126 95.15737 
L 172.387629 95.15737 
L 172.387629 92.742801 
L 172.909131 92.742801 
L 172.909131 89.845318 
L 173.430633 89.845318 
L 173.430633 88.396577 
L 175.516642 88.396577 
L 175.516642 87.913663 
L 179.167158 87.913663 
L 179.167158 87.430749 
L 179.688661 87.430749 
L 179.688661 86.464922 
L 181.253168 86.464922 
L 181.253168 85.982008 
L 182.817674 85.982008 
L 182.817674 85.01618 
L 183.339177 85.01618 
L 183.339177 84.050352 
L 184.903684 84.050352 
L 184.903684 83.567439 
L 185.425186 83.567439 
L 190.640209 82.118697 
L 192.204716 82.118697 
L 192.204716 81.635783 
L 192.726218 81.635783 
L 192.726218 81.152869 
L 195.333729 81.152869 
L 195.333729 79.704128 
L 195.855232 79.704128 
L 195.855232 79.221214 
L 196.898236 79.221214 
L 196.898236 78.7383 
L 198.984245 78.7383 
L 198.984245 77.772473 
L 199.505748 77.772473 
L 199.505748 77.289559 
L 203.156264 77.289559 
L 203.156264 76.323731 
L 204.199268 76.323731 
L 204.199268 75.840817 
L 205.763775 75.840817 
L 205.763775 75.357903 
L 207.328282 75.357903 
L 207.328282 74.87499 
L 208.371287 74.87499 
L 208.371287 73.909162 
L 209.414291 73.909162 
L 209.414291 73.426248 
L 210.978798 73.426248 
L 210.978798 72.943334 
L 212.021803 72.943334 
L 212.021803 72.46042 
L 215.672319 72.46042 
L 215.672319 71.977507 
L 217.236826 71.977507 
L 217.236826 71.494593 
L 219.322835 71.494593 
L 219.322835 71.011679 
L 221.930346 71.011679 
L 221.930346 70.045851 
L 224.537858 70.045851 
L 224.537858 69.562938 
L 238.618419 69.562938 
L 238.618419 69.080024 
L 276.688087 69.080024 
L 276.688087 68.59711 
L 277.731091 68.59711 
L 277.731091 68.114196 
L 330.924325 68.114196 
L 330.924325 67.631282 
L 361.171458 67.631282 
L 361.171458 67.148368 
L 411.75718 67.148368 
L 411.75718 66.665455 
L 464.950413 66.665455 
L 464.950413 66.665455 
" clip-path="url(#pb0842c0ead)" style="fill: none; stroke: #2ca02c; stroke-width: 1.5; stroke-linecap: square"/>
   </g>
   <g id="line2d_28">
    <path d="M 142.140496 363.174545 
L 142.140496 362.691632 
L 142.140496 326.956008 
L 142.140496 325.990181 
L 142.140496 318.263559 
L 142.140496 316.814818 
L 142.140496 298.464092 
L 142.140496 297.498265 
L 142.140496 297.015351 
L 142.140496 296.049523 
L 142.140496 285.425419 
L 142.140496 284.459591 
L 142.140496 283.01085 
L 142.140496 282.045022 
L 142.140496 254.518934 
L 142.140496 253.553106 
L 142.140496 244.377744 
L 142.140496 243.411916 
L 142.140496 233.753639 
L 142.140496 232.787812 
L 142.140496 219.749138 
L 142.140496 217.817483 
L 142.140496 208.64212 
L 142.140496 207.676293 
L 142.140496 167.594445 
L 142.140496 166.628617 
L 142.140496 158.901996 
L 142.140496 157.936168 
L 142.140496 152.624116 
L 142.140496 151.658288 
L 142.140496 94.191543 
L 142.140496 93.225715 
L 142.140496 75.840817 
L 142.140496 74.392076 
L 142.140496 67.148368 
L 142.661998 66.665455 
L 366.907983 66.665455 
L 367.950987 66.665455 
L 464.950413 66.665455 
" clip-path="url(#pb0842c0ead)" style="fill: none; stroke: #d62728; stroke-width: 1.5; stroke-linecap: square"/>
   </g>
   <g id="patch_3">
    <path d="M 126 378 
L 126 51.84 
" style="fill: none; stroke: #000000; stroke-width: 0.8; stroke-linejoin: miter; stroke-linecap: square"/>
   </g>
   <g id="patch_4">
    <path d="M 481.090909 378 
L 481.090909 51.84 
" style="fill: none; stroke: #000000; stroke-width: 0.8; stroke-linejoin: miter; stroke-linecap: square"/>
   </g>
   <g id="patch_5">
    <path d="M 126 378 
L 481.090909 378 
" style="fill: none; stroke: #000000; stroke-width: 0.8; stroke-linejoin: miter; stroke-linecap: square"/>
   </g>
   <g id="patch_6">
    <path d="M 126 51.84 
L 481.090909 51.84 
" style="fill: none; stroke: #000000; stroke-width: 0.8; stroke-linejoin: miter; stroke-linecap: square"/>
   </g>
   <g id="text_15">
    <!-- Curvas ROC en el entrenamiento  -->
    <g transform="translate(202.885142 45.84) scale(0.12 -0.12)">
     <defs>
      <path id="DejaVuSans-43" d="M 4122 4306 
L 4122 3641 
Q 3803 3938 3442 4084 
Q 3081 4231 2675 4231 
Q 1875 4231 1450 3742 
Q 1025 3253 1025 2328 
Q 1025 1406 1450 917 
Q 1875 428 2675 428 
Q 3081 428 3442 575 
Q 3803 722 4122 1019 
L 4122 359 
Q 3791 134 3420 21 
Q 3050 -91 2638 -91 
Q 1578 -91 968 557 
Q 359 1206 359 2328 
Q 359 3453 968 4101 
Q 1578 4750 2638 4750 
Q 3056 4750 3426 4639 
Q 3797 4528 4122 4306 
z
" transform="scale(0.015625)"/>
      <path id="DejaVuSans-4f" d="M 2522 4238 
Q 1834 4238 1429 3725 
Q 1025 3213 1025 2328 
Q 1025 1447 1429 934 
Q 1834 422 2522 422 
Q 3209 422 3611 934 
Q 4013 1447 4013 2328 
Q 4013 3213 3611 3725 
Q 3209 4238 2522 4238 
z
M 2522 4750 
Q 3503 4750 4090 4092 
Q 4678 3434 4678 2328 
Q 4678 1225 4090 567 
Q 3503 -91 2522 -91 
Q 1538 -91 948 565 
Q 359 1222 359 2328 
Q 359 3434 948 4092 
Q 1538 4750 2522 4750 
z
" transform="scale(0.015625)"/>
      <path id="DejaVuSans-6e" d="M 3513 2113 
L 3513 0 
L 2938 0 
L 2938 2094 
Q 2938 2591 2744 2837 
Q 2550 3084 2163 3084 
Q 1697 3084 1428 2787 
Q 1159 2491 1159 1978 
L 1159 0 
L 581 0 
L 581 3500 
L 1159 3500 
L 1159 2956 
Q 1366 3272 1645 3428 
Q 1925 3584 2291 3584 
Q 2894 3584 3203 3211 
Q 3513 2838 3513 2113 
z
" transform="scale(0.015625)"/>
      <path id="DejaVuSans-6d" d="M 3328 2828 
Q 3544 3216 3844 3400 
Q 4144 3584 4550 3584 
Q 5097 3584 5394 3201 
Q 5691 2819 5691 2113 
L 5691 0 
L 5113 0 
L 5113 2094 
Q 5113 2597 4934 2840 
Q 4756 3084 4391 3084 
Q 3944 3084 3684 2787 
Q 3425 2491 3425 1978 
L 3425 0 
L 2847 0 
L 2847 2094 
Q 2847 2600 2669 2842 
Q 2491 3084 2119 3084 
Q 1678 3084 1418 2786 
Q 1159 2488 1159 1978 
L 1159 0 
L 581 0 
L 581 3500 
L 1159 3500 
L 1159 2956 
Q 1356 3278 1631 3431 
Q 1906 3584 2284 3584 
Q 2666 3584 2933 3390 
Q 3200 3197 3328 2828 
z
" transform="scale(0.015625)"/>
     </defs>
     <use xlink:href="#DejaVuSans-43"/>
     <use xlink:href="#DejaVuSans-75" x="69.824219"/>
     <use xlink:href="#DejaVuSans-72" x="133.203125"/>
     <use xlink:href="#DejaVuSans-76" x="174.316406"/>
     <use xlink:href="#DejaVuSans-61" x="233.496094"/>
     <use xlink:href="#DejaVuSans-73" x="294.775391"/>
     <use xlink:href="#DejaVuSans-20" x="346.875"/>
     <use xlink:href="#DejaVuSans-52" x="378.662109"/>
     <use xlink:href="#DejaVuSans-4f" x="448.144531"/>
     <use xlink:href="#DejaVuSans-43" x="526.855469"/>
     <use xlink:href="#DejaVuSans-20" x="596.679688"/>
     <use xlink:href="#DejaVuSans-65" x="628.466797"/>
     <use xlink:href="#DejaVuSans-6e" x="689.990234"/>
     <use xlink:href="#DejaVuSans-20" x="753.369141"/>
     <use xlink:href="#DejaVuSans-65" x="785.15625"/>
     <use xlink:href="#DejaVuSans-6c" x="846.679688"/>
     <use xlink:href="#DejaVuSans-20" x="874.462891"/>
     <use xlink:href="#DejaVuSans-65" x="906.25"/>
     <use xlink:href="#DejaVuSans-6e" x="967.773438"/>
     <use xlink:href="#DejaVuSans-74" x="1031.152344"/>
     <use xlink:href="#DejaVuSans-72" x="1070.361328"/>
     <use xlink:href="#DejaVuSans-65" x="1109.224609"/>
     <use xlink:href="#DejaVuSans-6e" x="1170.748047"/>
     <use xlink:href="#DejaVuSans-61" x="1234.126953"/>
     <use xlink:href="#DejaVuSans-6d" x="1295.40625"/>
     <use xlink:href="#DejaVuSans-69" x="1392.818359"/>
     <use xlink:href="#DejaVuSans-65" x="1420.601562"/>
     <use xlink:href="#DejaVuSans-6e" x="1482.125"/>
     <use xlink:href="#DejaVuSans-74" x="1545.503906"/>
     <use xlink:href="#DejaVuSans-6f" x="1584.712891"/>
     <use xlink:href="#DejaVuSans-20" x="1645.894531"/>
    </g>
   </g>
   <g id="legend_1">
    <g id="patch_7">
     <path d="M 240.100284 373 
L 474.090909 373 
Q 476.090909 373 476.090909 371 
L 476.090909 313.2875 
Q 476.090909 311.2875 474.090909 311.2875 
L 240.100284 311.2875 
Q 238.100284 311.2875 238.100284 313.2875 
L 238.100284 371 
Q 238.100284 373 240.100284 373 
z
" style="fill: #ffffff; opacity: 0.8; stroke: #cccccc; stroke-linejoin: miter"/>
    </g>
    <g id="line2d_29">
     <path d="M 242.100284 319.385938 
L 252.100284 319.385938 
L 262.100284 319.385938 
" style="fill: none; stroke: #1f77b4; stroke-width: 1.5; stroke-linecap: square"/>
    </g>
    <g id="text_16">
     <!-- RandomForestClassifier (AUC = 1.00) -->
     <g transform="translate(270.100284 322.885938) scale(0.1 -0.1)">
      <defs>
       <path id="DejaVuSans-64" d="M 2906 2969 
L 2906 4863 
L 3481 4863 
L 3481 0 
L 2906 0 
L 2906 525 
Q 2725 213 2448 61 
Q 2172 -91 1784 -91 
Q 1150 -91 751 415 
Q 353 922 353 1747 
Q 353 2572 751 3078 
Q 1150 3584 1784 3584 
Q 2172 3584 2448 3432 
Q 2725 3281 2906 2969 
z
M 947 1747 
Q 947 1113 1208 752 
Q 1469 391 1925 391 
Q 2381 391 2643 752 
Q 2906 1113 2906 1747 
Q 2906 2381 2643 2742 
Q 2381 3103 1925 3103 
Q 1469 3103 1208 2742 
Q 947 2381 947 1747 
z
" transform="scale(0.015625)"/>
       <path id="DejaVuSans-66" d="M 2375 4863 
L 2375 4384 
L 1825 4384 
Q 1516 4384 1395 4259 
Q 1275 4134 1275 3809 
L 1275 3500 
L 2222 3500 
L 2222 3053 
L 1275 3053 
L 1275 0 
L 697 0 
L 697 3053 
L 147 3053 
L 147 3500 
L 697 3500 
L 697 3744 
Q 697 4328 969 4595 
Q 1241 4863 1831 4863 
L 2375 4863 
z
" transform="scale(0.015625)"/>
       <path id="DejaVuSans-41" d="M 2188 4044 
L 1331 1722 
L 3047 1722 
L 2188 4044 
z
M 1831 4666 
L 2547 4666 
L 4325 0 
L 3669 0 
L 3244 1197 
L 1141 1197 
L 716 0 
L 50 0 
L 1831 4666 
z
" transform="scale(0.015625)"/>
       <path id="DejaVuSans-55" d="M 556 4666 
L 1191 4666 
L 1191 1831 
Q 1191 1081 1462 751 
Q 1734 422 2344 422 
Q 2950 422 3222 751 
Q 3494 1081 3494 1831 
L 3494 4666 
L 4128 4666 
L 4128 1753 
Q 4128 841 3676 375 
Q 3225 -91 2344 -91 
Q 1459 -91 1007 375 
Q 556 841 556 1753 
L 556 4666 
z
" transform="scale(0.015625)"/>
       <path id="DejaVuSans-3d" d="M 678 2906 
L 4684 2906 
L 4684 2381 
L 678 2381 
L 678 2906 
z
M 678 1631 
L 4684 1631 
L 4684 1100 
L 678 1100 
L 678 1631 
z
" transform="scale(0.015625)"/>
      </defs>
      <use xlink:href="#DejaVuSans-52"/>
      <use xlink:href="#DejaVuSans-61" x="67.232422"/>
      <use xlink:href="#DejaVuSans-6e" x="128.511719"/>
      <use xlink:href="#DejaVuSans-64" x="191.890625"/>
      <use xlink:href="#DejaVuSans-6f" x="255.367188"/>
      <use xlink:href="#DejaVuSans-6d" x="316.548828"/>
      <use xlink:href="#DejaVuSans-46" x="413.960938"/>
      <use xlink:href="#DejaVuSans-6f" x="467.855469"/>
      <use xlink:href="#DejaVuSans-72" x="529.037109"/>
      <use xlink:href="#DejaVuSans-65" x="567.900391"/>
      <use xlink:href="#DejaVuSans-73" x="629.423828"/>
      <use xlink:href="#DejaVuSans-74" x="681.523438"/>
      <use xlink:href="#DejaVuSans-43" x="720.732422"/>
      <use xlink:href="#DejaVuSans-6c" x="790.556641"/>
      <use xlink:href="#DejaVuSans-61" x="818.339844"/>
      <use xlink:href="#DejaVuSans-73" x="879.619141"/>
      <use xlink:href="#DejaVuSans-73" x="931.71875"/>
      <use xlink:href="#DejaVuSans-69" x="983.818359"/>
      <use xlink:href="#DejaVuSans-66" x="1011.601562"/>
      <use xlink:href="#DejaVuSans-69" x="1046.806641"/>
      <use xlink:href="#DejaVuSans-65" x="1074.589844"/>
      <use xlink:href="#DejaVuSans-72" x="1136.113281"/>
      <use xlink:href="#DejaVuSans-20" x="1177.226562"/>
      <use xlink:href="#DejaVuSans-28" x="1209.013672"/>
      <use xlink:href="#DejaVuSans-41" x="1248.027344"/>
      <use xlink:href="#DejaVuSans-55" x="1316.435547"/>
      <use xlink:href="#DejaVuSans-43" x="1389.628906"/>
      <use xlink:href="#DejaVuSans-20" x="1459.453125"/>
      <use xlink:href="#DejaVuSans-3d" x="1491.240234"/>
      <use xlink:href="#DejaVuSans-20" x="1575.029297"/>
      <use xlink:href="#DejaVuSans-31" x="1606.816406"/>
      <use xlink:href="#DejaVuSans-2e" x="1670.439453"/>
      <use xlink:href="#DejaVuSans-30" x="1702.226562"/>
      <use xlink:href="#DejaVuSans-30" x="1765.849609"/>
      <use xlink:href="#DejaVuSans-29" x="1829.472656"/>
     </g>
    </g>
    <g id="line2d_30">
     <path d="M 242.100284 334.064062 
L 252.100284 334.064062 
L 262.100284 334.064062 
" style="fill: none; stroke: #ff7f0e; stroke-width: 1.5; stroke-linecap: square"/>
    </g>
    <g id="text_17">
     <!-- LogisticRegression (AUC = 0.87) -->
     <g transform="translate(270.100284 337.564062) scale(0.1 -0.1)">
      <defs>
       <path id="DejaVuSans-4c" d="M 628 4666 
L 1259 4666 
L 1259 531 
L 3531 531 
L 3531 0 
L 628 0 
L 628 4666 
z
" transform="scale(0.015625)"/>
       <path id="DejaVuSans-67" d="M 2906 1791 
Q 2906 2416 2648 2759 
Q 2391 3103 1925 3103 
Q 1463 3103 1205 2759 
Q 947 2416 947 1791 
Q 947 1169 1205 825 
Q 1463 481 1925 481 
Q 2391 481 2648 825 
Q 2906 1169 2906 1791 
z
M 3481 434 
Q 3481 -459 3084 -895 
Q 2688 -1331 1869 -1331 
Q 1566 -1331 1297 -1286 
Q 1028 -1241 775 -1147 
L 775 -588 
Q 1028 -725 1275 -790 
Q 1522 -856 1778 -856 
Q 2344 -856 2625 -561 
Q 2906 -266 2906 331 
L 2906 616 
Q 2728 306 2450 153 
Q 2172 0 1784 0 
Q 1141 0 747 490 
Q 353 981 353 1791 
Q 353 2603 747 3093 
Q 1141 3584 1784 3584 
Q 2172 3584 2450 3431 
Q 2728 3278 2906 2969 
L 2906 3500 
L 3481 3500 
L 3481 434 
z
" transform="scale(0.015625)"/>
       <path id="DejaVuSans-63" d="M 3122 3366 
L 3122 2828 
Q 2878 2963 2633 3030 
Q 2388 3097 2138 3097 
Q 1578 3097 1268 2742 
Q 959 2388 959 1747 
Q 959 1106 1268 751 
Q 1578 397 2138 397 
Q 2388 397 2633 464 
Q 2878 531 3122 666 
L 3122 134 
Q 2881 22 2623 -34 
Q 2366 -91 2075 -91 
Q 1284 -91 818 406 
Q 353 903 353 1747 
Q 353 2603 823 3093 
Q 1294 3584 2113 3584 
Q 2378 3584 2631 3529 
Q 2884 3475 3122 3366 
z
" transform="scale(0.015625)"/>
       <path id="DejaVuSans-37" d="M 525 4666 
L 3525 4666 
L 3525 4397 
L 1831 0 
L 1172 0 
L 2766 4134 
L 525 4134 
L 525 4666 
z
" transform="scale(0.015625)"/>
      </defs>
      <use xlink:href="#DejaVuSans-4c"/>
      <use xlink:href="#DejaVuSans-6f" x="53.962891"/>
      <use xlink:href="#DejaVuSans-67" x="115.144531"/>
      <use xlink:href="#DejaVuSans-69" x="178.621094"/>
      <use xlink:href="#DejaVuSans-73" x="206.404297"/>
      <use xlink:href="#DejaVuSans-74" x="258.503906"/>
      <use xlink:href="#DejaVuSans-69" x="297.712891"/>
      <use xlink:href="#DejaVuSans-63" x="325.496094"/>
      <use xlink:href="#DejaVuSans-52" x="380.476562"/>
      <use xlink:href="#DejaVuSans-65" x="445.458984"/>
      <use xlink:href="#DejaVuSans-67" x="506.982422"/>
      <use xlink:href="#DejaVuSans-72" x="570.458984"/>
      <use xlink:href="#DejaVuSans-65" x="609.322266"/>
      <use xlink:href="#DejaVuSans-73" x="670.845703"/>
      <use xlink:href="#DejaVuSans-73" x="722.945312"/>
      <use xlink:href="#DejaVuSans-69" x="775.044922"/>
      <use xlink:href="#DejaVuSans-6f" x="802.828125"/>
      <use xlink:href="#DejaVuSans-6e" x="864.009766"/>
      <use xlink:href="#DejaVuSans-20" x="927.388672"/>
      <use xlink:href="#DejaVuSans-28" x="959.175781"/>
      <use xlink:href="#DejaVuSans-41" x="998.189453"/>
      <use xlink:href="#DejaVuSans-55" x="1066.597656"/>
      <use xlink:href="#DejaVuSans-43" x="1139.791016"/>
      <use xlink:href="#DejaVuSans-20" x="1209.615234"/>
      <use xlink:href="#DejaVuSans-3d" x="1241.402344"/>
      <use xlink:href="#DejaVuSans-20" x="1325.191406"/>
      <use xlink:href="#DejaVuSans-30" x="1356.978516"/>
      <use xlink:href="#DejaVuSans-2e" x="1420.601562"/>
      <use xlink:href="#DejaVuSans-38" x="1452.388672"/>
      <use xlink:href="#DejaVuSans-37" x="1516.011719"/>
      <use xlink:href="#DejaVuSans-29" x="1579.634766"/>
     </g>
    </g>
    <g id="line2d_31">
     <path d="M 242.100284 348.742188 
L 252.100284 348.742188 
L 262.100284 348.742188 
" style="fill: none; stroke: #2ca02c; stroke-width: 1.5; stroke-linecap: square"/>
    </g>
    <g id="text_18">
     <!-- SVC (AUC = 0.96) -->
     <g transform="translate(270.100284 352.242188) scale(0.1 -0.1)">
      <defs>
       <path id="DejaVuSans-53" d="M 3425 4513 
L 3425 3897 
Q 3066 4069 2747 4153 
Q 2428 4238 2131 4238 
Q 1616 4238 1336 4038 
Q 1056 3838 1056 3469 
Q 1056 3159 1242 3001 
Q 1428 2844 1947 2747 
L 2328 2669 
Q 3034 2534 3370 2195 
Q 3706 1856 3706 1288 
Q 3706 609 3251 259 
Q 2797 -91 1919 -91 
Q 1588 -91 1214 -16 
Q 841 59 441 206 
L 441 856 
Q 825 641 1194 531 
Q 1563 422 1919 422 
Q 2459 422 2753 634 
Q 3047 847 3047 1241 
Q 3047 1584 2836 1778 
Q 2625 1972 2144 2069 
L 1759 2144 
Q 1053 2284 737 2584 
Q 422 2884 422 3419 
Q 422 4038 858 4394 
Q 1294 4750 2059 4750 
Q 2388 4750 2728 4690 
Q 3069 4631 3425 4513 
z
" transform="scale(0.015625)"/>
       <path id="DejaVuSans-56" d="M 1831 0 
L 50 4666 
L 709 4666 
L 2188 738 
L 3669 4666 
L 4325 4666 
L 2547 0 
L 1831 0 
z
" transform="scale(0.015625)"/>
       <path id="DejaVuSans-39" d="M 703 97 
L 703 672 
Q 941 559 1184 500 
Q 1428 441 1663 441 
Q 2288 441 2617 861 
Q 2947 1281 2994 2138 
Q 2813 1869 2534 1725 
Q 2256 1581 1919 1581 
Q 1219 1581 811 2004 
Q 403 2428 403 3163 
Q 403 3881 828 4315 
Q 1253 4750 1959 4750 
Q 2769 4750 3195 4129 
Q 3622 3509 3622 2328 
Q 3622 1225 3098 567 
Q 2575 -91 1691 -91 
Q 1453 -91 1209 -44 
Q 966 3 703 97 
z
M 1959 2075 
Q 2384 2075 2632 2365 
Q 2881 2656 2881 3163 
Q 2881 3666 2632 3958 
Q 2384 4250 1959 4250 
Q 1534 4250 1286 3958 
Q 1038 3666 1038 3163 
Q 1038 2656 1286 2365 
Q 1534 2075 1959 2075 
z
" transform="scale(0.015625)"/>
      </defs>
      <use xlink:href="#DejaVuSans-53"/>
      <use xlink:href="#DejaVuSans-56" x="63.476562"/>
      <use xlink:href="#DejaVuSans-43" x="131.884766"/>
      <use xlink:href="#DejaVuSans-20" x="201.708984"/>
      <use xlink:href="#DejaVuSans-28" x="233.496094"/>
      <use xlink:href="#DejaVuSans-41" x="272.509766"/>
      <use xlink:href="#DejaVuSans-55" x="340.917969"/>
      <use xlink:href="#DejaVuSans-43" x="414.111328"/>
      <use xlink:href="#DejaVuSans-20" x="483.935547"/>
      <use xlink:href="#DejaVuSans-3d" x="515.722656"/>
      <use xlink:href="#DejaVuSans-20" x="599.511719"/>
      <use xlink:href="#DejaVuSans-30" x="631.298828"/>
      <use xlink:href="#DejaVuSans-2e" x="694.921875"/>
      <use xlink:href="#DejaVuSans-39" x="726.708984"/>
      <use xlink:href="#DejaVuSans-36" x="790.332031"/>
      <use xlink:href="#DejaVuSans-29" x="853.955078"/>
     </g>
    </g>
    <g id="line2d_32">
     <path d="M 242.100284 363.420313 
L 252.100284 363.420313 
L 262.100284 363.420313 
" style="fill: none; stroke: #d62728; stroke-width: 1.5; stroke-linecap: square"/>
    </g>
    <g id="text_19">
     <!-- GradientBoostingClassifier (AUC = 1.00) -->
     <g transform="translate(270.100284 366.920313) scale(0.1 -0.1)">
      <defs>
       <path id="DejaVuSans-47" d="M 3809 666 
L 3809 1919 
L 2778 1919 
L 2778 2438 
L 4434 2438 
L 4434 434 
Q 4069 175 3628 42 
Q 3188 -91 2688 -91 
Q 1594 -91 976 548 
Q 359 1188 359 2328 
Q 359 3472 976 4111 
Q 1594 4750 2688 4750 
Q 3144 4750 3555 4637 
Q 3966 4525 4313 4306 
L 4313 3634 
Q 3963 3931 3569 4081 
Q 3175 4231 2741 4231 
Q 1884 4231 1454 3753 
Q 1025 3275 1025 2328 
Q 1025 1384 1454 906 
Q 1884 428 2741 428 
Q 3075 428 3337 486 
Q 3600 544 3809 666 
z
" transform="scale(0.015625)"/>
       <path id="DejaVuSans-42" d="M 1259 2228 
L 1259 519 
L 2272 519 
Q 2781 519 3026 730 
Q 3272 941 3272 1375 
Q 3272 1813 3026 2020 
Q 2781 2228 2272 2228 
L 1259 2228 
z
M 1259 4147 
L 1259 2741 
L 2194 2741 
Q 2656 2741 2882 2914 
Q 3109 3088 3109 3444 
Q 3109 3797 2882 3972 
Q 2656 4147 2194 4147 
L 1259 4147 
z
M 628 4666 
L 2241 4666 
Q 2963 4666 3353 4366 
Q 3744 4066 3744 3513 
Q 3744 3084 3544 2831 
Q 3344 2578 2956 2516 
Q 3422 2416 3680 2098 
Q 3938 1781 3938 1306 
Q 3938 681 3513 340 
Q 3088 0 2303 0 
L 628 0 
L 628 4666 
z
" transform="scale(0.015625)"/>
      </defs>
      <use xlink:href="#DejaVuSans-47"/>
      <use xlink:href="#DejaVuSans-72" x="77.490234"/>
      <use xlink:href="#DejaVuSans-61" x="118.603516"/>
      <use xlink:href="#DejaVuSans-64" x="179.882812"/>
      <use xlink:href="#DejaVuSans-69" x="243.359375"/>
      <use xlink:href="#DejaVuSans-65" x="271.142578"/>
      <use xlink:href="#DejaVuSans-6e" x="332.666016"/>
      <use xlink:href="#DejaVuSans-74" x="396.044922"/>
      <use xlink:href="#DejaVuSans-42" x="435.253906"/>
      <use xlink:href="#DejaVuSans-6f" x="503.857422"/>
      <use xlink:href="#DejaVuSans-6f" x="565.039062"/>
      <use xlink:href="#DejaVuSans-73" x="626.220703"/>
      <use xlink:href="#DejaVuSans-74" x="678.320312"/>
      <use xlink:href="#DejaVuSans-69" x="717.529297"/>
      <use xlink:href="#DejaVuSans-6e" x="745.3125"/>
      <use xlink:href="#DejaVuSans-67" x="808.691406"/>
      <use xlink:href="#DejaVuSans-43" x="872.167969"/>
      <use xlink:href="#DejaVuSans-6c" x="941.992188"/>
      <use xlink:href="#DejaVuSans-61" x="969.775391"/>
      <use xlink:href="#DejaVuSans-73" x="1031.054688"/>
      <use xlink:href="#DejaVuSans-73" x="1083.154297"/>
      <use xlink:href="#DejaVuSans-69" x="1135.253906"/>
      <use xlink:href="#DejaVuSans-66" x="1163.037109"/>
      <use xlink:href="#DejaVuSans-69" x="1198.242188"/>
      <use xlink:href="#DejaVuSans-65" x="1226.025391"/>
      <use xlink:href="#DejaVuSans-72" x="1287.548828"/>
      <use xlink:href="#DejaVuSans-20" x="1328.662109"/>
      <use xlink:href="#DejaVuSans-28" x="1360.449219"/>
      <use xlink:href="#DejaVuSans-41" x="1399.462891"/>
      <use xlink:href="#DejaVuSans-55" x="1467.871094"/>
      <use xlink:href="#DejaVuSans-43" x="1541.064453"/>
      <use xlink:href="#DejaVuSans-20" x="1610.888672"/>
      <use xlink:href="#DejaVuSans-3d" x="1642.675781"/>
      <use xlink:href="#DejaVuSans-20" x="1726.464844"/>
      <use xlink:href="#DejaVuSans-31" x="1758.251953"/>
      <use xlink:href="#DejaVuSans-2e" x="1821.875"/>
      <use xlink:href="#DejaVuSans-30" x="1853.662109"/>
      <use xlink:href="#DejaVuSans-30" x="1917.285156"/>
      <use xlink:href="#DejaVuSans-29" x="1980.908203"/>
     </g>
    </g>
   </g>
  </g>
  <g id="axes_2">
   <g id="patch_8">
    <path d="M 552.109091 378 
L 907.2 378 
L 907.2 51.84 
L 552.109091 51.84 
z
" style="fill: #ffffff"/>
   </g>
   <g id="matplotlib.axis_3">
    <g id="xtick_7">
     <g id="line2d_33">
      <path d="M 568.249587 378 
L 568.249587 51.84 
" clip-path="url(#p0eb800dc32)" style="fill: none; stroke-dasharray: 2.96,1.28; stroke-dashoffset: 0; stroke: #b0b0b0; stroke-width: 0.8"/>
     </g>
     <g id="line2d_34">
      <g>
       <use xlink:href="#m3b17b4051a" x="568.249587" y="378" style="stroke: #000000; stroke-width: 0.8"/>
      </g>
     </g>
     <g id="text_20">
      <!-- 0.0 -->
      <g transform="translate(560.298024 392.598437) scale(0.1 -0.1)">
       <use xlink:href="#DejaVuSans-30"/>
       <use xlink:href="#DejaVuSans-2e" x="63.623047"/>
       <use xlink:href="#DejaVuSans-30" x="95.410156"/>
      </g>
     </g>
    </g>
    <g id="xtick_8">
     <g id="line2d_35">
      <path d="M 632.81157 378 
L 632.81157 51.84 
" clip-path="url(#p0eb800dc32)" style="fill: none; stroke-dasharray: 2.96,1.28; stroke-dashoffset: 0; stroke: #b0b0b0; stroke-width: 0.8"/>
     </g>
     <g id="line2d_36">
      <g>
       <use xlink:href="#m3b17b4051a" x="632.81157" y="378" style="stroke: #000000; stroke-width: 0.8"/>
      </g>
     </g>
     <g id="text_21">
      <!-- 0.2 -->
      <g transform="translate(624.860008 392.598437) scale(0.1 -0.1)">
       <use xlink:href="#DejaVuSans-30"/>
       <use xlink:href="#DejaVuSans-2e" x="63.623047"/>
       <use xlink:href="#DejaVuSans-32" x="95.410156"/>
      </g>
     </g>
    </g>
    <g id="xtick_9">
     <g id="line2d_37">
      <path d="M 697.373554 378 
L 697.373554 51.84 
" clip-path="url(#p0eb800dc32)" style="fill: none; stroke-dasharray: 2.96,1.28; stroke-dashoffset: 0; stroke: #b0b0b0; stroke-width: 0.8"/>
     </g>
     <g id="line2d_38">
      <g>
       <use xlink:href="#m3b17b4051a" x="697.373554" y="378" style="stroke: #000000; stroke-width: 0.8"/>
      </g>
     </g>
     <g id="text_22">
      <!-- 0.4 -->
      <g transform="translate(689.421991 392.598437) scale(0.1 -0.1)">
       <use xlink:href="#DejaVuSans-30"/>
       <use xlink:href="#DejaVuSans-2e" x="63.623047"/>
       <use xlink:href="#DejaVuSans-34" x="95.410156"/>
      </g>
     </g>
    </g>
    <g id="xtick_10">
     <g id="line2d_39">
      <path d="M 761.935537 378 
L 761.935537 51.84 
" clip-path="url(#p0eb800dc32)" style="fill: none; stroke-dasharray: 2.96,1.28; stroke-dashoffset: 0; stroke: #b0b0b0; stroke-width: 0.8"/>
     </g>
     <g id="line2d_40">
      <g>
       <use xlink:href="#m3b17b4051a" x="761.935537" y="378" style="stroke: #000000; stroke-width: 0.8"/>
      </g>
     </g>
     <g id="text_23">
      <!-- 0.6 -->
      <g transform="translate(753.983975 392.598437) scale(0.1 -0.1)">
       <use xlink:href="#DejaVuSans-30"/>
       <use xlink:href="#DejaVuSans-2e" x="63.623047"/>
       <use xlink:href="#DejaVuSans-36" x="95.410156"/>
      </g>
     </g>
    </g>
    <g id="xtick_11">
     <g id="line2d_41">
      <path d="M 826.497521 378 
L 826.497521 51.84 
" clip-path="url(#p0eb800dc32)" style="fill: none; stroke-dasharray: 2.96,1.28; stroke-dashoffset: 0; stroke: #b0b0b0; stroke-width: 0.8"/>
     </g>
     <g id="line2d_42">
      <g>
       <use xlink:href="#m3b17b4051a" x="826.497521" y="378" style="stroke: #000000; stroke-width: 0.8"/>
      </g>
     </g>
     <g id="text_24">
      <!-- 0.8 -->
      <g transform="translate(818.545958 392.598437) scale(0.1 -0.1)">
       <use xlink:href="#DejaVuSans-30"/>
       <use xlink:href="#DejaVuSans-2e" x="63.623047"/>
       <use xlink:href="#DejaVuSans-38" x="95.410156"/>
      </g>
     </g>
    </g>
    <g id="xtick_12">
     <g id="line2d_43">
      <path d="M 891.059504 378 
L 891.059504 51.84 
" clip-path="url(#p0eb800dc32)" style="fill: none; stroke-dasharray: 2.96,1.28; stroke-dashoffset: 0; stroke: #b0b0b0; stroke-width: 0.8"/>
     </g>
     <g id="line2d_44">
      <g>
       <use xlink:href="#m3b17b4051a" x="891.059504" y="378" style="stroke: #000000; stroke-width: 0.8"/>
      </g>
     </g>
     <g id="text_25">
      <!-- 1.0 -->
      <g transform="translate(883.107942 392.598437) scale(0.1 -0.1)">
       <use xlink:href="#DejaVuSans-31"/>
       <use xlink:href="#DejaVuSans-2e" x="63.623047"/>
       <use xlink:href="#DejaVuSans-30" x="95.410156"/>
      </g>
     </g>
    </g>
    <g id="text_26">
     <!-- False Positive Rate (Positive label: 1) -->
     <g transform="translate(638.28892 406.276563) scale(0.1 -0.1)">
      <use xlink:href="#DejaVuSans-46"/>
      <use xlink:href="#DejaVuSans-61" x="48.394531"/>
      <use xlink:href="#DejaVuSans-6c" x="109.673828"/>
      <use xlink:href="#DejaVuSans-73" x="137.457031"/>
      <use xlink:href="#DejaVuSans-65" x="189.556641"/>
      <use xlink:href="#DejaVuSans-20" x="251.080078"/>
      <use xlink:href="#DejaVuSans-50" x="282.867188"/>
      <use xlink:href="#DejaVuSans-6f" x="339.544922"/>
      <use xlink:href="#DejaVuSans-73" x="400.726562"/>
      <use xlink:href="#DejaVuSans-69" x="452.826172"/>
      <use xlink:href="#DejaVuSans-74" x="480.609375"/>
      <use xlink:href="#DejaVuSans-69" x="519.818359"/>
      <use xlink:href="#DejaVuSans-76" x="547.601562"/>
      <use xlink:href="#DejaVuSans-65" x="606.78125"/>
      <use xlink:href="#DejaVuSans-20" x="668.304688"/>
      <use xlink:href="#DejaVuSans-52" x="700.091797"/>
      <use xlink:href="#DejaVuSans-61" x="767.324219"/>
      <use xlink:href="#DejaVuSans-74" x="828.603516"/>
      <use xlink:href="#DejaVuSans-65" x="867.8125"/>
      <use xlink:href="#DejaVuSans-20" x="929.335938"/>
      <use xlink:href="#DejaVuSans-28" x="961.123047"/>
      <use xlink:href="#DejaVuSans-50" x="1000.136719"/>
      <use xlink:href="#DejaVuSans-6f" x="1056.814453"/>
      <use xlink:href="#DejaVuSans-73" x="1117.996094"/>
      <use xlink:href="#DejaVuSans-69" x="1170.095703"/>
      <use xlink:href="#DejaVuSans-74" x="1197.878906"/>
      <use xlink:href="#DejaVuSans-69" x="1237.087891"/>
      <use xlink:href="#DejaVuSans-76" x="1264.871094"/>
      <use xlink:href="#DejaVuSans-65" x="1324.050781"/>
      <use xlink:href="#DejaVuSans-20" x="1385.574219"/>
      <use xlink:href="#DejaVuSans-6c" x="1417.361328"/>
      <use xlink:href="#DejaVuSans-61" x="1445.144531"/>
      <use xlink:href="#DejaVuSans-62" x="1506.423828"/>
      <use xlink:href="#DejaVuSans-65" x="1569.900391"/>
      <use xlink:href="#DejaVuSans-6c" x="1631.423828"/>
      <use xlink:href="#DejaVuSans-3a" x="1659.207031"/>
      <use xlink:href="#DejaVuSans-20" x="1692.898438"/>
      <use xlink:href="#DejaVuSans-31" x="1724.685547"/>
      <use xlink:href="#DejaVuSans-29" x="1788.308594"/>
     </g>
    </g>
   </g>
   <g id="matplotlib.axis_4">
    <g id="ytick_7">
     <g id="line2d_45">
      <path d="M 552.109091 363.174545 
L 907.2 363.174545 
" clip-path="url(#p0eb800dc32)" style="fill: none; stroke-dasharray: 2.96,1.28; stroke-dashoffset: 0; stroke: #b0b0b0; stroke-width: 0.8"/>
     </g>
     <g id="line2d_46">
      <g>
       <use xlink:href="#m25d1da97b7" x="552.109091" y="363.174545" style="stroke: #000000; stroke-width: 0.8"/>
      </g>
     </g>
     <g id="text_27">
      <!-- 0.0 -->
      <g transform="translate(529.205966 366.973764) scale(0.1 -0.1)">
       <use xlink:href="#DejaVuSans-30"/>
       <use xlink:href="#DejaVuSans-2e" x="63.623047"/>
       <use xlink:href="#DejaVuSans-30" x="95.410156"/>
      </g>
     </g>
    </g>
    <g id="ytick_8">
     <g id="line2d_47">
      <path d="M 552.109091 303.872727 
L 907.2 303.872727 
" clip-path="url(#p0eb800dc32)" style="fill: none; stroke-dasharray: 2.96,1.28; stroke-dashoffset: 0; stroke: #b0b0b0; stroke-width: 0.8"/>
     </g>
     <g id="line2d_48">
      <g>
       <use xlink:href="#m25d1da97b7" x="552.109091" y="303.872727" style="stroke: #000000; stroke-width: 0.8"/>
      </g>
     </g>
     <g id="text_28">
      <!-- 0.2 -->
      <g transform="translate(529.205966 307.671946) scale(0.1 -0.1)">
       <use xlink:href="#DejaVuSans-30"/>
       <use xlink:href="#DejaVuSans-2e" x="63.623047"/>
       <use xlink:href="#DejaVuSans-32" x="95.410156"/>
      </g>
     </g>
    </g>
    <g id="ytick_9">
     <g id="line2d_49">
      <path d="M 552.109091 244.570909 
L 907.2 244.570909 
" clip-path="url(#p0eb800dc32)" style="fill: none; stroke-dasharray: 2.96,1.28; stroke-dashoffset: 0; stroke: #b0b0b0; stroke-width: 0.8"/>
     </g>
     <g id="line2d_50">
      <g>
       <use xlink:href="#m25d1da97b7" x="552.109091" y="244.570909" style="stroke: #000000; stroke-width: 0.8"/>
      </g>
     </g>
     <g id="text_29">
      <!-- 0.4 -->
      <g transform="translate(529.205966 248.370128) scale(0.1 -0.1)">
       <use xlink:href="#DejaVuSans-30"/>
       <use xlink:href="#DejaVuSans-2e" x="63.623047"/>
       <use xlink:href="#DejaVuSans-34" x="95.410156"/>
      </g>
     </g>
    </g>
    <g id="ytick_10">
     <g id="line2d_51">
      <path d="M 552.109091 185.269091 
L 907.2 185.269091 
" clip-path="url(#p0eb800dc32)" style="fill: none; stroke-dasharray: 2.96,1.28; stroke-dashoffset: 0; stroke: #b0b0b0; stroke-width: 0.8"/>
     </g>
     <g id="line2d_52">
      <g>
       <use xlink:href="#m25d1da97b7" x="552.109091" y="185.269091" style="stroke: #000000; stroke-width: 0.8"/>
      </g>
     </g>
     <g id="text_30">
      <!-- 0.6 -->
      <g transform="translate(529.205966 189.06831) scale(0.1 -0.1)">
       <use xlink:href="#DejaVuSans-30"/>
       <use xlink:href="#DejaVuSans-2e" x="63.623047"/>
       <use xlink:href="#DejaVuSans-36" x="95.410156"/>
      </g>
     </g>
    </g>
    <g id="ytick_11">
     <g id="line2d_53">
      <path d="M 552.109091 125.967273 
L 907.2 125.967273 
" clip-path="url(#p0eb800dc32)" style="fill: none; stroke-dasharray: 2.96,1.28; stroke-dashoffset: 0; stroke: #b0b0b0; stroke-width: 0.8"/>
     </g>
     <g id="line2d_54">
      <g>
       <use xlink:href="#m25d1da97b7" x="552.109091" y="125.967273" style="stroke: #000000; stroke-width: 0.8"/>
      </g>
     </g>
     <g id="text_31">
      <!-- 0.8 -->
      <g transform="translate(529.205966 129.766491) scale(0.1 -0.1)">
       <use xlink:href="#DejaVuSans-30"/>
       <use xlink:href="#DejaVuSans-2e" x="63.623047"/>
       <use xlink:href="#DejaVuSans-38" x="95.410156"/>
      </g>
     </g>
    </g>
    <g id="ytick_12">
     <g id="line2d_55">
      <path d="M 552.109091 66.665455 
L 907.2 66.665455 
" clip-path="url(#p0eb800dc32)" style="fill: none; stroke-dasharray: 2.96,1.28; stroke-dashoffset: 0; stroke: #b0b0b0; stroke-width: 0.8"/>
     </g>
     <g id="line2d_56">
      <g>
       <use xlink:href="#m25d1da97b7" x="552.109091" y="66.665455" style="stroke: #000000; stroke-width: 0.8"/>
      </g>
     </g>
     <g id="text_32">
      <!-- 1.0 -->
      <g transform="translate(529.205966 70.464673) scale(0.1 -0.1)">
       <use xlink:href="#DejaVuSans-31"/>
       <use xlink:href="#DejaVuSans-2e" x="63.623047"/>
       <use xlink:href="#DejaVuSans-30" x="95.410156"/>
      </g>
     </g>
    </g>
    <g id="text_33">
     <!-- True Positive Rate (Positive label: 1) -->
     <g transform="translate(523.126278 304.348906) rotate(-90) scale(0.1 -0.1)">
      <use xlink:href="#DejaVuSans-54"/>
      <use xlink:href="#DejaVuSans-72" x="46.333984"/>
      <use xlink:href="#DejaVuSans-75" x="87.447266"/>
      <use xlink:href="#DejaVuSans-65" x="150.826172"/>
      <use xlink:href="#DejaVuSans-20" x="212.349609"/>
      <use xlink:href="#DejaVuSans-50" x="244.136719"/>
      <use xlink:href="#DejaVuSans-6f" x="300.814453"/>
      <use xlink:href="#DejaVuSans-73" x="361.996094"/>
      <use xlink:href="#DejaVuSans-69" x="414.095703"/>
      <use xlink:href="#DejaVuSans-74" x="441.878906"/>
      <use xlink:href="#DejaVuSans-69" x="481.087891"/>
      <use xlink:href="#DejaVuSans-76" x="508.871094"/>
      <use xlink:href="#DejaVuSans-65" x="568.050781"/>
      <use xlink:href="#DejaVuSans-20" x="629.574219"/>
      <use xlink:href="#DejaVuSans-52" x="661.361328"/>
      <use xlink:href="#DejaVuSans-61" x="728.59375"/>
      <use xlink:href="#DejaVuSans-74" x="789.873047"/>
      <use xlink:href="#DejaVuSans-65" x="829.082031"/>
      <use xlink:href="#DejaVuSans-20" x="890.605469"/>
      <use xlink:href="#DejaVuSans-28" x="922.392578"/>
      <use xlink:href="#DejaVuSans-50" x="961.40625"/>
      <use xlink:href="#DejaVuSans-6f" x="1018.083984"/>
      <use xlink:href="#DejaVuSans-73" x="1079.265625"/>
      <use xlink:href="#DejaVuSans-69" x="1131.365234"/>
      <use xlink:href="#DejaVuSans-74" x="1159.148438"/>
      <use xlink:href="#DejaVuSans-69" x="1198.357422"/>
      <use xlink:href="#DejaVuSans-76" x="1226.140625"/>
      <use xlink:href="#DejaVuSans-65" x="1285.320312"/>
      <use xlink:href="#DejaVuSans-20" x="1346.84375"/>
      <use xlink:href="#DejaVuSans-6c" x="1378.630859"/>
      <use xlink:href="#DejaVuSans-61" x="1406.414062"/>
      <use xlink:href="#DejaVuSans-62" x="1467.693359"/>
      <use xlink:href="#DejaVuSans-65" x="1531.169922"/>
      <use xlink:href="#DejaVuSans-6c" x="1592.693359"/>
      <use xlink:href="#DejaVuSans-3a" x="1620.476562"/>
      <use xlink:href="#DejaVuSans-20" x="1654.167969"/>
      <use xlink:href="#DejaVuSans-31" x="1685.955078"/>
      <use xlink:href="#DejaVuSans-29" x="1749.578125"/>
     </g>
    </g>
   </g>
   <g id="line2d_57">
    <path d="M 568.249587 363.174545 
L 568.249587 361.285953 
L 568.249587 353.731581 
L 568.249587 349.954395 
L 568.249587 342.400023 
L 568.249587 340.51143 
L 568.249587 334.845651 
L 568.249587 327.29128 
L 572.497086 319.736908 
L 572.497086 315.959722 
L 572.497086 310.293943 
L 572.497086 295.1852 
L 572.497086 289.519421 
L 572.497086 281.965049 
L 572.497086 276.29927 
L 572.497086 272.522085 
L 572.497086 263.07912 
L 572.497086 259.301934 
L 572.497086 247.970376 
L 572.497086 244.193191 
L 572.497086 227.195854 
L 572.497086 223.418668 
L 576.744585 223.418668 
L 576.744585 219.641482 
L 578.868334 217.752889 
L 578.868334 213.975704 
L 580.992084 212.087111 
L 583.115833 212.087111 
L 583.115833 210.198518 
L 583.115833 204.532739 
L 583.115833 202.644146 
L 585.239582 200.755553 
L 585.239582 196.978367 
L 585.239582 193.201181 
L 585.239582 189.423995 
L 587.363332 187.535402 
L 589.487081 187.535402 
L 589.487081 181.869624 
L 591.610831 179.981031 
L 591.610831 174.315252 
L 591.610831 168.649473 
L 591.610831 161.095101 
L 591.610831 159.206508 
L 593.73458 157.317915 
L 593.73458 151.652137 
L 595.85833 151.652137 
L 595.85833 147.874951 
L 595.85833 144.097765 
L 595.85833 140.320579 
L 597.982079 136.543393 
L 597.982079 130.877614 
L 600.105829 130.877614 
L 600.105829 125.211836 
L 602.229578 125.211836 
L 602.229578 123.323243 
L 604.353328 123.323243 
L 604.353328 117.657464 
L 604.353328 113.880278 
L 604.353328 108.214499 
L 606.477077 108.214499 
L 606.477077 106.325906 
L 608.600826 106.325906 
L 608.600826 104.437313 
L 610.724576 104.437313 
L 610.724576 96.882942 
L 612.848325 93.105756 
L 619.219574 93.105756 
L 619.219574 91.217163 
L 621.343323 91.217163 
L 621.343323 89.32857 
L 623.467073 89.32857 
L 623.467073 87.439977 
L 636.209569 87.439977 
L 638.333319 85.551384 
L 640.457068 85.551384 
L 640.457068 83.662791 
L 646.828317 83.662791 
L 646.828317 81.774198 
L 661.694563 81.774198 
L 661.694563 79.885605 
L 670.189561 79.885605 
L 670.189561 77.997012 
L 672.31331 77.997012 
L 672.31331 76.108419 
L 674.43706 76.108419 
L 674.43706 74.219826 
L 682.932057 74.219826 
L 682.932057 72.331233 
L 687.179556 70.44264 
L 689.303306 70.44264 
L 689.303306 68.554047 
L 693.550805 68.554047 
L 702.045803 68.554047 
L 714.788299 68.554047 
L 738.149543 68.554047 
L 746.644541 68.554047 
L 748.768291 68.554047 
L 753.015789 68.554047 
L 757.263288 68.554047 
L 761.510787 68.554047 
L 763.634537 68.554047 
L 767.882036 68.554047 
L 770.005785 68.554047 
L 782.748282 68.554047 
L 789.11953 66.665455 
L 801.862027 66.665455 
L 812.480774 66.665455 
L 829.47077 66.665455 
L 840.089517 66.665455 
L 861.327012 66.665455 
L 891.059504 66.665455 
" clip-path="url(#p0eb800dc32)" style="fill: none; stroke: #1f77b4; stroke-width: 1.5; stroke-linecap: square"/>
   </g>
   <g id="line2d_58">
    <path d="M 568.249587 363.174545 
L 568.249587 361.285953 
L 568.249587 342.400023 
L 570.373336 342.400023 
L 570.373336 338.622837 
L 572.497086 338.622837 
L 572.497086 336.734244 
L 574.620835 336.734244 
L 574.620835 319.736908 
L 580.992084 319.736908 
L 580.992084 278.187863 
L 583.115833 278.187863 
L 583.115833 230.97304 
L 585.239582 230.97304 
L 585.239582 210.198518 
L 587.363332 210.198518 
L 587.363332 202.644146 
L 591.610831 202.644146 
L 591.610831 191.312588 
L 593.73458 191.312588 
L 593.73458 189.423995 
L 595.85833 189.423995 
L 595.85833 183.758217 
L 602.229578 183.758217 
L 602.229578 176.203845 
L 604.353328 176.203845 
L 604.353328 168.649473 
L 606.477077 168.649473 
L 606.477077 166.76088 
L 610.724576 166.76088 
L 610.724576 162.983694 
L 612.848325 162.983694 
L 612.848325 144.097765 
L 614.972075 144.097765 
L 614.972075 142.209172 
L 617.095824 142.209172 
L 617.095824 138.431986 
L 619.219574 138.431986 
L 619.219574 132.766207 
L 623.467073 132.766207 
L 623.467073 128.989021 
L 625.590822 128.989021 
L 625.590822 125.211836 
L 627.714572 125.211836 
L 627.714572 121.43465 
L 629.838321 121.43465 
L 629.838321 117.657464 
L 631.96207 117.657464 
L 631.96207 115.768871 
L 636.209569 115.768871 
L 636.209569 111.991685 
L 638.333319 111.991685 
L 638.333319 100.660127 
L 640.457068 100.660127 
L 640.457068 98.771534 
L 642.580818 98.771534 
L 642.580818 96.882942 
L 646.828317 96.882942 
L 646.828317 94.994349 
L 651.075816 94.994349 
L 651.075816 85.551384 
L 655.323314 85.551384 
L 655.323314 81.774198 
L 661.694563 81.774198 
L 661.694563 79.885605 
L 668.065811 79.885605 
L 668.065811 76.108419 
L 670.189561 76.108419 
L 670.189561 74.219826 
L 680.808308 74.219826 
L 680.808308 72.331233 
L 682.932057 72.331233 
L 682.932057 70.44264 
L 744.520792 70.44264 
L 744.520792 68.554047 
L 820.975772 68.554047 
L 820.975772 66.665455 
L 891.059504 66.665455 
" clip-path="url(#p0eb800dc32)" style="fill: none; stroke: #ff7f0e; stroke-width: 1.5; stroke-linecap: square"/>
   </g>
   <g id="line2d_59">
    <path d="M 568.249587 363.174545 
L 568.249587 361.285953 
L 568.249587 344.288616 
L 570.373336 344.288616 
L 570.373336 300.850979 
L 572.497086 300.850979 
L 572.497086 297.073793 
L 574.620835 297.073793 
L 574.620835 291.408014 
L 576.744585 291.408014 
L 576.744585 289.519421 
L 578.868334 289.519421 
L 578.868334 249.858969 
L 580.992084 249.858969 
L 580.992084 236.638819 
L 583.115833 236.638819 
L 583.115833 229.084447 
L 585.239582 229.084447 
L 585.239582 227.195854 
L 587.363332 227.195854 
L 587.363332 223.418668 
L 589.487081 223.418668 
L 589.487081 215.864296 
L 591.610831 215.864296 
L 591.610831 200.755553 
L 593.73458 200.755553 
L 593.73458 178.092438 
L 595.85833 178.092438 
L 595.85833 176.203845 
L 597.982079 176.203845 
L 597.982079 170.538066 
L 600.105829 170.538066 
L 600.105829 157.317915 
L 602.229578 157.317915 
L 602.229578 142.209172 
L 604.353328 142.209172 
L 604.353328 138.431986 
L 606.477077 138.431986 
L 606.477077 119.546057 
L 608.600826 119.546057 
L 608.600826 115.768871 
L 610.724576 115.768871 
L 610.724576 110.103092 
L 612.848325 110.103092 
L 612.848325 98.771534 
L 617.095824 98.771534 
L 617.095824 93.105756 
L 619.219574 93.105756 
L 619.219574 91.217163 
L 625.590822 91.217163 
L 625.590822 89.32857 
L 629.838321 89.32857 
L 629.838321 87.439977 
L 631.96207 87.439977 
L 631.96207 85.551384 
L 636.209569 85.551384 
L 636.209569 83.662791 
L 638.333319 83.662791 
L 638.333319 81.774198 
L 644.704567 81.774198 
L 644.704567 79.885605 
L 659.570813 79.885605 
L 659.570813 77.997012 
L 665.942062 77.997012 
L 665.942062 76.108419 
L 680.808308 76.108419 
L 680.808308 74.219826 
L 797.614528 74.219826 
L 797.614528 72.331233 
L 876.193258 72.331233 
L 876.193258 70.44264 
L 882.564506 70.44264 
L 882.564506 66.665455 
L 884.688256 66.665455 
L 891.059504 66.665455 
" clip-path="url(#p0eb800dc32)" style="fill: none; stroke: #2ca02c; stroke-width: 1.5; stroke-linecap: square"/>
   </g>
   <g id="line2d_60">
    <path d="M 568.249587 363.174545 
L 568.249587 361.285953 
L 568.249587 293.296607 
L 570.373336 293.296607 
L 570.373336 280.076456 
L 572.497086 280.076456 
L 572.497086 236.638819 
L 574.620835 236.638819 
L 574.620835 229.084447 
L 576.744585 229.084447 
L 576.744585 227.195854 
L 578.868334 227.195854 
L 578.868334 217.752889 
L 580.992084 217.752889 
L 580.992084 212.087111 
L 585.239582 212.087111 
L 585.239582 204.532739 
L 587.363332 204.532739 
L 587.363332 187.535402 
L 589.487081 187.535402 
L 589.487081 162.983694 
L 593.73458 162.983694 
L 593.73458 161.095101 
L 595.85833 161.095101 
L 595.85833 153.54073 
L 597.982079 153.54073 
L 597.982079 140.320579 
L 600.105829 140.320579 
L 600.105829 121.43465 
L 602.229578 121.43465 
L 602.229578 115.768871 
L 604.353328 115.768871 
L 604.353328 102.54872 
L 606.477077 102.54872 
L 606.477077 94.994349 
L 608.600826 94.994349 
L 608.600826 93.105756 
L 629.838321 93.105756 
L 629.838321 91.217163 
L 631.96207 91.217163 
L 631.96207 85.551384 
L 634.08582 85.551384 
L 634.08582 83.662791 
L 638.333319 83.662791 
L 638.333319 77.997012 
L 663.818312 77.997012 
L 663.818312 76.108419 
L 672.31331 76.108419 
L 672.31331 74.219826 
L 689.303306 74.219826 
L 689.303306 72.331233 
L 725.407047 72.331233 
L 725.407047 70.44264 
L 770.005785 70.44264 
L 770.005785 68.554047 
L 791.24328 68.554047 
L 791.24328 66.665455 
L 891.059504 66.665455 
" clip-path="url(#p0eb800dc32)" style="fill: none; stroke: #d62728; stroke-width: 1.5; stroke-linecap: square"/>
   </g>
   <g id="patch_9">
    <path d="M 552.109091 378 
L 552.109091 51.84 
" style="fill: none; stroke: #000000; stroke-width: 0.8; stroke-linejoin: miter; stroke-linecap: square"/>
   </g>
   <g id="patch_10">
    <path d="M 907.2 378 
L 907.2 51.84 
" style="fill: none; stroke: #000000; stroke-width: 0.8; stroke-linejoin: miter; stroke-linecap: square"/>
   </g>
   <g id="patch_11">
    <path d="M 552.109091 378 
L 907.2 378 
" style="fill: none; stroke: #000000; stroke-width: 0.8; stroke-linejoin: miter; stroke-linecap: square"/>
   </g>
   <g id="patch_12">
    <path d="M 552.109091 51.84 
L 907.2 51.84 
" style="fill: none; stroke: #000000; stroke-width: 0.8; stroke-linejoin: miter; stroke-linecap: square"/>
   </g>
   <g id="text_34">
    <!-- Curvas ROC en la prueba  -->
    <g transform="translate(652.131733 45.84) scale(0.12 -0.12)">
     <defs>
      <path id="DejaVuSans-70" d="M 1159 525 
L 1159 -1331 
L 581 -1331 
L 581 3500 
L 1159 3500 
L 1159 2969 
Q 1341 3281 1617 3432 
Q 1894 3584 2278 3584 
Q 2916 3584 3314 3078 
Q 3713 2572 3713 1747 
Q 3713 922 3314 415 
Q 2916 -91 2278 -91 
Q 1894 -91 1617 61 
Q 1341 213 1159 525 
z
M 3116 1747 
Q 3116 2381 2855 2742 
Q 2594 3103 2138 3103 
Q 1681 3103 1420 2742 
Q 1159 2381 1159 1747 
Q 1159 1113 1420 752 
Q 1681 391 2138 391 
Q 2594 391 2855 752 
Q 3116 1113 3116 1747 
z
" transform="scale(0.015625)"/>
     </defs>
     <use xlink:href="#DejaVuSans-43"/>
     <use xlink:href="#DejaVuSans-75" x="69.824219"/>
     <use xlink:href="#DejaVuSans-72" x="133.203125"/>
     <use xlink:href="#DejaVuSans-76" x="174.316406"/>
     <use xlink:href="#DejaVuSans-61" x="233.496094"/>
     <use xlink:href="#DejaVuSans-73" x="294.775391"/>
     <use xlink:href="#DejaVuSans-20" x="346.875"/>
     <use xlink:href="#DejaVuSans-52" x="378.662109"/>
     <use xlink:href="#DejaVuSans-4f" x="448.144531"/>
     <use xlink:href="#DejaVuSans-43" x="526.855469"/>
     <use xlink:href="#DejaVuSans-20" x="596.679688"/>
     <use xlink:href="#DejaVuSans-65" x="628.466797"/>
     <use xlink:href="#DejaVuSans-6e" x="689.990234"/>
     <use xlink:href="#DejaVuSans-20" x="753.369141"/>
     <use xlink:href="#DejaVuSans-6c" x="785.15625"/>
     <use xlink:href="#DejaVuSans-61" x="812.939453"/>
     <use xlink:href="#DejaVuSans-20" x="874.21875"/>
     <use xlink:href="#DejaVuSans-70" x="906.005859"/>
     <use xlink:href="#DejaVuSans-72" x="969.482422"/>
     <use xlink:href="#DejaVuSans-75" x="1010.595703"/>
     <use xlink:href="#DejaVuSans-65" x="1073.974609"/>
     <use xlink:href="#DejaVuSans-62" x="1135.498047"/>
     <use xlink:href="#DejaVuSans-61" x="1198.974609"/>
     <use xlink:href="#DejaVuSans-20" x="1260.253906"/>
    </g>
   </g>
   <g id="legend_2">
    <g id="patch_13">
     <path d="M 666.209375 373 
L 900.2 373 
Q 902.2 373 902.2 371 
L 902.2 313.2875 
Q 902.2 311.2875 900.2 311.2875 
L 666.209375 311.2875 
Q 664.209375 311.2875 664.209375 313.2875 
L 664.209375 371 
Q 664.209375 373 666.209375 373 
z
" style="fill: #ffffff; opacity: 0.8; stroke: #cccccc; stroke-linejoin: miter"/>
    </g>
    <g id="line2d_61">
     <path d="M 668.209375 319.385938 
L 678.209375 319.385938 
L 688.209375 319.385938 
" style="fill: none; stroke: #1f77b4; stroke-width: 1.5; stroke-linecap: square"/>
    </g>
    <g id="text_35">
     <!-- RandomForestClassifier (AUC = 0.93) -->
     <g transform="translate(696.209375 322.885938) scale(0.1 -0.1)">
      <defs>
       <path id="DejaVuSans-33" d="M 2597 2516 
Q 3050 2419 3304 2112 
Q 3559 1806 3559 1356 
Q 3559 666 3084 287 
Q 2609 -91 1734 -91 
Q 1441 -91 1130 -33 
Q 819 25 488 141 
L 488 750 
Q 750 597 1062 519 
Q 1375 441 1716 441 
Q 2309 441 2620 675 
Q 2931 909 2931 1356 
Q 2931 1769 2642 2001 
Q 2353 2234 1838 2234 
L 1294 2234 
L 1294 2753 
L 1863 2753 
Q 2328 2753 2575 2939 
Q 2822 3125 2822 3475 
Q 2822 3834 2567 4026 
Q 2313 4219 1838 4219 
Q 1578 4219 1281 4162 
Q 984 4106 628 3988 
L 628 4550 
Q 988 4650 1302 4700 
Q 1616 4750 1894 4750 
Q 2613 4750 3031 4423 
Q 3450 4097 3450 3541 
Q 3450 3153 3228 2886 
Q 3006 2619 2597 2516 
z
" transform="scale(0.015625)"/>
      </defs>
      <use xlink:href="#DejaVuSans-52"/>
      <use xlink:href="#DejaVuSans-61" x="67.232422"/>
      <use xlink:href="#DejaVuSans-6e" x="128.511719"/>
      <use xlink:href="#DejaVuSans-64" x="191.890625"/>
      <use xlink:href="#DejaVuSans-6f" x="255.367188"/>
      <use xlink:href="#DejaVuSans-6d" x="316.548828"/>
      <use xlink:href="#DejaVuSans-46" x="413.960938"/>
      <use xlink:href="#DejaVuSans-6f" x="467.855469"/>
      <use xlink:href="#DejaVuSans-72" x="529.037109"/>
      <use xlink:href="#DejaVuSans-65" x="567.900391"/>
      <use xlink:href="#DejaVuSans-73" x="629.423828"/>
      <use xlink:href="#DejaVuSans-74" x="681.523438"/>
      <use xlink:href="#DejaVuSans-43" x="720.732422"/>
      <use xlink:href="#DejaVuSans-6c" x="790.556641"/>
      <use xlink:href="#DejaVuSans-61" x="818.339844"/>
      <use xlink:href="#DejaVuSans-73" x="879.619141"/>
      <use xlink:href="#DejaVuSans-73" x="931.71875"/>
      <use xlink:href="#DejaVuSans-69" x="983.818359"/>
      <use xlink:href="#DejaVuSans-66" x="1011.601562"/>
      <use xlink:href="#DejaVuSans-69" x="1046.806641"/>
      <use xlink:href="#DejaVuSans-65" x="1074.589844"/>
      <use xlink:href="#DejaVuSans-72" x="1136.113281"/>
      <use xlink:href="#DejaVuSans-20" x="1177.226562"/>
      <use xlink:href="#DejaVuSans-28" x="1209.013672"/>
      <use xlink:href="#DejaVuSans-41" x="1248.027344"/>
      <use xlink:href="#DejaVuSans-55" x="1316.435547"/>
      <use xlink:href="#DejaVuSans-43" x="1389.628906"/>
      <use xlink:href="#DejaVuSans-20" x="1459.453125"/>
      <use xlink:href="#DejaVuSans-3d" x="1491.240234"/>
      <use xlink:href="#DejaVuSans-20" x="1575.029297"/>
      <use xlink:href="#DejaVuSans-30" x="1606.816406"/>
      <use xlink:href="#DejaVuSans-2e" x="1670.439453"/>
      <use xlink:href="#DejaVuSans-39" x="1702.226562"/>
      <use xlink:href="#DejaVuSans-33" x="1765.849609"/>
      <use xlink:href="#DejaVuSans-29" x="1829.472656"/>
     </g>
    </g>
    <g id="line2d_62">
     <path d="M 668.209375 334.064062 
L 678.209375 334.064062 
L 688.209375 334.064062 
" style="fill: none; stroke: #ff7f0e; stroke-width: 1.5; stroke-linecap: square"/>
    </g>
    <g id="text_36">
     <!-- LogisticRegression (AUC = 0.89) -->
     <g transform="translate(696.209375 337.564062) scale(0.1 -0.1)">
      <use xlink:href="#DejaVuSans-4c"/>
      <use xlink:href="#DejaVuSans-6f" x="53.962891"/>
      <use xlink:href="#DejaVuSans-67" x="115.144531"/>
      <use xlink:href="#DejaVuSans-69" x="178.621094"/>
      <use xlink:href="#DejaVuSans-73" x="206.404297"/>
      <use xlink:href="#DejaVuSans-74" x="258.503906"/>
      <use xlink:href="#DejaVuSans-69" x="297.712891"/>
      <use xlink:href="#DejaVuSans-63" x="325.496094"/>
      <use xlink:href="#DejaVuSans-52" x="380.476562"/>
      <use xlink:href="#DejaVuSans-65" x="445.458984"/>
      <use xlink:href="#DejaVuSans-67" x="506.982422"/>
      <use xlink:href="#DejaVuSans-72" x="570.458984"/>
      <use xlink:href="#DejaVuSans-65" x="609.322266"/>
      <use xlink:href="#DejaVuSans-73" x="670.845703"/>
      <use xlink:href="#DejaVuSans-73" x="722.945312"/>
      <use xlink:href="#DejaVuSans-69" x="775.044922"/>
      <use xlink:href="#DejaVuSans-6f" x="802.828125"/>
      <use xlink:href="#DejaVuSans-6e" x="864.009766"/>
      <use xlink:href="#DejaVuSans-20" x="927.388672"/>
      <use xlink:href="#DejaVuSans-28" x="959.175781"/>
      <use xlink:href="#DejaVuSans-41" x="998.189453"/>
      <use xlink:href="#DejaVuSans-55" x="1066.597656"/>
      <use xlink:href="#DejaVuSans-43" x="1139.791016"/>
      <use xlink:href="#DejaVuSans-20" x="1209.615234"/>
      <use xlink:href="#DejaVuSans-3d" x="1241.402344"/>
      <use xlink:href="#DejaVuSans-20" x="1325.191406"/>
      <use xlink:href="#DejaVuSans-30" x="1356.978516"/>
      <use xlink:href="#DejaVuSans-2e" x="1420.601562"/>
      <use xlink:href="#DejaVuSans-38" x="1452.388672"/>
      <use xlink:href="#DejaVuSans-39" x="1516.011719"/>
      <use xlink:href="#DejaVuSans-29" x="1579.634766"/>
     </g>
    </g>
    <g id="line2d_63">
     <path d="M 668.209375 348.742188 
L 678.209375 348.742188 
L 688.209375 348.742188 
" style="fill: none; stroke: #2ca02c; stroke-width: 1.5; stroke-linecap: square"/>
    </g>
    <g id="text_37">
     <!-- SVC (AUC = 0.91) -->
     <g transform="translate(696.209375 352.242188) scale(0.1 -0.1)">
      <use xlink:href="#DejaVuSans-53"/>
      <use xlink:href="#DejaVuSans-56" x="63.476562"/>
      <use xlink:href="#DejaVuSans-43" x="131.884766"/>
      <use xlink:href="#DejaVuSans-20" x="201.708984"/>
      <use xlink:href="#DejaVuSans-28" x="233.496094"/>
      <use xlink:href="#DejaVuSans-41" x="272.509766"/>
      <use xlink:href="#DejaVuSans-55" x="340.917969"/>
      <use xlink:href="#DejaVuSans-43" x="414.111328"/>
      <use xlink:href="#DejaVuSans-20" x="483.935547"/>
      <use xlink:href="#DejaVuSans-3d" x="515.722656"/>
      <use xlink:href="#DejaVuSans-20" x="599.511719"/>
      <use xlink:href="#DejaVuSans-30" x="631.298828"/>
      <use xlink:href="#DejaVuSans-2e" x="694.921875"/>
      <use xlink:href="#DejaVuSans-39" x="726.708984"/>
      <use xlink:href="#DejaVuSans-31" x="790.332031"/>
      <use xlink:href="#DejaVuSans-29" x="853.955078"/>
     </g>
    </g>
    <g id="line2d_64">
     <path d="M 668.209375 363.420313 
L 678.209375 363.420313 
L 688.209375 363.420313 
" style="fill: none; stroke: #d62728; stroke-width: 1.5; stroke-linecap: square"/>
    </g>
    <g id="text_38">
     <!-- GradientBoostingClassifier (AUC = 0.93) -->
     <g transform="translate(696.209375 366.920313) scale(0.1 -0.1)">
      <use xlink:href="#DejaVuSans-47"/>
      <use xlink:href="#DejaVuSans-72" x="77.490234"/>
      <use xlink:href="#DejaVuSans-61" x="118.603516"/>
      <use xlink:href="#DejaVuSans-64" x="179.882812"/>
      <use xlink:href="#DejaVuSans-69" x="243.359375"/>
      <use xlink:href="#DejaVuSans-65" x="271.142578"/>
      <use xlink:href="#DejaVuSans-6e" x="332.666016"/>
      <use xlink:href="#DejaVuSans-74" x="396.044922"/>
      <use xlink:href="#DejaVuSans-42" x="435.253906"/>
      <use xlink:href="#DejaVuSans-6f" x="503.857422"/>
      <use xlink:href="#DejaVuSans-6f" x="565.039062"/>
      <use xlink:href="#DejaVuSans-73" x="626.220703"/>
      <use xlink:href="#DejaVuSans-74" x="678.320312"/>
      <use xlink:href="#DejaVuSans-69" x="717.529297"/>
      <use xlink:href="#DejaVuSans-6e" x="745.3125"/>
      <use xlink:href="#DejaVuSans-67" x="808.691406"/>
      <use xlink:href="#DejaVuSans-43" x="872.167969"/>
      <use xlink:href="#DejaVuSans-6c" x="941.992188"/>
      <use xlink:href="#DejaVuSans-61" x="969.775391"/>
      <use xlink:href="#DejaVuSans-73" x="1031.054688"/>
      <use xlink:href="#DejaVuSans-73" x="1083.154297"/>
      <use xlink:href="#DejaVuSans-69" x="1135.253906"/>
      <use xlink:href="#DejaVuSans-66" x="1163.037109"/>
      <use xlink:href="#DejaVuSans-69" x="1198.242188"/>
      <use xlink:href="#DejaVuSans-65" x="1226.025391"/>
      <use xlink:href="#DejaVuSans-72" x="1287.548828"/>
      <use xlink:href="#DejaVuSans-20" x="1328.662109"/>
      <use xlink:href="#DejaVuSans-28" x="1360.449219"/>
      <use xlink:href="#DejaVuSans-41" x="1399.462891"/>
      <use xlink:href="#DejaVuSans-55" x="1467.871094"/>
      <use xlink:href="#DejaVuSans-43" x="1541.064453"/>
      <use xlink:href="#DejaVuSans-20" x="1610.888672"/>
      <use xlink:href="#DejaVuSans-3d" x="1642.675781"/>
      <use xlink:href="#DejaVuSans-20" x="1726.464844"/>
      <use xlink:href="#DejaVuSans-30" x="1758.251953"/>
      <use xlink:href="#DejaVuSans-2e" x="1821.875"/>
      <use xlink:href="#DejaVuSans-39" x="1853.662109"/>
      <use xlink:href="#DejaVuSans-33" x="1917.285156"/>
      <use xlink:href="#DejaVuSans-29" x="1980.908203"/>
     </g>
    </g>
   </g>
  </g>
 </g>
 <defs>
  <clipPath id="pb0842c0ead">
   <rect x="126" y="51.84" width="355.090909" height="326.16"/>
  </clipPath>
  <clipPath id="p0eb800dc32">
   <rect x="552.109091" y="51.84" width="355.090909" height="326.16"/>
  </clipPath>
 </defs>
</svg>
