<?xml version="1.0" encoding="utf-8" standalone="no"?>
<!DOCTYPE svg PUBLIC "-//W3C//DTD SVG 1.1//EN"
  "http://www.w3.org/Graphics/SVG/1.1/DTD/svg11.dtd">
<svg xmlns:xlink="http://www.w3.org/1999/xlink" width="1008pt" height="432pt" viewBox="0 0 1008 432" xmlns="http://www.w3.org/2000/svg" version="1.1">
 <metadata>
  <rdf:RDF xmlns:dc="http://purl.org/dc/elements/1.1/" xmlns:cc="http://creativecommons.org/ns#" xmlns:rdf="http://www.w3.org/1999/02/22-rdf-syntax-ns#">
   <cc:Work>
    <dc:type rdf:resource="http://purl.org/dc/dcmitype/StillImage"/>
    <dc:date>2023-10-27T08:47:20.984106</dc:date>
    <dc:format>image/svg+xml</dc:format>
    <dc:creator>
     <cc:Agent>
      <dc:title>Matplotlib v3.7.2, https://matplotlib.org/</dc:title>
     </cc:Agent>
    </dc:creator>
   </cc:Work>
  </rdf:RDF>
 </metadata>
 <defs>
  <style type="text/css">*{stroke-linejoin: round; stroke-linecap: butt}</style>
 </defs>
 <g id="figure_1">
  <g id="patch_1">
   <path d="M 0 432 
L 1008 432 
L 1008 0 
L 0 0 
z
" style="fill: #ffffff"/>
  </g>
  <g id="axes_1">
   <g id="patch_2">
    <path d="M 126 378 
L 481.090909 378 
L 481.090909 51.84 
L 126 51.84 
z
" style="fill: #ffffff"/>
   </g>
   <g id="matplotlib.axis_1">
    <g id="xtick_1">
     <g id="line2d_1">
      <path d="M 142.140496 378 
L 142.140496 51.84 
" clip-path="url(#p80276c91e7)" style="fill: none; stroke-dasharray: 2.96,1.28; stroke-dashoffset: 0; stroke: #b0b0b0; stroke-width: 0.8"/>
     </g>
     <g id="line2d_2">
      <defs>
       <path id="m786d11fa70" d="M 0 0 
L 0 3.5 
" style="stroke: #000000; stroke-width: 0.8"/>
      </defs>
      <g>
       <use xlink:href="#m786d11fa70" x="142.140496" y="378" style="stroke: #000000; stroke-width: 0.8"/>
      </g>
     </g>
     <g id="text_1">
      <!-- 0.0 -->
      <g transform="translate(134.188933 392.598437) scale(0.1 -0.1)">
       <defs>
        <path id="DejaVuSans-30" d="M 2034 4250 
Q 1547 4250 1301 3770 
Q 1056 3291 1056 2328 
Q 1056 1369 1301 889 
Q 1547 409 2034 409 
Q 2525 409 2770 889 
Q 3016 1369 3016 2328 
Q 3016 3291 2770 3770 
Q 2525 4250 2034 4250 
z
M 2034 4750 
Q 2819 4750 3233 4129 
Q 3647 3509 3647 2328 
Q 3647 1150 3233 529 
Q 2819 -91 2034 -91 
Q 1250 -91 836 529 
Q 422 1150 422 2328 
Q 422 3509 836 4129 
Q 1250 4750 2034 4750 
z
" transform="scale(0.015625)"/>
        <path id="DejaVuSans-2e" d="M 684 794 
L 1344 794 
L 1344 0 
L 684 0 
L 684 794 
z
" transform="scale(0.015625)"/>
       </defs>
       <use xlink:href="#DejaVuSans-30"/>
       <use xlink:href="#DejaVuSans-2e" x="63.623047"/>
       <use xlink:href="#DejaVuSans-30" x="95.410156"/>
      </g>
     </g>
    </g>
    <g id="xtick_2">
     <g id="line2d_3">
      <path d="M 206.702479 378 
L 206.702479 51.84 
" clip-path="url(#p80276c91e7)" style="fill: none; stroke-dasharray: 2.96,1.28; stroke-dashoffset: 0; stroke: #b0b0b0; stroke-width: 0.8"/>
     </g>
     <g id="line2d_4">
      <g>
       <use xlink:href="#m786d11fa70" x="206.702479" y="378" style="stroke: #000000; stroke-width: 0.8"/>
      </g>
     </g>
     <g id="text_2">
      <!-- 0.2 -->
      <g transform="translate(198.750917 392.598437) scale(0.1 -0.1)">
       <defs>
        <path id="DejaVuSans-32" d="M 1228 531 
L 3431 531 
L 3431 0 
L 469 0 
L 469 531 
Q 828 903 1448 1529 
Q 2069 2156 2228 2338 
Q 2531 2678 2651 2914 
Q 2772 3150 2772 3378 
Q 2772 3750 2511 3984 
Q 2250 4219 1831 4219 
Q 1534 4219 1204 4116 
Q 875 4013 500 3803 
L 500 4441 
Q 881 4594 1212 4672 
Q 1544 4750 1819 4750 
Q 2544 4750 2975 4387 
Q 3406 4025 3406 3419 
Q 3406 3131 3298 2873 
Q 3191 2616 2906 2266 
Q 2828 2175 2409 1742 
Q 1991 1309 1228 531 
z
" transform="scale(0.015625)"/>
       </defs>
       <use xlink:href="#DejaVuSans-30"/>
       <use xlink:href="#DejaVuSans-2e" x="63.623047"/>
       <use xlink:href="#DejaVuSans-32" x="95.410156"/>
      </g>
     </g>
    </g>
    <g id="xtick_3">
     <g id="line2d_5">
      <path d="M 271.264463 378 
L 271.264463 51.84 
" clip-path="url(#p80276c91e7)" style="fill: none; stroke-dasharray: 2.96,1.28; stroke-dashoffset: 0; stroke: #b0b0b0; stroke-width: 0.8"/>
     </g>
     <g id="line2d_6">
      <g>
       <use xlink:href="#m786d11fa70" x="271.264463" y="378" style="stroke: #000000; stroke-width: 0.8"/>
      </g>
     </g>
     <g id="text_3">
      <!-- 0.4 -->
      <g transform="translate(263.3129 392.598437) scale(0.1 -0.1)">
       <defs>
        <path id="DejaVuSans-34" d="M 2419 4116 
L 825 1625 
L 2419 1625 
L 2419 4116 
z
M 2253 4666 
L 3047 4666 
L 3047 1625 
L 3713 1625 
L 3713 1100 
L 3047 1100 
L 3047 0 
L 2419 0 
L 2419 1100 
L 313 1100 
L 313 1709 
L 2253 4666 
z
" transform="scale(0.015625)"/>
       </defs>
       <use xlink:href="#DejaVuSans-30"/>
       <use xlink:href="#DejaVuSans-2e" x="63.623047"/>
       <use xlink:href="#DejaVuSans-34" x="95.410156"/>
      </g>
     </g>
    </g>
    <g id="xtick_4">
     <g id="line2d_7">
      <path d="M 335.826446 378 
L 335.826446 51.84 
" clip-path="url(#p80276c91e7)" style="fill: none; stroke-dasharray: 2.96,1.28; stroke-dashoffset: 0; stroke: #b0b0b0; stroke-width: 0.8"/>
     </g>
     <g id="line2d_8">
      <g>
       <use xlink:href="#m786d11fa70" x="335.826446" y="378" style="stroke: #000000; stroke-width: 0.8"/>
      </g>
     </g>
     <g id="text_4">
      <!-- 0.6 -->
      <g transform="translate(327.874884 392.598437) scale(0.1 -0.1)">
       <defs>
        <path id="DejaVuSans-36" d="M 2113 2584 
Q 1688 2584 1439 2293 
Q 1191 2003 1191 1497 
Q 1191 994 1439 701 
Q 1688 409 2113 409 
Q 2538 409 2786 701 
Q 3034 994 3034 1497 
Q 3034 2003 2786 2293 
Q 2538 2584 2113 2584 
z
M 3366 4563 
L 3366 3988 
Q 3128 4100 2886 4159 
Q 2644 4219 2406 4219 
Q 1781 4219 1451 3797 
Q 1122 3375 1075 2522 
Q 1259 2794 1537 2939 
Q 1816 3084 2150 3084 
Q 2853 3084 3261 2657 
Q 3669 2231 3669 1497 
Q 3669 778 3244 343 
Q 2819 -91 2113 -91 
Q 1303 -91 875 529 
Q 447 1150 447 2328 
Q 447 3434 972 4092 
Q 1497 4750 2381 4750 
Q 2619 4750 2861 4703 
Q 3103 4656 3366 4563 
z
" transform="scale(0.015625)"/>
       </defs>
       <use xlink:href="#DejaVuSans-30"/>
       <use xlink:href="#DejaVuSans-2e" x="63.623047"/>
       <use xlink:href="#DejaVuSans-36" x="95.410156"/>
      </g>
     </g>
    </g>
    <g id="xtick_5">
     <g id="line2d_9">
      <path d="M 400.38843 378 
L 400.38843 51.84 
" clip-path="url(#p80276c91e7)" style="fill: none; stroke-dasharray: 2.96,1.28; stroke-dashoffset: 0; stroke: #b0b0b0; stroke-width: 0.8"/>
     </g>
     <g id="line2d_10">
      <g>
       <use xlink:href="#m786d11fa70" x="400.38843" y="378" style="stroke: #000000; stroke-width: 0.8"/>
      </g>
     </g>
     <g id="text_5">
      <!-- 0.8 -->
      <g transform="translate(392.436867 392.598437) scale(0.1 -0.1)">
       <defs>
        <path id="DejaVuSans-38" d="M 2034 2216 
Q 1584 2216 1326 1975 
Q 1069 1734 1069 1313 
Q 1069 891 1326 650 
Q 1584 409 2034 409 
Q 2484 409 2743 651 
Q 3003 894 3003 1313 
Q 3003 1734 2745 1975 
Q 2488 2216 2034 2216 
z
M 1403 2484 
Q 997 2584 770 2862 
Q 544 3141 544 3541 
Q 544 4100 942 4425 
Q 1341 4750 2034 4750 
Q 2731 4750 3128 4425 
Q 3525 4100 3525 3541 
Q 3525 3141 3298 2862 
Q 3072 2584 2669 2484 
Q 3125 2378 3379 2068 
Q 3634 1759 3634 1313 
Q 3634 634 3220 271 
Q 2806 -91 2034 -91 
Q 1263 -91 848 271 
Q 434 634 434 1313 
Q 434 1759 690 2068 
Q 947 2378 1403 2484 
z
M 1172 3481 
Q 1172 3119 1398 2916 
Q 1625 2713 2034 2713 
Q 2441 2713 2670 2916 
Q 2900 3119 2900 3481 
Q 2900 3844 2670 4047 
Q 2441 4250 2034 4250 
Q 1625 4250 1398 4047 
Q 1172 3844 1172 3481 
z
" transform="scale(0.015625)"/>
       </defs>
       <use xlink:href="#DejaVuSans-30"/>
       <use xlink:href="#DejaVuSans-2e" x="63.623047"/>
       <use xlink:href="#DejaVuSans-38" x="95.410156"/>
      </g>
     </g>
    </g>
    <g id="xtick_6">
     <g id="line2d_11">
      <path d="M 464.950413 378 
L 464.950413 51.84 
" clip-path="url(#p80276c91e7)" style="fill: none; stroke-dasharray: 2.96,1.28; stroke-dashoffset: 0; stroke: #b0b0b0; stroke-width: 0.8"/>
     </g>
     <g id="line2d_12">
      <g>
       <use xlink:href="#m786d11fa70" x="464.950413" y="378" style="stroke: #000000; stroke-width: 0.8"/>
      </g>
     </g>
     <g id="text_6">
      <!-- 1.0 -->
      <g transform="translate(456.998851 392.598437) scale(0.1 -0.1)">
       <defs>
        <path id="DejaVuSans-31" d="M 794 531 
L 1825 531 
L 1825 4091 
L 703 3866 
L 703 4441 
L 1819 4666 
L 2450 4666 
L 2450 531 
L 3481 531 
L 3481 0 
L 794 0 
L 794 531 
z
" transform="scale(0.015625)"/>
       </defs>
       <use xlink:href="#DejaVuSans-31"/>
       <use xlink:href="#DejaVuSans-2e" x="63.623047"/>
       <use xlink:href="#DejaVuSans-30" x="95.410156"/>
      </g>
     </g>
    </g>
    <g id="text_7">
     <!-- False Positive Rate (Positive label: 1) -->
     <g transform="translate(212.17983 406.276563) scale(0.1 -0.1)">
      <defs>
       <path id="DejaVuSans-46" d="M 628 4666 
L 3309 4666 
L 3309 4134 
L 1259 4134 
L 1259 2759 
L 3109 2759 
L 3109 2228 
L 1259 2228 
L 1259 0 
L 628 0 
L 628 4666 
z
" transform="scale(0.015625)"/>
       <path id="DejaVuSans-61" d="M 2194 1759 
Q 1497 1759 1228 1600 
Q 959 1441 959 1056 
Q 959 750 1161 570 
Q 1363 391 1709 391 
Q 2188 391 2477 730 
Q 2766 1069 2766 1631 
L 2766 1759 
L 2194 1759 
z
M 3341 1997 
L 3341 0 
L 2766 0 
L 2766 531 
Q 2569 213 2275 61 
Q 1981 -91 1556 -91 
Q 1019 -91 701 211 
Q 384 513 384 1019 
Q 384 1609 779 1909 
Q 1175 2209 1959 2209 
L 2766 2209 
L 2766 2266 
Q 2766 2663 2505 2880 
Q 2244 3097 1772 3097 
Q 1472 3097 1187 3025 
Q 903 2953 641 2809 
L 641 3341 
Q 956 3463 1253 3523 
Q 1550 3584 1831 3584 
Q 2591 3584 2966 3190 
Q 3341 2797 3341 1997 
z
" transform="scale(0.015625)"/>
       <path id="DejaVuSans-6c" d="M 603 4863 
L 1178 4863 
L 1178 0 
L 603 0 
L 603 4863 
z
" transform="scale(0.015625)"/>
       <path id="DejaVuSans-73" d="M 2834 3397 
L 2834 2853 
Q 2591 2978 2328 3040 
Q 2066 3103 1784 3103 
Q 1356 3103 1142 2972 
Q 928 2841 928 2578 
Q 928 2378 1081 2264 
Q 1234 2150 1697 2047 
L 1894 2003 
Q 2506 1872 2764 1633 
Q 3022 1394 3022 966 
Q 3022 478 2636 193 
Q 2250 -91 1575 -91 
Q 1294 -91 989 -36 
Q 684 19 347 128 
L 347 722 
Q 666 556 975 473 
Q 1284 391 1588 391 
Q 1994 391 2212 530 
Q 2431 669 2431 922 
Q 2431 1156 2273 1281 
Q 2116 1406 1581 1522 
L 1381 1569 
Q 847 1681 609 1914 
Q 372 2147 372 2553 
Q 372 3047 722 3315 
Q 1072 3584 1716 3584 
Q 2034 3584 2315 3537 
Q 2597 3491 2834 3397 
z
" transform="scale(0.015625)"/>
       <path id="DejaVuSans-65" d="M 3597 1894 
L 3597 1613 
L 953 1613 
Q 991 1019 1311 708 
Q 1631 397 2203 397 
Q 2534 397 2845 478 
Q 3156 559 3463 722 
L 3463 178 
Q 3153 47 2828 -22 
Q 2503 -91 2169 -91 
Q 1331 -91 842 396 
Q 353 884 353 1716 
Q 353 2575 817 3079 
Q 1281 3584 2069 3584 
Q 2775 3584 3186 3129 
Q 3597 2675 3597 1894 
z
M 3022 2063 
Q 3016 2534 2758 2815 
Q 2500 3097 2075 3097 
Q 1594 3097 1305 2825 
Q 1016 2553 972 2059 
L 3022 2063 
z
" transform="scale(0.015625)"/>
       <path id="DejaVuSans-20" transform="scale(0.015625)"/>
       <path id="DejaVuSans-50" d="M 1259 4147 
L 1259 2394 
L 2053 2394 
Q 2494 2394 2734 2622 
Q 2975 2850 2975 3272 
Q 2975 3691 2734 3919 
Q 2494 4147 2053 4147 
L 1259 4147 
z
M 628 4666 
L 2053 4666 
Q 2838 4666 3239 4311 
Q 3641 3956 3641 3272 
Q 3641 2581 3239 2228 
Q 2838 1875 2053 1875 
L 1259 1875 
L 1259 0 
L 628 0 
L 628 4666 
z
" transform="scale(0.015625)"/>
       <path id="DejaVuSans-6f" d="M 1959 3097 
Q 1497 3097 1228 2736 
Q 959 2375 959 1747 
Q 959 1119 1226 758 
Q 1494 397 1959 397 
Q 2419 397 2687 759 
Q 2956 1122 2956 1747 
Q 2956 2369 2687 2733 
Q 2419 3097 1959 3097 
z
M 1959 3584 
Q 2709 3584 3137 3096 
Q 3566 2609 3566 1747 
Q 3566 888 3137 398 
Q 2709 -91 1959 -91 
Q 1206 -91 779 398 
Q 353 888 353 1747 
Q 353 2609 779 3096 
Q 1206 3584 1959 3584 
z
" transform="scale(0.015625)"/>
       <path id="DejaVuSans-69" d="M 603 3500 
L 1178 3500 
L 1178 0 
L 603 0 
L 603 3500 
z
M 603 4863 
L 1178 4863 
L 1178 4134 
L 603 4134 
L 603 4863 
z
" transform="scale(0.015625)"/>
       <path id="DejaVuSans-74" d="M 1172 4494 
L 1172 3500 
L 2356 3500 
L 2356 3053 
L 1172 3053 
L 1172 1153 
Q 1172 725 1289 603 
Q 1406 481 1766 481 
L 2356 481 
L 2356 0 
L 1766 0 
Q 1100 0 847 248 
Q 594 497 594 1153 
L 594 3053 
L 172 3053 
L 172 3500 
L 594 3500 
L 594 4494 
L 1172 4494 
z
" transform="scale(0.015625)"/>
       <path id="DejaVuSans-76" d="M 191 3500 
L 800 3500 
L 1894 563 
L 2988 3500 
L 3597 3500 
L 2284 0 
L 1503 0 
L 191 3500 
z
" transform="scale(0.015625)"/>
       <path id="DejaVuSans-52" d="M 2841 2188 
Q 3044 2119 3236 1894 
Q 3428 1669 3622 1275 
L 4263 0 
L 3584 0 
L 2988 1197 
Q 2756 1666 2539 1819 
Q 2322 1972 1947 1972 
L 1259 1972 
L 1259 0 
L 628 0 
L 628 4666 
L 2053 4666 
Q 2853 4666 3247 4331 
Q 3641 3997 3641 3322 
Q 3641 2881 3436 2590 
Q 3231 2300 2841 2188 
z
M 1259 4147 
L 1259 2491 
L 2053 2491 
Q 2509 2491 2742 2702 
Q 2975 2913 2975 3322 
Q 2975 3731 2742 3939 
Q 2509 4147 2053 4147 
L 1259 4147 
z
" transform="scale(0.015625)"/>
       <path id="DejaVuSans-28" d="M 1984 4856 
Q 1566 4138 1362 3434 
Q 1159 2731 1159 2009 
Q 1159 1288 1364 580 
Q 1569 -128 1984 -844 
L 1484 -844 
Q 1016 -109 783 600 
Q 550 1309 550 2009 
Q 550 2706 781 3412 
Q 1013 4119 1484 4856 
L 1984 4856 
z
" transform="scale(0.015625)"/>
       <path id="DejaVuSans-62" d="M 3116 1747 
Q 3116 2381 2855 2742 
Q 2594 3103 2138 3103 
Q 1681 3103 1420 2742 
Q 1159 2381 1159 1747 
Q 1159 1113 1420 752 
Q 1681 391 2138 391 
Q 2594 391 2855 752 
Q 3116 1113 3116 1747 
z
M 1159 2969 
Q 1341 3281 1617 3432 
Q 1894 3584 2278 3584 
Q 2916 3584 3314 3078 
Q 3713 2572 3713 1747 
Q 3713 922 3314 415 
Q 2916 -91 2278 -91 
Q 1894 -91 1617 61 
Q 1341 213 1159 525 
L 1159 0 
L 581 0 
L 581 4863 
L 1159 4863 
L 1159 2969 
z
" transform="scale(0.015625)"/>
       <path id="DejaVuSans-3a" d="M 750 794 
L 1409 794 
L 1409 0 
L 750 0 
L 750 794 
z
M 750 3309 
L 1409 3309 
L 1409 2516 
L 750 2516 
L 750 3309 
z
" transform="scale(0.015625)"/>
       <path id="DejaVuSans-29" d="M 513 4856 
L 1013 4856 
Q 1481 4119 1714 3412 
Q 1947 2706 1947 2009 
Q 1947 1309 1714 600 
Q 1481 -109 1013 -844 
L 513 -844 
Q 928 -128 1133 580 
Q 1338 1288 1338 2009 
Q 1338 2731 1133 3434 
Q 928 4138 513 4856 
z
" transform="scale(0.015625)"/>
      </defs>
      <use xlink:href="#DejaVuSans-46"/>
      <use xlink:href="#DejaVuSans-61" x="48.394531"/>
      <use xlink:href="#DejaVuSans-6c" x="109.673828"/>
      <use xlink:href="#DejaVuSans-73" x="137.457031"/>
      <use xlink:href="#DejaVuSans-65" x="189.556641"/>
      <use xlink:href="#DejaVuSans-20" x="251.080078"/>
      <use xlink:href="#DejaVuSans-50" x="282.867188"/>
      <use xlink:href="#DejaVuSans-6f" x="339.544922"/>
      <use xlink:href="#DejaVuSans-73" x="400.726562"/>
      <use xlink:href="#DejaVuSans-69" x="452.826172"/>
      <use xlink:href="#DejaVuSans-74" x="480.609375"/>
      <use xlink:href="#DejaVuSans-69" x="519.818359"/>
      <use xlink:href="#DejaVuSans-76" x="547.601562"/>
      <use xlink:href="#DejaVuSans-65" x="606.78125"/>
      <use xlink:href="#DejaVuSans-20" x="668.304688"/>
      <use xlink:href="#DejaVuSans-52" x="700.091797"/>
      <use xlink:href="#DejaVuSans-61" x="767.324219"/>
      <use xlink:href="#DejaVuSans-74" x="828.603516"/>
      <use xlink:href="#DejaVuSans-65" x="867.8125"/>
      <use xlink:href="#DejaVuSans-20" x="929.335938"/>
      <use xlink:href="#DejaVuSans-28" x="961.123047"/>
      <use xlink:href="#DejaVuSans-50" x="1000.136719"/>
      <use xlink:href="#DejaVuSans-6f" x="1056.814453"/>
      <use xlink:href="#DejaVuSans-73" x="1117.996094"/>
      <use xlink:href="#DejaVuSans-69" x="1170.095703"/>
      <use xlink:href="#DejaVuSans-74" x="1197.878906"/>
      <use xlink:href="#DejaVuSans-69" x="1237.087891"/>
      <use xlink:href="#DejaVuSans-76" x="1264.871094"/>
      <use xlink:href="#DejaVuSans-65" x="1324.050781"/>
      <use xlink:href="#DejaVuSans-20" x="1385.574219"/>
      <use xlink:href="#DejaVuSans-6c" x="1417.361328"/>
      <use xlink:href="#DejaVuSans-61" x="1445.144531"/>
      <use xlink:href="#DejaVuSans-62" x="1506.423828"/>
      <use xlink:href="#DejaVuSans-65" x="1569.900391"/>
      <use xlink:href="#DejaVuSans-6c" x="1631.423828"/>
      <use xlink:href="#DejaVuSans-3a" x="1659.207031"/>
      <use xlink:href="#DejaVuSans-20" x="1692.898438"/>
      <use xlink:href="#DejaVuSans-31" x="1724.685547"/>
      <use xlink:href="#DejaVuSans-29" x="1788.308594"/>
     </g>
    </g>
   </g>
   <g id="matplotlib.axis_2">
    <g id="ytick_1">
     <g id="line2d_13">
      <path d="M 126 363.174545 
L 481.090909 363.174545 
" clip-path="url(#p80276c91e7)" style="fill: none; stroke-dasharray: 2.96,1.28; stroke-dashoffset: 0; stroke: #b0b0b0; stroke-width: 0.8"/>
     </g>
     <g id="line2d_14">
      <defs>
       <path id="m395656935b" d="M 0 0 
L -3.5 0 
" style="stroke: #000000; stroke-width: 0.8"/>
      </defs>
      <g>
       <use xlink:href="#m395656935b" x="126" y="363.174545" style="stroke: #000000; stroke-width: 0.8"/>
      </g>
     </g>
     <g id="text_8">
      <!-- 0.0 -->
      <g transform="translate(103.096875 366.973764) scale(0.1 -0.1)">
       <use xlink:href="#DejaVuSans-30"/>
       <use xlink:href="#DejaVuSans-2e" x="63.623047"/>
       <use xlink:href="#DejaVuSans-30" x="95.410156"/>
      </g>
     </g>
    </g>
    <g id="ytick_2">
     <g id="line2d_15">
      <path d="M 126 303.872727 
L 481.090909 303.872727 
" clip-path="url(#p80276c91e7)" style="fill: none; stroke-dasharray: 2.96,1.28; stroke-dashoffset: 0; stroke: #b0b0b0; stroke-width: 0.8"/>
     </g>
     <g id="line2d_16">
      <g>
       <use xlink:href="#m395656935b" x="126" y="303.872727" style="stroke: #000000; stroke-width: 0.8"/>
      </g>
     </g>
     <g id="text_9">
      <!-- 0.2 -->
      <g transform="translate(103.096875 307.671946) scale(0.1 -0.1)">
       <use xlink:href="#DejaVuSans-30"/>
       <use xlink:href="#DejaVuSans-2e" x="63.623047"/>
       <use xlink:href="#DejaVuSans-32" x="95.410156"/>
      </g>
     </g>
    </g>
    <g id="ytick_3">
     <g id="line2d_17">
      <path d="M 126 244.570909 
L 481.090909 244.570909 
" clip-path="url(#p80276c91e7)" style="fill: none; stroke-dasharray: 2.96,1.28; stroke-dashoffset: 0; stroke: #b0b0b0; stroke-width: 0.8"/>
     </g>
     <g id="line2d_18">
      <g>
       <use xlink:href="#m395656935b" x="126" y="244.570909" style="stroke: #000000; stroke-width: 0.8"/>
      </g>
     </g>
     <g id="text_10">
      <!-- 0.4 -->
      <g transform="translate(103.096875 248.370128) scale(0.1 -0.1)">
       <use xlink:href="#DejaVuSans-30"/>
       <use xlink:href="#DejaVuSans-2e" x="63.623047"/>
       <use xlink:href="#DejaVuSans-34" x="95.410156"/>
      </g>
     </g>
    </g>
    <g id="ytick_4">
     <g id="line2d_19">
      <path d="M 126 185.269091 
L 481.090909 185.269091 
" clip-path="url(#p80276c91e7)" style="fill: none; stroke-dasharray: 2.96,1.28; stroke-dashoffset: 0; stroke: #b0b0b0; stroke-width: 0.8"/>
     </g>
     <g id="line2d_20">
      <g>
       <use xlink:href="#m395656935b" x="126" y="185.269091" style="stroke: #000000; stroke-width: 0.8"/>
      </g>
     </g>
     <g id="text_11">
      <!-- 0.6 -->
      <g transform="translate(103.096875 189.06831) scale(0.1 -0.1)">
       <use xlink:href="#DejaVuSans-30"/>
       <use xlink:href="#DejaVuSans-2e" x="63.623047"/>
       <use xlink:href="#DejaVuSans-36" x="95.410156"/>
      </g>
     </g>
    </g>
    <g id="ytick_5">
     <g id="line2d_21">
      <path d="M 126 125.967273 
L 481.090909 125.967273 
" clip-path="url(#p80276c91e7)" style="fill: none; stroke-dasharray: 2.96,1.28; stroke-dashoffset: 0; stroke: #b0b0b0; stroke-width: 0.8"/>
     </g>
     <g id="line2d_22">
      <g>
       <use xlink:href="#m395656935b" x="126" y="125.967273" style="stroke: #000000; stroke-width: 0.8"/>
      </g>
     </g>
     <g id="text_12">
      <!-- 0.8 -->
      <g transform="translate(103.096875 129.766491) scale(0.1 -0.1)">
       <use xlink:href="#DejaVuSans-30"/>
       <use xlink:href="#DejaVuSans-2e" x="63.623047"/>
       <use xlink:href="#DejaVuSans-38" x="95.410156"/>
      </g>
     </g>
    </g>
    <g id="ytick_6">
     <g id="line2d_23">
      <path d="M 126 66.665455 
L 481.090909 66.665455 
" clip-path="url(#p80276c91e7)" style="fill: none; stroke-dasharray: 2.96,1.28; stroke-dashoffset: 0; stroke: #b0b0b0; stroke-width: 0.8"/>
     </g>
     <g id="line2d_24">
      <g>
       <use xlink:href="#m395656935b" x="126" y="66.665455" style="stroke: #000000; stroke-width: 0.8"/>
      </g>
     </g>
     <g id="text_13">
      <!-- 1.0 -->
      <g transform="translate(103.096875 70.464673) scale(0.1 -0.1)">
       <use xlink:href="#DejaVuSans-31"/>
       <use xlink:href="#DejaVuSans-2e" x="63.623047"/>
       <use xlink:href="#DejaVuSans-30" x="95.410156"/>
      </g>
     </g>
    </g>
    <g id="text_14">
     <!-- True Positive Rate (Positive label: 1) -->
     <g transform="translate(97.017187 304.348906) rotate(-90) scale(0.1 -0.1)">
      <defs>
       <path id="DejaVuSans-54" d="M -19 4666 
L 3928 4666 
L 3928 4134 
L 2272 4134 
L 2272 0 
L 1638 0 
L 1638 4134 
L -19 4134 
L -19 4666 
z
" transform="scale(0.015625)"/>
       <path id="DejaVuSans-72" d="M 2631 2963 
Q 2534 3019 2420 3045 
Q 2306 3072 2169 3072 
Q 1681 3072 1420 2755 
Q 1159 2438 1159 1844 
L 1159 0 
L 581 0 
L 581 3500 
L 1159 3500 
L 1159 2956 
Q 1341 3275 1631 3429 
Q 1922 3584 2338 3584 
Q 2397 3584 2469 3576 
Q 2541 3569 2628 3553 
L 2631 2963 
z
" transform="scale(0.015625)"/>
       <path id="DejaVuSans-75" d="M 544 1381 
L 544 3500 
L 1119 3500 
L 1119 1403 
Q 1119 906 1312 657 
Q 1506 409 1894 409 
Q 2359 409 2629 706 
Q 2900 1003 2900 1516 
L 2900 3500 
L 3475 3500 
L 3475 0 
L 2900 0 
L 2900 538 
Q 2691 219 2414 64 
Q 2138 -91 1772 -91 
Q 1169 -91 856 284 
Q 544 659 544 1381 
z
M 1991 3584 
L 1991 3584 
z
" transform="scale(0.015625)"/>
      </defs>
      <use xlink:href="#DejaVuSans-54"/>
      <use xlink:href="#DejaVuSans-72" x="46.333984"/>
      <use xlink:href="#DejaVuSans-75" x="87.447266"/>
      <use xlink:href="#DejaVuSans-65" x="150.826172"/>
      <use xlink:href="#DejaVuSans-20" x="212.349609"/>
      <use xlink:href="#DejaVuSans-50" x="244.136719"/>
      <use xlink:href="#DejaVuSans-6f" x="300.814453"/>
      <use xlink:href="#DejaVuSans-73" x="361.996094"/>
      <use xlink:href="#DejaVuSans-69" x="414.095703"/>
      <use xlink:href="#DejaVuSans-74" x="441.878906"/>
      <use xlink:href="#DejaVuSans-69" x="481.087891"/>
      <use xlink:href="#DejaVuSans-76" x="508.871094"/>
      <use xlink:href="#DejaVuSans-65" x="568.050781"/>
      <use xlink:href="#DejaVuSans-20" x="629.574219"/>
      <use xlink:href="#DejaVuSans-52" x="661.361328"/>
      <use xlink:href="#DejaVuSans-61" x="728.59375"/>
      <use xlink:href="#DejaVuSans-74" x="789.873047"/>
      <use xlink:href="#DejaVuSans-65" x="829.082031"/>
      <use xlink:href="#DejaVuSans-20" x="890.605469"/>
      <use xlink:href="#DejaVuSans-28" x="922.392578"/>
      <use xlink:href="#DejaVuSans-50" x="961.40625"/>
      <use xlink:href="#DejaVuSans-6f" x="1018.083984"/>
      <use xlink:href="#DejaVuSans-73" x="1079.265625"/>
      <use xlink:href="#DejaVuSans-69" x="1131.365234"/>
      <use xlink:href="#DejaVuSans-74" x="1159.148438"/>
      <use xlink:href="#DejaVuSans-69" x="1198.357422"/>
      <use xlink:href="#DejaVuSans-76" x="1226.140625"/>
      <use xlink:href="#DejaVuSans-65" x="1285.320312"/>
      <use xlink:href="#DejaVuSans-20" x="1346.84375"/>
      <use xlink:href="#DejaVuSans-6c" x="1378.630859"/>
      <use xlink:href="#DejaVuSans-61" x="1406.414062"/>
      <use xlink:href="#DejaVuSans-62" x="1467.693359"/>
      <use xlink:href="#DejaVuSans-65" x="1531.169922"/>
      <use xlink:href="#DejaVuSans-6c" x="1592.693359"/>
      <use xlink:href="#DejaVuSans-3a" x="1620.476562"/>
      <use xlink:href="#DejaVuSans-20" x="1654.167969"/>
      <use xlink:href="#DejaVuSans-31" x="1685.955078"/>
      <use xlink:href="#DejaVuSans-29" x="1749.578125"/>
     </g>
    </g>
   </g>
   <g id="line2d_25">
    <path d="M 142.140496 363.174545 
L 142.140496 66.665455 
L 464.950413 66.665455 
L 464.950413 66.665455 
" clip-path="url(#p80276c91e7)" style="fill: none; stroke: #1f77b4; stroke-width: 1.5; stroke-linecap: square"/>
   </g>
   <g id="line2d_26">
    <path d="M 142.140496 363.174545 
L 142.140496 360.858068 
L 142.945508 360.858068 
L 142.945508 340.781932 
L 143.75052 340.781932 
L 143.75052 327.655227 
L 144.555533 327.655227 
L 144.555533 320.705795 
L 145.360545 320.705795 
L 145.360545 307.579091 
L 146.165557 307.579091 
L 146.165557 285.958636 
L 146.970569 285.958636 
L 146.970569 275.920568 
L 147.775582 275.920568 
L 147.775582 272.831932 
L 150.190618 272.831932 
L 150.190618 267.426818 
L 150.995631 267.426818 
L 150.995631 264.338182 
L 152.605655 264.338182 
L 152.605655 245.034205 
L 153.410668 245.034205 
L 153.410668 241.173409 
L 154.21568 241.173409 
L 154.21568 235.768295 
L 155.825704 235.768295 
L 155.825704 208.742727 
L 156.630717 208.742727 
L 156.630717 201.793295 
L 157.435729 201.793295 
L 157.435729 197.160341 
L 158.240741 197.160341 
L 158.240741 194.843864 
L 159.045753 194.843864 
L 159.045753 191.755227 
L 159.850766 191.755227 
L 159.850766 190.210909 
L 160.655778 190.210909 
L 160.655778 187.122273 
L 161.46079 187.122273 
L 161.46079 177.856364 
L 162.265802 177.856364 
L 162.265802 173.223409 
L 163.070815 173.223409 
L 163.070815 170.906932 
L 163.875827 170.906932 
L 163.875827 167.046136 
L 165.485851 167.046136 
L 165.485851 163.185341 
L 166.290864 163.185341 
L 166.290864 160.096705 
L 167.095876 160.096705 
L 167.095876 158.552386 
L 167.900888 158.552386 
L 167.900888 157.780227 
L 168.705901 157.780227 
L 168.705901 155.46375 
L 170.315925 155.46375 
L 170.315925 154.691591 
L 171.120937 154.691591 
L 171.120937 153.147273 
L 172.730962 153.147273 
L 172.730962 147.742159 
L 173.535974 147.742159 
L 173.535974 146.197841 
L 174.340986 146.197841 
L 174.340986 141.564886 
L 175.951011 141.564886 
L 175.951011 139.248409 
L 176.756023 139.248409 
L 176.756023 137.704091 
L 177.561035 137.704091 
L 177.561035 133.071136 
L 178.366048 133.071136 
L 178.366048 129.9825 
L 179.17106 129.9825 
L 179.17106 129.210341 
L 179.976072 129.210341 
L 179.976072 127.666023 
L 180.781084 127.666023 
L 180.781084 126.893864 
L 181.586097 126.893864 
L 181.586097 126.121705 
L 184.001134 126.121705 
L 184.001134 123.033068 
L 184.806146 123.033068 
L 184.806146 116.855795 
L 185.611158 116.855795 
L 185.611158 114.539318 
L 188.026195 114.539318 
L 188.026195 113.767159 
L 191.246244 113.767159 
L 191.246244 112.995 
L 192.856268 112.995 
L 192.856268 110.678523 
L 195.271305 110.678523 
L 195.271305 109.906364 
L 196.88133 109.906364 
L 196.88133 107.589886 
L 198.491354 107.589886 
L 198.491354 106.817727 
L 199.296367 106.817727 
L 199.296367 106.045568 
L 200.906391 106.045568 
L 200.906391 105.273409 
L 201.711403 105.273409 
L 201.711403 104.50125 
L 202.516416 104.50125 
L 202.516416 101.412614 
L 204.931452 101.412614 
L 204.931452 100.640455 
L 208.151501 100.640455 
L 208.151501 98.323977 
L 208.956514 98.323977 
L 208.956514 96.0075 
L 209.761526 96.0075 
L 209.761526 94.463182 
L 212.981575 94.463182 
L 212.981575 93.691023 
L 213.786587 93.691023 
L 213.786587 89.830227 
L 214.5916 89.830227 
L 214.5916 89.058068 
L 216.201624 89.058068 
L 216.201624 86.741591 
L 218.616661 86.741591 
L 218.616661 85.197273 
L 232.301869 85.197273 
L 232.301869 82.880795 
L 234.716906 82.880795 
L 234.716906 82.108636 
L 242.767029 82.108636 
L 242.767029 80.564318 
L 245.987078 80.564318 
L 245.987078 79.02 
L 246.79209 79.02 
L 246.79209 78.247841 
L 249.207127 78.247841 
L 249.207127 77.475682 
L 252.427176 77.475682 
L 252.427176 75.931364 
L 263.697348 75.931364 
L 263.697348 74.387045 
L 266.112384 74.387045 
L 266.112384 73.614886 
L 270.137446 73.614886 
L 270.137446 72.842727 
L 275.772531 72.842727 
L 275.772531 72.070568 
L 282.21263 72.070568 
L 282.21263 71.298409 
L 290.262752 71.298409 
L 290.262752 70.52625 
L 303.142948 70.52625 
L 303.142948 69.754091 
L 306.362997 69.754091 
L 306.362997 68.981932 
L 324.073267 68.981932 
L 324.073267 68.209773 
L 336.953463 68.209773 
L 336.953463 67.437614 
L 348.223635 67.437614 
L 348.223635 66.665455 
L 464.950413 66.665455 
L 464.950413 66.665455 
" clip-path="url(#p80276c91e7)" style="fill: none; stroke: #ff7f0e; stroke-width: 1.5; stroke-linecap: square"/>
   </g>
   <g id="line2d_27">
    <path d="M 142.140496 363.174545 
L 142.140496 321.477955 
L 142.945508 321.477955 
L 142.945508 320.705795 
L 143.75052 320.705795 
L 143.75052 299.085341 
L 144.555533 299.085341 
L 144.555533 290.591591 
L 145.360545 290.591591 
L 145.360545 279.781364 
L 146.165557 279.781364 
L 146.165557 279.009205 
L 146.970569 279.009205 
L 146.970569 266.654659 
L 147.775582 266.654659 
L 147.775582 245.806364 
L 148.580594 245.806364 
L 148.580594 244.262045 
L 149.385606 244.262045 
L 149.385606 242.717727 
L 150.190618 242.717727 
L 150.190618 241.173409 
L 150.995631 241.173409 
L 150.995631 238.856932 
L 151.800643 238.856932 
L 151.800643 235.768295 
L 152.605655 235.768295 
L 152.605655 198.704659 
L 153.410668 198.704659 
L 153.410668 173.995568 
L 155.020692 173.995568 
L 155.020692 167.818295 
L 155.825704 167.818295 
L 155.825704 166.273977 
L 156.630717 166.273977 
L 156.630717 155.46375 
L 158.240741 155.46375 
L 158.240741 153.919432 
L 159.045753 153.919432 
L 159.045753 152.375114 
L 159.850766 152.375114 
L 159.850766 149.286477 
L 160.655778 149.286477 
L 160.655778 146.197841 
L 161.46079 146.197841 
L 161.46079 143.109205 
L 162.265802 143.109205 
L 162.265802 140.020568 
L 163.070815 140.020568 
L 163.070815 139.248409 
L 163.875827 139.248409 
L 163.875827 137.704091 
L 164.680839 137.704091 
L 164.680839 134.615455 
L 165.485851 134.615455 
L 165.485851 132.298977 
L 167.095876 132.298977 
L 167.095876 129.9825 
L 167.900888 129.9825 
L 167.900888 128.438182 
L 168.705901 128.438182 
L 168.705901 112.995 
L 169.510913 112.995 
L 169.510913 108.362045 
L 170.315925 108.362045 
L 170.315925 106.817727 
L 171.120937 106.817727 
L 171.120937 100.640455 
L 172.730962 100.640455 
L 172.730962 98.323977 
L 174.340986 98.323977 
L 174.340986 96.779659 
L 175.951011 96.779659 
L 175.951011 96.0075 
L 176.756023 96.0075 
L 176.756023 92.918864 
L 179.17106 92.918864 
L 179.17106 92.146705 
L 179.976072 92.146705 
L 179.976072 91.374545 
L 180.781084 91.374545 
L 180.781084 88.285909 
L 181.586097 88.285909 
L 181.586097 87.51375 
L 184.806146 82.880795 
L 184.806146 82.108636 
L 186.41617 82.108636 
L 186.41617 81.336477 
L 188.026195 81.336477 
L 188.026195 80.564318 
L 189.636219 80.564318 
L 189.636219 79.792159 
L 191.246244 79.792159 
L 191.246244 79.02 
L 195.271305 79.02 
L 195.271305 78.247841 
L 196.076317 78.247841 
L 196.076317 77.475682 
L 200.906391 77.475682 
L 200.906391 75.931364 
L 201.711403 75.931364 
L 201.711403 75.159205 
L 208.151501 75.159205 
L 208.151501 73.614886 
L 208.956514 73.614886 
L 208.956514 72.842727 
L 210.566538 72.842727 
L 210.566538 72.070568 
L 222.641722 72.070568 
L 222.641722 70.52625 
L 229.08182 70.52625 
L 229.08182 69.754091 
L 237.936955 69.754091 
L 237.936955 68.981932 
L 238.741967 68.981932 
L 238.741967 68.209773 
L 259.672286 68.209773 
L 259.672286 67.437614 
L 278.187568 67.437614 
L 278.187568 66.665455 
L 464.950413 66.665455 
L 464.950413 66.665455 
" clip-path="url(#p80276c91e7)" style="fill: none; stroke: #2ca02c; stroke-width: 1.5; stroke-linecap: square"/>
   </g>
   <g id="line2d_28">
    <path d="M 142.140496 363.174545 
L 142.140496 361.630227 
L 142.140496 360.858068 
L 142.140496 358.541591 
L 142.140496 353.908636 
L 142.140496 352.364318 
L 142.140496 336.148977 
L 142.140496 333.8325 
L 142.140496 311.439886 
L 142.140496 309.895568 
L 142.140496 307.579091 
L 142.140496 306.034773 
L 142.140496 302.946136 
L 142.140496 301.401818 
L 142.140496 292.135909 
L 142.140496 290.591591 
L 142.140496 288.275114 
L 142.140496 286.730795 
L 142.140496 282.097841 
L 142.140496 280.553523 
L 142.140496 275.148409 
L 142.140496 273.604091 
L 142.140496 272.831932 
L 142.140496 271.287614 
L 142.140496 268.198977 
L 142.140496 265.110341 
L 142.140496 252.755795 
L 142.140496 251.211477 
L 142.140496 237.312614 
L 142.140496 234.996136 
L 142.140496 234.223977 
L 142.140496 232.679659 
L 142.140496 220.325114 
L 142.140496 217.236477 
L 142.140496 216.464318 
L 142.140496 214.147841 
L 142.140496 213.375682 
L 142.140496 210.287045 
L 142.140496 207.970568 
L 142.140496 206.42625 
L 142.140496 188.666591 
L 142.140496 187.122273 
L 142.140496 180.172841 
L 142.140496 178.628523 
L 142.140496 176.312045 
L 142.140496 174.767727 
L 142.140496 173.223409 
L 142.140496 167.046136 
L 142.140496 164.729659 
L 142.140496 163.185341 
L 142.140496 157.780227 
L 142.140496 156.235909 
L 142.140496 142.337045 
L 142.140496 140.020568 
L 142.140496 91.374545 
L 142.140496 89.830227 
L 142.140496 66.665455 
L 161.46079 66.665455 
L 163.070815 66.665455 
L 176.756023 66.665455 
L 178.366048 66.665455 
L 198.491354 66.665455 
L 200.101379 66.665455 
L 232.301869 66.665455 
L 233.911894 66.665455 
L 327.293316 66.665455 
L 332.928402 66.665455 
L 337.758476 66.665455 
L 340.173512 66.665455 
L 343.393562 66.665455 
L 345.003586 66.665455 
L 345.808598 66.665455 
L 349.028647 66.665455 
L 369.958966 66.665455 
L 371.568991 66.665455 
L 429.529874 66.665455 
L 431.94491 66.665455 
L 435.969972 66.665455 
L 439.190021 66.665455 
L 441.605058 66.665455 
L 443.215082 66.665455 
L 444.020094 66.665455 
L 445.630119 66.665455 
L 464.950413 66.665455 
" clip-path="url(#p80276c91e7)" style="fill: none; stroke: #d62728; stroke-width: 1.5; stroke-linecap: square"/>
   </g>
   <g id="patch_3">
    <path d="M 126 378 
L 126 51.84 
" style="fill: none; stroke: #000000; stroke-width: 0.8; stroke-linejoin: miter; stroke-linecap: square"/>
   </g>
   <g id="patch_4">
    <path d="M 481.090909 378 
L 481.090909 51.84 
" style="fill: none; stroke: #000000; stroke-width: 0.8; stroke-linejoin: miter; stroke-linecap: square"/>
   </g>
   <g id="patch_5">
    <path d="M 126 378 
L 481.090909 378 
" style="fill: none; stroke: #000000; stroke-width: 0.8; stroke-linejoin: miter; stroke-linecap: square"/>
   </g>
   <g id="patch_6">
    <path d="M 126 51.84 
L 481.090909 51.84 
" style="fill: none; stroke: #000000; stroke-width: 0.8; stroke-linejoin: miter; stroke-linecap: square"/>
   </g>
   <g id="text_15">
    <!-- Curvas ROC en el entrenamiento  -->
    <g transform="translate(202.885142 45.84) scale(0.12 -0.12)">
     <defs>
      <path id="DejaVuSans-43" d="M 4122 4306 
L 4122 3641 
Q 3803 3938 3442 4084 
Q 3081 4231 2675 4231 
Q 1875 4231 1450 3742 
Q 1025 3253 1025 2328 
Q 1025 1406 1450 917 
Q 1875 428 2675 428 
Q 3081 428 3442 575 
Q 3803 722 4122 1019 
L 4122 359 
Q 3791 134 3420 21 
Q 3050 -91 2638 -91 
Q 1578 -91 968 557 
Q 359 1206 359 2328 
Q 359 3453 968 4101 
Q 1578 4750 2638 4750 
Q 3056 4750 3426 4639 
Q 3797 4528 4122 4306 
z
" transform="scale(0.015625)"/>
      <path id="DejaVuSans-4f" d="M 2522 4238 
Q 1834 4238 1429 3725 
Q 1025 3213 1025 2328 
Q 1025 1447 1429 934 
Q 1834 422 2522 422 
Q 3209 422 3611 934 
Q 4013 1447 4013 2328 
Q 4013 3213 3611 3725 
Q 3209 4238 2522 4238 
z
M 2522 4750 
Q 3503 4750 4090 4092 
Q 4678 3434 4678 2328 
Q 4678 1225 4090 567 
Q 3503 -91 2522 -91 
Q 1538 -91 948 565 
Q 359 1222 359 2328 
Q 359 3434 948 4092 
Q 1538 4750 2522 4750 
z
" transform="scale(0.015625)"/>
      <path id="DejaVuSans-6e" d="M 3513 2113 
L 3513 0 
L 2938 0 
L 2938 2094 
Q 2938 2591 2744 2837 
Q 2550 3084 2163 3084 
Q 1697 3084 1428 2787 
Q 1159 2491 1159 1978 
L 1159 0 
L 581 0 
L 581 3500 
L 1159 3500 
L 1159 2956 
Q 1366 3272 1645 3428 
Q 1925 3584 2291 3584 
Q 2894 3584 3203 3211 
Q 3513 2838 3513 2113 
z
" transform="scale(0.015625)"/>
      <path id="DejaVuSans-6d" d="M 3328 2828 
Q 3544 3216 3844 3400 
Q 4144 3584 4550 3584 
Q 5097 3584 5394 3201 
Q 5691 2819 5691 2113 
L 5691 0 
L 5113 0 
L 5113 2094 
Q 5113 2597 4934 2840 
Q 4756 3084 4391 3084 
Q 3944 3084 3684 2787 
Q 3425 2491 3425 1978 
L 3425 0 
L 2847 0 
L 2847 2094 
Q 2847 2600 2669 2842 
Q 2491 3084 2119 3084 
Q 1678 3084 1418 2786 
Q 1159 2488 1159 1978 
L 1159 0 
L 581 0 
L 581 3500 
L 1159 3500 
L 1159 2956 
Q 1356 3278 1631 3431 
Q 1906 3584 2284 3584 
Q 2666 3584 2933 3390 
Q 3200 3197 3328 2828 
z
" transform="scale(0.015625)"/>
     </defs>
     <use xlink:href="#DejaVuSans-43"/>
     <use xlink:href="#DejaVuSans-75" x="69.824219"/>
     <use xlink:href="#DejaVuSans-72" x="133.203125"/>
     <use xlink:href="#DejaVuSans-76" x="174.316406"/>
     <use xlink:href="#DejaVuSans-61" x="233.496094"/>
     <use xlink:href="#DejaVuSans-73" x="294.775391"/>
     <use xlink:href="#DejaVuSans-20" x="346.875"/>
     <use xlink:href="#DejaVuSans-52" x="378.662109"/>
     <use xlink:href="#DejaVuSans-4f" x="448.144531"/>
     <use xlink:href="#DejaVuSans-43" x="526.855469"/>
     <use xlink:href="#DejaVuSans-20" x="596.679688"/>
     <use xlink:href="#DejaVuSans-65" x="628.466797"/>
     <use xlink:href="#DejaVuSans-6e" x="689.990234"/>
     <use xlink:href="#DejaVuSans-20" x="753.369141"/>
     <use xlink:href="#DejaVuSans-65" x="785.15625"/>
     <use xlink:href="#DejaVuSans-6c" x="846.679688"/>
     <use xlink:href="#DejaVuSans-20" x="874.462891"/>
     <use xlink:href="#DejaVuSans-65" x="906.25"/>
     <use xlink:href="#DejaVuSans-6e" x="967.773438"/>
     <use xlink:href="#DejaVuSans-74" x="1031.152344"/>
     <use xlink:href="#DejaVuSans-72" x="1070.361328"/>
     <use xlink:href="#DejaVuSans-65" x="1109.224609"/>
     <use xlink:href="#DejaVuSans-6e" x="1170.748047"/>
     <use xlink:href="#DejaVuSans-61" x="1234.126953"/>
     <use xlink:href="#DejaVuSans-6d" x="1295.40625"/>
     <use xlink:href="#DejaVuSans-69" x="1392.818359"/>
     <use xlink:href="#DejaVuSans-65" x="1420.601562"/>
     <use xlink:href="#DejaVuSans-6e" x="1482.125"/>
     <use xlink:href="#DejaVuSans-74" x="1545.503906"/>
     <use xlink:href="#DejaVuSans-6f" x="1584.712891"/>
     <use xlink:href="#DejaVuSans-20" x="1645.894531"/>
    </g>
   </g>
   <g id="legend_1">
    <g id="patch_7">
     <path d="M 240.100284 373 
L 474.090909 373 
Q 476.090909 373 476.090909 371 
L 476.090909 313.2875 
Q 476.090909 311.2875 474.090909 311.2875 
L 240.100284 311.2875 
Q 238.100284 311.2875 238.100284 313.2875 
L 238.100284 371 
Q 238.100284 373 240.100284 373 
z
" style="fill: #ffffff; opacity: 0.8; stroke: #cccccc; stroke-linejoin: miter"/>
    </g>
    <g id="line2d_29">
     <path d="M 242.100284 319.385938 
L 252.100284 319.385938 
L 262.100284 319.385938 
" style="fill: none; stroke: #1f77b4; stroke-width: 1.5; stroke-linecap: square"/>
    </g>
    <g id="text_16">
     <!-- RandomForestClassifier (AUC = 1.00) -->
     <g transform="translate(270.100284 322.885938) scale(0.1 -0.1)">
      <defs>
       <path id="DejaVuSans-64" d="M 2906 2969 
L 2906 4863 
L 3481 4863 
L 3481 0 
L 2906 0 
L 2906 525 
Q 2725 213 2448 61 
Q 2172 -91 1784 -91 
Q 1150 -91 751 415 
Q 353 922 353 1747 
Q 353 2572 751 3078 
Q 1150 3584 1784 3584 
Q 2172 3584 2448 3432 
Q 2725 3281 2906 2969 
z
M 947 1747 
Q 947 1113 1208 752 
Q 1469 391 1925 391 
Q 2381 391 2643 752 
Q 2906 1113 2906 1747 
Q 2906 2381 2643 2742 
Q 2381 3103 1925 3103 
Q 1469 3103 1208 2742 
Q 947 2381 947 1747 
z
" transform="scale(0.015625)"/>
       <path id="DejaVuSans-66" d="M 2375 4863 
L 2375 4384 
L 1825 4384 
Q 1516 4384 1395 4259 
Q 1275 4134 1275 3809 
L 1275 3500 
L 2222 3500 
L 2222 3053 
L 1275 3053 
L 1275 0 
L 697 0 
L 697 3053 
L 147 3053 
L 147 3500 
L 697 3500 
L 697 3744 
Q 697 4328 969 4595 
Q 1241 4863 1831 4863 
L 2375 4863 
z
" transform="scale(0.015625)"/>
       <path id="DejaVuSans-41" d="M 2188 4044 
L 1331 1722 
L 3047 1722 
L 2188 4044 
z
M 1831 4666 
L 2547 4666 
L 4325 0 
L 3669 0 
L 3244 1197 
L 1141 1197 
L 716 0 
L 50 0 
L 1831 4666 
z
" transform="scale(0.015625)"/>
       <path id="DejaVuSans-55" d="M 556 4666 
L 1191 4666 
L 1191 1831 
Q 1191 1081 1462 751 
Q 1734 422 2344 422 
Q 2950 422 3222 751 
Q 3494 1081 3494 1831 
L 3494 4666 
L 4128 4666 
L 4128 1753 
Q 4128 841 3676 375 
Q 3225 -91 2344 -91 
Q 1459 -91 1007 375 
Q 556 841 556 1753 
L 556 4666 
z
" transform="scale(0.015625)"/>
       <path id="DejaVuSans-3d" d="M 678 2906 
L 4684 2906 
L 4684 2381 
L 678 2381 
L 678 2906 
z
M 678 1631 
L 4684 1631 
L 4684 1100 
L 678 1100 
L 678 1631 
z
" transform="scale(0.015625)"/>
      </defs>
      <use xlink:href="#DejaVuSans-52"/>
      <use xlink:href="#DejaVuSans-61" x="67.232422"/>
      <use xlink:href="#DejaVuSans-6e" x="128.511719"/>
      <use xlink:href="#DejaVuSans-64" x="191.890625"/>
      <use xlink:href="#DejaVuSans-6f" x="255.367188"/>
      <use xlink:href="#DejaVuSans-6d" x="316.548828"/>
      <use xlink:href="#DejaVuSans-46" x="413.960938"/>
      <use xlink:href="#DejaVuSans-6f" x="467.855469"/>
      <use xlink:href="#DejaVuSans-72" x="529.037109"/>
      <use xlink:href="#DejaVuSans-65" x="567.900391"/>
      <use xlink:href="#DejaVuSans-73" x="629.423828"/>
      <use xlink:href="#DejaVuSans-74" x="681.523438"/>
      <use xlink:href="#DejaVuSans-43" x="720.732422"/>
      <use xlink:href="#DejaVuSans-6c" x="790.556641"/>
      <use xlink:href="#DejaVuSans-61" x="818.339844"/>
      <use xlink:href="#DejaVuSans-73" x="879.619141"/>
      <use xlink:href="#DejaVuSans-73" x="931.71875"/>
      <use xlink:href="#DejaVuSans-69" x="983.818359"/>
      <use xlink:href="#DejaVuSans-66" x="1011.601562"/>
      <use xlink:href="#DejaVuSans-69" x="1046.806641"/>
      <use xlink:href="#DejaVuSans-65" x="1074.589844"/>
      <use xlink:href="#DejaVuSans-72" x="1136.113281"/>
      <use xlink:href="#DejaVuSans-20" x="1177.226562"/>
      <use xlink:href="#DejaVuSans-28" x="1209.013672"/>
      <use xlink:href="#DejaVuSans-41" x="1248.027344"/>
      <use xlink:href="#DejaVuSans-55" x="1316.435547"/>
      <use xlink:href="#DejaVuSans-43" x="1389.628906"/>
      <use xlink:href="#DejaVuSans-20" x="1459.453125"/>
      <use xlink:href="#DejaVuSans-3d" x="1491.240234"/>
      <use xlink:href="#DejaVuSans-20" x="1575.029297"/>
      <use xlink:href="#DejaVuSans-31" x="1606.816406"/>
      <use xlink:href="#DejaVuSans-2e" x="1670.439453"/>
      <use xlink:href="#DejaVuSans-30" x="1702.226562"/>
      <use xlink:href="#DejaVuSans-30" x="1765.849609"/>
      <use xlink:href="#DejaVuSans-29" x="1829.472656"/>
     </g>
    </g>
    <g id="line2d_30">
     <path d="M 242.100284 334.064062 
L 252.100284 334.064062 
L 262.100284 334.064062 
" style="fill: none; stroke: #ff7f0e; stroke-width: 1.5; stroke-linecap: square"/>
    </g>
    <g id="text_17">
     <!-- LogisticRegression (AUC = 0.92) -->
     <g transform="translate(270.100284 337.564062) scale(0.1 -0.1)">
      <defs>
       <path id="DejaVuSans-4c" d="M 628 4666 
L 1259 4666 
L 1259 531 
L 3531 531 
L 3531 0 
L 628 0 
L 628 4666 
z
" transform="scale(0.015625)"/>
       <path id="DejaVuSans-67" d="M 2906 1791 
Q 2906 2416 2648 2759 
Q 2391 3103 1925 3103 
Q 1463 3103 1205 2759 
Q 947 2416 947 1791 
Q 947 1169 1205 825 
Q 1463 481 1925 481 
Q 2391 481 2648 825 
Q 2906 1169 2906 1791 
z
M 3481 434 
Q 3481 -459 3084 -895 
Q 2688 -1331 1869 -1331 
Q 1566 -1331 1297 -1286 
Q 1028 -1241 775 -1147 
L 775 -588 
Q 1028 -725 1275 -790 
Q 1522 -856 1778 -856 
Q 2344 -856 2625 -561 
Q 2906 -266 2906 331 
L 2906 616 
Q 2728 306 2450 153 
Q 2172 0 1784 0 
Q 1141 0 747 490 
Q 353 981 353 1791 
Q 353 2603 747 3093 
Q 1141 3584 1784 3584 
Q 2172 3584 2450 3431 
Q 2728 3278 2906 2969 
L 2906 3500 
L 3481 3500 
L 3481 434 
z
" transform="scale(0.015625)"/>
       <path id="DejaVuSans-63" d="M 3122 3366 
L 3122 2828 
Q 2878 2963 2633 3030 
Q 2388 3097 2138 3097 
Q 1578 3097 1268 2742 
Q 959 2388 959 1747 
Q 959 1106 1268 751 
Q 1578 397 2138 397 
Q 2388 397 2633 464 
Q 2878 531 3122 666 
L 3122 134 
Q 2881 22 2623 -34 
Q 2366 -91 2075 -91 
Q 1284 -91 818 406 
Q 353 903 353 1747 
Q 353 2603 823 3093 
Q 1294 3584 2113 3584 
Q 2378 3584 2631 3529 
Q 2884 3475 3122 3366 
z
" transform="scale(0.015625)"/>
       <path id="DejaVuSans-39" d="M 703 97 
L 703 672 
Q 941 559 1184 500 
Q 1428 441 1663 441 
Q 2288 441 2617 861 
Q 2947 1281 2994 2138 
Q 2813 1869 2534 1725 
Q 2256 1581 1919 1581 
Q 1219 1581 811 2004 
Q 403 2428 403 3163 
Q 403 3881 828 4315 
Q 1253 4750 1959 4750 
Q 2769 4750 3195 4129 
Q 3622 3509 3622 2328 
Q 3622 1225 3098 567 
Q 2575 -91 1691 -91 
Q 1453 -91 1209 -44 
Q 966 3 703 97 
z
M 1959 2075 
Q 2384 2075 2632 2365 
Q 2881 2656 2881 3163 
Q 2881 3666 2632 3958 
Q 2384 4250 1959 4250 
Q 1534 4250 1286 3958 
Q 1038 3666 1038 3163 
Q 1038 2656 1286 2365 
Q 1534 2075 1959 2075 
z
" transform="scale(0.015625)"/>
      </defs>
      <use xlink:href="#DejaVuSans-4c"/>
      <use xlink:href="#DejaVuSans-6f" x="53.962891"/>
      <use xlink:href="#DejaVuSans-67" x="115.144531"/>
      <use xlink:href="#DejaVuSans-69" x="178.621094"/>
      <use xlink:href="#DejaVuSans-73" x="206.404297"/>
      <use xlink:href="#DejaVuSans-74" x="258.503906"/>
      <use xlink:href="#DejaVuSans-69" x="297.712891"/>
      <use xlink:href="#DejaVuSans-63" x="325.496094"/>
      <use xlink:href="#DejaVuSans-52" x="380.476562"/>
      <use xlink:href="#DejaVuSans-65" x="445.458984"/>
      <use xlink:href="#DejaVuSans-67" x="506.982422"/>
      <use xlink:href="#DejaVuSans-72" x="570.458984"/>
      <use xlink:href="#DejaVuSans-65" x="609.322266"/>
      <use xlink:href="#DejaVuSans-73" x="670.845703"/>
      <use xlink:href="#DejaVuSans-73" x="722.945312"/>
      <use xlink:href="#DejaVuSans-69" x="775.044922"/>
      <use xlink:href="#DejaVuSans-6f" x="802.828125"/>
      <use xlink:href="#DejaVuSans-6e" x="864.009766"/>
      <use xlink:href="#DejaVuSans-20" x="927.388672"/>
      <use xlink:href="#DejaVuSans-28" x="959.175781"/>
      <use xlink:href="#DejaVuSans-41" x="998.189453"/>
      <use xlink:href="#DejaVuSans-55" x="1066.597656"/>
      <use xlink:href="#DejaVuSans-43" x="1139.791016"/>
      <use xlink:href="#DejaVuSans-20" x="1209.615234"/>
      <use xlink:href="#DejaVuSans-3d" x="1241.402344"/>
      <use xlink:href="#DejaVuSans-20" x="1325.191406"/>
      <use xlink:href="#DejaVuSans-30" x="1356.978516"/>
      <use xlink:href="#DejaVuSans-2e" x="1420.601562"/>
      <use xlink:href="#DejaVuSans-39" x="1452.388672"/>
      <use xlink:href="#DejaVuSans-32" x="1516.011719"/>
      <use xlink:href="#DejaVuSans-29" x="1579.634766"/>
     </g>
    </g>
    <g id="line2d_31">
     <path d="M 242.100284 348.742188 
L 252.100284 348.742188 
L 262.100284 348.742188 
" style="fill: none; stroke: #2ca02c; stroke-width: 1.5; stroke-linecap: square"/>
    </g>
    <g id="text_18">
     <!-- SVC (AUC = 0.95) -->
     <g transform="translate(270.100284 352.242188) scale(0.1 -0.1)">
      <defs>
       <path id="DejaVuSans-53" d="M 3425 4513 
L 3425 3897 
Q 3066 4069 2747 4153 
Q 2428 4238 2131 4238 
Q 1616 4238 1336 4038 
Q 1056 3838 1056 3469 
Q 1056 3159 1242 3001 
Q 1428 2844 1947 2747 
L 2328 2669 
Q 3034 2534 3370 2195 
Q 3706 1856 3706 1288 
Q 3706 609 3251 259 
Q 2797 -91 1919 -91 
Q 1588 -91 1214 -16 
Q 841 59 441 206 
L 441 856 
Q 825 641 1194 531 
Q 1563 422 1919 422 
Q 2459 422 2753 634 
Q 3047 847 3047 1241 
Q 3047 1584 2836 1778 
Q 2625 1972 2144 2069 
L 1759 2144 
Q 1053 2284 737 2584 
Q 422 2884 422 3419 
Q 422 4038 858 4394 
Q 1294 4750 2059 4750 
Q 2388 4750 2728 4690 
Q 3069 4631 3425 4513 
z
" transform="scale(0.015625)"/>
       <path id="DejaVuSans-56" d="M 1831 0 
L 50 4666 
L 709 4666 
L 2188 738 
L 3669 4666 
L 4325 4666 
L 2547 0 
L 1831 0 
z
" transform="scale(0.015625)"/>
       <path id="DejaVuSans-35" d="M 691 4666 
L 3169 4666 
L 3169 4134 
L 1269 4134 
L 1269 2991 
Q 1406 3038 1543 3061 
Q 1681 3084 1819 3084 
Q 2600 3084 3056 2656 
Q 3513 2228 3513 1497 
Q 3513 744 3044 326 
Q 2575 -91 1722 -91 
Q 1428 -91 1123 -41 
Q 819 9 494 109 
L 494 744 
Q 775 591 1075 516 
Q 1375 441 1709 441 
Q 2250 441 2565 725 
Q 2881 1009 2881 1497 
Q 2881 1984 2565 2268 
Q 2250 2553 1709 2553 
Q 1456 2553 1204 2497 
Q 953 2441 691 2322 
L 691 4666 
z
" transform="scale(0.015625)"/>
      </defs>
      <use xlink:href="#DejaVuSans-53"/>
      <use xlink:href="#DejaVuSans-56" x="63.476562"/>
      <use xlink:href="#DejaVuSans-43" x="131.884766"/>
      <use xlink:href="#DejaVuSans-20" x="201.708984"/>
      <use xlink:href="#DejaVuSans-28" x="233.496094"/>
      <use xlink:href="#DejaVuSans-41" x="272.509766"/>
      <use xlink:href="#DejaVuSans-55" x="340.917969"/>
      <use xlink:href="#DejaVuSans-43" x="414.111328"/>
      <use xlink:href="#DejaVuSans-20" x="483.935547"/>
      <use xlink:href="#DejaVuSans-3d" x="515.722656"/>
      <use xlink:href="#DejaVuSans-20" x="599.511719"/>
      <use xlink:href="#DejaVuSans-30" x="631.298828"/>
      <use xlink:href="#DejaVuSans-2e" x="694.921875"/>
      <use xlink:href="#DejaVuSans-39" x="726.708984"/>
      <use xlink:href="#DejaVuSans-35" x="790.332031"/>
      <use xlink:href="#DejaVuSans-29" x="853.955078"/>
     </g>
    </g>
    <g id="line2d_32">
     <path d="M 242.100284 363.420313 
L 252.100284 363.420313 
L 262.100284 363.420313 
" style="fill: none; stroke: #d62728; stroke-width: 1.5; stroke-linecap: square"/>
    </g>
    <g id="text_19">
     <!-- GradientBoostingClassifier (AUC = 1.00) -->
     <g transform="translate(270.100284 366.920313) scale(0.1 -0.1)">
      <defs>
       <path id="DejaVuSans-47" d="M 3809 666 
L 3809 1919 
L 2778 1919 
L 2778 2438 
L 4434 2438 
L 4434 434 
Q 4069 175 3628 42 
Q 3188 -91 2688 -91 
Q 1594 -91 976 548 
Q 359 1188 359 2328 
Q 359 3472 976 4111 
Q 1594 4750 2688 4750 
Q 3144 4750 3555 4637 
Q 3966 4525 4313 4306 
L 4313 3634 
Q 3963 3931 3569 4081 
Q 3175 4231 2741 4231 
Q 1884 4231 1454 3753 
Q 1025 3275 1025 2328 
Q 1025 1384 1454 906 
Q 1884 428 2741 428 
Q 3075 428 3337 486 
Q 3600 544 3809 666 
z
" transform="scale(0.015625)"/>
       <path id="DejaVuSans-42" d="M 1259 2228 
L 1259 519 
L 2272 519 
Q 2781 519 3026 730 
Q 3272 941 3272 1375 
Q 3272 1813 3026 2020 
Q 2781 2228 2272 2228 
L 1259 2228 
z
M 1259 4147 
L 1259 2741 
L 2194 2741 
Q 2656 2741 2882 2914 
Q 3109 3088 3109 3444 
Q 3109 3797 2882 3972 
Q 2656 4147 2194 4147 
L 1259 4147 
z
M 628 4666 
L 2241 4666 
Q 2963 4666 3353 4366 
Q 3744 4066 3744 3513 
Q 3744 3084 3544 2831 
Q 3344 2578 2956 2516 
Q 3422 2416 3680 2098 
Q 3938 1781 3938 1306 
Q 3938 681 3513 340 
Q 3088 0 2303 0 
L 628 0 
L 628 4666 
z
" transform="scale(0.015625)"/>
      </defs>
      <use xlink:href="#DejaVuSans-47"/>
      <use xlink:href="#DejaVuSans-72" x="77.490234"/>
      <use xlink:href="#DejaVuSans-61" x="118.603516"/>
      <use xlink:href="#DejaVuSans-64" x="179.882812"/>
      <use xlink:href="#DejaVuSans-69" x="243.359375"/>
      <use xlink:href="#DejaVuSans-65" x="271.142578"/>
      <use xlink:href="#DejaVuSans-6e" x="332.666016"/>
      <use xlink:href="#DejaVuSans-74" x="396.044922"/>
      <use xlink:href="#DejaVuSans-42" x="435.253906"/>
      <use xlink:href="#DejaVuSans-6f" x="503.857422"/>
      <use xlink:href="#DejaVuSans-6f" x="565.039062"/>
      <use xlink:href="#DejaVuSans-73" x="626.220703"/>
      <use xlink:href="#DejaVuSans-74" x="678.320312"/>
      <use xlink:href="#DejaVuSans-69" x="717.529297"/>
      <use xlink:href="#DejaVuSans-6e" x="745.3125"/>
      <use xlink:href="#DejaVuSans-67" x="808.691406"/>
      <use xlink:href="#DejaVuSans-43" x="872.167969"/>
      <use xlink:href="#DejaVuSans-6c" x="941.992188"/>
      <use xlink:href="#DejaVuSans-61" x="969.775391"/>
      <use xlink:href="#DejaVuSans-73" x="1031.054688"/>
      <use xlink:href="#DejaVuSans-73" x="1083.154297"/>
      <use xlink:href="#DejaVuSans-69" x="1135.253906"/>
      <use xlink:href="#DejaVuSans-66" x="1163.037109"/>
      <use xlink:href="#DejaVuSans-69" x="1198.242188"/>
      <use xlink:href="#DejaVuSans-65" x="1226.025391"/>
      <use xlink:href="#DejaVuSans-72" x="1287.548828"/>
      <use xlink:href="#DejaVuSans-20" x="1328.662109"/>
      <use xlink:href="#DejaVuSans-28" x="1360.449219"/>
      <use xlink:href="#DejaVuSans-41" x="1399.462891"/>
      <use xlink:href="#DejaVuSans-55" x="1467.871094"/>
      <use xlink:href="#DejaVuSans-43" x="1541.064453"/>
      <use xlink:href="#DejaVuSans-20" x="1610.888672"/>
      <use xlink:href="#DejaVuSans-3d" x="1642.675781"/>
      <use xlink:href="#DejaVuSans-20" x="1726.464844"/>
      <use xlink:href="#DejaVuSans-31" x="1758.251953"/>
      <use xlink:href="#DejaVuSans-2e" x="1821.875"/>
      <use xlink:href="#DejaVuSans-30" x="1853.662109"/>
      <use xlink:href="#DejaVuSans-30" x="1917.285156"/>
      <use xlink:href="#DejaVuSans-29" x="1980.908203"/>
     </g>
    </g>
   </g>
  </g>
  <g id="axes_2">
   <g id="patch_8">
    <path d="M 552.109091 378 
L 907.2 378 
L 907.2 51.84 
L 552.109091 51.84 
z
" style="fill: #ffffff"/>
   </g>
   <g id="matplotlib.axis_3">
    <g id="xtick_7">
     <g id="line2d_33">
      <path d="M 568.249587 378 
L 568.249587 51.84 
" clip-path="url(#p07a0dfcb54)" style="fill: none; stroke-dasharray: 2.96,1.28; stroke-dashoffset: 0; stroke: #b0b0b0; stroke-width: 0.8"/>
     </g>
     <g id="line2d_34">
      <g>
       <use xlink:href="#m786d11fa70" x="568.249587" y="378" style="stroke: #000000; stroke-width: 0.8"/>
      </g>
     </g>
     <g id="text_20">
      <!-- 0.0 -->
      <g transform="translate(560.298024 392.598437) scale(0.1 -0.1)">
       <use xlink:href="#DejaVuSans-30"/>
       <use xlink:href="#DejaVuSans-2e" x="63.623047"/>
       <use xlink:href="#DejaVuSans-30" x="95.410156"/>
      </g>
     </g>
    </g>
    <g id="xtick_8">
     <g id="line2d_35">
      <path d="M 632.81157 378 
L 632.81157 51.84 
" clip-path="url(#p07a0dfcb54)" style="fill: none; stroke-dasharray: 2.96,1.28; stroke-dashoffset: 0; stroke: #b0b0b0; stroke-width: 0.8"/>
     </g>
     <g id="line2d_36">
      <g>
       <use xlink:href="#m786d11fa70" x="632.81157" y="378" style="stroke: #000000; stroke-width: 0.8"/>
      </g>
     </g>
     <g id="text_21">
      <!-- 0.2 -->
      <g transform="translate(624.860008 392.598437) scale(0.1 -0.1)">
       <use xlink:href="#DejaVuSans-30"/>
       <use xlink:href="#DejaVuSans-2e" x="63.623047"/>
       <use xlink:href="#DejaVuSans-32" x="95.410156"/>
      </g>
     </g>
    </g>
    <g id="xtick_9">
     <g id="line2d_37">
      <path d="M 697.373554 378 
L 697.373554 51.84 
" clip-path="url(#p07a0dfcb54)" style="fill: none; stroke-dasharray: 2.96,1.28; stroke-dashoffset: 0; stroke: #b0b0b0; stroke-width: 0.8"/>
     </g>
     <g id="line2d_38">
      <g>
       <use xlink:href="#m786d11fa70" x="697.373554" y="378" style="stroke: #000000; stroke-width: 0.8"/>
      </g>
     </g>
     <g id="text_22">
      <!-- 0.4 -->
      <g transform="translate(689.421991 392.598437) scale(0.1 -0.1)">
       <use xlink:href="#DejaVuSans-30"/>
       <use xlink:href="#DejaVuSans-2e" x="63.623047"/>
       <use xlink:href="#DejaVuSans-34" x="95.410156"/>
      </g>
     </g>
    </g>
    <g id="xtick_10">
     <g id="line2d_39">
      <path d="M 761.935537 378 
L 761.935537 51.84 
" clip-path="url(#p07a0dfcb54)" style="fill: none; stroke-dasharray: 2.96,1.28; stroke-dashoffset: 0; stroke: #b0b0b0; stroke-width: 0.8"/>
     </g>
     <g id="line2d_40">
      <g>
       <use xlink:href="#m786d11fa70" x="761.935537" y="378" style="stroke: #000000; stroke-width: 0.8"/>
      </g>
     </g>
     <g id="text_23">
      <!-- 0.6 -->
      <g transform="translate(753.983975 392.598437) scale(0.1 -0.1)">
       <use xlink:href="#DejaVuSans-30"/>
       <use xlink:href="#DejaVuSans-2e" x="63.623047"/>
       <use xlink:href="#DejaVuSans-36" x="95.410156"/>
      </g>
     </g>
    </g>
    <g id="xtick_11">
     <g id="line2d_41">
      <path d="M 826.497521 378 
L 826.497521 51.84 
" clip-path="url(#p07a0dfcb54)" style="fill: none; stroke-dasharray: 2.96,1.28; stroke-dashoffset: 0; stroke: #b0b0b0; stroke-width: 0.8"/>
     </g>
     <g id="line2d_42">
      <g>
       <use xlink:href="#m786d11fa70" x="826.497521" y="378" style="stroke: #000000; stroke-width: 0.8"/>
      </g>
     </g>
     <g id="text_24">
      <!-- 0.8 -->
      <g transform="translate(818.545958 392.598437) scale(0.1 -0.1)">
       <use xlink:href="#DejaVuSans-30"/>
       <use xlink:href="#DejaVuSans-2e" x="63.623047"/>
       <use xlink:href="#DejaVuSans-38" x="95.410156"/>
      </g>
     </g>
    </g>
    <g id="xtick_12">
     <g id="line2d_43">
      <path d="M 891.059504 378 
L 891.059504 51.84 
" clip-path="url(#p07a0dfcb54)" style="fill: none; stroke-dasharray: 2.96,1.28; stroke-dashoffset: 0; stroke: #b0b0b0; stroke-width: 0.8"/>
     </g>
     <g id="line2d_44">
      <g>
       <use xlink:href="#m786d11fa70" x="891.059504" y="378" style="stroke: #000000; stroke-width: 0.8"/>
      </g>
     </g>
     <g id="text_25">
      <!-- 1.0 -->
      <g transform="translate(883.107942 392.598437) scale(0.1 -0.1)">
       <use xlink:href="#DejaVuSans-31"/>
       <use xlink:href="#DejaVuSans-2e" x="63.623047"/>
       <use xlink:href="#DejaVuSans-30" x="95.410156"/>
      </g>
     </g>
    </g>
    <g id="text_26">
     <!-- False Positive Rate (Positive label: 1) -->
     <g transform="translate(638.28892 406.276563) scale(0.1 -0.1)">
      <use xlink:href="#DejaVuSans-46"/>
      <use xlink:href="#DejaVuSans-61" x="48.394531"/>
      <use xlink:href="#DejaVuSans-6c" x="109.673828"/>
      <use xlink:href="#DejaVuSans-73" x="137.457031"/>
      <use xlink:href="#DejaVuSans-65" x="189.556641"/>
      <use xlink:href="#DejaVuSans-20" x="251.080078"/>
      <use xlink:href="#DejaVuSans-50" x="282.867188"/>
      <use xlink:href="#DejaVuSans-6f" x="339.544922"/>
      <use xlink:href="#DejaVuSans-73" x="400.726562"/>
      <use xlink:href="#DejaVuSans-69" x="452.826172"/>
      <use xlink:href="#DejaVuSans-74" x="480.609375"/>
      <use xlink:href="#DejaVuSans-69" x="519.818359"/>
      <use xlink:href="#DejaVuSans-76" x="547.601562"/>
      <use xlink:href="#DejaVuSans-65" x="606.78125"/>
      <use xlink:href="#DejaVuSans-20" x="668.304688"/>
      <use xlink:href="#DejaVuSans-52" x="700.091797"/>
      <use xlink:href="#DejaVuSans-61" x="767.324219"/>
      <use xlink:href="#DejaVuSans-74" x="828.603516"/>
      <use xlink:href="#DejaVuSans-65" x="867.8125"/>
      <use xlink:href="#DejaVuSans-20" x="929.335938"/>
      <use xlink:href="#DejaVuSans-28" x="961.123047"/>
      <use xlink:href="#DejaVuSans-50" x="1000.136719"/>
      <use xlink:href="#DejaVuSans-6f" x="1056.814453"/>
      <use xlink:href="#DejaVuSans-73" x="1117.996094"/>
      <use xlink:href="#DejaVuSans-69" x="1170.095703"/>
      <use xlink:href="#DejaVuSans-74" x="1197.878906"/>
      <use xlink:href="#DejaVuSans-69" x="1237.087891"/>
      <use xlink:href="#DejaVuSans-76" x="1264.871094"/>
      <use xlink:href="#DejaVuSans-65" x="1324.050781"/>
      <use xlink:href="#DejaVuSans-20" x="1385.574219"/>
      <use xlink:href="#DejaVuSans-6c" x="1417.361328"/>
      <use xlink:href="#DejaVuSans-61" x="1445.144531"/>
      <use xlink:href="#DejaVuSans-62" x="1506.423828"/>
      <use xlink:href="#DejaVuSans-65" x="1569.900391"/>
      <use xlink:href="#DejaVuSans-6c" x="1631.423828"/>
      <use xlink:href="#DejaVuSans-3a" x="1659.207031"/>
      <use xlink:href="#DejaVuSans-20" x="1692.898438"/>
      <use xlink:href="#DejaVuSans-31" x="1724.685547"/>
      <use xlink:href="#DejaVuSans-29" x="1788.308594"/>
     </g>
    </g>
   </g>
   <g id="matplotlib.axis_4">
    <g id="ytick_7">
     <g id="line2d_45">
      <path d="M 552.109091 363.174545 
L 907.2 363.174545 
" clip-path="url(#p07a0dfcb54)" style="fill: none; stroke-dasharray: 2.96,1.28; stroke-dashoffset: 0; stroke: #b0b0b0; stroke-width: 0.8"/>
     </g>
     <g id="line2d_46">
      <g>
       <use xlink:href="#m395656935b" x="552.109091" y="363.174545" style="stroke: #000000; stroke-width: 0.8"/>
      </g>
     </g>
     <g id="text_27">
      <!-- 0.0 -->
      <g transform="translate(529.205966 366.973764) scale(0.1 -0.1)">
       <use xlink:href="#DejaVuSans-30"/>
       <use xlink:href="#DejaVuSans-2e" x="63.623047"/>
       <use xlink:href="#DejaVuSans-30" x="95.410156"/>
      </g>
     </g>
    </g>
    <g id="ytick_8">
     <g id="line2d_47">
      <path d="M 552.109091 303.872727 
L 907.2 303.872727 
" clip-path="url(#p07a0dfcb54)" style="fill: none; stroke-dasharray: 2.96,1.28; stroke-dashoffset: 0; stroke: #b0b0b0; stroke-width: 0.8"/>
     </g>
     <g id="line2d_48">
      <g>
       <use xlink:href="#m395656935b" x="552.109091" y="303.872727" style="stroke: #000000; stroke-width: 0.8"/>
      </g>
     </g>
     <g id="text_28">
      <!-- 0.2 -->
      <g transform="translate(529.205966 307.671946) scale(0.1 -0.1)">
       <use xlink:href="#DejaVuSans-30"/>
       <use xlink:href="#DejaVuSans-2e" x="63.623047"/>
       <use xlink:href="#DejaVuSans-32" x="95.410156"/>
      </g>
     </g>
    </g>
    <g id="ytick_9">
     <g id="line2d_49">
      <path d="M 552.109091 244.570909 
L 907.2 244.570909 
" clip-path="url(#p07a0dfcb54)" style="fill: none; stroke-dasharray: 2.96,1.28; stroke-dashoffset: 0; stroke: #b0b0b0; stroke-width: 0.8"/>
     </g>
     <g id="line2d_50">
      <g>
       <use xlink:href="#m395656935b" x="552.109091" y="244.570909" style="stroke: #000000; stroke-width: 0.8"/>
      </g>
     </g>
     <g id="text_29">
      <!-- 0.4 -->
      <g transform="translate(529.205966 248.370128) scale(0.1 -0.1)">
       <use xlink:href="#DejaVuSans-30"/>
       <use xlink:href="#DejaVuSans-2e" x="63.623047"/>
       <use xlink:href="#DejaVuSans-34" x="95.410156"/>
      </g>
     </g>
    </g>
    <g id="ytick_10">
     <g id="line2d_51">
      <path d="M 552.109091 185.269091 
L 907.2 185.269091 
" clip-path="url(#p07a0dfcb54)" style="fill: none; stroke-dasharray: 2.96,1.28; stroke-dashoffset: 0; stroke: #b0b0b0; stroke-width: 0.8"/>
     </g>
     <g id="line2d_52">
      <g>
       <use xlink:href="#m395656935b" x="552.109091" y="185.269091" style="stroke: #000000; stroke-width: 0.8"/>
      </g>
     </g>
     <g id="text_30">
      <!-- 0.6 -->
      <g transform="translate(529.205966 189.06831) scale(0.1 -0.1)">
       <use xlink:href="#DejaVuSans-30"/>
       <use xlink:href="#DejaVuSans-2e" x="63.623047"/>
       <use xlink:href="#DejaVuSans-36" x="95.410156"/>
      </g>
     </g>
    </g>
    <g id="ytick_11">
     <g id="line2d_53">
      <path d="M 552.109091 125.967273 
L 907.2 125.967273 
" clip-path="url(#p07a0dfcb54)" style="fill: none; stroke-dasharray: 2.96,1.28; stroke-dashoffset: 0; stroke: #b0b0b0; stroke-width: 0.8"/>
     </g>
     <g id="line2d_54">
      <g>
       <use xlink:href="#m395656935b" x="552.109091" y="125.967273" style="stroke: #000000; stroke-width: 0.8"/>
      </g>
     </g>
     <g id="text_31">
      <!-- 0.8 -->
      <g transform="translate(529.205966 129.766491) scale(0.1 -0.1)">
       <use xlink:href="#DejaVuSans-30"/>
       <use xlink:href="#DejaVuSans-2e" x="63.623047"/>
       <use xlink:href="#DejaVuSans-38" x="95.410156"/>
      </g>
     </g>
    </g>
    <g id="ytick_12">
     <g id="line2d_55">
      <path d="M 552.109091 66.665455 
L 907.2 66.665455 
" clip-path="url(#p07a0dfcb54)" style="fill: none; stroke-dasharray: 2.96,1.28; stroke-dashoffset: 0; stroke: #b0b0b0; stroke-width: 0.8"/>
     </g>
     <g id="line2d_56">
      <g>
       <use xlink:href="#m395656935b" x="552.109091" y="66.665455" style="stroke: #000000; stroke-width: 0.8"/>
      </g>
     </g>
     <g id="text_32">
      <!-- 1.0 -->
      <g transform="translate(529.205966 70.464673) scale(0.1 -0.1)">
       <use xlink:href="#DejaVuSans-31"/>
       <use xlink:href="#DejaVuSans-2e" x="63.623047"/>
       <use xlink:href="#DejaVuSans-30" x="95.410156"/>
      </g>
     </g>
    </g>
    <g id="text_33">
     <!-- True Positive Rate (Positive label: 1) -->
     <g transform="translate(523.126278 304.348906) rotate(-90) scale(0.1 -0.1)">
      <use xlink:href="#DejaVuSans-54"/>
      <use xlink:href="#DejaVuSans-72" x="46.333984"/>
      <use xlink:href="#DejaVuSans-75" x="87.447266"/>
      <use xlink:href="#DejaVuSans-65" x="150.826172"/>
      <use xlink:href="#DejaVuSans-20" x="212.349609"/>
      <use xlink:href="#DejaVuSans-50" x="244.136719"/>
      <use xlink:href="#DejaVuSans-6f" x="300.814453"/>
      <use xlink:href="#DejaVuSans-73" x="361.996094"/>
      <use xlink:href="#DejaVuSans-69" x="414.095703"/>
      <use xlink:href="#DejaVuSans-74" x="441.878906"/>
      <use xlink:href="#DejaVuSans-69" x="481.087891"/>
      <use xlink:href="#DejaVuSans-76" x="508.871094"/>
      <use xlink:href="#DejaVuSans-65" x="568.050781"/>
      <use xlink:href="#DejaVuSans-20" x="629.574219"/>
      <use xlink:href="#DejaVuSans-52" x="661.361328"/>
      <use xlink:href="#DejaVuSans-61" x="728.59375"/>
      <use xlink:href="#DejaVuSans-74" x="789.873047"/>
      <use xlink:href="#DejaVuSans-65" x="829.082031"/>
      <use xlink:href="#DejaVuSans-20" x="890.605469"/>
      <use xlink:href="#DejaVuSans-28" x="922.392578"/>
      <use xlink:href="#DejaVuSans-50" x="961.40625"/>
      <use xlink:href="#DejaVuSans-6f" x="1018.083984"/>
      <use xlink:href="#DejaVuSans-73" x="1079.265625"/>
      <use xlink:href="#DejaVuSans-69" x="1131.365234"/>
      <use xlink:href="#DejaVuSans-74" x="1159.148438"/>
      <use xlink:href="#DejaVuSans-69" x="1198.357422"/>
      <use xlink:href="#DejaVuSans-76" x="1226.140625"/>
      <use xlink:href="#DejaVuSans-65" x="1285.320312"/>
      <use xlink:href="#DejaVuSans-20" x="1346.84375"/>
      <use xlink:href="#DejaVuSans-6c" x="1378.630859"/>
      <use xlink:href="#DejaVuSans-61" x="1406.414062"/>
      <use xlink:href="#DejaVuSans-62" x="1467.693359"/>
      <use xlink:href="#DejaVuSans-65" x="1531.169922"/>
      <use xlink:href="#DejaVuSans-6c" x="1592.693359"/>
      <use xlink:href="#DejaVuSans-3a" x="1620.476562"/>
      <use xlink:href="#DejaVuSans-20" x="1654.167969"/>
      <use xlink:href="#DejaVuSans-31" x="1685.955078"/>
      <use xlink:href="#DejaVuSans-29" x="1749.578125"/>
     </g>
    </g>
   </g>
   <g id="line2d_57">
    <path d="M 568.249587 363.174545 
L 568.249587 357.632319 
L 568.249587 352.090093 
L 568.249587 346.547867 
L 568.249587 341.005641 
L 568.249587 324.378963 
L 568.249587 313.294511 
L 568.249587 304.981172 
L 571.836364 304.981172 
L 571.836364 296.667833 
L 571.836364 291.125607 
L 571.836364 285.583381 
L 571.836364 274.498929 
L 571.836364 271.727816 
L 571.836364 266.18559 
L 571.836364 263.414477 
L 571.836364 257.872251 
L 575.42314 255.101138 
L 575.42314 249.558912 
L 575.42314 241.245573 
L 575.42314 227.390008 
L 575.42314 221.847782 
L 575.42314 216.305556 
L 575.42314 210.763331 
L 575.42314 194.136653 
L 579.009917 194.136653 
L 579.009917 177.509975 
L 579.009917 171.967749 
L 579.009917 160.883297 
L 579.009917 155.341071 
L 579.009917 152.569958 
L 586.183471 152.569958 
L 586.183471 144.256619 
L 593.357025 144.256619 
L 593.357025 141.485506 
L 596.943802 138.714393 
L 596.943802 133.172167 
L 596.943802 130.401054 
L 600.530579 130.401054 
L 600.530579 127.629941 
L 604.117355 127.629941 
L 604.117355 108.23215 
L 614.877686 108.23215 
L 614.877686 102.689924 
L 618.464463 102.689924 
L 618.464463 97.147698 
L 622.05124 97.147698 
L 622.05124 91.605472 
L 625.638017 91.605472 
L 625.638017 86.063246 
L 625.638017 83.292133 
L 697.373554 83.292133 
L 704.547107 83.292133 
L 733.241322 83.292133 
L 744.001653 80.52102 
L 751.175207 80.52102 
L 754.761983 77.749907 
L 765.522314 77.749907 
L 772.695868 77.749907 
L 779.869421 77.749907 
L 787.042975 77.749907 
L 790.629752 74.978794 
L 797.803306 74.978794 
L 801.390083 74.978794 
L 812.150413 74.978794 
L 815.73719 74.978794 
L 815.73719 72.207681 
L 826.497521 72.207681 
L 837.257851 69.436568 
L 848.018182 69.436568 
L 862.365289 69.436568 
L 869.538843 69.436568 
L 876.712397 69.436568 
L 876.712397 66.665455 
L 891.059504 66.665455 
" clip-path="url(#p07a0dfcb54)" style="fill: none; stroke: #1f77b4; stroke-width: 1.5; stroke-linecap: square"/>
   </g>
   <g id="line2d_58">
    <path d="M 568.249587 363.174545 
L 568.249587 360.403432 
L 568.249587 274.498929 
L 571.836364 274.498929 
L 571.836364 235.703347 
L 575.42314 235.703347 
L 575.42314 232.932234 
L 579.009917 232.932234 
L 579.009917 213.534444 
L 582.596694 213.534444 
L 582.596694 205.221105 
L 586.183471 205.221105 
L 586.183471 171.967749 
L 593.357025 171.967749 
L 593.357025 163.65441 
L 596.943802 163.65441 
L 596.943802 160.883297 
L 600.530579 160.883297 
L 600.530579 152.569958 
L 604.117355 152.569958 
L 604.117355 147.027732 
L 607.704132 147.027732 
L 607.704132 144.256619 
L 611.290909 144.256619 
L 611.290909 141.485506 
L 614.877686 141.485506 
L 614.877686 138.714393 
L 618.464463 138.714393 
L 618.464463 116.545489 
L 636.398347 116.545489 
L 636.398347 108.23215 
L 643.571901 108.23215 
L 643.571901 105.461037 
L 647.158678 105.461037 
L 647.158678 102.689924 
L 654.332231 102.689924 
L 654.332231 97.147698 
L 675.852893 97.147698 
L 675.852893 94.376585 
L 690.2 94.376585 
L 690.2 88.834359 
L 729.654545 88.834359 
L 729.654545 86.063246 
L 744.001653 86.063246 
L 744.001653 80.52102 
L 747.58843 80.52102 
L 747.58843 77.749907 
L 765.522314 77.749907 
L 765.522314 74.978794 
L 772.695868 74.978794 
L 772.695868 72.207681 
L 812.150413 72.207681 
L 812.150413 69.436568 
L 819.323967 69.436568 
L 819.323967 66.665455 
L 891.059504 66.665455 
" clip-path="url(#p07a0dfcb54)" style="fill: none; stroke: #ff7f0e; stroke-width: 1.5; stroke-linecap: square"/>
   </g>
   <g id="line2d_59">
    <path d="M 568.249587 363.174545 
L 568.249587 354.861206 
L 568.249587 285.583381 
L 575.42314 285.583381 
L 575.42314 280.041155 
L 579.009917 280.041155 
L 579.009917 244.016686 
L 582.596694 244.016686 
L 582.596694 205.221105 
L 586.183471 205.221105 
L 586.183471 185.823314 
L 589.770248 185.823314 
L 589.770248 160.883297 
L 593.357025 160.883297 
L 593.357025 158.112184 
L 596.943802 158.112184 
L 596.943802 147.027732 
L 600.530579 147.027732 
L 600.530579 141.485506 
L 607.704132 141.485506 
L 607.704132 135.94328 
L 611.290909 135.94328 
L 611.290909 122.087715 
L 614.877686 122.087715 
L 614.877686 113.774376 
L 618.464463 113.774376 
L 618.464463 105.461037 
L 629.224793 105.461037 
L 629.224793 102.689924 
L 639.985124 102.689924 
L 639.985124 97.147698 
L 643.571901 97.147698 
L 643.571901 94.376585 
L 654.332231 94.376585 
L 654.332231 91.605472 
L 657.919008 91.605472 
L 657.919008 88.834359 
L 668.679339 88.834359 
L 668.679339 86.063246 
L 693.786777 86.063246 
L 693.786777 83.292133 
L 740.414876 83.292133 
L 740.414876 80.52102 
L 758.34876 80.52102 
L 758.34876 74.978794 
L 801.390083 74.978794 
L 801.390083 72.207681 
L 808.563636 72.207681 
L 808.563636 69.436568 
L 851.604959 69.436568 
L 851.604959 66.665455 
L 880.299174 66.665455 
L 891.059504 66.665455 
" clip-path="url(#p07a0dfcb54)" style="fill: none; stroke: #2ca02c; stroke-width: 1.5; stroke-linecap: square"/>
   </g>
   <g id="line2d_60">
    <path d="M 568.249587 363.174545 
L 568.249587 360.403432 
L 568.249587 274.498929 
L 571.836364 274.498929 
L 571.836364 205.221105 
L 575.42314 205.221105 
L 575.42314 202.449992 
L 579.009917 202.449992 
L 579.009917 166.425523 
L 582.596694 166.425523 
L 582.596694 144.256619 
L 586.183471 144.256619 
L 586.183471 135.94328 
L 589.770248 135.94328 
L 589.770248 127.629941 
L 593.357025 127.629941 
L 593.357025 124.858828 
L 596.943802 124.858828 
L 596.943802 113.774376 
L 600.530579 113.774376 
L 600.530579 111.003263 
L 607.704132 111.003263 
L 607.704132 102.689924 
L 611.290909 102.689924 
L 611.290909 99.918811 
L 614.877686 99.918811 
L 614.877686 97.147698 
L 622.05124 97.147698 
L 622.05124 88.834359 
L 625.638017 88.834359 
L 625.638017 83.292133 
L 711.720661 83.292133 
L 711.720661 80.52102 
L 754.761983 80.52102 
L 754.761983 77.749907 
L 772.695868 77.749907 
L 772.695868 74.978794 
L 848.018182 74.978794 
L 848.018182 72.207681 
L 862.365289 72.207681 
L 862.365289 69.436568 
L 891.059504 69.436568 
L 891.059504 66.665455 
" clip-path="url(#p07a0dfcb54)" style="fill: none; stroke: #d62728; stroke-width: 1.5; stroke-linecap: square"/>
   </g>
   <g id="patch_9">
    <path d="M 552.109091 378 
L 552.109091 51.84 
" style="fill: none; stroke: #000000; stroke-width: 0.8; stroke-linejoin: miter; stroke-linecap: square"/>
   </g>
   <g id="patch_10">
    <path d="M 907.2 378 
L 907.2 51.84 
" style="fill: none; stroke: #000000; stroke-width: 0.8; stroke-linejoin: miter; stroke-linecap: square"/>
   </g>
   <g id="patch_11">
    <path d="M 552.109091 378 
L 907.2 378 
" style="fill: none; stroke: #000000; stroke-width: 0.8; stroke-linejoin: miter; stroke-linecap: square"/>
   </g>
   <g id="patch_12">
    <path d="M 552.109091 51.84 
L 907.2 51.84 
" style="fill: none; stroke: #000000; stroke-width: 0.8; stroke-linejoin: miter; stroke-linecap: square"/>
   </g>
   <g id="text_34">
    <!-- Curvas ROC en la prueba  -->
    <g transform="translate(652.131733 45.84) scale(0.12 -0.12)">
     <defs>
      <path id="DejaVuSans-70" d="M 1159 525 
L 1159 -1331 
L 581 -1331 
L 581 3500 
L 1159 3500 
L 1159 2969 
Q 1341 3281 1617 3432 
Q 1894 3584 2278 3584 
Q 2916 3584 3314 3078 
Q 3713 2572 3713 1747 
Q 3713 922 3314 415 
Q 2916 -91 2278 -91 
Q 1894 -91 1617 61 
Q 1341 213 1159 525 
z
M 3116 1747 
Q 3116 2381 2855 2742 
Q 2594 3103 2138 3103 
Q 1681 3103 1420 2742 
Q 1159 2381 1159 1747 
Q 1159 1113 1420 752 
Q 1681 391 2138 391 
Q 2594 391 2855 752 
Q 3116 1113 3116 1747 
z
" transform="scale(0.015625)"/>
     </defs>
     <use xlink:href="#DejaVuSans-43"/>
     <use xlink:href="#DejaVuSans-75" x="69.824219"/>
     <use xlink:href="#DejaVuSans-72" x="133.203125"/>
     <use xlink:href="#DejaVuSans-76" x="174.316406"/>
     <use xlink:href="#DejaVuSans-61" x="233.496094"/>
     <use xlink:href="#DejaVuSans-73" x="294.775391"/>
     <use xlink:href="#DejaVuSans-20" x="346.875"/>
     <use xlink:href="#DejaVuSans-52" x="378.662109"/>
     <use xlink:href="#DejaVuSans-4f" x="448.144531"/>
     <use xlink:href="#DejaVuSans-43" x="526.855469"/>
     <use xlink:href="#DejaVuSans-20" x="596.679688"/>
     <use xlink:href="#DejaVuSans-65" x="628.466797"/>
     <use xlink:href="#DejaVuSans-6e" x="689.990234"/>
     <use xlink:href="#DejaVuSans-20" x="753.369141"/>
     <use xlink:href="#DejaVuSans-6c" x="785.15625"/>
     <use xlink:href="#DejaVuSans-61" x="812.939453"/>
     <use xlink:href="#DejaVuSans-20" x="874.21875"/>
     <use xlink:href="#DejaVuSans-70" x="906.005859"/>
     <use xlink:href="#DejaVuSans-72" x="969.482422"/>
     <use xlink:href="#DejaVuSans-75" x="1010.595703"/>
     <use xlink:href="#DejaVuSans-65" x="1073.974609"/>
     <use xlink:href="#DejaVuSans-62" x="1135.498047"/>
     <use xlink:href="#DejaVuSans-61" x="1198.974609"/>
     <use xlink:href="#DejaVuSans-20" x="1260.253906"/>
    </g>
   </g>
   <g id="legend_2">
    <g id="patch_13">
     <path d="M 666.209375 373 
L 900.2 373 
Q 902.2 373 902.2 371 
L 902.2 313.2875 
Q 902.2 311.2875 900.2 311.2875 
L 666.209375 311.2875 
Q 664.209375 311.2875 664.209375 313.2875 
L 664.209375 371 
Q 664.209375 373 666.209375 373 
z
" style="fill: #ffffff; opacity: 0.8; stroke: #cccccc; stroke-linejoin: miter"/>
    </g>
    <g id="line2d_61">
     <path d="M 668.209375 319.385938 
L 678.209375 319.385938 
L 688.209375 319.385938 
" style="fill: none; stroke: #1f77b4; stroke-width: 1.5; stroke-linecap: square"/>
    </g>
    <g id="text_35">
     <!-- RandomForestClassifier (AUC = 0.92) -->
     <g transform="translate(696.209375 322.885938) scale(0.1 -0.1)">
      <use xlink:href="#DejaVuSans-52"/>
      <use xlink:href="#DejaVuSans-61" x="67.232422"/>
      <use xlink:href="#DejaVuSans-6e" x="128.511719"/>
      <use xlink:href="#DejaVuSans-64" x="191.890625"/>
      <use xlink:href="#DejaVuSans-6f" x="255.367188"/>
      <use xlink:href="#DejaVuSans-6d" x="316.548828"/>
      <use xlink:href="#DejaVuSans-46" x="413.960938"/>
      <use xlink:href="#DejaVuSans-6f" x="467.855469"/>
      <use xlink:href="#DejaVuSans-72" x="529.037109"/>
      <use xlink:href="#DejaVuSans-65" x="567.900391"/>
      <use xlink:href="#DejaVuSans-73" x="629.423828"/>
      <use xlink:href="#DejaVuSans-74" x="681.523438"/>
      <use xlink:href="#DejaVuSans-43" x="720.732422"/>
      <use xlink:href="#DejaVuSans-6c" x="790.556641"/>
      <use xlink:href="#DejaVuSans-61" x="818.339844"/>
      <use xlink:href="#DejaVuSans-73" x="879.619141"/>
      <use xlink:href="#DejaVuSans-73" x="931.71875"/>
      <use xlink:href="#DejaVuSans-69" x="983.818359"/>
      <use xlink:href="#DejaVuSans-66" x="1011.601562"/>
      <use xlink:href="#DejaVuSans-69" x="1046.806641"/>
      <use xlink:href="#DejaVuSans-65" x="1074.589844"/>
      <use xlink:href="#DejaVuSans-72" x="1136.113281"/>
      <use xlink:href="#DejaVuSans-20" x="1177.226562"/>
      <use xlink:href="#DejaVuSans-28" x="1209.013672"/>
      <use xlink:href="#DejaVuSans-41" x="1248.027344"/>
      <use xlink:href="#DejaVuSans-55" x="1316.435547"/>
      <use xlink:href="#DejaVuSans-43" x="1389.628906"/>
      <use xlink:href="#DejaVuSans-20" x="1459.453125"/>
      <use xlink:href="#DejaVuSans-3d" x="1491.240234"/>
      <use xlink:href="#DejaVuSans-20" x="1575.029297"/>
      <use xlink:href="#DejaVuSans-30" x="1606.816406"/>
      <use xlink:href="#DejaVuSans-2e" x="1670.439453"/>
      <use xlink:href="#DejaVuSans-39" x="1702.226562"/>
      <use xlink:href="#DejaVuSans-32" x="1765.849609"/>
      <use xlink:href="#DejaVuSans-29" x="1829.472656"/>
     </g>
    </g>
    <g id="line2d_62">
     <path d="M 668.209375 334.064062 
L 678.209375 334.064062 
L 688.209375 334.064062 
" style="fill: none; stroke: #ff7f0e; stroke-width: 1.5; stroke-linecap: square"/>
    </g>
    <g id="text_36">
     <!-- LogisticRegression (AUC = 0.89) -->
     <g transform="translate(696.209375 337.564062) scale(0.1 -0.1)">
      <use xlink:href="#DejaVuSans-4c"/>
      <use xlink:href="#DejaVuSans-6f" x="53.962891"/>
      <use xlink:href="#DejaVuSans-67" x="115.144531"/>
      <use xlink:href="#DejaVuSans-69" x="178.621094"/>
      <use xlink:href="#DejaVuSans-73" x="206.404297"/>
      <use xlink:href="#DejaVuSans-74" x="258.503906"/>
      <use xlink:href="#DejaVuSans-69" x="297.712891"/>
      <use xlink:href="#DejaVuSans-63" x="325.496094"/>
      <use xlink:href="#DejaVuSans-52" x="380.476562"/>
      <use xlink:href="#DejaVuSans-65" x="445.458984"/>
      <use xlink:href="#DejaVuSans-67" x="506.982422"/>
      <use xlink:href="#DejaVuSans-72" x="570.458984"/>
      <use xlink:href="#DejaVuSans-65" x="609.322266"/>
      <use xlink:href="#DejaVuSans-73" x="670.845703"/>
      <use xlink:href="#DejaVuSans-73" x="722.945312"/>
      <use xlink:href="#DejaVuSans-69" x="775.044922"/>
      <use xlink:href="#DejaVuSans-6f" x="802.828125"/>
      <use xlink:href="#DejaVuSans-6e" x="864.009766"/>
      <use xlink:href="#DejaVuSans-20" x="927.388672"/>
      <use xlink:href="#DejaVuSans-28" x="959.175781"/>
      <use xlink:href="#DejaVuSans-41" x="998.189453"/>
      <use xlink:href="#DejaVuSans-55" x="1066.597656"/>
      <use xlink:href="#DejaVuSans-43" x="1139.791016"/>
      <use xlink:href="#DejaVuSans-20" x="1209.615234"/>
      <use xlink:href="#DejaVuSans-3d" x="1241.402344"/>
      <use xlink:href="#DejaVuSans-20" x="1325.191406"/>
      <use xlink:href="#DejaVuSans-30" x="1356.978516"/>
      <use xlink:href="#DejaVuSans-2e" x="1420.601562"/>
      <use xlink:href="#DejaVuSans-38" x="1452.388672"/>
      <use xlink:href="#DejaVuSans-39" x="1516.011719"/>
      <use xlink:href="#DejaVuSans-29" x="1579.634766"/>
     </g>
    </g>
    <g id="line2d_63">
     <path d="M 668.209375 348.742188 
L 678.209375 348.742188 
L 688.209375 348.742188 
" style="fill: none; stroke: #2ca02c; stroke-width: 1.5; stroke-linecap: square"/>
    </g>
    <g id="text_37">
     <!-- SVC (AUC = 0.90) -->
     <g transform="translate(696.209375 352.242188) scale(0.1 -0.1)">
      <use xlink:href="#DejaVuSans-53"/>
      <use xlink:href="#DejaVuSans-56" x="63.476562"/>
      <use xlink:href="#DejaVuSans-43" x="131.884766"/>
      <use xlink:href="#DejaVuSans-20" x="201.708984"/>
      <use xlink:href="#DejaVuSans-28" x="233.496094"/>
      <use xlink:href="#DejaVuSans-41" x="272.509766"/>
      <use xlink:href="#DejaVuSans-55" x="340.917969"/>
      <use xlink:href="#DejaVuSans-43" x="414.111328"/>
      <use xlink:href="#DejaVuSans-20" x="483.935547"/>
      <use xlink:href="#DejaVuSans-3d" x="515.722656"/>
      <use xlink:href="#DejaVuSans-20" x="599.511719"/>
      <use xlink:href="#DejaVuSans-30" x="631.298828"/>
      <use xlink:href="#DejaVuSans-2e" x="694.921875"/>
      <use xlink:href="#DejaVuSans-39" x="726.708984"/>
      <use xlink:href="#DejaVuSans-30" x="790.332031"/>
      <use xlink:href="#DejaVuSans-29" x="853.955078"/>
     </g>
    </g>
    <g id="line2d_64">
     <path d="M 668.209375 363.420313 
L 678.209375 363.420313 
L 688.209375 363.420313 
" style="fill: none; stroke: #d62728; stroke-width: 1.5; stroke-linecap: square"/>
    </g>
    <g id="text_38">
     <!-- GradientBoostingClassifier (AUC = 0.93) -->
     <g transform="translate(696.209375 366.920313) scale(0.1 -0.1)">
      <defs>
       <path id="DejaVuSans-33" d="M 2597 2516 
Q 3050 2419 3304 2112 
Q 3559 1806 3559 1356 
Q 3559 666 3084 287 
Q 2609 -91 1734 -91 
Q 1441 -91 1130 -33 
Q 819 25 488 141 
L 488 750 
Q 750 597 1062 519 
Q 1375 441 1716 441 
Q 2309 441 2620 675 
Q 2931 909 2931 1356 
Q 2931 1769 2642 2001 
Q 2353 2234 1838 2234 
L 1294 2234 
L 1294 2753 
L 1863 2753 
Q 2328 2753 2575 2939 
Q 2822 3125 2822 3475 
Q 2822 3834 2567 4026 
Q 2313 4219 1838 4219 
Q 1578 4219 1281 4162 
Q 984 4106 628 3988 
L 628 4550 
Q 988 4650 1302 4700 
Q 1616 4750 1894 4750 
Q 2613 4750 3031 4423 
Q 3450 4097 3450 3541 
Q 3450 3153 3228 2886 
Q 3006 2619 2597 2516 
z
" transform="scale(0.015625)"/>
      </defs>
      <use xlink:href="#DejaVuSans-47"/>
      <use xlink:href="#DejaVuSans-72" x="77.490234"/>
      <use xlink:href="#DejaVuSans-61" x="118.603516"/>
      <use xlink:href="#DejaVuSans-64" x="179.882812"/>
      <use xlink:href="#DejaVuSans-69" x="243.359375"/>
      <use xlink:href="#DejaVuSans-65" x="271.142578"/>
      <use xlink:href="#DejaVuSans-6e" x="332.666016"/>
      <use xlink:href="#DejaVuSans-74" x="396.044922"/>
      <use xlink:href="#DejaVuSans-42" x="435.253906"/>
      <use xlink:href="#DejaVuSans-6f" x="503.857422"/>
      <use xlink:href="#DejaVuSans-6f" x="565.039062"/>
      <use xlink:href="#DejaVuSans-73" x="626.220703"/>
      <use xlink:href="#DejaVuSans-74" x="678.320312"/>
      <use xlink:href="#DejaVuSans-69" x="717.529297"/>
      <use xlink:href="#DejaVuSans-6e" x="745.3125"/>
      <use xlink:href="#DejaVuSans-67" x="808.691406"/>
      <use xlink:href="#DejaVuSans-43" x="872.167969"/>
      <use xlink:href="#DejaVuSans-6c" x="941.992188"/>
      <use xlink:href="#DejaVuSans-61" x="969.775391"/>
      <use xlink:href="#DejaVuSans-73" x="1031.054688"/>
      <use xlink:href="#DejaVuSans-73" x="1083.154297"/>
      <use xlink:href="#DejaVuSans-69" x="1135.253906"/>
      <use xlink:href="#DejaVuSans-66" x="1163.037109"/>
      <use xlink:href="#DejaVuSans-69" x="1198.242188"/>
      <use xlink:href="#DejaVuSans-65" x="1226.025391"/>
      <use xlink:href="#DejaVuSans-72" x="1287.548828"/>
      <use xlink:href="#DejaVuSans-20" x="1328.662109"/>
      <use xlink:href="#DejaVuSans-28" x="1360.449219"/>
      <use xlink:href="#DejaVuSans-41" x="1399.462891"/>
      <use xlink:href="#DejaVuSans-55" x="1467.871094"/>
      <use xlink:href="#DejaVuSans-43" x="1541.064453"/>
      <use xlink:href="#DejaVuSans-20" x="1610.888672"/>
      <use xlink:href="#DejaVuSans-3d" x="1642.675781"/>
      <use xlink:href="#DejaVuSans-20" x="1726.464844"/>
      <use xlink:href="#DejaVuSans-30" x="1758.251953"/>
      <use xlink:href="#DejaVuSans-2e" x="1821.875"/>
      <use xlink:href="#DejaVuSans-39" x="1853.662109"/>
      <use xlink:href="#DejaVuSans-33" x="1917.285156"/>
      <use xlink:href="#DejaVuSans-29" x="1980.908203"/>
     </g>
    </g>
   </g>
  </g>
 </g>
 <defs>
  <clipPath id="p80276c91e7">
   <rect x="126" y="51.84" width="355.090909" height="326.16"/>
  </clipPath>
  <clipPath id="p07a0dfcb54">
   <rect x="552.109091" y="51.84" width="355.090909" height="326.16"/>
  </clipPath>
 </defs>
</svg>
