<?xml version="1.0" encoding="utf-8" standalone="no"?>
<!DOCTYPE svg PUBLIC "-//W3C//DTD SVG 1.1//EN"
  "http://www.w3.org/Graphics/SVG/1.1/DTD/svg11.dtd">
<svg xmlns:xlink="http://www.w3.org/1999/xlink" width="1008pt" height="432pt" viewBox="0 0 1008 432" xmlns="http://www.w3.org/2000/svg" version="1.1">
 <metadata>
  <rdf:RDF xmlns:dc="http://purl.org/dc/elements/1.1/" xmlns:cc="http://creativecommons.org/ns#" xmlns:rdf="http://www.w3.org/1999/02/22-rdf-syntax-ns#">
   <cc:Work>
    <dc:type rdf:resource="http://purl.org/dc/dcmitype/StillImage"/>
    <dc:date>2023-10-27T07:09:33.912807</dc:date>
    <dc:format>image/svg+xml</dc:format>
    <dc:creator>
     <cc:Agent>
      <dc:title>Matplotlib v3.7.2, https://matplotlib.org/</dc:title>
     </cc:Agent>
    </dc:creator>
   </cc:Work>
  </rdf:RDF>
 </metadata>
 <defs>
  <style type="text/css">*{stroke-linejoin: round; stroke-linecap: butt}</style>
 </defs>
 <g id="figure_1">
  <g id="patch_1">
   <path d="M 0 432 
L 1008 432 
L 1008 0 
L 0 0 
z
" style="fill: #ffffff"/>
  </g>
  <g id="axes_1">
   <g id="patch_2">
    <path d="M 126 378 
L 481.090909 378 
L 481.090909 51.84 
L 126 51.84 
z
" style="fill: #ffffff"/>
   </g>
   <g id="matplotlib.axis_1">
    <g id="xtick_1">
     <g id="line2d_1">
      <path d="M 142.140496 378 
L 142.140496 51.84 
" clip-path="url(#p0611dd4d50)" style="fill: none; stroke-dasharray: 2.96,1.28; stroke-dashoffset: 0; stroke: #b0b0b0; stroke-width: 0.8"/>
     </g>
     <g id="line2d_2">
      <defs>
       <path id="m121847dc52" d="M 0 0 
L 0 3.5 
" style="stroke: #000000; stroke-width: 0.8"/>
      </defs>
      <g>
       <use xlink:href="#m121847dc52" x="142.140496" y="378" style="stroke: #000000; stroke-width: 0.8"/>
      </g>
     </g>
     <g id="text_1">
      <!-- 0.0 -->
      <g transform="translate(134.188933 392.598437) scale(0.1 -0.1)">
       <defs>
        <path id="DejaVuSans-30" d="M 2034 4250 
Q 1547 4250 1301 3770 
Q 1056 3291 1056 2328 
Q 1056 1369 1301 889 
Q 1547 409 2034 409 
Q 2525 409 2770 889 
Q 3016 1369 3016 2328 
Q 3016 3291 2770 3770 
Q 2525 4250 2034 4250 
z
M 2034 4750 
Q 2819 4750 3233 4129 
Q 3647 3509 3647 2328 
Q 3647 1150 3233 529 
Q 2819 -91 2034 -91 
Q 1250 -91 836 529 
Q 422 1150 422 2328 
Q 422 3509 836 4129 
Q 1250 4750 2034 4750 
z
" transform="scale(0.015625)"/>
        <path id="DejaVuSans-2e" d="M 684 794 
L 1344 794 
L 1344 0 
L 684 0 
L 684 794 
z
" transform="scale(0.015625)"/>
       </defs>
       <use xlink:href="#DejaVuSans-30"/>
       <use xlink:href="#DejaVuSans-2e" x="63.623047"/>
       <use xlink:href="#DejaVuSans-30" x="95.410156"/>
      </g>
     </g>
    </g>
    <g id="xtick_2">
     <g id="line2d_3">
      <path d="M 206.702479 378 
L 206.702479 51.84 
" clip-path="url(#p0611dd4d50)" style="fill: none; stroke-dasharray: 2.96,1.28; stroke-dashoffset: 0; stroke: #b0b0b0; stroke-width: 0.8"/>
     </g>
     <g id="line2d_4">
      <g>
       <use xlink:href="#m121847dc52" x="206.702479" y="378" style="stroke: #000000; stroke-width: 0.8"/>
      </g>
     </g>
     <g id="text_2">
      <!-- 0.2 -->
      <g transform="translate(198.750917 392.598437) scale(0.1 -0.1)">
       <defs>
        <path id="DejaVuSans-32" d="M 1228 531 
L 3431 531 
L 3431 0 
L 469 0 
L 469 531 
Q 828 903 1448 1529 
Q 2069 2156 2228 2338 
Q 2531 2678 2651 2914 
Q 2772 3150 2772 3378 
Q 2772 3750 2511 3984 
Q 2250 4219 1831 4219 
Q 1534 4219 1204 4116 
Q 875 4013 500 3803 
L 500 4441 
Q 881 4594 1212 4672 
Q 1544 4750 1819 4750 
Q 2544 4750 2975 4387 
Q 3406 4025 3406 3419 
Q 3406 3131 3298 2873 
Q 3191 2616 2906 2266 
Q 2828 2175 2409 1742 
Q 1991 1309 1228 531 
z
" transform="scale(0.015625)"/>
       </defs>
       <use xlink:href="#DejaVuSans-30"/>
       <use xlink:href="#DejaVuSans-2e" x="63.623047"/>
       <use xlink:href="#DejaVuSans-32" x="95.410156"/>
      </g>
     </g>
    </g>
    <g id="xtick_3">
     <g id="line2d_5">
      <path d="M 271.264463 378 
L 271.264463 51.84 
" clip-path="url(#p0611dd4d50)" style="fill: none; stroke-dasharray: 2.96,1.28; stroke-dashoffset: 0; stroke: #b0b0b0; stroke-width: 0.8"/>
     </g>
     <g id="line2d_6">
      <g>
       <use xlink:href="#m121847dc52" x="271.264463" y="378" style="stroke: #000000; stroke-width: 0.8"/>
      </g>
     </g>
     <g id="text_3">
      <!-- 0.4 -->
      <g transform="translate(263.3129 392.598437) scale(0.1 -0.1)">
       <defs>
        <path id="DejaVuSans-34" d="M 2419 4116 
L 825 1625 
L 2419 1625 
L 2419 4116 
z
M 2253 4666 
L 3047 4666 
L 3047 1625 
L 3713 1625 
L 3713 1100 
L 3047 1100 
L 3047 0 
L 2419 0 
L 2419 1100 
L 313 1100 
L 313 1709 
L 2253 4666 
z
" transform="scale(0.015625)"/>
       </defs>
       <use xlink:href="#DejaVuSans-30"/>
       <use xlink:href="#DejaVuSans-2e" x="63.623047"/>
       <use xlink:href="#DejaVuSans-34" x="95.410156"/>
      </g>
     </g>
    </g>
    <g id="xtick_4">
     <g id="line2d_7">
      <path d="M 335.826446 378 
L 335.826446 51.84 
" clip-path="url(#p0611dd4d50)" style="fill: none; stroke-dasharray: 2.96,1.28; stroke-dashoffset: 0; stroke: #b0b0b0; stroke-width: 0.8"/>
     </g>
     <g id="line2d_8">
      <g>
       <use xlink:href="#m121847dc52" x="335.826446" y="378" style="stroke: #000000; stroke-width: 0.8"/>
      </g>
     </g>
     <g id="text_4">
      <!-- 0.6 -->
      <g transform="translate(327.874884 392.598437) scale(0.1 -0.1)">
       <defs>
        <path id="DejaVuSans-36" d="M 2113 2584 
Q 1688 2584 1439 2293 
Q 1191 2003 1191 1497 
Q 1191 994 1439 701 
Q 1688 409 2113 409 
Q 2538 409 2786 701 
Q 3034 994 3034 1497 
Q 3034 2003 2786 2293 
Q 2538 2584 2113 2584 
z
M 3366 4563 
L 3366 3988 
Q 3128 4100 2886 4159 
Q 2644 4219 2406 4219 
Q 1781 4219 1451 3797 
Q 1122 3375 1075 2522 
Q 1259 2794 1537 2939 
Q 1816 3084 2150 3084 
Q 2853 3084 3261 2657 
Q 3669 2231 3669 1497 
Q 3669 778 3244 343 
Q 2819 -91 2113 -91 
Q 1303 -91 875 529 
Q 447 1150 447 2328 
Q 447 3434 972 4092 
Q 1497 4750 2381 4750 
Q 2619 4750 2861 4703 
Q 3103 4656 3366 4563 
z
" transform="scale(0.015625)"/>
       </defs>
       <use xlink:href="#DejaVuSans-30"/>
       <use xlink:href="#DejaVuSans-2e" x="63.623047"/>
       <use xlink:href="#DejaVuSans-36" x="95.410156"/>
      </g>
     </g>
    </g>
    <g id="xtick_5">
     <g id="line2d_9">
      <path d="M 400.38843 378 
L 400.38843 51.84 
" clip-path="url(#p0611dd4d50)" style="fill: none; stroke-dasharray: 2.96,1.28; stroke-dashoffset: 0; stroke: #b0b0b0; stroke-width: 0.8"/>
     </g>
     <g id="line2d_10">
      <g>
       <use xlink:href="#m121847dc52" x="400.38843" y="378" style="stroke: #000000; stroke-width: 0.8"/>
      </g>
     </g>
     <g id="text_5">
      <!-- 0.8 -->
      <g transform="translate(392.436867 392.598437) scale(0.1 -0.1)">
       <defs>
        <path id="DejaVuSans-38" d="M 2034 2216 
Q 1584 2216 1326 1975 
Q 1069 1734 1069 1313 
Q 1069 891 1326 650 
Q 1584 409 2034 409 
Q 2484 409 2743 651 
Q 3003 894 3003 1313 
Q 3003 1734 2745 1975 
Q 2488 2216 2034 2216 
z
M 1403 2484 
Q 997 2584 770 2862 
Q 544 3141 544 3541 
Q 544 4100 942 4425 
Q 1341 4750 2034 4750 
Q 2731 4750 3128 4425 
Q 3525 4100 3525 3541 
Q 3525 3141 3298 2862 
Q 3072 2584 2669 2484 
Q 3125 2378 3379 2068 
Q 3634 1759 3634 1313 
Q 3634 634 3220 271 
Q 2806 -91 2034 -91 
Q 1263 -91 848 271 
Q 434 634 434 1313 
Q 434 1759 690 2068 
Q 947 2378 1403 2484 
z
M 1172 3481 
Q 1172 3119 1398 2916 
Q 1625 2713 2034 2713 
Q 2441 2713 2670 2916 
Q 2900 3119 2900 3481 
Q 2900 3844 2670 4047 
Q 2441 4250 2034 4250 
Q 1625 4250 1398 4047 
Q 1172 3844 1172 3481 
z
" transform="scale(0.015625)"/>
       </defs>
       <use xlink:href="#DejaVuSans-30"/>
       <use xlink:href="#DejaVuSans-2e" x="63.623047"/>
       <use xlink:href="#DejaVuSans-38" x="95.410156"/>
      </g>
     </g>
    </g>
    <g id="xtick_6">
     <g id="line2d_11">
      <path d="M 464.950413 378 
L 464.950413 51.84 
" clip-path="url(#p0611dd4d50)" style="fill: none; stroke-dasharray: 2.96,1.28; stroke-dashoffset: 0; stroke: #b0b0b0; stroke-width: 0.8"/>
     </g>
     <g id="line2d_12">
      <g>
       <use xlink:href="#m121847dc52" x="464.950413" y="378" style="stroke: #000000; stroke-width: 0.8"/>
      </g>
     </g>
     <g id="text_6">
      <!-- 1.0 -->
      <g transform="translate(456.998851 392.598437) scale(0.1 -0.1)">
       <defs>
        <path id="DejaVuSans-31" d="M 794 531 
L 1825 531 
L 1825 4091 
L 703 3866 
L 703 4441 
L 1819 4666 
L 2450 4666 
L 2450 531 
L 3481 531 
L 3481 0 
L 794 0 
L 794 531 
z
" transform="scale(0.015625)"/>
       </defs>
       <use xlink:href="#DejaVuSans-31"/>
       <use xlink:href="#DejaVuSans-2e" x="63.623047"/>
       <use xlink:href="#DejaVuSans-30" x="95.410156"/>
      </g>
     </g>
    </g>
    <g id="text_7">
     <!-- False Positive Rate (Positive label: 1) -->
     <g transform="translate(212.17983 406.276563) scale(0.1 -0.1)">
      <defs>
       <path id="DejaVuSans-46" d="M 628 4666 
L 3309 4666 
L 3309 4134 
L 1259 4134 
L 1259 2759 
L 3109 2759 
L 3109 2228 
L 1259 2228 
L 1259 0 
L 628 0 
L 628 4666 
z
" transform="scale(0.015625)"/>
       <path id="DejaVuSans-61" d="M 2194 1759 
Q 1497 1759 1228 1600 
Q 959 1441 959 1056 
Q 959 750 1161 570 
Q 1363 391 1709 391 
Q 2188 391 2477 730 
Q 2766 1069 2766 1631 
L 2766 1759 
L 2194 1759 
z
M 3341 1997 
L 3341 0 
L 2766 0 
L 2766 531 
Q 2569 213 2275 61 
Q 1981 -91 1556 -91 
Q 1019 -91 701 211 
Q 384 513 384 1019 
Q 384 1609 779 1909 
Q 1175 2209 1959 2209 
L 2766 2209 
L 2766 2266 
Q 2766 2663 2505 2880 
Q 2244 3097 1772 3097 
Q 1472 3097 1187 3025 
Q 903 2953 641 2809 
L 641 3341 
Q 956 3463 1253 3523 
Q 1550 3584 1831 3584 
Q 2591 3584 2966 3190 
Q 3341 2797 3341 1997 
z
" transform="scale(0.015625)"/>
       <path id="DejaVuSans-6c" d="M 603 4863 
L 1178 4863 
L 1178 0 
L 603 0 
L 603 4863 
z
" transform="scale(0.015625)"/>
       <path id="DejaVuSans-73" d="M 2834 3397 
L 2834 2853 
Q 2591 2978 2328 3040 
Q 2066 3103 1784 3103 
Q 1356 3103 1142 2972 
Q 928 2841 928 2578 
Q 928 2378 1081 2264 
Q 1234 2150 1697 2047 
L 1894 2003 
Q 2506 1872 2764 1633 
Q 3022 1394 3022 966 
Q 3022 478 2636 193 
Q 2250 -91 1575 -91 
Q 1294 -91 989 -36 
Q 684 19 347 128 
L 347 722 
Q 666 556 975 473 
Q 1284 391 1588 391 
Q 1994 391 2212 530 
Q 2431 669 2431 922 
Q 2431 1156 2273 1281 
Q 2116 1406 1581 1522 
L 1381 1569 
Q 847 1681 609 1914 
Q 372 2147 372 2553 
Q 372 3047 722 3315 
Q 1072 3584 1716 3584 
Q 2034 3584 2315 3537 
Q 2597 3491 2834 3397 
z
" transform="scale(0.015625)"/>
       <path id="DejaVuSans-65" d="M 3597 1894 
L 3597 1613 
L 953 1613 
Q 991 1019 1311 708 
Q 1631 397 2203 397 
Q 2534 397 2845 478 
Q 3156 559 3463 722 
L 3463 178 
Q 3153 47 2828 -22 
Q 2503 -91 2169 -91 
Q 1331 -91 842 396 
Q 353 884 353 1716 
Q 353 2575 817 3079 
Q 1281 3584 2069 3584 
Q 2775 3584 3186 3129 
Q 3597 2675 3597 1894 
z
M 3022 2063 
Q 3016 2534 2758 2815 
Q 2500 3097 2075 3097 
Q 1594 3097 1305 2825 
Q 1016 2553 972 2059 
L 3022 2063 
z
" transform="scale(0.015625)"/>
       <path id="DejaVuSans-20" transform="scale(0.015625)"/>
       <path id="DejaVuSans-50" d="M 1259 4147 
L 1259 2394 
L 2053 2394 
Q 2494 2394 2734 2622 
Q 2975 2850 2975 3272 
Q 2975 3691 2734 3919 
Q 2494 4147 2053 4147 
L 1259 4147 
z
M 628 4666 
L 2053 4666 
Q 2838 4666 3239 4311 
Q 3641 3956 3641 3272 
Q 3641 2581 3239 2228 
Q 2838 1875 2053 1875 
L 1259 1875 
L 1259 0 
L 628 0 
L 628 4666 
z
" transform="scale(0.015625)"/>
       <path id="DejaVuSans-6f" d="M 1959 3097 
Q 1497 3097 1228 2736 
Q 959 2375 959 1747 
Q 959 1119 1226 758 
Q 1494 397 1959 397 
Q 2419 397 2687 759 
Q 2956 1122 2956 1747 
Q 2956 2369 2687 2733 
Q 2419 3097 1959 3097 
z
M 1959 3584 
Q 2709 3584 3137 3096 
Q 3566 2609 3566 1747 
Q 3566 888 3137 398 
Q 2709 -91 1959 -91 
Q 1206 -91 779 398 
Q 353 888 353 1747 
Q 353 2609 779 3096 
Q 1206 3584 1959 3584 
z
" transform="scale(0.015625)"/>
       <path id="DejaVuSans-69" d="M 603 3500 
L 1178 3500 
L 1178 0 
L 603 0 
L 603 3500 
z
M 603 4863 
L 1178 4863 
L 1178 4134 
L 603 4134 
L 603 4863 
z
" transform="scale(0.015625)"/>
       <path id="DejaVuSans-74" d="M 1172 4494 
L 1172 3500 
L 2356 3500 
L 2356 3053 
L 1172 3053 
L 1172 1153 
Q 1172 725 1289 603 
Q 1406 481 1766 481 
L 2356 481 
L 2356 0 
L 1766 0 
Q 1100 0 847 248 
Q 594 497 594 1153 
L 594 3053 
L 172 3053 
L 172 3500 
L 594 3500 
L 594 4494 
L 1172 4494 
z
" transform="scale(0.015625)"/>
       <path id="DejaVuSans-76" d="M 191 3500 
L 800 3500 
L 1894 563 
L 2988 3500 
L 3597 3500 
L 2284 0 
L 1503 0 
L 191 3500 
z
" transform="scale(0.015625)"/>
       <path id="DejaVuSans-52" d="M 2841 2188 
Q 3044 2119 3236 1894 
Q 3428 1669 3622 1275 
L 4263 0 
L 3584 0 
L 2988 1197 
Q 2756 1666 2539 1819 
Q 2322 1972 1947 1972 
L 1259 1972 
L 1259 0 
L 628 0 
L 628 4666 
L 2053 4666 
Q 2853 4666 3247 4331 
Q 3641 3997 3641 3322 
Q 3641 2881 3436 2590 
Q 3231 2300 2841 2188 
z
M 1259 4147 
L 1259 2491 
L 2053 2491 
Q 2509 2491 2742 2702 
Q 2975 2913 2975 3322 
Q 2975 3731 2742 3939 
Q 2509 4147 2053 4147 
L 1259 4147 
z
" transform="scale(0.015625)"/>
       <path id="DejaVuSans-28" d="M 1984 4856 
Q 1566 4138 1362 3434 
Q 1159 2731 1159 2009 
Q 1159 1288 1364 580 
Q 1569 -128 1984 -844 
L 1484 -844 
Q 1016 -109 783 600 
Q 550 1309 550 2009 
Q 550 2706 781 3412 
Q 1013 4119 1484 4856 
L 1984 4856 
z
" transform="scale(0.015625)"/>
       <path id="DejaVuSans-62" d="M 3116 1747 
Q 3116 2381 2855 2742 
Q 2594 3103 2138 3103 
Q 1681 3103 1420 2742 
Q 1159 2381 1159 1747 
Q 1159 1113 1420 752 
Q 1681 391 2138 391 
Q 2594 391 2855 752 
Q 3116 1113 3116 1747 
z
M 1159 2969 
Q 1341 3281 1617 3432 
Q 1894 3584 2278 3584 
Q 2916 3584 3314 3078 
Q 3713 2572 3713 1747 
Q 3713 922 3314 415 
Q 2916 -91 2278 -91 
Q 1894 -91 1617 61 
Q 1341 213 1159 525 
L 1159 0 
L 581 0 
L 581 4863 
L 1159 4863 
L 1159 2969 
z
" transform="scale(0.015625)"/>
       <path id="DejaVuSans-3a" d="M 750 794 
L 1409 794 
L 1409 0 
L 750 0 
L 750 794 
z
M 750 3309 
L 1409 3309 
L 1409 2516 
L 750 2516 
L 750 3309 
z
" transform="scale(0.015625)"/>
       <path id="DejaVuSans-29" d="M 513 4856 
L 1013 4856 
Q 1481 4119 1714 3412 
Q 1947 2706 1947 2009 
Q 1947 1309 1714 600 
Q 1481 -109 1013 -844 
L 513 -844 
Q 928 -128 1133 580 
Q 1338 1288 1338 2009 
Q 1338 2731 1133 3434 
Q 928 4138 513 4856 
z
" transform="scale(0.015625)"/>
      </defs>
      <use xlink:href="#DejaVuSans-46"/>
      <use xlink:href="#DejaVuSans-61" x="48.394531"/>
      <use xlink:href="#DejaVuSans-6c" x="109.673828"/>
      <use xlink:href="#DejaVuSans-73" x="137.457031"/>
      <use xlink:href="#DejaVuSans-65" x="189.556641"/>
      <use xlink:href="#DejaVuSans-20" x="251.080078"/>
      <use xlink:href="#DejaVuSans-50" x="282.867188"/>
      <use xlink:href="#DejaVuSans-6f" x="339.544922"/>
      <use xlink:href="#DejaVuSans-73" x="400.726562"/>
      <use xlink:href="#DejaVuSans-69" x="452.826172"/>
      <use xlink:href="#DejaVuSans-74" x="480.609375"/>
      <use xlink:href="#DejaVuSans-69" x="519.818359"/>
      <use xlink:href="#DejaVuSans-76" x="547.601562"/>
      <use xlink:href="#DejaVuSans-65" x="606.78125"/>
      <use xlink:href="#DejaVuSans-20" x="668.304688"/>
      <use xlink:href="#DejaVuSans-52" x="700.091797"/>
      <use xlink:href="#DejaVuSans-61" x="767.324219"/>
      <use xlink:href="#DejaVuSans-74" x="828.603516"/>
      <use xlink:href="#DejaVuSans-65" x="867.8125"/>
      <use xlink:href="#DejaVuSans-20" x="929.335938"/>
      <use xlink:href="#DejaVuSans-28" x="961.123047"/>
      <use xlink:href="#DejaVuSans-50" x="1000.136719"/>
      <use xlink:href="#DejaVuSans-6f" x="1056.814453"/>
      <use xlink:href="#DejaVuSans-73" x="1117.996094"/>
      <use xlink:href="#DejaVuSans-69" x="1170.095703"/>
      <use xlink:href="#DejaVuSans-74" x="1197.878906"/>
      <use xlink:href="#DejaVuSans-69" x="1237.087891"/>
      <use xlink:href="#DejaVuSans-76" x="1264.871094"/>
      <use xlink:href="#DejaVuSans-65" x="1324.050781"/>
      <use xlink:href="#DejaVuSans-20" x="1385.574219"/>
      <use xlink:href="#DejaVuSans-6c" x="1417.361328"/>
      <use xlink:href="#DejaVuSans-61" x="1445.144531"/>
      <use xlink:href="#DejaVuSans-62" x="1506.423828"/>
      <use xlink:href="#DejaVuSans-65" x="1569.900391"/>
      <use xlink:href="#DejaVuSans-6c" x="1631.423828"/>
      <use xlink:href="#DejaVuSans-3a" x="1659.207031"/>
      <use xlink:href="#DejaVuSans-20" x="1692.898438"/>
      <use xlink:href="#DejaVuSans-31" x="1724.685547"/>
      <use xlink:href="#DejaVuSans-29" x="1788.308594"/>
     </g>
    </g>
   </g>
   <g id="matplotlib.axis_2">
    <g id="ytick_1">
     <g id="line2d_13">
      <path d="M 126 363.174545 
L 481.090909 363.174545 
" clip-path="url(#p0611dd4d50)" style="fill: none; stroke-dasharray: 2.96,1.28; stroke-dashoffset: 0; stroke: #b0b0b0; stroke-width: 0.8"/>
     </g>
     <g id="line2d_14">
      <defs>
       <path id="mb0acbaf1f5" d="M 0 0 
L -3.5 0 
" style="stroke: #000000; stroke-width: 0.8"/>
      </defs>
      <g>
       <use xlink:href="#mb0acbaf1f5" x="126" y="363.174545" style="stroke: #000000; stroke-width: 0.8"/>
      </g>
     </g>
     <g id="text_8">
      <!-- 0.0 -->
      <g transform="translate(103.096875 366.973764) scale(0.1 -0.1)">
       <use xlink:href="#DejaVuSans-30"/>
       <use xlink:href="#DejaVuSans-2e" x="63.623047"/>
       <use xlink:href="#DejaVuSans-30" x="95.410156"/>
      </g>
     </g>
    </g>
    <g id="ytick_2">
     <g id="line2d_15">
      <path d="M 126 303.872727 
L 481.090909 303.872727 
" clip-path="url(#p0611dd4d50)" style="fill: none; stroke-dasharray: 2.96,1.28; stroke-dashoffset: 0; stroke: #b0b0b0; stroke-width: 0.8"/>
     </g>
     <g id="line2d_16">
      <g>
       <use xlink:href="#mb0acbaf1f5" x="126" y="303.872727" style="stroke: #000000; stroke-width: 0.8"/>
      </g>
     </g>
     <g id="text_9">
      <!-- 0.2 -->
      <g transform="translate(103.096875 307.671946) scale(0.1 -0.1)">
       <use xlink:href="#DejaVuSans-30"/>
       <use xlink:href="#DejaVuSans-2e" x="63.623047"/>
       <use xlink:href="#DejaVuSans-32" x="95.410156"/>
      </g>
     </g>
    </g>
    <g id="ytick_3">
     <g id="line2d_17">
      <path d="M 126 244.570909 
L 481.090909 244.570909 
" clip-path="url(#p0611dd4d50)" style="fill: none; stroke-dasharray: 2.96,1.28; stroke-dashoffset: 0; stroke: #b0b0b0; stroke-width: 0.8"/>
     </g>
     <g id="line2d_18">
      <g>
       <use xlink:href="#mb0acbaf1f5" x="126" y="244.570909" style="stroke: #000000; stroke-width: 0.8"/>
      </g>
     </g>
     <g id="text_10">
      <!-- 0.4 -->
      <g transform="translate(103.096875 248.370128) scale(0.1 -0.1)">
       <use xlink:href="#DejaVuSans-30"/>
       <use xlink:href="#DejaVuSans-2e" x="63.623047"/>
       <use xlink:href="#DejaVuSans-34" x="95.410156"/>
      </g>
     </g>
    </g>
    <g id="ytick_4">
     <g id="line2d_19">
      <path d="M 126 185.269091 
L 481.090909 185.269091 
" clip-path="url(#p0611dd4d50)" style="fill: none; stroke-dasharray: 2.96,1.28; stroke-dashoffset: 0; stroke: #b0b0b0; stroke-width: 0.8"/>
     </g>
     <g id="line2d_20">
      <g>
       <use xlink:href="#mb0acbaf1f5" x="126" y="185.269091" style="stroke: #000000; stroke-width: 0.8"/>
      </g>
     </g>
     <g id="text_11">
      <!-- 0.6 -->
      <g transform="translate(103.096875 189.06831) scale(0.1 -0.1)">
       <use xlink:href="#DejaVuSans-30"/>
       <use xlink:href="#DejaVuSans-2e" x="63.623047"/>
       <use xlink:href="#DejaVuSans-36" x="95.410156"/>
      </g>
     </g>
    </g>
    <g id="ytick_5">
     <g id="line2d_21">
      <path d="M 126 125.967273 
L 481.090909 125.967273 
" clip-path="url(#p0611dd4d50)" style="fill: none; stroke-dasharray: 2.96,1.28; stroke-dashoffset: 0; stroke: #b0b0b0; stroke-width: 0.8"/>
     </g>
     <g id="line2d_22">
      <g>
       <use xlink:href="#mb0acbaf1f5" x="126" y="125.967273" style="stroke: #000000; stroke-width: 0.8"/>
      </g>
     </g>
     <g id="text_12">
      <!-- 0.8 -->
      <g transform="translate(103.096875 129.766491) scale(0.1 -0.1)">
       <use xlink:href="#DejaVuSans-30"/>
       <use xlink:href="#DejaVuSans-2e" x="63.623047"/>
       <use xlink:href="#DejaVuSans-38" x="95.410156"/>
      </g>
     </g>
    </g>
    <g id="ytick_6">
     <g id="line2d_23">
      <path d="M 126 66.665455 
L 481.090909 66.665455 
" clip-path="url(#p0611dd4d50)" style="fill: none; stroke-dasharray: 2.96,1.28; stroke-dashoffset: 0; stroke: #b0b0b0; stroke-width: 0.8"/>
     </g>
     <g id="line2d_24">
      <g>
       <use xlink:href="#mb0acbaf1f5" x="126" y="66.665455" style="stroke: #000000; stroke-width: 0.8"/>
      </g>
     </g>
     <g id="text_13">
      <!-- 1.0 -->
      <g transform="translate(103.096875 70.464673) scale(0.1 -0.1)">
       <use xlink:href="#DejaVuSans-31"/>
       <use xlink:href="#DejaVuSans-2e" x="63.623047"/>
       <use xlink:href="#DejaVuSans-30" x="95.410156"/>
      </g>
     </g>
    </g>
    <g id="text_14">
     <!-- True Positive Rate (Positive label: 1) -->
     <g transform="translate(97.017187 304.348906) rotate(-90) scale(0.1 -0.1)">
      <defs>
       <path id="DejaVuSans-54" d="M -19 4666 
L 3928 4666 
L 3928 4134 
L 2272 4134 
L 2272 0 
L 1638 0 
L 1638 4134 
L -19 4134 
L -19 4666 
z
" transform="scale(0.015625)"/>
       <path id="DejaVuSans-72" d="M 2631 2963 
Q 2534 3019 2420 3045 
Q 2306 3072 2169 3072 
Q 1681 3072 1420 2755 
Q 1159 2438 1159 1844 
L 1159 0 
L 581 0 
L 581 3500 
L 1159 3500 
L 1159 2956 
Q 1341 3275 1631 3429 
Q 1922 3584 2338 3584 
Q 2397 3584 2469 3576 
Q 2541 3569 2628 3553 
L 2631 2963 
z
" transform="scale(0.015625)"/>
       <path id="DejaVuSans-75" d="M 544 1381 
L 544 3500 
L 1119 3500 
L 1119 1403 
Q 1119 906 1312 657 
Q 1506 409 1894 409 
Q 2359 409 2629 706 
Q 2900 1003 2900 1516 
L 2900 3500 
L 3475 3500 
L 3475 0 
L 2900 0 
L 2900 538 
Q 2691 219 2414 64 
Q 2138 -91 1772 -91 
Q 1169 -91 856 284 
Q 544 659 544 1381 
z
M 1991 3584 
L 1991 3584 
z
" transform="scale(0.015625)"/>
      </defs>
      <use xlink:href="#DejaVuSans-54"/>
      <use xlink:href="#DejaVuSans-72" x="46.333984"/>
      <use xlink:href="#DejaVuSans-75" x="87.447266"/>
      <use xlink:href="#DejaVuSans-65" x="150.826172"/>
      <use xlink:href="#DejaVuSans-20" x="212.349609"/>
      <use xlink:href="#DejaVuSans-50" x="244.136719"/>
      <use xlink:href="#DejaVuSans-6f" x="300.814453"/>
      <use xlink:href="#DejaVuSans-73" x="361.996094"/>
      <use xlink:href="#DejaVuSans-69" x="414.095703"/>
      <use xlink:href="#DejaVuSans-74" x="441.878906"/>
      <use xlink:href="#DejaVuSans-69" x="481.087891"/>
      <use xlink:href="#DejaVuSans-76" x="508.871094"/>
      <use xlink:href="#DejaVuSans-65" x="568.050781"/>
      <use xlink:href="#DejaVuSans-20" x="629.574219"/>
      <use xlink:href="#DejaVuSans-52" x="661.361328"/>
      <use xlink:href="#DejaVuSans-61" x="728.59375"/>
      <use xlink:href="#DejaVuSans-74" x="789.873047"/>
      <use xlink:href="#DejaVuSans-65" x="829.082031"/>
      <use xlink:href="#DejaVuSans-20" x="890.605469"/>
      <use xlink:href="#DejaVuSans-28" x="922.392578"/>
      <use xlink:href="#DejaVuSans-50" x="961.40625"/>
      <use xlink:href="#DejaVuSans-6f" x="1018.083984"/>
      <use xlink:href="#DejaVuSans-73" x="1079.265625"/>
      <use xlink:href="#DejaVuSans-69" x="1131.365234"/>
      <use xlink:href="#DejaVuSans-74" x="1159.148438"/>
      <use xlink:href="#DejaVuSans-69" x="1198.357422"/>
      <use xlink:href="#DejaVuSans-76" x="1226.140625"/>
      <use xlink:href="#DejaVuSans-65" x="1285.320312"/>
      <use xlink:href="#DejaVuSans-20" x="1346.84375"/>
      <use xlink:href="#DejaVuSans-6c" x="1378.630859"/>
      <use xlink:href="#DejaVuSans-61" x="1406.414062"/>
      <use xlink:href="#DejaVuSans-62" x="1467.693359"/>
      <use xlink:href="#DejaVuSans-65" x="1531.169922"/>
      <use xlink:href="#DejaVuSans-6c" x="1592.693359"/>
      <use xlink:href="#DejaVuSans-3a" x="1620.476562"/>
      <use xlink:href="#DejaVuSans-20" x="1654.167969"/>
      <use xlink:href="#DejaVuSans-31" x="1685.955078"/>
      <use xlink:href="#DejaVuSans-29" x="1749.578125"/>
     </g>
    </g>
   </g>
   <g id="line2d_25">
    <path d="M 142.140496 363.174545 
L 142.140496 66.943606 
L 142.445034 66.665455 
L 464.950413 66.665455 
L 464.950413 66.665455 
" clip-path="url(#p0611dd4d50)" style="fill: none; stroke: #1f77b4; stroke-width: 1.5; stroke-linecap: square"/>
   </g>
   <g id="line2d_26">
    <path d="M 142.140496 363.174545 
L 142.140496 361.78379 
L 142.445034 361.78379 
L 142.445034 348.710687 
L 142.749571 348.432536 
L 143.054109 348.432536 
L 143.054109 340.088003 
L 143.358646 340.088003 
L 143.358646 334.803132 
L 143.663184 334.803132 
L 143.663184 329.51826 
L 143.967722 329.51826 
L 143.967722 280.007361 
L 144.272259 280.007361 
L 144.272259 269.71577 
L 144.576797 269.71577 
L 144.576797 268.046863 
L 144.881335 268.046863 
L 144.881335 263.040143 
L 145.185872 263.040143 
L 145.185872 253.861156 
L 145.794948 253.861156 
L 145.794948 251.914099 
L 146.099485 251.914099 
L 146.099485 251.357796 
L 146.404023 251.357796 
L 146.404023 248.298134 
L 147.013098 248.298134 
L 147.013098 247.18553 
L 147.317636 247.18553 
L 147.317636 246.907378 
L 147.622174 246.907378 
L 147.622174 239.119147 
L 147.926711 239.119147 
L 147.926711 238.006543 
L 148.840324 238.006543 
L 148.840324 232.721671 
L 149.144862 232.721671 
L 149.144862 232.44352 
L 149.4494 232.44352 
L 149.4494 231.052765 
L 149.753937 231.052765 
L 149.753937 229.94016 
L 150.058475 229.94016 
L 150.058475 228.549405 
L 150.363013 228.549405 
L 150.363013 220.204871 
L 150.66755 220.204871 
L 150.66755 218.257813 
L 151.276626 218.257813 
L 151.276626 217.701511 
L 151.581163 217.701511 
L 151.581163 215.754453 
L 151.885701 215.754453 
L 151.885701 214.92 
L 152.190239 214.92 
L 152.190239 212.41664 
L 152.494776 212.41664 
L 152.494776 211.860338 
L 152.799314 211.860338 
L 152.799314 209.635129 
L 153.103852 209.635129 
L 153.103852 209.356978 
L 153.408389 209.356978 
L 153.408389 204.350258 
L 153.712927 204.350258 
L 153.712927 202.681351 
L 154.017465 202.681351 
L 154.017465 201.012444 
L 154.322002 201.012444 
L 154.322002 199.343537 
L 154.62654 199.343537 
L 154.62654 199.065386 
L 154.931077 199.065386 
L 154.931077 198.230933 
L 155.235615 198.230933 
L 155.235615 197.952782 
L 155.84469 197.952782 
L 155.84469 197.39648 
L 156.149228 197.39648 
L 156.149228 194.058666 
L 156.453766 194.058666 
L 156.453766 192.111608 
L 156.758303 192.111608 
L 156.758303 191.555306 
L 157.062841 191.555306 
L 157.062841 191.277155 
L 157.671916 191.277155 
L 157.671916 190.164551 
L 157.976454 190.164551 
L 157.976454 187.104888 
L 158.280992 187.104888 
L 158.280992 184.879679 
L 158.585529 184.879679 
L 158.585529 182.376319 
L 158.890067 182.376319 
L 158.890067 181.541866 
L 159.194605 181.541866 
L 159.194605 180.429261 
L 159.80368 180.429261 
L 159.80368 179.316657 
L 160.108218 179.316657 
L 160.108218 178.482204 
L 161.021831 178.482204 
L 161.021831 175.978844 
L 161.326368 175.978844 
L 161.326368 174.866239 
L 161.630906 174.866239 
L 161.630906 172.362879 
L 162.239981 172.362879 
L 162.239981 172.084728 
L 162.544519 172.084728 
L 162.544519 170.13767 
L 162.849057 170.13767 
L 162.849057 169.303217 
L 163.153594 169.303217 
L 163.153594 167.912461 
L 163.76267 167.912461 
L 163.76267 167.356159 
L 164.067207 167.356159 
L 164.067207 162.071288 
L 164.371745 162.071288 
L 164.371745 160.958683 
L 164.676283 160.958683 
L 164.676283 160.680532 
L 164.98082 160.680532 
L 164.98082 160.12423 
L 165.285358 160.12423 
L 165.285358 159.289777 
L 166.198971 159.289777 
L 166.198971 152.057848 
L 166.503508 152.057848 
L 166.503508 151.223394 
L 166.808046 151.223394 
L 166.808046 150.667092 
L 167.112584 150.667092 
L 167.112584 149.554487 
L 167.417121 149.554487 
L 167.417121 147.329279 
L 168.330734 147.329279 
L 168.330734 145.382221 
L 168.635272 145.382221 
L 168.635272 145.10407 
L 169.244347 145.10407 
L 169.244347 144.547767 
L 169.853423 144.547767 
L 169.853423 142.322558 
L 170.15796 142.322558 
L 170.15796 141.766256 
L 170.462498 141.766256 
L 170.462498 136.203234 
L 170.767036 136.203234 
L 170.767036 133.421723 
L 171.071573 133.421723 
L 171.071573 132.587269 
L 171.985186 132.587269 
L 171.985186 131.196514 
L 172.289724 131.196514 
L 172.289724 129.527607 
L 172.898799 129.527607 
L 172.898799 129.249456 
L 173.203337 129.249456 
L 173.203337 128.415003 
L 173.507875 128.415003 
L 173.507875 127.580549 
L 173.812412 127.580549 
L 173.812412 127.024247 
L 174.11695 127.024247 
L 174.11695 126.746096 
L 174.421488 126.746096 
L 174.421488 126.189794 
L 174.726025 126.189794 
L 174.726025 125.633491 
L 175.030563 125.633491 
L 175.030563 125.35534 
L 175.335101 125.35534 
L 175.335101 125.077189 
L 175.944176 125.077189 
L 175.944176 123.686434 
L 176.248714 123.686434 
L 176.248714 123.408282 
L 176.553251 123.408282 
L 176.553251 123.130131 
L 176.857789 123.130131 
L 176.857789 122.573829 
L 177.466864 122.573829 
L 177.466864 121.739376 
L 177.771402 121.739376 
L 177.771402 121.461225 
L 178.989552 121.461225 
L 178.989552 121.183074 
L 179.598628 121.183074 
L 179.598628 120.34862 
L 180.512241 120.34862 
L 180.512241 119.514167 
L 180.816778 119.514167 
L 180.816778 119.236016 
L 181.730391 119.236016 
L 181.730391 118.957865 
L 182.644004 118.957865 
L 182.644004 118.401562 
L 182.948542 118.401562 
L 182.948542 117.567109 
L 183.25308 117.567109 
L 183.25308 117.288958 
L 184.775768 117.288958 
L 184.775768 117.010807 
L 185.080306 117.010807 
L 185.080306 116.454505 
L 185.689381 116.454505 
L 185.689381 115.898202 
L 186.298456 115.898202 
L 186.298456 115.3419 
L 186.602994 115.3419 
L 186.602994 115.063749 
L 186.907532 115.063749 
L 186.907532 114.785598 
L 187.212069 114.785598 
L 187.212069 114.507447 
L 187.516607 114.507447 
L 187.516607 114.229296 
L 187.821145 114.229296 
L 187.821145 113.672993 
L 188.125682 113.672993 
L 188.125682 113.116691 
L 188.43022 113.116691 
L 188.43022 112.560389 
L 188.734758 112.560389 
L 188.734758 112.282238 
L 189.039295 112.282238 
L 189.039295 112.004087 
L 189.343833 112.004087 
L 189.343833 111.725936 
L 189.64837 111.725936 
L 189.64837 109.500727 
L 190.257446 109.500727 
L 190.257446 109.222575 
L 190.866521 109.222575 
L 190.866521 108.944424 
L 191.171059 108.944424 
L 191.171059 108.388122 
L 192.998285 108.388122 
L 192.998285 108.109971 
L 194.216435 108.109971 
L 194.216435 107.83182 
L 194.825511 107.83182 
L 194.825511 107.553669 
L 196.043661 107.553669 
L 196.043661 106.441064 
L 196.652737 106.441064 
L 196.652737 105.884762 
L 196.957274 105.884762 
L 196.957274 105.32846 
L 197.261812 105.32846 
L 197.261812 105.050309 
L 198.175425 105.050309 
L 198.175425 104.772158 
L 198.479963 104.772158 
L 198.479963 104.494006 
L 199.089038 104.494006 
L 199.089038 104.215855 
L 200.002651 104.215855 
L 200.002651 103.937704 
L 200.307189 103.937704 
L 200.307189 103.381402 
L 201.829877 103.381402 
L 201.829877 102.546949 
L 202.134414 102.546949 
L 202.134414 102.268798 
L 202.438952 102.268798 
L 202.438952 101.990646 
L 202.74349 101.990646 
L 202.74349 101.712495 
L 203.048027 101.712495 
L 203.048027 101.434344 
L 203.657103 101.434344 
L 203.657103 101.156193 
L 204.266178 101.156193 
L 204.266178 100.32174 
L 204.570716 100.32174 
L 204.570716 99.765437 
L 204.875253 99.765437 
L 204.875253 98.652833 
L 205.179791 98.652833 
L 205.179791 98.096531 
L 205.788866 98.096531 
L 205.788866 96.705775 
L 206.093404 96.705775 
L 206.093404 96.427624 
L 206.397942 96.427624 
L 206.397942 95.31502 
L 207.92063 95.31502 
L 207.92063 95.036868 
L 208.834243 95.036868 
L 208.834243 94.480566 
L 209.443318 94.480566 
L 209.443318 94.202415 
L 209.747856 94.202415 
L 209.747856 93.924264 
L 210.052394 93.924264 
L 210.052394 93.367962 
L 211.87962 93.367962 
L 211.87962 92.81166 
L 212.184157 92.81166 
L 212.184157 92.533508 
L 212.793232 92.533508 
L 212.793232 92.255357 
L 213.09777 92.255357 
L 213.09777 91.420904 
L 213.402308 91.420904 
L 213.402308 91.142753 
L 214.315921 91.142753 
L 214.315921 90.3083 
L 214.620458 90.3083 
L 214.620458 90.030148 
L 215.534071 90.030148 
L 215.534071 88.917544 
L 218.883986 88.917544 
L 218.883986 88.639393 
L 220.406674 88.639393 
L 220.406674 88.083091 
L 220.711212 88.083091 
L 220.711212 87.804939 
L 221.929362 87.804939 
L 221.929362 87.526788 
L 223.756588 87.526788 
L 223.756588 87.248637 
L 224.365663 87.248637 
L 224.365663 86.692335 
L 225.279276 86.692335 
L 225.279276 85.301579 
L 225.583814 85.301579 
L 225.583814 85.023428 
L 225.888352 85.023428 
L 225.888352 84.745277 
L 228.933728 84.745277 
L 228.933728 84.467126 
L 230.456417 84.467126 
L 230.456417 84.188975 
L 232.892718 84.188975 
L 232.892718 83.910824 
L 233.806331 83.910824 
L 233.806331 83.632673 
L 234.415406 83.632673 
L 234.415406 83.354522 
L 235.329019 83.354522 
L 235.329019 83.07637 
L 238.983471 83.07637 
L 238.983471 82.798219 
L 239.897084 82.798219 
L 239.897084 82.520068 
L 241.419772 82.520068 
L 241.419772 82.241917 
L 245.378762 82.241917 
L 245.378762 81.963766 
L 245.6833 81.963766 
L 245.6833 80.851162 
L 249.033214 80.851162 
L 249.033214 80.57301 
L 249.946827 80.57301 
L 249.946827 80.016708 
L 253.296741 80.016708 
L 253.296741 79.738557 
L 256.646655 79.738557 
L 256.646655 79.460406 
L 256.951193 79.460406 
L 256.951193 79.182255 
L 257.255731 79.182255 
L 257.255731 78.904104 
L 258.778419 78.904104 
L 258.778419 78.347801 
L 262.128333 78.347801 
L 262.128333 77.513348 
L 263.041946 77.513348 
L 263.041946 77.235197 
L 263.651021 77.235197 
L 263.651021 76.957046 
L 264.564634 76.957046 
L 264.564634 76.678895 
L 269.132699 76.678895 
L 269.132699 76.400744 
L 273.091689 76.400744 
L 273.091689 76.122593 
L 273.700764 76.122593 
L 273.700764 75.844441 
L 274.005302 75.844441 
L 274.005302 75.56629 
L 285.88227 75.56629 
L 285.88227 75.288139 
L 290.145798 75.288139 
L 290.145798 74.731837 
L 291.668486 74.731837 
L 291.668486 74.453686 
L 292.277561 74.453686 
L 292.277561 74.175535 
L 293.495712 74.175535 
L 293.495712 73.897384 
L 294.104787 73.897384 
L 294.104787 73.619232 
L 295.627475 73.619232 
L 295.627475 73.341081 
L 295.932013 73.341081 
L 295.932013 73.06293 
L 299.281927 73.06293 
L 299.281927 72.784779 
L 313.29066 72.784779 
L 313.29066 72.506628 
L 318.772337 72.506628 
L 318.772337 72.228477 
L 323.64494 72.228477 
L 323.64494 71.950326 
L 326.994854 71.950326 
L 326.994854 71.672175 
L 332.171994 71.672175 
L 332.171994 71.394024 
L 338.871823 71.394024 
L 338.871823 71.115872 
L 339.176361 71.115872 
L 339.176361 70.837721 
L 344.048963 70.837721 
L 344.048963 70.55957 
L 346.485264 70.55957 
L 346.485264 70.281419 
L 348.617028 70.281419 
L 348.617028 70.003268 
L 350.444254 70.003268 
L 350.444254 69.725117 
L 365.366599 69.725117 
L 365.366599 69.446966 
L 367.8029 69.446966 
L 367.8029 69.168815 
L 375.416342 69.168815 
L 375.416342 68.612512 
L 393.384064 68.612512 
L 393.384064 68.334361 
L 393.993139 68.334361 
L 393.993139 68.05621 
L 401.302043 68.05621 
L 401.302043 67.778059 
L 402.824731 67.778059 
L 402.824731 67.499908 
L 405.261032 67.499908 
L 405.261032 67.221757 
L 435.41026 67.221757 
L 435.41026 66.943606 
L 464.950413 66.943606 
L 464.950413 66.665455 
L 464.950413 66.665455 
" clip-path="url(#p0611dd4d50)" style="fill: none; stroke: #ff7f0e; stroke-width: 1.5; stroke-linecap: square"/>
   </g>
   <g id="line2d_27">
    <path d="M 142.140496 363.174545 
L 142.140496 328.405656 
L 142.445034 328.405656 
L 142.445034 313.107344 
L 142.749571 313.107344 
L 142.749571 308.656926 
L 143.054109 308.656926 
L 143.054109 304.48466 
L 143.358646 304.206509 
L 143.358646 299.756091 
L 143.663184 299.756091 
L 143.663184 283.901477 
L 143.967722 283.901477 
L 143.967722 266.656108 
L 144.272259 266.656108 
L 144.272259 261.371237 
L 144.576797 261.371237 
L 144.576797 242.735112 
L 144.881335 242.735112 
L 144.881335 239.675449 
L 145.185872 239.675449 
L 145.185872 167.912461 
L 145.49041 167.912461 
L 145.49041 164.018346 
L 145.794948 164.018346 
L 145.794948 158.733474 
L 146.099485 158.733474 
L 146.099485 155.673812 
L 146.404023 155.673812 
L 146.404023 150.945243 
L 146.708561 150.945243 
L 146.708561 139.819198 
L 147.013098 139.819198 
L 147.013098 138.428443 
L 147.622174 138.428443 
L 147.622174 136.481385 
L 147.926711 136.481385 
L 147.926711 134.812478 
L 148.231249 134.812478 
L 148.231249 133.143572 
L 148.535787 133.143572 
L 148.535787 129.249456 
L 148.840324 129.249456 
L 148.840324 127.8587 
L 149.144862 127.8587 
L 149.144862 125.911643 
L 149.4494 125.911643 
L 149.4494 123.964585 
L 149.753937 123.964585 
L 149.753937 120.904922 
L 150.058475 120.904922 
L 150.058475 120.34862 
L 150.363013 120.34862 
L 150.363013 116.454505 
L 150.66755 116.454505 
L 150.66755 115.620051 
L 150.972088 115.620051 
L 150.972088 111.447784 
L 151.276626 111.447784 
L 151.276626 110.33518 
L 151.581163 110.33518 
L 151.581163 107.83182 
L 151.885701 107.83182 
L 151.885701 107.553669 
L 152.190239 107.553669 
L 152.190239 106.441064 
L 152.494776 106.441064 
L 152.494776 103.937704 
L 152.799314 103.937704 
L 152.799314 103.381402 
L 153.103852 103.381402 
L 153.103852 103.103251 
L 153.408389 103.103251 
L 153.408389 102.8251 
L 153.712927 102.8251 
L 153.712927 102.546949 
L 154.017465 102.546949 
L 154.017465 102.268798 
L 154.322002 102.268798 
L 154.322002 101.434344 
L 154.62654 101.434344 
L 154.62654 100.043589 
L 154.931077 100.043589 
L 154.931077 98.652833 
L 155.235615 98.652833 
L 155.235615 97.81838 
L 155.540153 97.81838 
L 155.540153 97.262077 
L 155.84469 97.262077 
L 155.84469 96.705775 
L 156.149228 96.705775 
L 156.149228 95.31502 
L 156.758303 95.31502 
L 156.758303 94.480566 
L 157.062841 94.480566 
L 157.062841 94.202415 
L 157.671916 94.202415 
L 157.671916 92.255357 
L 157.976454 92.255357 
L 157.976454 90.864602 
L 158.585529 90.864602 
L 158.585529 90.586451 
L 158.890067 90.586451 
L 158.890067 88.361242 
L 159.194605 88.361242 
L 159.194605 87.804939 
L 159.499142 87.804939 
L 159.499142 86.970486 
L 159.80368 86.970486 
L 159.80368 85.857882 
L 160.108218 85.857882 
L 160.108218 85.579731 
L 160.412755 85.579731 
L 161.021831 83.354522 
L 161.021831 82.798219 
L 161.326368 82.798219 
L 161.326368 81.407464 
L 162.239981 81.407464 
L 162.239981 80.851162 
L 162.849057 80.851162 
L 162.849057 80.294859 
L 163.153594 80.294859 
L 163.153594 79.738557 
L 163.458132 79.738557 
L 163.458132 79.460406 
L 164.98082 79.460406 
L 164.98082 79.182255 
L 165.589896 79.182255 
L 165.589896 78.904104 
L 166.808046 78.904104 
L 166.808046 78.625953 
L 167.417121 78.625953 
L 167.417121 78.347801 
L 168.026197 78.347801 
L 168.026197 77.791499 
L 168.330734 77.791499 
L 168.330734 77.235197 
L 169.244347 77.235197 
L 169.244347 76.678895 
L 169.548885 76.678895 
L 169.548885 76.400744 
L 170.767036 76.400744 
L 170.767036 75.56629 
L 171.680649 75.56629 
L 171.680649 75.009988 
L 172.594262 75.009988 
L 172.594262 74.731837 
L 173.812412 74.731837 
L 173.812412 74.453686 
L 174.11695 74.453686 
L 174.11695 74.175535 
L 174.726025 74.175535 
L 174.726025 73.619232 
L 175.944176 73.619232 
L 175.944176 73.06293 
L 176.553251 73.06293 
L 176.553251 72.784779 
L 177.162327 72.784779 
L 177.162327 72.506628 
L 180.207703 72.506628 
L 180.207703 72.228477 
L 181.425854 72.228477 
L 181.425854 71.950326 
L 182.339467 71.950326 
L 182.339467 71.672175 
L 182.948542 71.672175 
L 182.948542 71.115872 
L 184.166693 71.115872 
L 184.166693 70.837721 
L 191.780134 70.837721 
L 191.780134 70.003268 
L 192.998285 70.003268 
L 192.998285 69.725117 
L 198.479963 69.725117 
L 198.479963 69.446966 
L 204.266178 69.446966 
L 204.266178 69.168815 
L 210.356931 69.168815 
L 210.356931 68.890663 
L 210.661469 68.890663 
L 210.661469 68.612512 
L 217.05676 68.612512 
L 217.05676 68.334361 
L 221.015749 68.334361 
L 221.015749 68.05621 
L 222.842975 68.05621 
L 222.842975 67.778059 
L 228.629191 67.778059 
L 228.629191 67.499908 
L 229.542804 67.499908 
L 229.542804 67.221757 
L 252.07859 67.221757 
L 252.07859 66.943606 
L 420.183378 66.943606 
L 420.183378 66.665455 
L 464.950413 66.665455 
L 464.950413 66.665455 
" clip-path="url(#p0611dd4d50)" style="fill: none; stroke: #2ca02c; stroke-width: 1.5; stroke-linecap: square"/>
   </g>
   <g id="line2d_28">
    <path d="M 142.140496 363.174545 
L 142.140496 362.896394 
L 142.140496 354.830012 
L 142.140496 354.27371 
L 142.140496 353.439256 
L 142.140496 352.882954 
L 142.140496 351.214047 
L 142.140496 349.823292 
L 142.140496 349.26699 
L 142.140496 344.260269 
L 142.140496 343.425816 
L 142.140496 339.5317 
L 142.140496 338.975398 
L 142.140496 338.419096 
L 142.140496 337.862794 
L 142.140496 337.02834 
L 142.140496 336.472038 
L 142.140496 334.52498 
L 142.140496 333.968678 
L 142.140496 329.796411 
L 142.140496 328.961958 
L 142.140496 328.683807 
L 142.140496 328.127505 
L 142.140496 327.571202 
L 142.140496 327.0149 
L 142.140496 326.180447 
L 142.140496 325.624145 
L 142.140496 322.842633 
L 142.140496 321.730029 
L 142.140496 320.617425 
L 142.140496 319.50482 
L 142.140496 319.226669 
L 142.140496 318.670367 
L 142.140496 315.054402 
L 142.140496 314.4981 
L 142.140496 311.160287 
L 142.140496 310.603984 
L 142.140496 296.418277 
L 142.140496 295.861975 
L 142.140496 291.689708 
L 142.140496 291.133406 
L 142.140496 289.464499 
L 142.140496 288.908197 
L 142.140496 285.848535 
L 142.140496 285.292233 
L 142.140496 283.345175 
L 142.140496 282.788873 
L 142.140496 278.060304 
L 142.140496 277.504001 
L 142.140496 276.669548 
L 142.140496 276.113246 
L 142.140496 269.437619 
L 142.140496 268.881317 
L 142.140496 267.490561 
L 142.140496 266.934259 
L 142.140496 263.874597 
L 142.140496 263.040143 
L 142.140496 256.086365 
L 142.140496 254.973761 
L 142.140496 254.139308 
L 142.140496 253.861156 
L 142.140496 253.304854 
L 142.140496 252.748552 
L 142.140496 252.19225 
L 142.140496 243.847716 
L 142.140496 243.291414 
L 142.140496 227.714951 
L 142.140496 226.880498 
L 142.140496 205.741013 
L 142.140496 204.628409 
L 142.140496 142.044407 
L 142.140496 141.488105 
L 142.140496 66.943606 
L 142.445034 66.665455 
L 212.184157 66.665455 
L 213.09777 66.665455 
L 219.797599 66.665455 
L 220.406674 66.665455 
L 221.320287 66.665455 
L 221.929362 66.665455 
L 253.296741 66.665455 
L 253.905816 66.665455 
L 343.744425 66.665455 
L 344.353501 66.665455 
L 370.239202 66.665455 
L 370.848277 66.665455 
L 414.397162 66.665455 
L 415.310775 66.665455 
L 464.950413 66.665455 
" clip-path="url(#p0611dd4d50)" style="fill: none; stroke: #d62728; stroke-width: 1.5; stroke-linecap: square"/>
   </g>
   <g id="patch_3">
    <path d="M 126 378 
L 126 51.84 
" style="fill: none; stroke: #000000; stroke-width: 0.8; stroke-linejoin: miter; stroke-linecap: square"/>
   </g>
   <g id="patch_4">
    <path d="M 481.090909 378 
L 481.090909 51.84 
" style="fill: none; stroke: #000000; stroke-width: 0.8; stroke-linejoin: miter; stroke-linecap: square"/>
   </g>
   <g id="patch_5">
    <path d="M 126 378 
L 481.090909 378 
" style="fill: none; stroke: #000000; stroke-width: 0.8; stroke-linejoin: miter; stroke-linecap: square"/>
   </g>
   <g id="patch_6">
    <path d="M 126 51.84 
L 481.090909 51.84 
" style="fill: none; stroke: #000000; stroke-width: 0.8; stroke-linejoin: miter; stroke-linecap: square"/>
   </g>
   <g id="text_15">
    <!-- Curvas ROC en el entrenamiento  -->
    <g transform="translate(202.885142 45.84) scale(0.12 -0.12)">
     <defs>
      <path id="DejaVuSans-43" d="M 4122 4306 
L 4122 3641 
Q 3803 3938 3442 4084 
Q 3081 4231 2675 4231 
Q 1875 4231 1450 3742 
Q 1025 3253 1025 2328 
Q 1025 1406 1450 917 
Q 1875 428 2675 428 
Q 3081 428 3442 575 
Q 3803 722 4122 1019 
L 4122 359 
Q 3791 134 3420 21 
Q 3050 -91 2638 -91 
Q 1578 -91 968 557 
Q 359 1206 359 2328 
Q 359 3453 968 4101 
Q 1578 4750 2638 4750 
Q 3056 4750 3426 4639 
Q 3797 4528 4122 4306 
z
" transform="scale(0.015625)"/>
      <path id="DejaVuSans-4f" d="M 2522 4238 
Q 1834 4238 1429 3725 
Q 1025 3213 1025 2328 
Q 1025 1447 1429 934 
Q 1834 422 2522 422 
Q 3209 422 3611 934 
Q 4013 1447 4013 2328 
Q 4013 3213 3611 3725 
Q 3209 4238 2522 4238 
z
M 2522 4750 
Q 3503 4750 4090 4092 
Q 4678 3434 4678 2328 
Q 4678 1225 4090 567 
Q 3503 -91 2522 -91 
Q 1538 -91 948 565 
Q 359 1222 359 2328 
Q 359 3434 948 4092 
Q 1538 4750 2522 4750 
z
" transform="scale(0.015625)"/>
      <path id="DejaVuSans-6e" d="M 3513 2113 
L 3513 0 
L 2938 0 
L 2938 2094 
Q 2938 2591 2744 2837 
Q 2550 3084 2163 3084 
Q 1697 3084 1428 2787 
Q 1159 2491 1159 1978 
L 1159 0 
L 581 0 
L 581 3500 
L 1159 3500 
L 1159 2956 
Q 1366 3272 1645 3428 
Q 1925 3584 2291 3584 
Q 2894 3584 3203 3211 
Q 3513 2838 3513 2113 
z
" transform="scale(0.015625)"/>
      <path id="DejaVuSans-6d" d="M 3328 2828 
Q 3544 3216 3844 3400 
Q 4144 3584 4550 3584 
Q 5097 3584 5394 3201 
Q 5691 2819 5691 2113 
L 5691 0 
L 5113 0 
L 5113 2094 
Q 5113 2597 4934 2840 
Q 4756 3084 4391 3084 
Q 3944 3084 3684 2787 
Q 3425 2491 3425 1978 
L 3425 0 
L 2847 0 
L 2847 2094 
Q 2847 2600 2669 2842 
Q 2491 3084 2119 3084 
Q 1678 3084 1418 2786 
Q 1159 2488 1159 1978 
L 1159 0 
L 581 0 
L 581 3500 
L 1159 3500 
L 1159 2956 
Q 1356 3278 1631 3431 
Q 1906 3584 2284 3584 
Q 2666 3584 2933 3390 
Q 3200 3197 3328 2828 
z
" transform="scale(0.015625)"/>
     </defs>
     <use xlink:href="#DejaVuSans-43"/>
     <use xlink:href="#DejaVuSans-75" x="69.824219"/>
     <use xlink:href="#DejaVuSans-72" x="133.203125"/>
     <use xlink:href="#DejaVuSans-76" x="174.316406"/>
     <use xlink:href="#DejaVuSans-61" x="233.496094"/>
     <use xlink:href="#DejaVuSans-73" x="294.775391"/>
     <use xlink:href="#DejaVuSans-20" x="346.875"/>
     <use xlink:href="#DejaVuSans-52" x="378.662109"/>
     <use xlink:href="#DejaVuSans-4f" x="448.144531"/>
     <use xlink:href="#DejaVuSans-43" x="526.855469"/>
     <use xlink:href="#DejaVuSans-20" x="596.679688"/>
     <use xlink:href="#DejaVuSans-65" x="628.466797"/>
     <use xlink:href="#DejaVuSans-6e" x="689.990234"/>
     <use xlink:href="#DejaVuSans-20" x="753.369141"/>
     <use xlink:href="#DejaVuSans-65" x="785.15625"/>
     <use xlink:href="#DejaVuSans-6c" x="846.679688"/>
     <use xlink:href="#DejaVuSans-20" x="874.462891"/>
     <use xlink:href="#DejaVuSans-65" x="906.25"/>
     <use xlink:href="#DejaVuSans-6e" x="967.773438"/>
     <use xlink:href="#DejaVuSans-74" x="1031.152344"/>
     <use xlink:href="#DejaVuSans-72" x="1070.361328"/>
     <use xlink:href="#DejaVuSans-65" x="1109.224609"/>
     <use xlink:href="#DejaVuSans-6e" x="1170.748047"/>
     <use xlink:href="#DejaVuSans-61" x="1234.126953"/>
     <use xlink:href="#DejaVuSans-6d" x="1295.40625"/>
     <use xlink:href="#DejaVuSans-69" x="1392.818359"/>
     <use xlink:href="#DejaVuSans-65" x="1420.601562"/>
     <use xlink:href="#DejaVuSans-6e" x="1482.125"/>
     <use xlink:href="#DejaVuSans-74" x="1545.503906"/>
     <use xlink:href="#DejaVuSans-6f" x="1584.712891"/>
     <use xlink:href="#DejaVuSans-20" x="1645.894531"/>
    </g>
   </g>
   <g id="legend_1">
    <g id="patch_7">
     <path d="M 240.100284 373 
L 474.090909 373 
Q 476.090909 373 476.090909 371 
L 476.090909 313.2875 
Q 476.090909 311.2875 474.090909 311.2875 
L 240.100284 311.2875 
Q 238.100284 311.2875 238.100284 313.2875 
L 238.100284 371 
Q 238.100284 373 240.100284 373 
z
" style="fill: #ffffff; opacity: 0.8; stroke: #cccccc; stroke-linejoin: miter"/>
    </g>
    <g id="line2d_29">
     <path d="M 242.100284 319.385938 
L 252.100284 319.385938 
L 262.100284 319.385938 
" style="fill: none; stroke: #1f77b4; stroke-width: 1.5; stroke-linecap: square"/>
    </g>
    <g id="text_16">
     <!-- RandomForestClassifier (AUC = 1.00) -->
     <g transform="translate(270.100284 322.885938) scale(0.1 -0.1)">
      <defs>
       <path id="DejaVuSans-64" d="M 2906 2969 
L 2906 4863 
L 3481 4863 
L 3481 0 
L 2906 0 
L 2906 525 
Q 2725 213 2448 61 
Q 2172 -91 1784 -91 
Q 1150 -91 751 415 
Q 353 922 353 1747 
Q 353 2572 751 3078 
Q 1150 3584 1784 3584 
Q 2172 3584 2448 3432 
Q 2725 3281 2906 2969 
z
M 947 1747 
Q 947 1113 1208 752 
Q 1469 391 1925 391 
Q 2381 391 2643 752 
Q 2906 1113 2906 1747 
Q 2906 2381 2643 2742 
Q 2381 3103 1925 3103 
Q 1469 3103 1208 2742 
Q 947 2381 947 1747 
z
" transform="scale(0.015625)"/>
       <path id="DejaVuSans-66" d="M 2375 4863 
L 2375 4384 
L 1825 4384 
Q 1516 4384 1395 4259 
Q 1275 4134 1275 3809 
L 1275 3500 
L 2222 3500 
L 2222 3053 
L 1275 3053 
L 1275 0 
L 697 0 
L 697 3053 
L 147 3053 
L 147 3500 
L 697 3500 
L 697 3744 
Q 697 4328 969 4595 
Q 1241 4863 1831 4863 
L 2375 4863 
z
" transform="scale(0.015625)"/>
       <path id="DejaVuSans-41" d="M 2188 4044 
L 1331 1722 
L 3047 1722 
L 2188 4044 
z
M 1831 4666 
L 2547 4666 
L 4325 0 
L 3669 0 
L 3244 1197 
L 1141 1197 
L 716 0 
L 50 0 
L 1831 4666 
z
" transform="scale(0.015625)"/>
       <path id="DejaVuSans-55" d="M 556 4666 
L 1191 4666 
L 1191 1831 
Q 1191 1081 1462 751 
Q 1734 422 2344 422 
Q 2950 422 3222 751 
Q 3494 1081 3494 1831 
L 3494 4666 
L 4128 4666 
L 4128 1753 
Q 4128 841 3676 375 
Q 3225 -91 2344 -91 
Q 1459 -91 1007 375 
Q 556 841 556 1753 
L 556 4666 
z
" transform="scale(0.015625)"/>
       <path id="DejaVuSans-3d" d="M 678 2906 
L 4684 2906 
L 4684 2381 
L 678 2381 
L 678 2906 
z
M 678 1631 
L 4684 1631 
L 4684 1100 
L 678 1100 
L 678 1631 
z
" transform="scale(0.015625)"/>
      </defs>
      <use xlink:href="#DejaVuSans-52"/>
      <use xlink:href="#DejaVuSans-61" x="67.232422"/>
      <use xlink:href="#DejaVuSans-6e" x="128.511719"/>
      <use xlink:href="#DejaVuSans-64" x="191.890625"/>
      <use xlink:href="#DejaVuSans-6f" x="255.367188"/>
      <use xlink:href="#DejaVuSans-6d" x="316.548828"/>
      <use xlink:href="#DejaVuSans-46" x="413.960938"/>
      <use xlink:href="#DejaVuSans-6f" x="467.855469"/>
      <use xlink:href="#DejaVuSans-72" x="529.037109"/>
      <use xlink:href="#DejaVuSans-65" x="567.900391"/>
      <use xlink:href="#DejaVuSans-73" x="629.423828"/>
      <use xlink:href="#DejaVuSans-74" x="681.523438"/>
      <use xlink:href="#DejaVuSans-43" x="720.732422"/>
      <use xlink:href="#DejaVuSans-6c" x="790.556641"/>
      <use xlink:href="#DejaVuSans-61" x="818.339844"/>
      <use xlink:href="#DejaVuSans-73" x="879.619141"/>
      <use xlink:href="#DejaVuSans-73" x="931.71875"/>
      <use xlink:href="#DejaVuSans-69" x="983.818359"/>
      <use xlink:href="#DejaVuSans-66" x="1011.601562"/>
      <use xlink:href="#DejaVuSans-69" x="1046.806641"/>
      <use xlink:href="#DejaVuSans-65" x="1074.589844"/>
      <use xlink:href="#DejaVuSans-72" x="1136.113281"/>
      <use xlink:href="#DejaVuSans-20" x="1177.226562"/>
      <use xlink:href="#DejaVuSans-28" x="1209.013672"/>
      <use xlink:href="#DejaVuSans-41" x="1248.027344"/>
      <use xlink:href="#DejaVuSans-55" x="1316.435547"/>
      <use xlink:href="#DejaVuSans-43" x="1389.628906"/>
      <use xlink:href="#DejaVuSans-20" x="1459.453125"/>
      <use xlink:href="#DejaVuSans-3d" x="1491.240234"/>
      <use xlink:href="#DejaVuSans-20" x="1575.029297"/>
      <use xlink:href="#DejaVuSans-31" x="1606.816406"/>
      <use xlink:href="#DejaVuSans-2e" x="1670.439453"/>
      <use xlink:href="#DejaVuSans-30" x="1702.226562"/>
      <use xlink:href="#DejaVuSans-30" x="1765.849609"/>
      <use xlink:href="#DejaVuSans-29" x="1829.472656"/>
     </g>
    </g>
    <g id="line2d_30">
     <path d="M 242.100284 334.064062 
L 252.100284 334.064062 
L 262.100284 334.064062 
" style="fill: none; stroke: #ff7f0e; stroke-width: 1.5; stroke-linecap: square"/>
    </g>
    <g id="text_17">
     <!-- LogisticRegression (AUC = 0.92) -->
     <g transform="translate(270.100284 337.564062) scale(0.1 -0.1)">
      <defs>
       <path id="DejaVuSans-4c" d="M 628 4666 
L 1259 4666 
L 1259 531 
L 3531 531 
L 3531 0 
L 628 0 
L 628 4666 
z
" transform="scale(0.015625)"/>
       <path id="DejaVuSans-67" d="M 2906 1791 
Q 2906 2416 2648 2759 
Q 2391 3103 1925 3103 
Q 1463 3103 1205 2759 
Q 947 2416 947 1791 
Q 947 1169 1205 825 
Q 1463 481 1925 481 
Q 2391 481 2648 825 
Q 2906 1169 2906 1791 
z
M 3481 434 
Q 3481 -459 3084 -895 
Q 2688 -1331 1869 -1331 
Q 1566 -1331 1297 -1286 
Q 1028 -1241 775 -1147 
L 775 -588 
Q 1028 -725 1275 -790 
Q 1522 -856 1778 -856 
Q 2344 -856 2625 -561 
Q 2906 -266 2906 331 
L 2906 616 
Q 2728 306 2450 153 
Q 2172 0 1784 0 
Q 1141 0 747 490 
Q 353 981 353 1791 
Q 353 2603 747 3093 
Q 1141 3584 1784 3584 
Q 2172 3584 2450 3431 
Q 2728 3278 2906 2969 
L 2906 3500 
L 3481 3500 
L 3481 434 
z
" transform="scale(0.015625)"/>
       <path id="DejaVuSans-63" d="M 3122 3366 
L 3122 2828 
Q 2878 2963 2633 3030 
Q 2388 3097 2138 3097 
Q 1578 3097 1268 2742 
Q 959 2388 959 1747 
Q 959 1106 1268 751 
Q 1578 397 2138 397 
Q 2388 397 2633 464 
Q 2878 531 3122 666 
L 3122 134 
Q 2881 22 2623 -34 
Q 2366 -91 2075 -91 
Q 1284 -91 818 406 
Q 353 903 353 1747 
Q 353 2603 823 3093 
Q 1294 3584 2113 3584 
Q 2378 3584 2631 3529 
Q 2884 3475 3122 3366 
z
" transform="scale(0.015625)"/>
       <path id="DejaVuSans-39" d="M 703 97 
L 703 672 
Q 941 559 1184 500 
Q 1428 441 1663 441 
Q 2288 441 2617 861 
Q 2947 1281 2994 2138 
Q 2813 1869 2534 1725 
Q 2256 1581 1919 1581 
Q 1219 1581 811 2004 
Q 403 2428 403 3163 
Q 403 3881 828 4315 
Q 1253 4750 1959 4750 
Q 2769 4750 3195 4129 
Q 3622 3509 3622 2328 
Q 3622 1225 3098 567 
Q 2575 -91 1691 -91 
Q 1453 -91 1209 -44 
Q 966 3 703 97 
z
M 1959 2075 
Q 2384 2075 2632 2365 
Q 2881 2656 2881 3163 
Q 2881 3666 2632 3958 
Q 2384 4250 1959 4250 
Q 1534 4250 1286 3958 
Q 1038 3666 1038 3163 
Q 1038 2656 1286 2365 
Q 1534 2075 1959 2075 
z
" transform="scale(0.015625)"/>
      </defs>
      <use xlink:href="#DejaVuSans-4c"/>
      <use xlink:href="#DejaVuSans-6f" x="53.962891"/>
      <use xlink:href="#DejaVuSans-67" x="115.144531"/>
      <use xlink:href="#DejaVuSans-69" x="178.621094"/>
      <use xlink:href="#DejaVuSans-73" x="206.404297"/>
      <use xlink:href="#DejaVuSans-74" x="258.503906"/>
      <use xlink:href="#DejaVuSans-69" x="297.712891"/>
      <use xlink:href="#DejaVuSans-63" x="325.496094"/>
      <use xlink:href="#DejaVuSans-52" x="380.476562"/>
      <use xlink:href="#DejaVuSans-65" x="445.458984"/>
      <use xlink:href="#DejaVuSans-67" x="506.982422"/>
      <use xlink:href="#DejaVuSans-72" x="570.458984"/>
      <use xlink:href="#DejaVuSans-65" x="609.322266"/>
      <use xlink:href="#DejaVuSans-73" x="670.845703"/>
      <use xlink:href="#DejaVuSans-73" x="722.945312"/>
      <use xlink:href="#DejaVuSans-69" x="775.044922"/>
      <use xlink:href="#DejaVuSans-6f" x="802.828125"/>
      <use xlink:href="#DejaVuSans-6e" x="864.009766"/>
      <use xlink:href="#DejaVuSans-20" x="927.388672"/>
      <use xlink:href="#DejaVuSans-28" x="959.175781"/>
      <use xlink:href="#DejaVuSans-41" x="998.189453"/>
      <use xlink:href="#DejaVuSans-55" x="1066.597656"/>
      <use xlink:href="#DejaVuSans-43" x="1139.791016"/>
      <use xlink:href="#DejaVuSans-20" x="1209.615234"/>
      <use xlink:href="#DejaVuSans-3d" x="1241.402344"/>
      <use xlink:href="#DejaVuSans-20" x="1325.191406"/>
      <use xlink:href="#DejaVuSans-30" x="1356.978516"/>
      <use xlink:href="#DejaVuSans-2e" x="1420.601562"/>
      <use xlink:href="#DejaVuSans-39" x="1452.388672"/>
      <use xlink:href="#DejaVuSans-32" x="1516.011719"/>
      <use xlink:href="#DejaVuSans-29" x="1579.634766"/>
     </g>
    </g>
    <g id="line2d_31">
     <path d="M 242.100284 348.742188 
L 252.100284 348.742188 
L 262.100284 348.742188 
" style="fill: none; stroke: #2ca02c; stroke-width: 1.5; stroke-linecap: square"/>
    </g>
    <g id="text_18">
     <!-- SVC (AUC = 0.98) -->
     <g transform="translate(270.100284 352.242188) scale(0.1 -0.1)">
      <defs>
       <path id="DejaVuSans-53" d="M 3425 4513 
L 3425 3897 
Q 3066 4069 2747 4153 
Q 2428 4238 2131 4238 
Q 1616 4238 1336 4038 
Q 1056 3838 1056 3469 
Q 1056 3159 1242 3001 
Q 1428 2844 1947 2747 
L 2328 2669 
Q 3034 2534 3370 2195 
Q 3706 1856 3706 1288 
Q 3706 609 3251 259 
Q 2797 -91 1919 -91 
Q 1588 -91 1214 -16 
Q 841 59 441 206 
L 441 856 
Q 825 641 1194 531 
Q 1563 422 1919 422 
Q 2459 422 2753 634 
Q 3047 847 3047 1241 
Q 3047 1584 2836 1778 
Q 2625 1972 2144 2069 
L 1759 2144 
Q 1053 2284 737 2584 
Q 422 2884 422 3419 
Q 422 4038 858 4394 
Q 1294 4750 2059 4750 
Q 2388 4750 2728 4690 
Q 3069 4631 3425 4513 
z
" transform="scale(0.015625)"/>
       <path id="DejaVuSans-56" d="M 1831 0 
L 50 4666 
L 709 4666 
L 2188 738 
L 3669 4666 
L 4325 4666 
L 2547 0 
L 1831 0 
z
" transform="scale(0.015625)"/>
      </defs>
      <use xlink:href="#DejaVuSans-53"/>
      <use xlink:href="#DejaVuSans-56" x="63.476562"/>
      <use xlink:href="#DejaVuSans-43" x="131.884766"/>
      <use xlink:href="#DejaVuSans-20" x="201.708984"/>
      <use xlink:href="#DejaVuSans-28" x="233.496094"/>
      <use xlink:href="#DejaVuSans-41" x="272.509766"/>
      <use xlink:href="#DejaVuSans-55" x="340.917969"/>
      <use xlink:href="#DejaVuSans-43" x="414.111328"/>
      <use xlink:href="#DejaVuSans-20" x="483.935547"/>
      <use xlink:href="#DejaVuSans-3d" x="515.722656"/>
      <use xlink:href="#DejaVuSans-20" x="599.511719"/>
      <use xlink:href="#DejaVuSans-30" x="631.298828"/>
      <use xlink:href="#DejaVuSans-2e" x="694.921875"/>
      <use xlink:href="#DejaVuSans-39" x="726.708984"/>
      <use xlink:href="#DejaVuSans-38" x="790.332031"/>
      <use xlink:href="#DejaVuSans-29" x="853.955078"/>
     </g>
    </g>
    <g id="line2d_32">
     <path d="M 242.100284 363.420313 
L 252.100284 363.420313 
L 262.100284 363.420313 
" style="fill: none; stroke: #d62728; stroke-width: 1.5; stroke-linecap: square"/>
    </g>
    <g id="text_19">
     <!-- GradientBoostingClassifier (AUC = 1.00) -->
     <g transform="translate(270.100284 366.920313) scale(0.1 -0.1)">
      <defs>
       <path id="DejaVuSans-47" d="M 3809 666 
L 3809 1919 
L 2778 1919 
L 2778 2438 
L 4434 2438 
L 4434 434 
Q 4069 175 3628 42 
Q 3188 -91 2688 -91 
Q 1594 -91 976 548 
Q 359 1188 359 2328 
Q 359 3472 976 4111 
Q 1594 4750 2688 4750 
Q 3144 4750 3555 4637 
Q 3966 4525 4313 4306 
L 4313 3634 
Q 3963 3931 3569 4081 
Q 3175 4231 2741 4231 
Q 1884 4231 1454 3753 
Q 1025 3275 1025 2328 
Q 1025 1384 1454 906 
Q 1884 428 2741 428 
Q 3075 428 3337 486 
Q 3600 544 3809 666 
z
" transform="scale(0.015625)"/>
       <path id="DejaVuSans-42" d="M 1259 2228 
L 1259 519 
L 2272 519 
Q 2781 519 3026 730 
Q 3272 941 3272 1375 
Q 3272 1813 3026 2020 
Q 2781 2228 2272 2228 
L 1259 2228 
z
M 1259 4147 
L 1259 2741 
L 2194 2741 
Q 2656 2741 2882 2914 
Q 3109 3088 3109 3444 
Q 3109 3797 2882 3972 
Q 2656 4147 2194 4147 
L 1259 4147 
z
M 628 4666 
L 2241 4666 
Q 2963 4666 3353 4366 
Q 3744 4066 3744 3513 
Q 3744 3084 3544 2831 
Q 3344 2578 2956 2516 
Q 3422 2416 3680 2098 
Q 3938 1781 3938 1306 
Q 3938 681 3513 340 
Q 3088 0 2303 0 
L 628 0 
L 628 4666 
z
" transform="scale(0.015625)"/>
      </defs>
      <use xlink:href="#DejaVuSans-47"/>
      <use xlink:href="#DejaVuSans-72" x="77.490234"/>
      <use xlink:href="#DejaVuSans-61" x="118.603516"/>
      <use xlink:href="#DejaVuSans-64" x="179.882812"/>
      <use xlink:href="#DejaVuSans-69" x="243.359375"/>
      <use xlink:href="#DejaVuSans-65" x="271.142578"/>
      <use xlink:href="#DejaVuSans-6e" x="332.666016"/>
      <use xlink:href="#DejaVuSans-74" x="396.044922"/>
      <use xlink:href="#DejaVuSans-42" x="435.253906"/>
      <use xlink:href="#DejaVuSans-6f" x="503.857422"/>
      <use xlink:href="#DejaVuSans-6f" x="565.039062"/>
      <use xlink:href="#DejaVuSans-73" x="626.220703"/>
      <use xlink:href="#DejaVuSans-74" x="678.320312"/>
      <use xlink:href="#DejaVuSans-69" x="717.529297"/>
      <use xlink:href="#DejaVuSans-6e" x="745.3125"/>
      <use xlink:href="#DejaVuSans-67" x="808.691406"/>
      <use xlink:href="#DejaVuSans-43" x="872.167969"/>
      <use xlink:href="#DejaVuSans-6c" x="941.992188"/>
      <use xlink:href="#DejaVuSans-61" x="969.775391"/>
      <use xlink:href="#DejaVuSans-73" x="1031.054688"/>
      <use xlink:href="#DejaVuSans-73" x="1083.154297"/>
      <use xlink:href="#DejaVuSans-69" x="1135.253906"/>
      <use xlink:href="#DejaVuSans-66" x="1163.037109"/>
      <use xlink:href="#DejaVuSans-69" x="1198.242188"/>
      <use xlink:href="#DejaVuSans-65" x="1226.025391"/>
      <use xlink:href="#DejaVuSans-72" x="1287.548828"/>
      <use xlink:href="#DejaVuSans-20" x="1328.662109"/>
      <use xlink:href="#DejaVuSans-28" x="1360.449219"/>
      <use xlink:href="#DejaVuSans-41" x="1399.462891"/>
      <use xlink:href="#DejaVuSans-55" x="1467.871094"/>
      <use xlink:href="#DejaVuSans-43" x="1541.064453"/>
      <use xlink:href="#DejaVuSans-20" x="1610.888672"/>
      <use xlink:href="#DejaVuSans-3d" x="1642.675781"/>
      <use xlink:href="#DejaVuSans-20" x="1726.464844"/>
      <use xlink:href="#DejaVuSans-31" x="1758.251953"/>
      <use xlink:href="#DejaVuSans-2e" x="1821.875"/>
      <use xlink:href="#DejaVuSans-30" x="1853.662109"/>
      <use xlink:href="#DejaVuSans-30" x="1917.285156"/>
      <use xlink:href="#DejaVuSans-29" x="1980.908203"/>
     </g>
    </g>
   </g>
  </g>
  <g id="axes_2">
   <g id="patch_8">
    <path d="M 552.109091 378 
L 907.2 378 
L 907.2 51.84 
L 552.109091 51.84 
z
" style="fill: #ffffff"/>
   </g>
   <g id="matplotlib.axis_3">
    <g id="xtick_7">
     <g id="line2d_33">
      <path d="M 568.249587 378 
L 568.249587 51.84 
" clip-path="url(#p363e1440e2)" style="fill: none; stroke-dasharray: 2.96,1.28; stroke-dashoffset: 0; stroke: #b0b0b0; stroke-width: 0.8"/>
     </g>
     <g id="line2d_34">
      <g>
       <use xlink:href="#m121847dc52" x="568.249587" y="378" style="stroke: #000000; stroke-width: 0.8"/>
      </g>
     </g>
     <g id="text_20">
      <!-- 0.0 -->
      <g transform="translate(560.298024 392.598437) scale(0.1 -0.1)">
       <use xlink:href="#DejaVuSans-30"/>
       <use xlink:href="#DejaVuSans-2e" x="63.623047"/>
       <use xlink:href="#DejaVuSans-30" x="95.410156"/>
      </g>
     </g>
    </g>
    <g id="xtick_8">
     <g id="line2d_35">
      <path d="M 632.81157 378 
L 632.81157 51.84 
" clip-path="url(#p363e1440e2)" style="fill: none; stroke-dasharray: 2.96,1.28; stroke-dashoffset: 0; stroke: #b0b0b0; stroke-width: 0.8"/>
     </g>
     <g id="line2d_36">
      <g>
       <use xlink:href="#m121847dc52" x="632.81157" y="378" style="stroke: #000000; stroke-width: 0.8"/>
      </g>
     </g>
     <g id="text_21">
      <!-- 0.2 -->
      <g transform="translate(624.860008 392.598437) scale(0.1 -0.1)">
       <use xlink:href="#DejaVuSans-30"/>
       <use xlink:href="#DejaVuSans-2e" x="63.623047"/>
       <use xlink:href="#DejaVuSans-32" x="95.410156"/>
      </g>
     </g>
    </g>
    <g id="xtick_9">
     <g id="line2d_37">
      <path d="M 697.373554 378 
L 697.373554 51.84 
" clip-path="url(#p363e1440e2)" style="fill: none; stroke-dasharray: 2.96,1.28; stroke-dashoffset: 0; stroke: #b0b0b0; stroke-width: 0.8"/>
     </g>
     <g id="line2d_38">
      <g>
       <use xlink:href="#m121847dc52" x="697.373554" y="378" style="stroke: #000000; stroke-width: 0.8"/>
      </g>
     </g>
     <g id="text_22">
      <!-- 0.4 -->
      <g transform="translate(689.421991 392.598437) scale(0.1 -0.1)">
       <use xlink:href="#DejaVuSans-30"/>
       <use xlink:href="#DejaVuSans-2e" x="63.623047"/>
       <use xlink:href="#DejaVuSans-34" x="95.410156"/>
      </g>
     </g>
    </g>
    <g id="xtick_10">
     <g id="line2d_39">
      <path d="M 761.935537 378 
L 761.935537 51.84 
" clip-path="url(#p363e1440e2)" style="fill: none; stroke-dasharray: 2.96,1.28; stroke-dashoffset: 0; stroke: #b0b0b0; stroke-width: 0.8"/>
     </g>
     <g id="line2d_40">
      <g>
       <use xlink:href="#m121847dc52" x="761.935537" y="378" style="stroke: #000000; stroke-width: 0.8"/>
      </g>
     </g>
     <g id="text_23">
      <!-- 0.6 -->
      <g transform="translate(753.983975 392.598437) scale(0.1 -0.1)">
       <use xlink:href="#DejaVuSans-30"/>
       <use xlink:href="#DejaVuSans-2e" x="63.623047"/>
       <use xlink:href="#DejaVuSans-36" x="95.410156"/>
      </g>
     </g>
    </g>
    <g id="xtick_11">
     <g id="line2d_41">
      <path d="M 826.497521 378 
L 826.497521 51.84 
" clip-path="url(#p363e1440e2)" style="fill: none; stroke-dasharray: 2.96,1.28; stroke-dashoffset: 0; stroke: #b0b0b0; stroke-width: 0.8"/>
     </g>
     <g id="line2d_42">
      <g>
       <use xlink:href="#m121847dc52" x="826.497521" y="378" style="stroke: #000000; stroke-width: 0.8"/>
      </g>
     </g>
     <g id="text_24">
      <!-- 0.8 -->
      <g transform="translate(818.545958 392.598437) scale(0.1 -0.1)">
       <use xlink:href="#DejaVuSans-30"/>
       <use xlink:href="#DejaVuSans-2e" x="63.623047"/>
       <use xlink:href="#DejaVuSans-38" x="95.410156"/>
      </g>
     </g>
    </g>
    <g id="xtick_12">
     <g id="line2d_43">
      <path d="M 891.059504 378 
L 891.059504 51.84 
" clip-path="url(#p363e1440e2)" style="fill: none; stroke-dasharray: 2.96,1.28; stroke-dashoffset: 0; stroke: #b0b0b0; stroke-width: 0.8"/>
     </g>
     <g id="line2d_44">
      <g>
       <use xlink:href="#m121847dc52" x="891.059504" y="378" style="stroke: #000000; stroke-width: 0.8"/>
      </g>
     </g>
     <g id="text_25">
      <!-- 1.0 -->
      <g transform="translate(883.107942 392.598437) scale(0.1 -0.1)">
       <use xlink:href="#DejaVuSans-31"/>
       <use xlink:href="#DejaVuSans-2e" x="63.623047"/>
       <use xlink:href="#DejaVuSans-30" x="95.410156"/>
      </g>
     </g>
    </g>
    <g id="text_26">
     <!-- False Positive Rate (Positive label: 1) -->
     <g transform="translate(638.28892 406.276563) scale(0.1 -0.1)">
      <use xlink:href="#DejaVuSans-46"/>
      <use xlink:href="#DejaVuSans-61" x="48.394531"/>
      <use xlink:href="#DejaVuSans-6c" x="109.673828"/>
      <use xlink:href="#DejaVuSans-73" x="137.457031"/>
      <use xlink:href="#DejaVuSans-65" x="189.556641"/>
      <use xlink:href="#DejaVuSans-20" x="251.080078"/>
      <use xlink:href="#DejaVuSans-50" x="282.867188"/>
      <use xlink:href="#DejaVuSans-6f" x="339.544922"/>
      <use xlink:href="#DejaVuSans-73" x="400.726562"/>
      <use xlink:href="#DejaVuSans-69" x="452.826172"/>
      <use xlink:href="#DejaVuSans-74" x="480.609375"/>
      <use xlink:href="#DejaVuSans-69" x="519.818359"/>
      <use xlink:href="#DejaVuSans-76" x="547.601562"/>
      <use xlink:href="#DejaVuSans-65" x="606.78125"/>
      <use xlink:href="#DejaVuSans-20" x="668.304688"/>
      <use xlink:href="#DejaVuSans-52" x="700.091797"/>
      <use xlink:href="#DejaVuSans-61" x="767.324219"/>
      <use xlink:href="#DejaVuSans-74" x="828.603516"/>
      <use xlink:href="#DejaVuSans-65" x="867.8125"/>
      <use xlink:href="#DejaVuSans-20" x="929.335938"/>
      <use xlink:href="#DejaVuSans-28" x="961.123047"/>
      <use xlink:href="#DejaVuSans-50" x="1000.136719"/>
      <use xlink:href="#DejaVuSans-6f" x="1056.814453"/>
      <use xlink:href="#DejaVuSans-73" x="1117.996094"/>
      <use xlink:href="#DejaVuSans-69" x="1170.095703"/>
      <use xlink:href="#DejaVuSans-74" x="1197.878906"/>
      <use xlink:href="#DejaVuSans-69" x="1237.087891"/>
      <use xlink:href="#DejaVuSans-76" x="1264.871094"/>
      <use xlink:href="#DejaVuSans-65" x="1324.050781"/>
      <use xlink:href="#DejaVuSans-20" x="1385.574219"/>
      <use xlink:href="#DejaVuSans-6c" x="1417.361328"/>
      <use xlink:href="#DejaVuSans-61" x="1445.144531"/>
      <use xlink:href="#DejaVuSans-62" x="1506.423828"/>
      <use xlink:href="#DejaVuSans-65" x="1569.900391"/>
      <use xlink:href="#DejaVuSans-6c" x="1631.423828"/>
      <use xlink:href="#DejaVuSans-3a" x="1659.207031"/>
      <use xlink:href="#DejaVuSans-20" x="1692.898438"/>
      <use xlink:href="#DejaVuSans-31" x="1724.685547"/>
      <use xlink:href="#DejaVuSans-29" x="1788.308594"/>
     </g>
    </g>
   </g>
   <g id="matplotlib.axis_4">
    <g id="ytick_7">
     <g id="line2d_45">
      <path d="M 552.109091 363.174545 
L 907.2 363.174545 
" clip-path="url(#p363e1440e2)" style="fill: none; stroke-dasharray: 2.96,1.28; stroke-dashoffset: 0; stroke: #b0b0b0; stroke-width: 0.8"/>
     </g>
     <g id="line2d_46">
      <g>
       <use xlink:href="#mb0acbaf1f5" x="552.109091" y="363.174545" style="stroke: #000000; stroke-width: 0.8"/>
      </g>
     </g>
     <g id="text_27">
      <!-- 0.0 -->
      <g transform="translate(529.205966 366.973764) scale(0.1 -0.1)">
       <use xlink:href="#DejaVuSans-30"/>
       <use xlink:href="#DejaVuSans-2e" x="63.623047"/>
       <use xlink:href="#DejaVuSans-30" x="95.410156"/>
      </g>
     </g>
    </g>
    <g id="ytick_8">
     <g id="line2d_47">
      <path d="M 552.109091 303.872727 
L 907.2 303.872727 
" clip-path="url(#p363e1440e2)" style="fill: none; stroke-dasharray: 2.96,1.28; stroke-dashoffset: 0; stroke: #b0b0b0; stroke-width: 0.8"/>
     </g>
     <g id="line2d_48">
      <g>
       <use xlink:href="#mb0acbaf1f5" x="552.109091" y="303.872727" style="stroke: #000000; stroke-width: 0.8"/>
      </g>
     </g>
     <g id="text_28">
      <!-- 0.2 -->
      <g transform="translate(529.205966 307.671946) scale(0.1 -0.1)">
       <use xlink:href="#DejaVuSans-30"/>
       <use xlink:href="#DejaVuSans-2e" x="63.623047"/>
       <use xlink:href="#DejaVuSans-32" x="95.410156"/>
      </g>
     </g>
    </g>
    <g id="ytick_9">
     <g id="line2d_49">
      <path d="M 552.109091 244.570909 
L 907.2 244.570909 
" clip-path="url(#p363e1440e2)" style="fill: none; stroke-dasharray: 2.96,1.28; stroke-dashoffset: 0; stroke: #b0b0b0; stroke-width: 0.8"/>
     </g>
     <g id="line2d_50">
      <g>
       <use xlink:href="#mb0acbaf1f5" x="552.109091" y="244.570909" style="stroke: #000000; stroke-width: 0.8"/>
      </g>
     </g>
     <g id="text_29">
      <!-- 0.4 -->
      <g transform="translate(529.205966 248.370128) scale(0.1 -0.1)">
       <use xlink:href="#DejaVuSans-30"/>
       <use xlink:href="#DejaVuSans-2e" x="63.623047"/>
       <use xlink:href="#DejaVuSans-34" x="95.410156"/>
      </g>
     </g>
    </g>
    <g id="ytick_10">
     <g id="line2d_51">
      <path d="M 552.109091 185.269091 
L 907.2 185.269091 
" clip-path="url(#p363e1440e2)" style="fill: none; stroke-dasharray: 2.96,1.28; stroke-dashoffset: 0; stroke: #b0b0b0; stroke-width: 0.8"/>
     </g>
     <g id="line2d_52">
      <g>
       <use xlink:href="#mb0acbaf1f5" x="552.109091" y="185.269091" style="stroke: #000000; stroke-width: 0.8"/>
      </g>
     </g>
     <g id="text_30">
      <!-- 0.6 -->
      <g transform="translate(529.205966 189.06831) scale(0.1 -0.1)">
       <use xlink:href="#DejaVuSans-30"/>
       <use xlink:href="#DejaVuSans-2e" x="63.623047"/>
       <use xlink:href="#DejaVuSans-36" x="95.410156"/>
      </g>
     </g>
    </g>
    <g id="ytick_11">
     <g id="line2d_53">
      <path d="M 552.109091 125.967273 
L 907.2 125.967273 
" clip-path="url(#p363e1440e2)" style="fill: none; stroke-dasharray: 2.96,1.28; stroke-dashoffset: 0; stroke: #b0b0b0; stroke-width: 0.8"/>
     </g>
     <g id="line2d_54">
      <g>
       <use xlink:href="#mb0acbaf1f5" x="552.109091" y="125.967273" style="stroke: #000000; stroke-width: 0.8"/>
      </g>
     </g>
     <g id="text_31">
      <!-- 0.8 -->
      <g transform="translate(529.205966 129.766491) scale(0.1 -0.1)">
       <use xlink:href="#DejaVuSans-30"/>
       <use xlink:href="#DejaVuSans-2e" x="63.623047"/>
       <use xlink:href="#DejaVuSans-38" x="95.410156"/>
      </g>
     </g>
    </g>
    <g id="ytick_12">
     <g id="line2d_55">
      <path d="M 552.109091 66.665455 
L 907.2 66.665455 
" clip-path="url(#p363e1440e2)" style="fill: none; stroke-dasharray: 2.96,1.28; stroke-dashoffset: 0; stroke: #b0b0b0; stroke-width: 0.8"/>
     </g>
     <g id="line2d_56">
      <g>
       <use xlink:href="#mb0acbaf1f5" x="552.109091" y="66.665455" style="stroke: #000000; stroke-width: 0.8"/>
      </g>
     </g>
     <g id="text_32">
      <!-- 1.0 -->
      <g transform="translate(529.205966 70.464673) scale(0.1 -0.1)">
       <use xlink:href="#DejaVuSans-31"/>
       <use xlink:href="#DejaVuSans-2e" x="63.623047"/>
       <use xlink:href="#DejaVuSans-30" x="95.410156"/>
      </g>
     </g>
    </g>
    <g id="text_33">
     <!-- True Positive Rate (Positive label: 1) -->
     <g transform="translate(523.126278 304.348906) rotate(-90) scale(0.1 -0.1)">
      <use xlink:href="#DejaVuSans-54"/>
      <use xlink:href="#DejaVuSans-72" x="46.333984"/>
      <use xlink:href="#DejaVuSans-75" x="87.447266"/>
      <use xlink:href="#DejaVuSans-65" x="150.826172"/>
      <use xlink:href="#DejaVuSans-20" x="212.349609"/>
      <use xlink:href="#DejaVuSans-50" x="244.136719"/>
      <use xlink:href="#DejaVuSans-6f" x="300.814453"/>
      <use xlink:href="#DejaVuSans-73" x="361.996094"/>
      <use xlink:href="#DejaVuSans-69" x="414.095703"/>
      <use xlink:href="#DejaVuSans-74" x="441.878906"/>
      <use xlink:href="#DejaVuSans-69" x="481.087891"/>
      <use xlink:href="#DejaVuSans-76" x="508.871094"/>
      <use xlink:href="#DejaVuSans-65" x="568.050781"/>
      <use xlink:href="#DejaVuSans-20" x="629.574219"/>
      <use xlink:href="#DejaVuSans-52" x="661.361328"/>
      <use xlink:href="#DejaVuSans-61" x="728.59375"/>
      <use xlink:href="#DejaVuSans-74" x="789.873047"/>
      <use xlink:href="#DejaVuSans-65" x="829.082031"/>
      <use xlink:href="#DejaVuSans-20" x="890.605469"/>
      <use xlink:href="#DejaVuSans-28" x="922.392578"/>
      <use xlink:href="#DejaVuSans-50" x="961.40625"/>
      <use xlink:href="#DejaVuSans-6f" x="1018.083984"/>
      <use xlink:href="#DejaVuSans-73" x="1079.265625"/>
      <use xlink:href="#DejaVuSans-69" x="1131.365234"/>
      <use xlink:href="#DejaVuSans-74" x="1159.148438"/>
      <use xlink:href="#DejaVuSans-69" x="1198.357422"/>
      <use xlink:href="#DejaVuSans-76" x="1226.140625"/>
      <use xlink:href="#DejaVuSans-65" x="1285.320312"/>
      <use xlink:href="#DejaVuSans-20" x="1346.84375"/>
      <use xlink:href="#DejaVuSans-6c" x="1378.630859"/>
      <use xlink:href="#DejaVuSans-61" x="1406.414062"/>
      <use xlink:href="#DejaVuSans-62" x="1467.693359"/>
      <use xlink:href="#DejaVuSans-65" x="1531.169922"/>
      <use xlink:href="#DejaVuSans-6c" x="1592.693359"/>
      <use xlink:href="#DejaVuSans-3a" x="1620.476562"/>
      <use xlink:href="#DejaVuSans-20" x="1654.167969"/>
      <use xlink:href="#DejaVuSans-31" x="1685.955078"/>
      <use xlink:href="#DejaVuSans-29" x="1749.578125"/>
     </g>
    </g>
   </g>
   <g id="line2d_57">
    <path d="M 568.249587 363.174545 
L 568.249587 345.13597 
L 569.449624 342.881148 
L 569.449624 297.784708 
L 570.649661 296.657297 
L 570.649661 259.452734 
L 573.049734 253.815679 
L 573.049734 244.796391 
L 574.249771 243.66898 
L 574.249771 242.541569 
L 576.649845 242.541569 
L 576.649845 231.267459 
L 577.849882 230.140048 
L 577.849882 225.630404 
L 579.049919 225.630404 
L 579.049919 208.71924 
L 580.249955 207.591829 
L 580.249955 204.209596 
L 581.449992 204.209596 
L 581.449992 189.553253 
L 582.650029 189.553253 
L 582.650029 186.17102 
L 585.050103 186.17102 
L 585.050103 179.406554 
L 586.25014 179.406554 
L 586.25014 174.89691 
L 587.450177 174.89691 
L 587.450177 173.769499 
L 588.650214 173.769499 
L 588.650214 155.730923 
L 589.85025 155.730923 
L 589.85025 145.584224 
L 591.050287 144.456813 
L 591.050287 143.329402 
L 592.250324 142.201991 
L 592.250324 141.07458 
L 593.450361 141.07458 
L 593.450361 138.819758 
L 594.650398 138.819758 
L 594.650398 137.692347 
L 598.250508 137.692347 
L 598.250508 133.182703 
L 599.450545 133.182703 
L 599.450545 132.055292 
L 601.850619 132.055292 
L 601.850619 119.653771 
L 603.050656 118.52636 
L 604.250693 118.52636 
L 604.250693 114.016716 
L 606.650767 114.016716 
L 606.650767 111.761894 
L 607.850803 111.761894 
L 609.05084 110.634483 
L 609.05084 109.507072 
L 610.250877 109.507072 
L 610.250877 107.25225 
L 612.650951 107.25225 
L 612.650951 103.870017 
L 613.850988 103.870017 
L 613.850988 100.487784 
L 615.051025 100.487784 
L 615.051025 99.360373 
L 617.451098 99.360373 
L 617.451098 98.232962 
L 618.651135 98.232962 
L 618.651135 93.723318 
L 619.851172 93.723318 
L 619.851172 92.595907 
L 621.051209 92.595907 
L 621.051209 90.341085 
L 623.451283 90.341085 
L 623.451283 88.086263 
L 624.65132 88.086263 
L 624.65132 85.831441 
L 627.051393 85.831441 
L 627.051393 84.70403 
L 631.851541 84.70403 
L 631.851541 83.576619 
L 634.251614 83.576619 
L 634.251614 82.449208 
L 639.051762 82.449208 
L 639.051762 81.321797 
L 643.851909 81.321797 
L 643.851909 77.939564 
L 649.852094 77.939564 
L 651.052131 76.812153 
L 653.452204 76.812153 
L 654.652241 75.684742 
L 655.852278 75.684742 
L 655.852278 74.557331 
L 666.65261 74.557331 
L 666.65261 72.30251 
L 696.653532 72.30251 
L 699.053605 71.175099 
L 700.253642 71.175099 
L 702.653716 70.047688 
L 705.05379 70.047688 
L 705.05379 68.920277 
L 719.454232 68.920277 
L 720.654269 67.792866 
L 775.855965 67.792866 
L 778.256039 66.665455 
L 891.059504 66.665455 
L 891.059504 66.665455 
" clip-path="url(#p363e1440e2)" style="fill: none; stroke: #1f77b4; stroke-width: 1.5; stroke-linecap: square"/>
   </g>
   <g id="line2d_58">
    <path d="M 568.249587 363.174545 
L 568.249587 351.900436 
L 569.449624 351.900436 
L 569.449624 307.931407 
L 570.649661 307.931407 
L 570.649661 293.275064 
L 571.849697 293.275064 
L 571.849697 287.638009 
L 574.249771 287.638009 
L 574.249771 280.873543 
L 575.449808 280.873543 
L 575.449808 276.363899 
L 576.649845 276.363899 
L 576.649845 269.599433 
L 577.849882 269.599433 
L 577.849882 262.834967 
L 579.049919 262.834967 
L 579.049919 252.688268 
L 580.249955 252.688268 
L 580.249955 233.522281 
L 581.449992 233.522281 
L 581.449992 229.012637 
L 583.850066 229.012637 
L 583.850066 210.974062 
L 585.050103 210.974062 
L 585.050103 201.954774 
L 587.450177 201.954774 
L 587.450177 198.572541 
L 588.650214 198.572541 
L 588.650214 192.935486 
L 592.250324 192.935486 
L 592.250324 183.916198 
L 593.450361 183.916198 
L 593.450361 182.788787 
L 594.650398 182.788787 
L 594.650398 177.151732 
L 595.850435 177.151732 
L 595.850435 174.89691 
L 597.050472 174.89691 
L 597.050472 168.132444 
L 598.250508 168.132444 
L 598.250508 165.877622 
L 599.450545 165.877622 
L 599.450545 159.113156 
L 600.650582 159.113156 
L 600.650582 157.985745 
L 601.850619 157.985745 
L 601.850619 156.858334 
L 603.050656 156.858334 
L 603.050656 155.730923 
L 604.250693 155.730923 
L 604.250693 151.221279 
L 606.650767 151.221279 
L 606.650767 150.093868 
L 607.850803 150.093868 
L 607.850803 141.07458 
L 609.05084 141.07458 
L 609.05084 138.819758 
L 610.250877 138.819758 
L 610.250877 135.437525 
L 611.450914 135.437525 
L 611.450914 134.310114 
L 612.650951 134.310114 
L 612.650951 130.927881 
L 615.051025 130.927881 
L 615.051025 124.163415 
L 616.251061 124.163415 
L 616.251061 123.036004 
L 618.651135 123.036004 
L 618.651135 120.781182 
L 622.251246 120.781182 
L 622.251246 118.52636 
L 623.451283 118.52636 
L 623.451283 117.398949 
L 624.65132 117.398949 
L 624.65132 111.761894 
L 627.051393 111.761894 
L 627.051393 110.634483 
L 628.25143 110.634483 
L 628.25143 109.507072 
L 630.651504 109.507072 
L 630.651504 108.379661 
L 634.251614 108.379661 
L 634.251614 103.870017 
L 636.651688 103.870017 
L 636.651688 102.742606 
L 639.051762 102.742606 
L 639.051762 101.615195 
L 642.651873 101.615195 
L 642.651873 100.487784 
L 643.851909 100.487784 
L 643.851909 98.232962 
L 648.652057 98.232962 
L 648.652057 95.97814 
L 654.652241 95.97814 
L 654.652241 94.850729 
L 655.852278 94.850729 
L 655.852278 93.723318 
L 657.052315 93.723318 
L 657.052315 92.595907 
L 659.452389 92.595907 
L 659.452389 89.213674 
L 664.252536 89.213674 
L 664.252536 88.086263 
L 665.452573 88.086263 
L 665.452573 86.958852 
L 669.052684 86.958852 
L 669.052684 85.831441 
L 670.252721 85.831441 
L 670.252721 84.70403 
L 671.452757 84.70403 
L 671.452757 83.576619 
L 685.8532 83.576619 
L 685.8532 82.449208 
L 687.053237 82.449208 
L 687.053237 81.321797 
L 689.45331 81.321797 
L 689.45331 80.194386 
L 695.453495 80.194386 
L 695.453495 79.066975 
L 703.853753 79.066975 
L 703.853753 77.939564 
L 705.05379 77.939564 
L 705.05379 76.812153 
L 711.053974 76.812153 
L 711.053974 75.684742 
L 712.254011 75.684742 
L 712.254011 74.557331 
L 744.655006 74.557331 
L 744.655006 73.42992 
L 762.655559 73.42992 
L 762.655559 72.30251 
L 771.055817 72.30251 
L 771.055817 71.175099 
L 773.455891 71.175099 
L 773.455891 70.047688 
L 777.056002 70.047688 
L 777.056002 68.920277 
L 793.856518 68.920277 
L 793.856518 67.792866 
L 855.058398 67.792866 
L 855.058398 66.665455 
L 891.059504 66.665455 
L 891.059504 66.665455 
" clip-path="url(#p363e1440e2)" style="fill: none; stroke: #ff7f0e; stroke-width: 1.5; stroke-linecap: square"/>
   </g>
   <g id="line2d_59">
    <path d="M 568.249587 363.174545 
L 568.249587 362.047134 
L 568.249587 360.919723 
L 570.649661 360.919723 
L 570.649661 348.518203 
L 571.849697 348.518203 
L 571.849697 322.58775 
L 573.049734 322.58775 
L 573.049734 307.931407 
L 574.249771 307.931407 
L 574.249771 279.746132 
L 575.449808 279.746132 
L 575.449808 268.472022 
L 576.649845 268.472022 
L 576.649845 265.089789 
L 577.849882 265.089789 
L 577.849882 262.834967 
L 579.049919 262.834967 
L 579.049919 250.433446 
L 580.249955 250.433446 
L 580.249955 224.502993 
L 580.249955 222.248171 
L 580.249955 218.865938 
L 580.249955 216.611116 
L 580.249955 210.974062 
L 581.449992 210.974062 
L 581.449992 208.71924 
L 582.650029 208.71924 
L 582.650029 206.464418 
L 583.850066 206.464418 
L 583.850066 203.082185 
L 585.050103 203.082185 
L 585.050103 199.699952 
L 586.25014 199.699952 
L 586.25014 187.298431 
L 587.450177 187.298431 
L 587.450177 177.151732 
L 588.650214 177.151732 
L 588.650214 172.642088 
L 589.85025 172.642088 
L 589.85025 161.367978 
L 592.250324 161.367978 
L 592.250324 157.985745 
L 593.450361 157.985745 
L 593.450361 156.858334 
L 594.650398 156.858334 
L 594.650398 150.093868 
L 595.850435 150.093868 
L 595.850435 144.456813 
L 597.050472 144.456813 
L 597.050472 141.07458 
L 598.250508 141.07458 
L 598.250508 135.437525 
L 599.450545 135.437525 
L 599.450545 132.055292 
L 600.650582 132.055292 
L 600.650582 128.673059 
L 603.050656 128.673059 
L 603.050656 127.545648 
L 605.45073 127.545648 
L 605.45073 124.163415 
L 607.850803 124.163415 
L 607.850803 119.653771 
L 609.05084 119.653771 
L 609.05084 114.016716 
L 610.250877 114.016716 
L 610.250877 108.379661 
L 611.450914 108.379661 
L 611.450914 107.25225 
L 612.650951 107.25225 
L 612.650951 106.124839 
L 617.451098 106.124839 
L 622.251246 106.124839 
L 622.251246 103.870017 
L 625.851356 103.870017 
L 625.851356 100.487784 
L 627.051393 100.487784 
L 627.051393 98.232962 
L 628.25143 98.232962 
L 628.25143 97.105551 
L 629.451467 97.105551 
L 629.451467 95.97814 
L 630.651504 95.97814 
L 630.651504 94.850729 
L 631.851541 94.850729 
L 631.851541 91.468496 
L 635.451651 91.468496 
L 635.451651 89.213674 
L 636.651688 89.213674 
L 636.651688 88.086263 
L 637.851725 88.086263 
L 637.851725 86.958852 
L 642.651873 86.958852 
L 642.651873 84.70403 
L 655.852278 84.70403 
L 655.852278 83.576619 
L 660.652426 83.576619 
L 660.652426 82.449208 
L 666.65261 82.449208 
L 666.65261 81.321797 
L 671.452757 81.321797 
L 671.452757 80.194386 
L 672.652794 80.194386 
L 672.652794 79.066975 
L 675.052868 79.066975 
L 675.052868 77.939564 
L 682.253089 77.939564 
L 682.253089 76.812153 
L 695.453495 76.812153 
L 695.453495 75.684742 
L 697.853568 75.684742 
L 697.853568 74.557331 
L 703.853753 74.557331 
L 703.853753 73.42992 
L 706.253827 73.42992 
L 706.253827 72.30251 
L 737.454785 72.30251 
L 737.454785 71.175099 
L 766.25567 71.175099 
L 766.25567 70.047688 
L 808.25696 70.047688 
L 808.25696 68.920277 
L 832.257698 68.920277 
L 832.257698 67.792866 
L 870.658877 67.792866 
L 870.658877 66.665455 
L 891.059504 66.665455 
" clip-path="url(#p363e1440e2)" style="fill: none; stroke: #2ca02c; stroke-width: 1.5; stroke-linecap: square"/>
   </g>
   <g id="line2d_60">
    <path d="M 568.249587 363.174545 
L 568.249587 362.047134 
L 568.249587 359.792312 
L 569.449624 359.792312 
L 569.449624 347.390792 
L 570.649661 347.390792 
L 570.649661 327.097394 
L 571.849697 327.097394 
L 571.849697 320.332928 
L 573.049734 320.332928 
L 573.049734 311.31364 
L 574.249771 311.31364 
L 574.249771 245.923802 
L 575.449808 245.923802 
L 575.449808 231.267459 
L 575.449808 227.885226 
L 575.449808 210.974062 
L 576.649845 210.974062 
L 576.649845 206.464418 
L 577.849882 206.464418 
L 577.849882 191.808075 
L 579.049919 191.808075 
L 579.049919 189.553253 
L 581.449992 189.553253 
L 581.449992 185.043609 
L 582.650029 185.043609 
L 582.650029 183.916198 
L 582.650029 181.661376 
L 582.650029 179.406554 
L 583.850066 179.406554 
L 583.850066 173.769499 
L 586.25014 173.769499 
L 586.25014 170.387266 
L 587.450177 170.387266 
L 587.450177 165.877622 
L 591.050287 165.877622 
L 591.050287 160.240567 
L 592.250324 160.240567 
L 592.250324 152.34869 
L 593.450361 152.34869 
L 593.450361 134.310114 
L 594.650398 134.310114 
L 594.650398 133.182703 
L 595.850435 133.182703 
L 595.850435 132.055292 
L 598.250508 132.055292 
L 598.250508 129.80047 
L 599.450545 129.80047 
L 599.450545 126.418237 
L 600.650582 126.418237 
L 600.650582 125.290826 
L 603.050656 125.290826 
L 603.050656 124.163415 
L 604.250693 124.163415 
L 604.250693 123.036004 
L 605.45073 123.036004 
L 605.45073 117.398949 
L 606.650767 117.398949 
L 606.650767 112.889305 
L 609.05084 112.889305 
L 609.05084 108.379661 
L 610.250877 108.379661 
L 610.250877 107.25225 
L 611.450914 107.25225 
L 611.450914 104.997428 
L 612.650951 104.997428 
L 612.650951 99.360373 
L 613.850988 99.360373 
L 613.850988 97.105551 
L 617.451098 97.105551 
L 617.451098 95.97814 
L 619.851172 95.97814 
L 619.851172 94.850729 
L 621.051209 94.850729 
L 621.051209 93.723318 
L 622.251246 93.723318 
L 622.251246 91.468496 
L 623.451283 91.468496 
L 623.451283 90.341085 
L 624.65132 90.341085 
L 624.65132 89.213674 
L 627.051393 89.213674 
L 627.051393 88.086263 
L 629.451467 88.086263 
L 629.451467 86.958852 
L 630.651504 86.958852 
L 630.651504 82.449208 
L 631.851541 82.449208 
L 631.851541 81.321797 
L 633.051578 81.321797 
L 633.051578 79.066975 
L 635.451651 79.066975 
L 635.451651 77.939564 
L 637.851725 77.939564 
L 637.851725 76.812153 
L 648.652057 76.812153 
L 648.652057 75.684742 
L 671.452757 75.684742 
L 671.452757 74.557331 
L 672.652794 74.557331 
L 672.652794 73.42992 
L 685.8532 73.42992 
L 685.8532 72.30251 
L 691.853384 72.30251 
L 691.853384 70.047688 
L 695.453495 70.047688 
L 695.453495 68.920277 
L 706.253827 68.920277 
L 706.253827 67.792866 
L 754.255301 67.792866 
L 754.255301 66.665455 
L 891.059504 66.665455 
" clip-path="url(#p363e1440e2)" style="fill: none; stroke: #d62728; stroke-width: 1.5; stroke-linecap: square"/>
   </g>
   <g id="patch_9">
    <path d="M 552.109091 378 
L 552.109091 51.84 
" style="fill: none; stroke: #000000; stroke-width: 0.8; stroke-linejoin: miter; stroke-linecap: square"/>
   </g>
   <g id="patch_10">
    <path d="M 907.2 378 
L 907.2 51.84 
" style="fill: none; stroke: #000000; stroke-width: 0.8; stroke-linejoin: miter; stroke-linecap: square"/>
   </g>
   <g id="patch_11">
    <path d="M 552.109091 378 
L 907.2 378 
" style="fill: none; stroke: #000000; stroke-width: 0.8; stroke-linejoin: miter; stroke-linecap: square"/>
   </g>
   <g id="patch_12">
    <path d="M 552.109091 51.84 
L 907.2 51.84 
" style="fill: none; stroke: #000000; stroke-width: 0.8; stroke-linejoin: miter; stroke-linecap: square"/>
   </g>
   <g id="text_34">
    <!-- Curvas ROC en la prueba  -->
    <g transform="translate(652.131733 45.84) scale(0.12 -0.12)">
     <defs>
      <path id="DejaVuSans-70" d="M 1159 525 
L 1159 -1331 
L 581 -1331 
L 581 3500 
L 1159 3500 
L 1159 2969 
Q 1341 3281 1617 3432 
Q 1894 3584 2278 3584 
Q 2916 3584 3314 3078 
Q 3713 2572 3713 1747 
Q 3713 922 3314 415 
Q 2916 -91 2278 -91 
Q 1894 -91 1617 61 
Q 1341 213 1159 525 
z
M 3116 1747 
Q 3116 2381 2855 2742 
Q 2594 3103 2138 3103 
Q 1681 3103 1420 2742 
Q 1159 2381 1159 1747 
Q 1159 1113 1420 752 
Q 1681 391 2138 391 
Q 2594 391 2855 752 
Q 3116 1113 3116 1747 
z
" transform="scale(0.015625)"/>
     </defs>
     <use xlink:href="#DejaVuSans-43"/>
     <use xlink:href="#DejaVuSans-75" x="69.824219"/>
     <use xlink:href="#DejaVuSans-72" x="133.203125"/>
     <use xlink:href="#DejaVuSans-76" x="174.316406"/>
     <use xlink:href="#DejaVuSans-61" x="233.496094"/>
     <use xlink:href="#DejaVuSans-73" x="294.775391"/>
     <use xlink:href="#DejaVuSans-20" x="346.875"/>
     <use xlink:href="#DejaVuSans-52" x="378.662109"/>
     <use xlink:href="#DejaVuSans-4f" x="448.144531"/>
     <use xlink:href="#DejaVuSans-43" x="526.855469"/>
     <use xlink:href="#DejaVuSans-20" x="596.679688"/>
     <use xlink:href="#DejaVuSans-65" x="628.466797"/>
     <use xlink:href="#DejaVuSans-6e" x="689.990234"/>
     <use xlink:href="#DejaVuSans-20" x="753.369141"/>
     <use xlink:href="#DejaVuSans-6c" x="785.15625"/>
     <use xlink:href="#DejaVuSans-61" x="812.939453"/>
     <use xlink:href="#DejaVuSans-20" x="874.21875"/>
     <use xlink:href="#DejaVuSans-70" x="906.005859"/>
     <use xlink:href="#DejaVuSans-72" x="969.482422"/>
     <use xlink:href="#DejaVuSans-75" x="1010.595703"/>
     <use xlink:href="#DejaVuSans-65" x="1073.974609"/>
     <use xlink:href="#DejaVuSans-62" x="1135.498047"/>
     <use xlink:href="#DejaVuSans-61" x="1198.974609"/>
     <use xlink:href="#DejaVuSans-20" x="1260.253906"/>
    </g>
   </g>
   <g id="legend_2">
    <g id="patch_13">
     <path d="M 666.209375 373 
L 900.2 373 
Q 902.2 373 902.2 371 
L 902.2 313.2875 
Q 902.2 311.2875 900.2 311.2875 
L 666.209375 311.2875 
Q 664.209375 311.2875 664.209375 313.2875 
L 664.209375 371 
Q 664.209375 373 666.209375 373 
z
" style="fill: #ffffff; opacity: 0.8; stroke: #cccccc; stroke-linejoin: miter"/>
    </g>
    <g id="line2d_61">
     <path d="M 668.209375 319.385938 
L 678.209375 319.385938 
L 688.209375 319.385938 
" style="fill: none; stroke: #1f77b4; stroke-width: 1.5; stroke-linecap: square"/>
    </g>
    <g id="text_35">
     <!-- RandomForestClassifier (AUC = 0.94) -->
     <g transform="translate(696.209375 322.885938) scale(0.1 -0.1)">
      <use xlink:href="#DejaVuSans-52"/>
      <use xlink:href="#DejaVuSans-61" x="67.232422"/>
      <use xlink:href="#DejaVuSans-6e" x="128.511719"/>
      <use xlink:href="#DejaVuSans-64" x="191.890625"/>
      <use xlink:href="#DejaVuSans-6f" x="255.367188"/>
      <use xlink:href="#DejaVuSans-6d" x="316.548828"/>
      <use xlink:href="#DejaVuSans-46" x="413.960938"/>
      <use xlink:href="#DejaVuSans-6f" x="467.855469"/>
      <use xlink:href="#DejaVuSans-72" x="529.037109"/>
      <use xlink:href="#DejaVuSans-65" x="567.900391"/>
      <use xlink:href="#DejaVuSans-73" x="629.423828"/>
      <use xlink:href="#DejaVuSans-74" x="681.523438"/>
      <use xlink:href="#DejaVuSans-43" x="720.732422"/>
      <use xlink:href="#DejaVuSans-6c" x="790.556641"/>
      <use xlink:href="#DejaVuSans-61" x="818.339844"/>
      <use xlink:href="#DejaVuSans-73" x="879.619141"/>
      <use xlink:href="#DejaVuSans-73" x="931.71875"/>
      <use xlink:href="#DejaVuSans-69" x="983.818359"/>
      <use xlink:href="#DejaVuSans-66" x="1011.601562"/>
      <use xlink:href="#DejaVuSans-69" x="1046.806641"/>
      <use xlink:href="#DejaVuSans-65" x="1074.589844"/>
      <use xlink:href="#DejaVuSans-72" x="1136.113281"/>
      <use xlink:href="#DejaVuSans-20" x="1177.226562"/>
      <use xlink:href="#DejaVuSans-28" x="1209.013672"/>
      <use xlink:href="#DejaVuSans-41" x="1248.027344"/>
      <use xlink:href="#DejaVuSans-55" x="1316.435547"/>
      <use xlink:href="#DejaVuSans-43" x="1389.628906"/>
      <use xlink:href="#DejaVuSans-20" x="1459.453125"/>
      <use xlink:href="#DejaVuSans-3d" x="1491.240234"/>
      <use xlink:href="#DejaVuSans-20" x="1575.029297"/>
      <use xlink:href="#DejaVuSans-30" x="1606.816406"/>
      <use xlink:href="#DejaVuSans-2e" x="1670.439453"/>
      <use xlink:href="#DejaVuSans-39" x="1702.226562"/>
      <use xlink:href="#DejaVuSans-34" x="1765.849609"/>
      <use xlink:href="#DejaVuSans-29" x="1829.472656"/>
     </g>
    </g>
    <g id="line2d_62">
     <path d="M 668.209375 334.064062 
L 678.209375 334.064062 
L 688.209375 334.064062 
" style="fill: none; stroke: #ff7f0e; stroke-width: 1.5; stroke-linecap: square"/>
    </g>
    <g id="text_36">
     <!-- LogisticRegression (AUC = 0.90) -->
     <g transform="translate(696.209375 337.564062) scale(0.1 -0.1)">
      <use xlink:href="#DejaVuSans-4c"/>
      <use xlink:href="#DejaVuSans-6f" x="53.962891"/>
      <use xlink:href="#DejaVuSans-67" x="115.144531"/>
      <use xlink:href="#DejaVuSans-69" x="178.621094"/>
      <use xlink:href="#DejaVuSans-73" x="206.404297"/>
      <use xlink:href="#DejaVuSans-74" x="258.503906"/>
      <use xlink:href="#DejaVuSans-69" x="297.712891"/>
      <use xlink:href="#DejaVuSans-63" x="325.496094"/>
      <use xlink:href="#DejaVuSans-52" x="380.476562"/>
      <use xlink:href="#DejaVuSans-65" x="445.458984"/>
      <use xlink:href="#DejaVuSans-67" x="506.982422"/>
      <use xlink:href="#DejaVuSans-72" x="570.458984"/>
      <use xlink:href="#DejaVuSans-65" x="609.322266"/>
      <use xlink:href="#DejaVuSans-73" x="670.845703"/>
      <use xlink:href="#DejaVuSans-73" x="722.945312"/>
      <use xlink:href="#DejaVuSans-69" x="775.044922"/>
      <use xlink:href="#DejaVuSans-6f" x="802.828125"/>
      <use xlink:href="#DejaVuSans-6e" x="864.009766"/>
      <use xlink:href="#DejaVuSans-20" x="927.388672"/>
      <use xlink:href="#DejaVuSans-28" x="959.175781"/>
      <use xlink:href="#DejaVuSans-41" x="998.189453"/>
      <use xlink:href="#DejaVuSans-55" x="1066.597656"/>
      <use xlink:href="#DejaVuSans-43" x="1139.791016"/>
      <use xlink:href="#DejaVuSans-20" x="1209.615234"/>
      <use xlink:href="#DejaVuSans-3d" x="1241.402344"/>
      <use xlink:href="#DejaVuSans-20" x="1325.191406"/>
      <use xlink:href="#DejaVuSans-30" x="1356.978516"/>
      <use xlink:href="#DejaVuSans-2e" x="1420.601562"/>
      <use xlink:href="#DejaVuSans-39" x="1452.388672"/>
      <use xlink:href="#DejaVuSans-30" x="1516.011719"/>
      <use xlink:href="#DejaVuSans-29" x="1579.634766"/>
     </g>
    </g>
    <g id="line2d_63">
     <path d="M 668.209375 348.742188 
L 678.209375 348.742188 
L 688.209375 348.742188 
" style="fill: none; stroke: #2ca02c; stroke-width: 1.5; stroke-linecap: square"/>
    </g>
    <g id="text_37">
     <!-- SVC (AUC = 0.92) -->
     <g transform="translate(696.209375 352.242188) scale(0.1 -0.1)">
      <use xlink:href="#DejaVuSans-53"/>
      <use xlink:href="#DejaVuSans-56" x="63.476562"/>
      <use xlink:href="#DejaVuSans-43" x="131.884766"/>
      <use xlink:href="#DejaVuSans-20" x="201.708984"/>
      <use xlink:href="#DejaVuSans-28" x="233.496094"/>
      <use xlink:href="#DejaVuSans-41" x="272.509766"/>
      <use xlink:href="#DejaVuSans-55" x="340.917969"/>
      <use xlink:href="#DejaVuSans-43" x="414.111328"/>
      <use xlink:href="#DejaVuSans-20" x="483.935547"/>
      <use xlink:href="#DejaVuSans-3d" x="515.722656"/>
      <use xlink:href="#DejaVuSans-20" x="599.511719"/>
      <use xlink:href="#DejaVuSans-30" x="631.298828"/>
      <use xlink:href="#DejaVuSans-2e" x="694.921875"/>
      <use xlink:href="#DejaVuSans-39" x="726.708984"/>
      <use xlink:href="#DejaVuSans-32" x="790.332031"/>
      <use xlink:href="#DejaVuSans-29" x="853.955078"/>
     </g>
    </g>
    <g id="line2d_64">
     <path d="M 668.209375 363.420313 
L 678.209375 363.420313 
L 688.209375 363.420313 
" style="fill: none; stroke: #d62728; stroke-width: 1.5; stroke-linecap: square"/>
    </g>
    <g id="text_38">
     <!-- GradientBoostingClassifier (AUC = 0.94) -->
     <g transform="translate(696.209375 366.920313) scale(0.1 -0.1)">
      <use xlink:href="#DejaVuSans-47"/>
      <use xlink:href="#DejaVuSans-72" x="77.490234"/>
      <use xlink:href="#DejaVuSans-61" x="118.603516"/>
      <use xlink:href="#DejaVuSans-64" x="179.882812"/>
      <use xlink:href="#DejaVuSans-69" x="243.359375"/>
      <use xlink:href="#DejaVuSans-65" x="271.142578"/>
      <use xlink:href="#DejaVuSans-6e" x="332.666016"/>
      <use xlink:href="#DejaVuSans-74" x="396.044922"/>
      <use xlink:href="#DejaVuSans-42" x="435.253906"/>
      <use xlink:href="#DejaVuSans-6f" x="503.857422"/>
      <use xlink:href="#DejaVuSans-6f" x="565.039062"/>
      <use xlink:href="#DejaVuSans-73" x="626.220703"/>
      <use xlink:href="#DejaVuSans-74" x="678.320312"/>
      <use xlink:href="#DejaVuSans-69" x="717.529297"/>
      <use xlink:href="#DejaVuSans-6e" x="745.3125"/>
      <use xlink:href="#DejaVuSans-67" x="808.691406"/>
      <use xlink:href="#DejaVuSans-43" x="872.167969"/>
      <use xlink:href="#DejaVuSans-6c" x="941.992188"/>
      <use xlink:href="#DejaVuSans-61" x="969.775391"/>
      <use xlink:href="#DejaVuSans-73" x="1031.054688"/>
      <use xlink:href="#DejaVuSans-73" x="1083.154297"/>
      <use xlink:href="#DejaVuSans-69" x="1135.253906"/>
      <use xlink:href="#DejaVuSans-66" x="1163.037109"/>
      <use xlink:href="#DejaVuSans-69" x="1198.242188"/>
      <use xlink:href="#DejaVuSans-65" x="1226.025391"/>
      <use xlink:href="#DejaVuSans-72" x="1287.548828"/>
      <use xlink:href="#DejaVuSans-20" x="1328.662109"/>
      <use xlink:href="#DejaVuSans-28" x="1360.449219"/>
      <use xlink:href="#DejaVuSans-41" x="1399.462891"/>
      <use xlink:href="#DejaVuSans-55" x="1467.871094"/>
      <use xlink:href="#DejaVuSans-43" x="1541.064453"/>
      <use xlink:href="#DejaVuSans-20" x="1610.888672"/>
      <use xlink:href="#DejaVuSans-3d" x="1642.675781"/>
      <use xlink:href="#DejaVuSans-20" x="1726.464844"/>
      <use xlink:href="#DejaVuSans-30" x="1758.251953"/>
      <use xlink:href="#DejaVuSans-2e" x="1821.875"/>
      <use xlink:href="#DejaVuSans-39" x="1853.662109"/>
      <use xlink:href="#DejaVuSans-34" x="1917.285156"/>
      <use xlink:href="#DejaVuSans-29" x="1980.908203"/>
     </g>
    </g>
   </g>
  </g>
 </g>
 <defs>
  <clipPath id="p0611dd4d50">
   <rect x="126" y="51.84" width="355.090909" height="326.16"/>
  </clipPath>
  <clipPath id="p363e1440e2">
   <rect x="552.109091" y="51.84" width="355.090909" height="326.16"/>
  </clipPath>
 </defs>
</svg>
