<?xml version="1.0" encoding="utf-8" standalone="no"?>
<!DOCTYPE svg PUBLIC "-//W3C//DTD SVG 1.1//EN"
  "http://www.w3.org/Graphics/SVG/1.1/DTD/svg11.dtd">
<svg xmlns:xlink="http://www.w3.org/1999/xlink" width="1008pt" height="432pt" viewBox="0 0 1008 432" xmlns="http://www.w3.org/2000/svg" version="1.1">
 <metadata>
  <rdf:RDF xmlns:dc="http://purl.org/dc/elements/1.1/" xmlns:cc="http://creativecommons.org/ns#" xmlns:rdf="http://www.w3.org/1999/02/22-rdf-syntax-ns#">
   <cc:Work>
    <dc:type rdf:resource="http://purl.org/dc/dcmitype/StillImage"/>
    <dc:date>2023-10-27T08:32:54.608466</dc:date>
    <dc:format>image/svg+xml</dc:format>
    <dc:creator>
     <cc:Agent>
      <dc:title>Matplotlib v3.7.2, https://matplotlib.org/</dc:title>
     </cc:Agent>
    </dc:creator>
   </cc:Work>
  </rdf:RDF>
 </metadata>
 <defs>
  <style type="text/css">*{stroke-linejoin: round; stroke-linecap: butt}</style>
 </defs>
 <g id="figure_1">
  <g id="patch_1">
   <path d="M 0 432 
L 1008 432 
L 1008 0 
L 0 0 
z
" style="fill: #ffffff"/>
  </g>
  <g id="axes_1">
   <g id="patch_2">
    <path d="M 126 378 
L 481.090909 378 
L 481.090909 51.84 
L 126 51.84 
z
" style="fill: #ffffff"/>
   </g>
   <g id="matplotlib.axis_1">
    <g id="xtick_1">
     <g id="line2d_1">
      <path d="M 142.140496 378 
L 142.140496 51.84 
" clip-path="url(#pca15fc0e97)" style="fill: none; stroke-dasharray: 2.96,1.28; stroke-dashoffset: 0; stroke: #b0b0b0; stroke-width: 0.8"/>
     </g>
     <g id="line2d_2">
      <defs>
       <path id="mc4ee222241" d="M 0 0 
L 0 3.5 
" style="stroke: #000000; stroke-width: 0.8"/>
      </defs>
      <g>
       <use xlink:href="#mc4ee222241" x="142.140496" y="378" style="stroke: #000000; stroke-width: 0.8"/>
      </g>
     </g>
     <g id="text_1">
      <!-- 0.0 -->
      <g transform="translate(134.188933 392.598437) scale(0.1 -0.1)">
       <defs>
        <path id="DejaVuSans-30" d="M 2034 4250 
Q 1547 4250 1301 3770 
Q 1056 3291 1056 2328 
Q 1056 1369 1301 889 
Q 1547 409 2034 409 
Q 2525 409 2770 889 
Q 3016 1369 3016 2328 
Q 3016 3291 2770 3770 
Q 2525 4250 2034 4250 
z
M 2034 4750 
Q 2819 4750 3233 4129 
Q 3647 3509 3647 2328 
Q 3647 1150 3233 529 
Q 2819 -91 2034 -91 
Q 1250 -91 836 529 
Q 422 1150 422 2328 
Q 422 3509 836 4129 
Q 1250 4750 2034 4750 
z
" transform="scale(0.015625)"/>
        <path id="DejaVuSans-2e" d="M 684 794 
L 1344 794 
L 1344 0 
L 684 0 
L 684 794 
z
" transform="scale(0.015625)"/>
       </defs>
       <use xlink:href="#DejaVuSans-30"/>
       <use xlink:href="#DejaVuSans-2e" x="63.623047"/>
       <use xlink:href="#DejaVuSans-30" x="95.410156"/>
      </g>
     </g>
    </g>
    <g id="xtick_2">
     <g id="line2d_3">
      <path d="M 206.702479 378 
L 206.702479 51.84 
" clip-path="url(#pca15fc0e97)" style="fill: none; stroke-dasharray: 2.96,1.28; stroke-dashoffset: 0; stroke: #b0b0b0; stroke-width: 0.8"/>
     </g>
     <g id="line2d_4">
      <g>
       <use xlink:href="#mc4ee222241" x="206.702479" y="378" style="stroke: #000000; stroke-width: 0.8"/>
      </g>
     </g>
     <g id="text_2">
      <!-- 0.2 -->
      <g transform="translate(198.750917 392.598437) scale(0.1 -0.1)">
       <defs>
        <path id="DejaVuSans-32" d="M 1228 531 
L 3431 531 
L 3431 0 
L 469 0 
L 469 531 
Q 828 903 1448 1529 
Q 2069 2156 2228 2338 
Q 2531 2678 2651 2914 
Q 2772 3150 2772 3378 
Q 2772 3750 2511 3984 
Q 2250 4219 1831 4219 
Q 1534 4219 1204 4116 
Q 875 4013 500 3803 
L 500 4441 
Q 881 4594 1212 4672 
Q 1544 4750 1819 4750 
Q 2544 4750 2975 4387 
Q 3406 4025 3406 3419 
Q 3406 3131 3298 2873 
Q 3191 2616 2906 2266 
Q 2828 2175 2409 1742 
Q 1991 1309 1228 531 
z
" transform="scale(0.015625)"/>
       </defs>
       <use xlink:href="#DejaVuSans-30"/>
       <use xlink:href="#DejaVuSans-2e" x="63.623047"/>
       <use xlink:href="#DejaVuSans-32" x="95.410156"/>
      </g>
     </g>
    </g>
    <g id="xtick_3">
     <g id="line2d_5">
      <path d="M 271.264463 378 
L 271.264463 51.84 
" clip-path="url(#pca15fc0e97)" style="fill: none; stroke-dasharray: 2.96,1.28; stroke-dashoffset: 0; stroke: #b0b0b0; stroke-width: 0.8"/>
     </g>
     <g id="line2d_6">
      <g>
       <use xlink:href="#mc4ee222241" x="271.264463" y="378" style="stroke: #000000; stroke-width: 0.8"/>
      </g>
     </g>
     <g id="text_3">
      <!-- 0.4 -->
      <g transform="translate(263.3129 392.598437) scale(0.1 -0.1)">
       <defs>
        <path id="DejaVuSans-34" d="M 2419 4116 
L 825 1625 
L 2419 1625 
L 2419 4116 
z
M 2253 4666 
L 3047 4666 
L 3047 1625 
L 3713 1625 
L 3713 1100 
L 3047 1100 
L 3047 0 
L 2419 0 
L 2419 1100 
L 313 1100 
L 313 1709 
L 2253 4666 
z
" transform="scale(0.015625)"/>
       </defs>
       <use xlink:href="#DejaVuSans-30"/>
       <use xlink:href="#DejaVuSans-2e" x="63.623047"/>
       <use xlink:href="#DejaVuSans-34" x="95.410156"/>
      </g>
     </g>
    </g>
    <g id="xtick_4">
     <g id="line2d_7">
      <path d="M 335.826446 378 
L 335.826446 51.84 
" clip-path="url(#pca15fc0e97)" style="fill: none; stroke-dasharray: 2.96,1.28; stroke-dashoffset: 0; stroke: #b0b0b0; stroke-width: 0.8"/>
     </g>
     <g id="line2d_8">
      <g>
       <use xlink:href="#mc4ee222241" x="335.826446" y="378" style="stroke: #000000; stroke-width: 0.8"/>
      </g>
     </g>
     <g id="text_4">
      <!-- 0.6 -->
      <g transform="translate(327.874884 392.598437) scale(0.1 -0.1)">
       <defs>
        <path id="DejaVuSans-36" d="M 2113 2584 
Q 1688 2584 1439 2293 
Q 1191 2003 1191 1497 
Q 1191 994 1439 701 
Q 1688 409 2113 409 
Q 2538 409 2786 701 
Q 3034 994 3034 1497 
Q 3034 2003 2786 2293 
Q 2538 2584 2113 2584 
z
M 3366 4563 
L 3366 3988 
Q 3128 4100 2886 4159 
Q 2644 4219 2406 4219 
Q 1781 4219 1451 3797 
Q 1122 3375 1075 2522 
Q 1259 2794 1537 2939 
Q 1816 3084 2150 3084 
Q 2853 3084 3261 2657 
Q 3669 2231 3669 1497 
Q 3669 778 3244 343 
Q 2819 -91 2113 -91 
Q 1303 -91 875 529 
Q 447 1150 447 2328 
Q 447 3434 972 4092 
Q 1497 4750 2381 4750 
Q 2619 4750 2861 4703 
Q 3103 4656 3366 4563 
z
" transform="scale(0.015625)"/>
       </defs>
       <use xlink:href="#DejaVuSans-30"/>
       <use xlink:href="#DejaVuSans-2e" x="63.623047"/>
       <use xlink:href="#DejaVuSans-36" x="95.410156"/>
      </g>
     </g>
    </g>
    <g id="xtick_5">
     <g id="line2d_9">
      <path d="M 400.38843 378 
L 400.38843 51.84 
" clip-path="url(#pca15fc0e97)" style="fill: none; stroke-dasharray: 2.96,1.28; stroke-dashoffset: 0; stroke: #b0b0b0; stroke-width: 0.8"/>
     </g>
     <g id="line2d_10">
      <g>
       <use xlink:href="#mc4ee222241" x="400.38843" y="378" style="stroke: #000000; stroke-width: 0.8"/>
      </g>
     </g>
     <g id="text_5">
      <!-- 0.8 -->
      <g transform="translate(392.436867 392.598437) scale(0.1 -0.1)">
       <defs>
        <path id="DejaVuSans-38" d="M 2034 2216 
Q 1584 2216 1326 1975 
Q 1069 1734 1069 1313 
Q 1069 891 1326 650 
Q 1584 409 2034 409 
Q 2484 409 2743 651 
Q 3003 894 3003 1313 
Q 3003 1734 2745 1975 
Q 2488 2216 2034 2216 
z
M 1403 2484 
Q 997 2584 770 2862 
Q 544 3141 544 3541 
Q 544 4100 942 4425 
Q 1341 4750 2034 4750 
Q 2731 4750 3128 4425 
Q 3525 4100 3525 3541 
Q 3525 3141 3298 2862 
Q 3072 2584 2669 2484 
Q 3125 2378 3379 2068 
Q 3634 1759 3634 1313 
Q 3634 634 3220 271 
Q 2806 -91 2034 -91 
Q 1263 -91 848 271 
Q 434 634 434 1313 
Q 434 1759 690 2068 
Q 947 2378 1403 2484 
z
M 1172 3481 
Q 1172 3119 1398 2916 
Q 1625 2713 2034 2713 
Q 2441 2713 2670 2916 
Q 2900 3119 2900 3481 
Q 2900 3844 2670 4047 
Q 2441 4250 2034 4250 
Q 1625 4250 1398 4047 
Q 1172 3844 1172 3481 
z
" transform="scale(0.015625)"/>
       </defs>
       <use xlink:href="#DejaVuSans-30"/>
       <use xlink:href="#DejaVuSans-2e" x="63.623047"/>
       <use xlink:href="#DejaVuSans-38" x="95.410156"/>
      </g>
     </g>
    </g>
    <g id="xtick_6">
     <g id="line2d_11">
      <path d="M 464.950413 378 
L 464.950413 51.84 
" clip-path="url(#pca15fc0e97)" style="fill: none; stroke-dasharray: 2.96,1.28; stroke-dashoffset: 0; stroke: #b0b0b0; stroke-width: 0.8"/>
     </g>
     <g id="line2d_12">
      <g>
       <use xlink:href="#mc4ee222241" x="464.950413" y="378" style="stroke: #000000; stroke-width: 0.8"/>
      </g>
     </g>
     <g id="text_6">
      <!-- 1.0 -->
      <g transform="translate(456.998851 392.598437) scale(0.1 -0.1)">
       <defs>
        <path id="DejaVuSans-31" d="M 794 531 
L 1825 531 
L 1825 4091 
L 703 3866 
L 703 4441 
L 1819 4666 
L 2450 4666 
L 2450 531 
L 3481 531 
L 3481 0 
L 794 0 
L 794 531 
z
" transform="scale(0.015625)"/>
       </defs>
       <use xlink:href="#DejaVuSans-31"/>
       <use xlink:href="#DejaVuSans-2e" x="63.623047"/>
       <use xlink:href="#DejaVuSans-30" x="95.410156"/>
      </g>
     </g>
    </g>
    <g id="text_7">
     <!-- False Positive Rate (Positive label: 1) -->
     <g transform="translate(212.17983 406.276563) scale(0.1 -0.1)">
      <defs>
       <path id="DejaVuSans-46" d="M 628 4666 
L 3309 4666 
L 3309 4134 
L 1259 4134 
L 1259 2759 
L 3109 2759 
L 3109 2228 
L 1259 2228 
L 1259 0 
L 628 0 
L 628 4666 
z
" transform="scale(0.015625)"/>
       <path id="DejaVuSans-61" d="M 2194 1759 
Q 1497 1759 1228 1600 
Q 959 1441 959 1056 
Q 959 750 1161 570 
Q 1363 391 1709 391 
Q 2188 391 2477 730 
Q 2766 1069 2766 1631 
L 2766 1759 
L 2194 1759 
z
M 3341 1997 
L 3341 0 
L 2766 0 
L 2766 531 
Q 2569 213 2275 61 
Q 1981 -91 1556 -91 
Q 1019 -91 701 211 
Q 384 513 384 1019 
Q 384 1609 779 1909 
Q 1175 2209 1959 2209 
L 2766 2209 
L 2766 2266 
Q 2766 2663 2505 2880 
Q 2244 3097 1772 3097 
Q 1472 3097 1187 3025 
Q 903 2953 641 2809 
L 641 3341 
Q 956 3463 1253 3523 
Q 1550 3584 1831 3584 
Q 2591 3584 2966 3190 
Q 3341 2797 3341 1997 
z
" transform="scale(0.015625)"/>
       <path id="DejaVuSans-6c" d="M 603 4863 
L 1178 4863 
L 1178 0 
L 603 0 
L 603 4863 
z
" transform="scale(0.015625)"/>
       <path id="DejaVuSans-73" d="M 2834 3397 
L 2834 2853 
Q 2591 2978 2328 3040 
Q 2066 3103 1784 3103 
Q 1356 3103 1142 2972 
Q 928 2841 928 2578 
Q 928 2378 1081 2264 
Q 1234 2150 1697 2047 
L 1894 2003 
Q 2506 1872 2764 1633 
Q 3022 1394 3022 966 
Q 3022 478 2636 193 
Q 2250 -91 1575 -91 
Q 1294 -91 989 -36 
Q 684 19 347 128 
L 347 722 
Q 666 556 975 473 
Q 1284 391 1588 391 
Q 1994 391 2212 530 
Q 2431 669 2431 922 
Q 2431 1156 2273 1281 
Q 2116 1406 1581 1522 
L 1381 1569 
Q 847 1681 609 1914 
Q 372 2147 372 2553 
Q 372 3047 722 3315 
Q 1072 3584 1716 3584 
Q 2034 3584 2315 3537 
Q 2597 3491 2834 3397 
z
" transform="scale(0.015625)"/>
       <path id="DejaVuSans-65" d="M 3597 1894 
L 3597 1613 
L 953 1613 
Q 991 1019 1311 708 
Q 1631 397 2203 397 
Q 2534 397 2845 478 
Q 3156 559 3463 722 
L 3463 178 
Q 3153 47 2828 -22 
Q 2503 -91 2169 -91 
Q 1331 -91 842 396 
Q 353 884 353 1716 
Q 353 2575 817 3079 
Q 1281 3584 2069 3584 
Q 2775 3584 3186 3129 
Q 3597 2675 3597 1894 
z
M 3022 2063 
Q 3016 2534 2758 2815 
Q 2500 3097 2075 3097 
Q 1594 3097 1305 2825 
Q 1016 2553 972 2059 
L 3022 2063 
z
" transform="scale(0.015625)"/>
       <path id="DejaVuSans-20" transform="scale(0.015625)"/>
       <path id="DejaVuSans-50" d="M 1259 4147 
L 1259 2394 
L 2053 2394 
Q 2494 2394 2734 2622 
Q 2975 2850 2975 3272 
Q 2975 3691 2734 3919 
Q 2494 4147 2053 4147 
L 1259 4147 
z
M 628 4666 
L 2053 4666 
Q 2838 4666 3239 4311 
Q 3641 3956 3641 3272 
Q 3641 2581 3239 2228 
Q 2838 1875 2053 1875 
L 1259 1875 
L 1259 0 
L 628 0 
L 628 4666 
z
" transform="scale(0.015625)"/>
       <path id="DejaVuSans-6f" d="M 1959 3097 
Q 1497 3097 1228 2736 
Q 959 2375 959 1747 
Q 959 1119 1226 758 
Q 1494 397 1959 397 
Q 2419 397 2687 759 
Q 2956 1122 2956 1747 
Q 2956 2369 2687 2733 
Q 2419 3097 1959 3097 
z
M 1959 3584 
Q 2709 3584 3137 3096 
Q 3566 2609 3566 1747 
Q 3566 888 3137 398 
Q 2709 -91 1959 -91 
Q 1206 -91 779 398 
Q 353 888 353 1747 
Q 353 2609 779 3096 
Q 1206 3584 1959 3584 
z
" transform="scale(0.015625)"/>
       <path id="DejaVuSans-69" d="M 603 3500 
L 1178 3500 
L 1178 0 
L 603 0 
L 603 3500 
z
M 603 4863 
L 1178 4863 
L 1178 4134 
L 603 4134 
L 603 4863 
z
" transform="scale(0.015625)"/>
       <path id="DejaVuSans-74" d="M 1172 4494 
L 1172 3500 
L 2356 3500 
L 2356 3053 
L 1172 3053 
L 1172 1153 
Q 1172 725 1289 603 
Q 1406 481 1766 481 
L 2356 481 
L 2356 0 
L 1766 0 
Q 1100 0 847 248 
Q 594 497 594 1153 
L 594 3053 
L 172 3053 
L 172 3500 
L 594 3500 
L 594 4494 
L 1172 4494 
z
" transform="scale(0.015625)"/>
       <path id="DejaVuSans-76" d="M 191 3500 
L 800 3500 
L 1894 563 
L 2988 3500 
L 3597 3500 
L 2284 0 
L 1503 0 
L 191 3500 
z
" transform="scale(0.015625)"/>
       <path id="DejaVuSans-52" d="M 2841 2188 
Q 3044 2119 3236 1894 
Q 3428 1669 3622 1275 
L 4263 0 
L 3584 0 
L 2988 1197 
Q 2756 1666 2539 1819 
Q 2322 1972 1947 1972 
L 1259 1972 
L 1259 0 
L 628 0 
L 628 4666 
L 2053 4666 
Q 2853 4666 3247 4331 
Q 3641 3997 3641 3322 
Q 3641 2881 3436 2590 
Q 3231 2300 2841 2188 
z
M 1259 4147 
L 1259 2491 
L 2053 2491 
Q 2509 2491 2742 2702 
Q 2975 2913 2975 3322 
Q 2975 3731 2742 3939 
Q 2509 4147 2053 4147 
L 1259 4147 
z
" transform="scale(0.015625)"/>
       <path id="DejaVuSans-28" d="M 1984 4856 
Q 1566 4138 1362 3434 
Q 1159 2731 1159 2009 
Q 1159 1288 1364 580 
Q 1569 -128 1984 -844 
L 1484 -844 
Q 1016 -109 783 600 
Q 550 1309 550 2009 
Q 550 2706 781 3412 
Q 1013 4119 1484 4856 
L 1984 4856 
z
" transform="scale(0.015625)"/>
       <path id="DejaVuSans-62" d="M 3116 1747 
Q 3116 2381 2855 2742 
Q 2594 3103 2138 3103 
Q 1681 3103 1420 2742 
Q 1159 2381 1159 1747 
Q 1159 1113 1420 752 
Q 1681 391 2138 391 
Q 2594 391 2855 752 
Q 3116 1113 3116 1747 
z
M 1159 2969 
Q 1341 3281 1617 3432 
Q 1894 3584 2278 3584 
Q 2916 3584 3314 3078 
Q 3713 2572 3713 1747 
Q 3713 922 3314 415 
Q 2916 -91 2278 -91 
Q 1894 -91 1617 61 
Q 1341 213 1159 525 
L 1159 0 
L 581 0 
L 581 4863 
L 1159 4863 
L 1159 2969 
z
" transform="scale(0.015625)"/>
       <path id="DejaVuSans-3a" d="M 750 794 
L 1409 794 
L 1409 0 
L 750 0 
L 750 794 
z
M 750 3309 
L 1409 3309 
L 1409 2516 
L 750 2516 
L 750 3309 
z
" transform="scale(0.015625)"/>
       <path id="DejaVuSans-29" d="M 513 4856 
L 1013 4856 
Q 1481 4119 1714 3412 
Q 1947 2706 1947 2009 
Q 1947 1309 1714 600 
Q 1481 -109 1013 -844 
L 513 -844 
Q 928 -128 1133 580 
Q 1338 1288 1338 2009 
Q 1338 2731 1133 3434 
Q 928 4138 513 4856 
z
" transform="scale(0.015625)"/>
      </defs>
      <use xlink:href="#DejaVuSans-46"/>
      <use xlink:href="#DejaVuSans-61" x="48.394531"/>
      <use xlink:href="#DejaVuSans-6c" x="109.673828"/>
      <use xlink:href="#DejaVuSans-73" x="137.457031"/>
      <use xlink:href="#DejaVuSans-65" x="189.556641"/>
      <use xlink:href="#DejaVuSans-20" x="251.080078"/>
      <use xlink:href="#DejaVuSans-50" x="282.867188"/>
      <use xlink:href="#DejaVuSans-6f" x="339.544922"/>
      <use xlink:href="#DejaVuSans-73" x="400.726562"/>
      <use xlink:href="#DejaVuSans-69" x="452.826172"/>
      <use xlink:href="#DejaVuSans-74" x="480.609375"/>
      <use xlink:href="#DejaVuSans-69" x="519.818359"/>
      <use xlink:href="#DejaVuSans-76" x="547.601562"/>
      <use xlink:href="#DejaVuSans-65" x="606.78125"/>
      <use xlink:href="#DejaVuSans-20" x="668.304688"/>
      <use xlink:href="#DejaVuSans-52" x="700.091797"/>
      <use xlink:href="#DejaVuSans-61" x="767.324219"/>
      <use xlink:href="#DejaVuSans-74" x="828.603516"/>
      <use xlink:href="#DejaVuSans-65" x="867.8125"/>
      <use xlink:href="#DejaVuSans-20" x="929.335938"/>
      <use xlink:href="#DejaVuSans-28" x="961.123047"/>
      <use xlink:href="#DejaVuSans-50" x="1000.136719"/>
      <use xlink:href="#DejaVuSans-6f" x="1056.814453"/>
      <use xlink:href="#DejaVuSans-73" x="1117.996094"/>
      <use xlink:href="#DejaVuSans-69" x="1170.095703"/>
      <use xlink:href="#DejaVuSans-74" x="1197.878906"/>
      <use xlink:href="#DejaVuSans-69" x="1237.087891"/>
      <use xlink:href="#DejaVuSans-76" x="1264.871094"/>
      <use xlink:href="#DejaVuSans-65" x="1324.050781"/>
      <use xlink:href="#DejaVuSans-20" x="1385.574219"/>
      <use xlink:href="#DejaVuSans-6c" x="1417.361328"/>
      <use xlink:href="#DejaVuSans-61" x="1445.144531"/>
      <use xlink:href="#DejaVuSans-62" x="1506.423828"/>
      <use xlink:href="#DejaVuSans-65" x="1569.900391"/>
      <use xlink:href="#DejaVuSans-6c" x="1631.423828"/>
      <use xlink:href="#DejaVuSans-3a" x="1659.207031"/>
      <use xlink:href="#DejaVuSans-20" x="1692.898438"/>
      <use xlink:href="#DejaVuSans-31" x="1724.685547"/>
      <use xlink:href="#DejaVuSans-29" x="1788.308594"/>
     </g>
    </g>
   </g>
   <g id="matplotlib.axis_2">
    <g id="ytick_1">
     <g id="line2d_13">
      <path d="M 126 363.174545 
L 481.090909 363.174545 
" clip-path="url(#pca15fc0e97)" style="fill: none; stroke-dasharray: 2.96,1.28; stroke-dashoffset: 0; stroke: #b0b0b0; stroke-width: 0.8"/>
     </g>
     <g id="line2d_14">
      <defs>
       <path id="mfe9ca496f3" d="M 0 0 
L -3.5 0 
" style="stroke: #000000; stroke-width: 0.8"/>
      </defs>
      <g>
       <use xlink:href="#mfe9ca496f3" x="126" y="363.174545" style="stroke: #000000; stroke-width: 0.8"/>
      </g>
     </g>
     <g id="text_8">
      <!-- 0.0 -->
      <g transform="translate(103.096875 366.973764) scale(0.1 -0.1)">
       <use xlink:href="#DejaVuSans-30"/>
       <use xlink:href="#DejaVuSans-2e" x="63.623047"/>
       <use xlink:href="#DejaVuSans-30" x="95.410156"/>
      </g>
     </g>
    </g>
    <g id="ytick_2">
     <g id="line2d_15">
      <path d="M 126 303.872727 
L 481.090909 303.872727 
" clip-path="url(#pca15fc0e97)" style="fill: none; stroke-dasharray: 2.96,1.28; stroke-dashoffset: 0; stroke: #b0b0b0; stroke-width: 0.8"/>
     </g>
     <g id="line2d_16">
      <g>
       <use xlink:href="#mfe9ca496f3" x="126" y="303.872727" style="stroke: #000000; stroke-width: 0.8"/>
      </g>
     </g>
     <g id="text_9">
      <!-- 0.2 -->
      <g transform="translate(103.096875 307.671946) scale(0.1 -0.1)">
       <use xlink:href="#DejaVuSans-30"/>
       <use xlink:href="#DejaVuSans-2e" x="63.623047"/>
       <use xlink:href="#DejaVuSans-32" x="95.410156"/>
      </g>
     </g>
    </g>
    <g id="ytick_3">
     <g id="line2d_17">
      <path d="M 126 244.570909 
L 481.090909 244.570909 
" clip-path="url(#pca15fc0e97)" style="fill: none; stroke-dasharray: 2.96,1.28; stroke-dashoffset: 0; stroke: #b0b0b0; stroke-width: 0.8"/>
     </g>
     <g id="line2d_18">
      <g>
       <use xlink:href="#mfe9ca496f3" x="126" y="244.570909" style="stroke: #000000; stroke-width: 0.8"/>
      </g>
     </g>
     <g id="text_10">
      <!-- 0.4 -->
      <g transform="translate(103.096875 248.370128) scale(0.1 -0.1)">
       <use xlink:href="#DejaVuSans-30"/>
       <use xlink:href="#DejaVuSans-2e" x="63.623047"/>
       <use xlink:href="#DejaVuSans-34" x="95.410156"/>
      </g>
     </g>
    </g>
    <g id="ytick_4">
     <g id="line2d_19">
      <path d="M 126 185.269091 
L 481.090909 185.269091 
" clip-path="url(#pca15fc0e97)" style="fill: none; stroke-dasharray: 2.96,1.28; stroke-dashoffset: 0; stroke: #b0b0b0; stroke-width: 0.8"/>
     </g>
     <g id="line2d_20">
      <g>
       <use xlink:href="#mfe9ca496f3" x="126" y="185.269091" style="stroke: #000000; stroke-width: 0.8"/>
      </g>
     </g>
     <g id="text_11">
      <!-- 0.6 -->
      <g transform="translate(103.096875 189.06831) scale(0.1 -0.1)">
       <use xlink:href="#DejaVuSans-30"/>
       <use xlink:href="#DejaVuSans-2e" x="63.623047"/>
       <use xlink:href="#DejaVuSans-36" x="95.410156"/>
      </g>
     </g>
    </g>
    <g id="ytick_5">
     <g id="line2d_21">
      <path d="M 126 125.967273 
L 481.090909 125.967273 
" clip-path="url(#pca15fc0e97)" style="fill: none; stroke-dasharray: 2.96,1.28; stroke-dashoffset: 0; stroke: #b0b0b0; stroke-width: 0.8"/>
     </g>
     <g id="line2d_22">
      <g>
       <use xlink:href="#mfe9ca496f3" x="126" y="125.967273" style="stroke: #000000; stroke-width: 0.8"/>
      </g>
     </g>
     <g id="text_12">
      <!-- 0.8 -->
      <g transform="translate(103.096875 129.766491) scale(0.1 -0.1)">
       <use xlink:href="#DejaVuSans-30"/>
       <use xlink:href="#DejaVuSans-2e" x="63.623047"/>
       <use xlink:href="#DejaVuSans-38" x="95.410156"/>
      </g>
     </g>
    </g>
    <g id="ytick_6">
     <g id="line2d_23">
      <path d="M 126 66.665455 
L 481.090909 66.665455 
" clip-path="url(#pca15fc0e97)" style="fill: none; stroke-dasharray: 2.96,1.28; stroke-dashoffset: 0; stroke: #b0b0b0; stroke-width: 0.8"/>
     </g>
     <g id="line2d_24">
      <g>
       <use xlink:href="#mfe9ca496f3" x="126" y="66.665455" style="stroke: #000000; stroke-width: 0.8"/>
      </g>
     </g>
     <g id="text_13">
      <!-- 1.0 -->
      <g transform="translate(103.096875 70.464673) scale(0.1 -0.1)">
       <use xlink:href="#DejaVuSans-31"/>
       <use xlink:href="#DejaVuSans-2e" x="63.623047"/>
       <use xlink:href="#DejaVuSans-30" x="95.410156"/>
      </g>
     </g>
    </g>
    <g id="text_14">
     <!-- True Positive Rate (Positive label: 1) -->
     <g transform="translate(97.017187 304.348906) rotate(-90) scale(0.1 -0.1)">
      <defs>
       <path id="DejaVuSans-54" d="M -19 4666 
L 3928 4666 
L 3928 4134 
L 2272 4134 
L 2272 0 
L 1638 0 
L 1638 4134 
L -19 4134 
L -19 4666 
z
" transform="scale(0.015625)"/>
       <path id="DejaVuSans-72" d="M 2631 2963 
Q 2534 3019 2420 3045 
Q 2306 3072 2169 3072 
Q 1681 3072 1420 2755 
Q 1159 2438 1159 1844 
L 1159 0 
L 581 0 
L 581 3500 
L 1159 3500 
L 1159 2956 
Q 1341 3275 1631 3429 
Q 1922 3584 2338 3584 
Q 2397 3584 2469 3576 
Q 2541 3569 2628 3553 
L 2631 2963 
z
" transform="scale(0.015625)"/>
       <path id="DejaVuSans-75" d="M 544 1381 
L 544 3500 
L 1119 3500 
L 1119 1403 
Q 1119 906 1312 657 
Q 1506 409 1894 409 
Q 2359 409 2629 706 
Q 2900 1003 2900 1516 
L 2900 3500 
L 3475 3500 
L 3475 0 
L 2900 0 
L 2900 538 
Q 2691 219 2414 64 
Q 2138 -91 1772 -91 
Q 1169 -91 856 284 
Q 544 659 544 1381 
z
M 1991 3584 
L 1991 3584 
z
" transform="scale(0.015625)"/>
      </defs>
      <use xlink:href="#DejaVuSans-54"/>
      <use xlink:href="#DejaVuSans-72" x="46.333984"/>
      <use xlink:href="#DejaVuSans-75" x="87.447266"/>
      <use xlink:href="#DejaVuSans-65" x="150.826172"/>
      <use xlink:href="#DejaVuSans-20" x="212.349609"/>
      <use xlink:href="#DejaVuSans-50" x="244.136719"/>
      <use xlink:href="#DejaVuSans-6f" x="300.814453"/>
      <use xlink:href="#DejaVuSans-73" x="361.996094"/>
      <use xlink:href="#DejaVuSans-69" x="414.095703"/>
      <use xlink:href="#DejaVuSans-74" x="441.878906"/>
      <use xlink:href="#DejaVuSans-69" x="481.087891"/>
      <use xlink:href="#DejaVuSans-76" x="508.871094"/>
      <use xlink:href="#DejaVuSans-65" x="568.050781"/>
      <use xlink:href="#DejaVuSans-20" x="629.574219"/>
      <use xlink:href="#DejaVuSans-52" x="661.361328"/>
      <use xlink:href="#DejaVuSans-61" x="728.59375"/>
      <use xlink:href="#DejaVuSans-74" x="789.873047"/>
      <use xlink:href="#DejaVuSans-65" x="829.082031"/>
      <use xlink:href="#DejaVuSans-20" x="890.605469"/>
      <use xlink:href="#DejaVuSans-28" x="922.392578"/>
      <use xlink:href="#DejaVuSans-50" x="961.40625"/>
      <use xlink:href="#DejaVuSans-6f" x="1018.083984"/>
      <use xlink:href="#DejaVuSans-73" x="1079.265625"/>
      <use xlink:href="#DejaVuSans-69" x="1131.365234"/>
      <use xlink:href="#DejaVuSans-74" x="1159.148438"/>
      <use xlink:href="#DejaVuSans-69" x="1198.357422"/>
      <use xlink:href="#DejaVuSans-76" x="1226.140625"/>
      <use xlink:href="#DejaVuSans-65" x="1285.320312"/>
      <use xlink:href="#DejaVuSans-20" x="1346.84375"/>
      <use xlink:href="#DejaVuSans-6c" x="1378.630859"/>
      <use xlink:href="#DejaVuSans-61" x="1406.414062"/>
      <use xlink:href="#DejaVuSans-62" x="1467.693359"/>
      <use xlink:href="#DejaVuSans-65" x="1531.169922"/>
      <use xlink:href="#DejaVuSans-6c" x="1592.693359"/>
      <use xlink:href="#DejaVuSans-3a" x="1620.476562"/>
      <use xlink:href="#DejaVuSans-20" x="1654.167969"/>
      <use xlink:href="#DejaVuSans-31" x="1685.955078"/>
      <use xlink:href="#DejaVuSans-29" x="1749.578125"/>
     </g>
    </g>
   </g>
   <g id="line2d_25">
    <path d="M 142.140496 363.174545 
L 142.140496 100.286509 
L 142.537068 98.498155 
L 142.537068 67.023125 
L 142.933641 66.665455 
L 464.950413 66.665455 
L 464.950413 66.665455 
" clip-path="url(#pca15fc0e97)" style="fill: none; stroke: #1f77b4; stroke-width: 1.5; stroke-linecap: square"/>
   </g>
   <g id="line2d_26">
    <path d="M 142.140496 363.174545 
L 142.537068 363.174545 
L 142.537068 361.743862 
L 142.933641 361.743862 
L 142.933641 359.240167 
L 143.330213 359.240167 
L 143.330213 358.882496 
L 143.726785 358.882496 
L 143.726785 357.809483 
L 144.123358 357.809483 
L 144.123358 356.3788 
L 144.51993 356.3788 
L 144.51993 355.305788 
L 144.916503 355.305788 
L 144.916503 349.940726 
L 145.313075 348.867714 
L 145.313075 347.794701 
L 145.709647 347.794701 
L 145.709647 347.43703 
L 146.10622 347.43703 
L 146.10622 336.349236 
L 146.502792 336.349236 
L 146.502792 335.276223 
L 146.899364 334.918552 
L 146.899364 333.487869 
L 147.295937 333.487869 
L 147.295937 328.838149 
L 147.692509 328.838149 
L 147.692509 327.407466 
L 148.089082 327.407466 
L 148.089082 326.334453 
L 148.485654 326.334453 
L 148.485654 313.100634 
L 148.882226 313.100634 
L 148.882226 310.239267 
L 149.278799 310.239267 
L 149.278799 308.450913 
L 150.071943 308.450913 
L 150.071943 306.304889 
L 150.468516 306.304889 
L 150.468516 305.589547 
L 151.261661 305.589547 
L 151.261661 302.37051 
L 151.658233 302.37051 
L 151.658233 299.866814 
L 152.054805 299.866814 
L 152.054805 298.07846 
L 152.451378 298.07846 
L 152.451378 294.144082 
L 152.84795 294.144082 
L 152.84795 290.925044 
L 153.244523 290.925044 
L 153.244523 290.209703 
L 154.037667 290.209703 
L 154.037667 288.77902 
L 154.43424 288.77902 
L 154.43424 285.917653 
L 154.830812 285.917653 
L 154.830812 283.056287 
L 155.623957 283.056287 
L 155.623957 280.19492 
L 156.020529 280.19492 
L 156.020529 276.260542 
L 156.417102 276.260542 
L 156.417102 274.829859 
L 156.813674 274.829859 
L 156.813674 272.326163 
L 158.003391 272.326163 
L 158.003391 270.537809 
L 158.399963 270.537809 
L 158.399963 270.180138 
L 158.796536 270.180138 
L 158.796536 269.822467 
L 159.193108 269.822467 
L 159.193108 266.961101 
L 159.589681 266.961101 
L 159.589681 266.245759 
L 159.986253 266.245759 
L 159.986253 261.596039 
L 160.382825 261.596039 
L 160.382825 258.734673 
L 160.779398 258.734673 
L 160.779398 258.377002 
L 161.17597 258.377002 
L 161.17597 258.019331 
L 161.572542 258.019331 
L 161.572542 256.946319 
L 161.969115 256.946319 
L 161.969115 256.230977 
L 162.365687 256.230977 
L 162.365687 254.442623 
L 162.76226 254.442623 
L 162.76226 254.084952 
L 163.158832 254.084952 
L 163.158832 252.296598 
L 163.951977 252.296598 
L 163.951977 251.223586 
L 164.348549 251.223586 
L 164.348549 247.289207 
L 164.745122 247.289207 
L 164.745122 245.143182 
L 165.538266 245.143182 
L 165.538266 244.785512 
L 165.934839 244.785512 
L 165.934839 244.07017 
L 166.331411 244.07017 
L 166.331411 242.997158 
L 166.727983 242.997158 
L 166.727983 234.770729 
L 167.124556 234.770729 
L 167.124556 234.413058 
L 167.521128 234.413058 
L 167.521128 231.551692 
L 167.917701 231.551692 
L 167.917701 225.471289 
L 168.314273 225.471289 
L 168.314273 218.675543 
L 168.710845 218.675543 
L 168.710845 215.814177 
L 169.107418 215.814177 
L 169.107418 213.668152 
L 169.50399 213.668152 
L 169.50399 212.237469 
L 169.900562 212.237469 
L 169.900562 211.164457 
L 170.297135 211.164457 
L 170.297135 210.091444 
L 171.486852 210.091444 
L 171.486852 207.945419 
L 171.883424 207.945419 
L 171.883424 205.441724 
L 172.279997 205.441724 
L 172.279997 204.368711 
L 172.676569 204.368711 
L 172.676569 200.076662 
L 173.469714 200.076662 
L 173.469714 198.645979 
L 174.262859 198.645979 
L 174.262859 198.288308 
L 174.659431 198.288308 
L 174.659431 197.572966 
L 175.056003 197.572966 
L 175.056003 197.215296 
L 175.452576 197.215296 
L 175.452576 193.280917 
L 176.245721 193.280917 
L 176.245721 192.923246 
L 177.435438 192.923246 
L 177.435438 192.207904 
L 177.83201 192.207904 
L 177.83201 190.06188 
L 178.228582 190.06188 
L 178.228582 188.988867 
L 178.625155 188.988867 
L 178.625155 185.054488 
L 179.021727 185.054488 
L 179.021727 184.696818 
L 179.4183 184.696818 
L 179.4183 181.47778 
L 179.814872 181.47778 
L 179.814872 178.616414 
L 180.608017 178.616414 
L 180.608017 177.543402 
L 181.004589 177.543402 
L 181.004589 176.112718 
L 181.401161 176.112718 
L 181.401161 175.397377 
L 181.797734 175.397377 
L 181.797734 175.039706 
L 182.194306 175.039706 
L 182.194306 173.251352 
L 183.384023 173.251352 
L 183.384023 172.17834 
L 183.780596 172.17834 
L 183.780596 171.820669 
L 184.177168 171.820669 
L 184.177168 169.674644 
L 184.573741 169.674644 
L 184.573741 168.601632 
L 185.366885 168.601632 
L 185.366885 167.88629 
L 185.763458 167.88629 
L 185.763458 165.382595 
L 186.16003 165.382595 
L 186.16003 165.024924 
L 186.953175 165.024924 
L 186.953175 163.594241 
L 187.349747 163.594241 
L 187.349747 162.521228 
L 187.74632 162.521228 
L 187.74632 162.163557 
L 188.142892 162.163557 
L 188.142892 161.448216 
L 188.936037 161.448216 
L 188.936037 159.659862 
L 189.332609 159.659862 
L 189.332609 159.302191 
L 190.125754 159.302191 
L 190.125754 158.586849 
L 190.522326 158.586849 
L 190.522326 157.513837 
L 191.315471 157.513837 
L 191.315471 157.156166 
L 191.712043 157.156166 
L 191.712043 155.010141 
L 192.505188 155.010141 
L 192.505188 153.937129 
L 192.901761 153.937129 
L 192.901761 153.579458 
L 193.694905 153.579458 
L 193.694905 152.864117 
L 194.091478 152.864117 
L 194.091478 151.791104 
L 194.48805 151.791104 
L 194.48805 150.360421 
L 195.281195 150.360421 
L 195.281195 148.572067 
L 196.07434 148.572067 
L 196.07434 148.214396 
L 197.264057 148.214396 
L 197.264057 147.141384 
L 198.057201 147.141384 
L 198.057201 146.783713 
L 198.453774 146.783713 
L 198.453774 146.068372 
L 198.850346 146.068372 
L 198.850346 145.710701 
L 199.643491 145.710701 
L 199.643491 143.207005 
L 200.040063 143.207005 
L 200.040063 141.06098 
L 200.436636 141.06098 
L 200.436636 138.557285 
L 200.833208 138.557285 
L 200.833208 138.199614 
L 201.626353 138.199614 
L 201.626353 137.126602 
L 202.022925 137.126602 
L 202.022925 136.768931 
L 202.419498 136.768931 
L 202.419498 134.265235 
L 202.81607 134.265235 
L 202.81607 133.549894 
L 203.212642 133.549894 
L 203.212642 132.476881 
L 203.609215 132.476881 
L 203.609215 130.688527 
L 204.005787 130.688527 
L 204.005787 129.973186 
L 204.40236 129.973186 
L 204.40236 129.615515 
L 205.195504 129.615515 
L 205.195504 126.038807 
L 206.385221 126.038807 
L 206.385221 125.323465 
L 206.781794 125.323465 
L 206.781794 123.892782 
L 207.574939 123.892782 
L 207.574939 122.81977 
L 208.368083 122.81977 
L 208.368083 122.104428 
L 208.764656 122.104428 
L 208.764656 120.673745 
L 209.161228 120.673745 
L 209.161228 119.243062 
L 210.747518 119.243062 
L 210.747518 118.885391 
L 211.14409 118.885391 
L 211.14409 118.52772 
L 211.937235 118.52772 
L 211.937235 118.170049 
L 212.333807 118.170049 
L 212.333807 117.454708 
L 213.126952 117.454708 
L 213.126952 117.097037 
L 215.109814 117.097037 
L 215.109814 115.666354 
L 215.902959 115.666354 
L 215.902959 114.951012 
L 216.299531 114.951012 
L 216.299531 114.593341 
L 216.696103 114.593341 
L 216.696103 113.162658 
L 217.092676 113.162658 
L 217.092676 112.447317 
L 217.88582 112.447317 
L 217.88582 111.374304 
L 218.282393 111.374304 
L 218.282393 111.016633 
L 218.678965 111.016633 
L 218.678965 110.301292 
L 220.265255 110.301292 
L 220.265255 109.943621 
L 220.661827 109.943621 
L 220.661827 109.228279 
L 221.851544 109.228279 
L 221.851544 108.155267 
L 222.248117 108.155267 
L 222.248117 106.366913 
L 223.437834 106.366913 
L 223.437834 106.009242 
L 223.834406 106.009242 
L 223.834406 105.651571 
L 225.817268 105.651571 
L 225.817268 105.293901 
L 226.610413 105.293901 
L 226.610413 104.93623 
L 227.006985 104.93623 
L 227.006985 103.863217 
L 227.80013 103.863217 
L 227.80013 103.505547 
L 228.989847 103.505547 
L 228.989847 103.147876 
L 229.782992 103.147876 
L 229.782992 102.790205 
L 230.179564 102.790205 
L 230.179564 102.432534 
L 230.576137 102.432534 
L 230.576137 102.074863 
L 231.369281 102.074863 
L 231.369281 101.717193 
L 231.765854 101.717193 
L 231.765854 101.359522 
L 232.955571 101.359522 
L 232.955571 101.001851 
L 233.352143 101.001851 
L 233.352143 100.64418 
L 233.748716 100.64418 
L 233.748716 100.286509 
L 234.145288 100.286509 
L 234.145288 99.571168 
L 234.54186 99.571168 
L 234.54186 99.213497 
L 234.938433 99.213497 
L 234.938433 98.498155 
L 235.731578 98.498155 
L 235.731578 98.140485 
L 238.111012 98.140485 
L 238.111012 97.425143 
L 239.300729 97.425143 
L 239.300729 97.067472 
L 240.490446 97.067472 
L 240.490446 95.99446 
L 240.887018 95.99446 
L 240.887018 94.563777 
L 241.680163 94.563777 
L 241.680163 94.206106 
L 242.473308 94.206106 
L 242.473308 93.848435 
L 243.266453 93.848435 
L 243.266453 93.133094 
L 244.45617 93.133094 
L 244.45617 91.70241 
L 244.852742 91.70241 
L 244.852742 91.34474 
L 246.042459 91.34474 
L 246.042459 90.987069 
L 248.421894 90.987069 
L 248.421894 90.629398 
L 248.818466 90.629398 
L 248.818466 90.271727 
L 249.215038 90.271727 
L 249.215038 89.914056 
L 250.801328 89.914056 
L 250.801328 89.556386 
L 251.1979 89.556386 
L 251.1979 89.198715 
L 251.594473 89.198715 
L 251.594473 88.125702 
L 257.939631 88.125702 
L 257.939631 87.768032 
L 259.52592 87.768032 
L 259.52592 87.410361 
L 261.11221 87.410361 
L 261.11221 86.695019 
L 261.508782 86.695019 
L 261.508782 86.337348 
L 269.043657 86.337348 
L 269.043657 85.979678 
L 269.44023 85.979678 
L 269.44023 85.264336 
L 271.423092 85.264336 
L 271.423092 84.906665 
L 272.216237 84.906665 
L 272.216237 84.548994 
L 273.009381 84.548994 
L 273.009381 84.191324 
L 273.405954 84.191324 
L 273.405954 83.833653 
L 274.595671 83.833653 
L 274.595671 83.475982 
L 274.992243 83.475982 
L 274.992243 83.118311 
L 277.371677 83.118311 
L 277.371677 82.76064 
L 278.164822 82.76064 
L 278.164822 82.045299 
L 287.682559 82.045299 
L 287.682559 81.687628 
L 289.665421 81.687628 
L 289.665421 81.329957 
L 290.855138 81.329957 
L 290.855138 80.972286 
L 299.976303 80.972286 
L 299.976303 80.614616 
L 300.372876 80.614616 
L 300.372876 80.256945 
L 303.942027 80.256945 
L 303.942027 79.899274 
L 306.321461 79.899274 
L 306.321461 79.183932 
L 307.511178 79.183932 
L 307.511178 78.826262 
L 314.649481 78.826262 
L 314.649481 78.11092 
L 317.82206 78.11092 
L 317.82206 77.753249 
L 323.770646 77.753249 
L 323.770646 77.395578 
L 324.563791 77.395578 
L 324.563791 77.037908 
L 326.15008 77.037908 
L 326.15008 76.680237 
L 328.529514 76.680237 
L 328.529514 76.322566 
L 331.702094 76.322566 
L 331.702094 75.964895 
L 333.288383 75.964895 
L 333.288383 75.607224 
L 337.650679 75.607224 
L 337.650679 75.249554 
L 340.030114 75.249554 
L 340.030114 74.534212 
L 340.823258 74.534212 
L 340.823258 73.81887 
L 341.219831 73.81887 
L 341.219831 73.4612 
L 342.80612 73.4612 
L 342.80612 72.745858 
L 345.978699 72.745858 
L 345.978699 72.388187 
L 347.961561 72.388187 
L 347.961561 72.030517 
L 351.530713 72.030517 
L 351.530713 71.315175 
L 353.117002 71.315175 
L 353.117002 70.957504 
L 362.238167 70.957504 
L 362.238167 70.599833 
L 365.807318 70.599833 
L 365.807318 70.242163 
L 367.393608 70.242163 
L 367.393608 69.884492 
L 370.169614 69.884492 
L 370.169614 69.526821 
L 390.791378 69.526821 
L 390.791378 69.16915 
L 392.77424 69.16915 
L 392.77424 68.811479 
L 402.291977 68.811479 
L 402.291977 68.453809 
L 404.671411 68.453809 
L 404.671411 68.096138 
L 450.673808 68.096138 
L 450.673808 67.738467 
L 455.432676 67.738467 
L 455.432676 67.380796 
L 460.984689 67.380796 
L 460.984689 67.023125 
L 463.364124 67.023125 
L 463.364124 66.665455 
L 464.950413 66.665455 
L 464.950413 66.665455 
" clip-path="url(#pca15fc0e97)" style="fill: none; stroke: #ff7f0e; stroke-width: 1.5; stroke-linecap: square"/>
   </g>
   <g id="line2d_27">
    <path d="M 142.140496 363.174545 
L 142.140496 331.341845 
L 142.537068 331.341845 
L 142.537068 324.90377 
L 142.933641 324.90377 
L 142.933641 309.881597 
L 143.330213 309.881597 
L 143.330213 305.231876 
L 143.726785 305.231876 
L 143.726785 304.874206 
L 144.123358 304.874206 
L 144.123358 298.07846 
L 144.51993 298.07846 
L 144.51993 290.925044 
L 144.916503 290.925044 
L 144.916503 287.348336 
L 145.313075 287.348336 
L 145.313075 286.632995 
L 145.709647 286.632995 
L 145.709647 281.267933 
L 146.502792 281.267933 
L 146.502792 272.683834 
L 146.899364 272.683834 
L 146.899364 260.880697 
L 147.295937 260.880697 
L 147.295937 257.303989 
L 147.692509 256.230977 
L 147.692509 252.654269 
L 148.089082 252.654269 
L 148.089082 248.004549 
L 148.485654 247.646878 
L 148.882226 247.646878 
L 148.882226 196.142283 
L 149.675371 196.142283 
L 149.675371 195.426942 
L 150.865088 195.426942 
L 150.865088 193.280917 
L 152.054805 193.280917 
L 152.054805 190.777221 
L 152.451378 190.777221 
L 152.451378 190.41955 
L 153.244523 190.41955 
L 153.244523 190.06188 
L 154.037667 190.06188 
L 154.037667 187.915855 
L 154.43424 187.915855 
L 154.43424 187.200513 
L 154.830812 187.200513 
L 154.830812 186.127501 
L 155.227384 186.127501 
L 155.227384 185.054488 
L 155.623957 185.054488 
L 155.623957 182.193122 
L 156.020529 182.193122 
L 156.020529 177.901072 
L 156.417102 177.901072 
L 156.417102 177.185731 
L 156.813674 177.185731 
L 156.813674 172.536011 
L 157.606819 172.536011 
L 157.606819 171.820669 
L 158.003391 171.820669 
L 158.003391 171.462998 
L 158.399963 171.462998 
L 158.399963 167.170949 
L 159.193108 167.170949 
L 159.193108 164.309582 
L 159.589681 164.309582 
L 159.589681 161.448216 
L 159.986253 161.448216 
L 159.986253 156.798495 
L 160.382825 156.798495 
L 160.382825 153.579458 
L 160.779398 153.579458 
L 160.779398 151.791104 
L 161.17597 151.791104 
L 161.17597 151.433433 
L 161.572542 151.433433 
L 161.572542 151.075763 
L 161.969115 151.075763 
L 161.969115 150.360421 
L 162.365687 150.360421 
L 162.365687 148.929738 
L 162.76226 148.929738 
L 162.76226 147.141384 
L 163.158832 147.141384 
L 163.158832 145.710701 
L 163.951977 145.710701 
L 163.951977 145.35303 
L 164.348549 145.35303 
L 164.348549 144.637688 
L 164.745122 144.637688 
L 164.745122 144.280018 
L 165.141694 144.280018 
L 165.141694 142.849334 
L 165.538266 142.849334 
L 165.538266 141.776322 
L 165.934839 141.776322 
L 165.934839 139.630297 
L 166.331411 139.630297 
L 166.331411 138.199614 
L 166.727983 138.199614 
L 166.727983 137.841943 
L 167.124556 137.841943 
L 167.124556 135.695918 
L 167.521128 135.695918 
L 167.521128 134.622906 
L 167.917701 134.622906 
L 167.917701 132.476881 
L 168.314273 132.476881 
L 168.314273 131.403869 
L 168.710845 131.403869 
L 168.710845 131.046198 
L 169.107418 131.046198 
L 169.107418 128.542502 
L 169.50399 128.542502 
L 169.50399 127.827161 
L 169.900562 127.827161 
L 169.900562 126.754148 
L 170.297135 126.754148 
L 170.297135 126.038807 
L 171.486852 126.038807 
L 171.486852 123.535111 
L 171.883424 123.535111 
L 171.883424 123.177441 
L 172.279997 123.177441 
L 172.279997 121.746757 
L 174.659431 121.746757 
L 174.659431 121.389087 
L 175.056003 121.389087 
L 175.056003 119.958403 
L 175.452576 119.958403 
L 175.452576 119.243062 
L 175.849148 119.243062 
L 175.849148 118.170049 
L 177.038865 118.170049 
L 177.038865 117.812379 
L 177.435438 117.812379 
L 177.435438 114.593341 
L 178.228582 114.593341 
L 178.228582 112.447317 
L 178.625155 112.447317 
L 178.625155 111.731975 
L 180.211444 111.731975 
L 180.211444 111.374304 
L 180.608017 111.374304 
L 180.608017 109.58595 
L 181.797734 109.58595 
L 181.797734 109.228279 
L 182.194306 109.228279 
L 182.194306 107.439925 
L 182.590879 107.439925 
L 182.590879 107.082255 
L 182.987451 107.082255 
L 182.987451 106.724584 
L 183.384023 106.724584 
L 183.384023 105.293901 
L 183.780596 105.293901 
L 183.780596 104.93623 
L 184.177168 104.93623 
L 184.177168 104.578559 
L 184.573741 104.578559 
L 184.573741 103.863217 
L 184.970313 103.863217 
L 184.970313 102.790205 
L 185.763458 102.790205 
L 185.763458 100.64418 
L 186.16003 100.64418 
L 186.16003 99.928839 
L 186.953175 99.928839 
L 186.953175 98.855826 
L 187.349747 98.855826 
L 187.349747 97.782814 
L 187.74632 97.782814 
L 187.74632 97.067472 
L 188.539464 97.067472 
L 188.539464 96.352131 
L 190.125754 96.352131 
L 190.125754 95.99446 
L 190.522326 95.99446 
L 190.522326 95.636789 
L 191.315471 95.636789 
L 191.315471 95.279118 
L 192.108616 95.279118 
L 192.108616 94.563777 
L 194.48805 94.563777 
L 194.48805 92.417752 
L 194.884622 92.417752 
L 194.884622 91.34474 
L 197.660629 91.34474 
L 197.660629 89.198715 
L 198.057201 89.198715 
L 198.057201 88.841044 
L 199.246919 88.841044 
L 199.246919 88.483373 
L 200.436636 88.483373 
L 200.436636 88.125702 
L 200.833208 88.125702 
L 200.833208 87.768032 
L 201.626353 87.768032 
L 201.626353 87.410361 
L 202.022925 87.410361 
L 202.022925 87.05269 
L 202.419498 87.05269 
L 202.419498 86.695019 
L 202.81607 86.695019 
L 202.81607 86.337348 
L 203.212642 86.337348 
L 203.212642 84.548994 
L 204.40236 84.548994 
L 204.40236 84.191324 
L 205.195504 84.191324 
L 205.195504 83.475982 
L 210.747518 79.899274 
L 213.126952 79.899274 
L 213.126952 79.183932 
L 214.713241 79.183932 
L 214.713241 78.826262 
L 215.902959 78.826262 
L 215.902959 78.468591 
L 226.21384 78.468591 
L 226.21384 78.11092 
L 228.196702 78.11092 
L 228.196702 77.753249 
L 228.593275 77.753249 
L 228.593275 77.395578 
L 230.179564 77.395578 
L 230.179564 77.037908 
L 232.955571 77.037908 
L 232.955571 76.322566 
L 233.352143 76.322566 
L 233.352143 75.964895 
L 233.748716 75.964895 
L 233.748716 75.607224 
L 234.145288 75.607224 
L 234.145288 75.249554 
L 235.731578 75.249554 
L 235.731578 74.891883 
L 237.714439 74.891883 
L 237.714439 74.534212 
L 239.300729 74.534212 
L 239.300729 74.176541 
L 239.697301 74.176541 
L 239.697301 73.81887 
L 242.076736 73.81887 
L 242.076736 73.4612 
L 243.266453 73.4612 
L 243.266453 73.103529 
L 244.45617 73.103529 
L 244.45617 72.745858 
L 245.249315 72.745858 
L 245.249315 72.388187 
L 246.042459 72.388187 
L 246.042459 72.030517 
L 255.163624 72.030517 
L 255.163624 71.672846 
L 255.560197 71.672846 
L 255.560197 70.957504 
L 259.922493 70.957504 
L 259.922493 70.599833 
L 261.508782 70.599833 
L 261.508782 70.242163 
L 269.043657 70.242163 
L 269.043657 69.884492 
L 271.819664 69.884492 
L 271.819664 69.526821 
L 274.199098 69.526821 
L 274.199098 69.16915 
L 282.527118 69.16915 
L 282.527118 68.811479 
L 282.923691 68.811479 
L 282.923691 68.453809 
L 286.492842 68.453809 
L 286.492842 68.096138 
L 357.479298 68.096138 
L 357.479298 67.738467 
L 359.858733 67.738467 
L 359.858733 67.380796 
L 375.325055 67.380796 
L 375.325055 67.023125 
L 395.946819 67.023125 
L 395.946819 66.665455 
L 464.950413 66.665455 
L 464.950413 66.665455 
" clip-path="url(#pca15fc0e97)" style="fill: none; stroke: #2ca02c; stroke-width: 1.5; stroke-linecap: square"/>
   </g>
   <g id="line2d_28">
    <path d="M 142.140496 363.174545 
L 142.140496 362.816875 
L 142.140496 362.459204 
L 142.140496 361.743862 
L 142.140496 359.955508 
L 142.140496 359.240167 
L 142.140496 358.882496 
L 142.140496 358.167154 
L 142.140496 357.451813 
L 142.140496 356.736471 
L 142.140496 352.802092 
L 142.140496 352.086751 
L 142.140496 351.013738 
L 142.140496 350.298397 
L 142.140496 348.152372 
L 142.140496 337.422248 
L 142.140496 335.276223 
L 142.140496 334.918552 
L 142.140496 334.203211 
L 142.140496 328.838149 
L 142.140496 328.122807 
L 142.140496 326.692124 
L 142.140496 325.976783 
L 142.140496 315.962 
L 142.140496 314.888988 
L 142.140496 308.450913 
L 142.140496 307.735572 
L 142.140496 305.231876 
L 142.140496 304.516535 
L 142.140496 297.72079 
L 142.140496 297.005448 
L 142.140496 296.290106 
L 142.140496 295.217094 
L 142.140496 291.282715 
L 142.140496 290.567374 
L 142.140496 286.275324 
L 142.140496 285.559982 
L 142.140496 284.129299 
L 142.140496 283.413958 
L 142.140496 277.333554 
L 142.140496 276.618213 
L 142.140496 275.902871 
L 142.140496 275.187529 
L 142.140496 269.464797 
L 142.140496 268.391784 
L 142.140496 260.880697 
L 142.140496 260.165356 
L 142.140496 259.092343 
L 142.140496 258.019331 
L 142.140496 251.938928 
L 142.140496 250.865915 
L 142.140496 247.646878 
L 142.140496 246.573866 
L 142.140496 245.500853 
L 142.140496 244.07017 
L 142.140496 233.340046 
L 142.140496 232.624704 
L 142.140496 218.675543 
L 142.140496 217.960202 
L 142.140496 215.814177 
L 142.140496 215.098835 
L 142.140496 195.069271 
L 142.140496 194.353929 
L 142.140496 185.412159 
L 142.140496 184.696818 
L 142.140496 182.908464 
L 142.140496 182.193122 
L 142.140496 171.105327 
L 142.140496 170.389986 
L 142.140496 168.243961 
L 142.140496 167.170949 
L 142.140496 156.440825 
L 142.140496 155.725483 
L 142.140496 146.068372 
L 142.140496 145.35303 
L 142.140496 68.453809 
L 142.537068 67.023125 
L 142.933641 66.665455 
L 196.867484 66.665455 
L 197.660629 66.665455 
L 218.282393 66.665455 
L 219.075538 66.665455 
L 230.576137 66.665455 
L 231.369281 66.665455 
L 258.336203 66.665455 
L 259.129348 66.665455 
L 363.427884 66.665455 
L 364.617601 66.665455 
L 464.950413 66.665455 
" clip-path="url(#pca15fc0e97)" style="fill: none; stroke: #d62728; stroke-width: 1.5; stroke-linecap: square"/>
   </g>
   <g id="patch_3">
    <path d="M 126 378 
L 126 51.84 
" style="fill: none; stroke: #000000; stroke-width: 0.8; stroke-linejoin: miter; stroke-linecap: square"/>
   </g>
   <g id="patch_4">
    <path d="M 481.090909 378 
L 481.090909 51.84 
" style="fill: none; stroke: #000000; stroke-width: 0.8; stroke-linejoin: miter; stroke-linecap: square"/>
   </g>
   <g id="patch_5">
    <path d="M 126 378 
L 481.090909 378 
" style="fill: none; stroke: #000000; stroke-width: 0.8; stroke-linejoin: miter; stroke-linecap: square"/>
   </g>
   <g id="patch_6">
    <path d="M 126 51.84 
L 481.090909 51.84 
" style="fill: none; stroke: #000000; stroke-width: 0.8; stroke-linejoin: miter; stroke-linecap: square"/>
   </g>
   <g id="text_15">
    <!-- Curvas ROC en el entrenamiento  -->
    <g transform="translate(202.885142 45.84) scale(0.12 -0.12)">
     <defs>
      <path id="DejaVuSans-43" d="M 4122 4306 
L 4122 3641 
Q 3803 3938 3442 4084 
Q 3081 4231 2675 4231 
Q 1875 4231 1450 3742 
Q 1025 3253 1025 2328 
Q 1025 1406 1450 917 
Q 1875 428 2675 428 
Q 3081 428 3442 575 
Q 3803 722 4122 1019 
L 4122 359 
Q 3791 134 3420 21 
Q 3050 -91 2638 -91 
Q 1578 -91 968 557 
Q 359 1206 359 2328 
Q 359 3453 968 4101 
Q 1578 4750 2638 4750 
Q 3056 4750 3426 4639 
Q 3797 4528 4122 4306 
z
" transform="scale(0.015625)"/>
      <path id="DejaVuSans-4f" d="M 2522 4238 
Q 1834 4238 1429 3725 
Q 1025 3213 1025 2328 
Q 1025 1447 1429 934 
Q 1834 422 2522 422 
Q 3209 422 3611 934 
Q 4013 1447 4013 2328 
Q 4013 3213 3611 3725 
Q 3209 4238 2522 4238 
z
M 2522 4750 
Q 3503 4750 4090 4092 
Q 4678 3434 4678 2328 
Q 4678 1225 4090 567 
Q 3503 -91 2522 -91 
Q 1538 -91 948 565 
Q 359 1222 359 2328 
Q 359 3434 948 4092 
Q 1538 4750 2522 4750 
z
" transform="scale(0.015625)"/>
      <path id="DejaVuSans-6e" d="M 3513 2113 
L 3513 0 
L 2938 0 
L 2938 2094 
Q 2938 2591 2744 2837 
Q 2550 3084 2163 3084 
Q 1697 3084 1428 2787 
Q 1159 2491 1159 1978 
L 1159 0 
L 581 0 
L 581 3500 
L 1159 3500 
L 1159 2956 
Q 1366 3272 1645 3428 
Q 1925 3584 2291 3584 
Q 2894 3584 3203 3211 
Q 3513 2838 3513 2113 
z
" transform="scale(0.015625)"/>
      <path id="DejaVuSans-6d" d="M 3328 2828 
Q 3544 3216 3844 3400 
Q 4144 3584 4550 3584 
Q 5097 3584 5394 3201 
Q 5691 2819 5691 2113 
L 5691 0 
L 5113 0 
L 5113 2094 
Q 5113 2597 4934 2840 
Q 4756 3084 4391 3084 
Q 3944 3084 3684 2787 
Q 3425 2491 3425 1978 
L 3425 0 
L 2847 0 
L 2847 2094 
Q 2847 2600 2669 2842 
Q 2491 3084 2119 3084 
Q 1678 3084 1418 2786 
Q 1159 2488 1159 1978 
L 1159 0 
L 581 0 
L 581 3500 
L 1159 3500 
L 1159 2956 
Q 1356 3278 1631 3431 
Q 1906 3584 2284 3584 
Q 2666 3584 2933 3390 
Q 3200 3197 3328 2828 
z
" transform="scale(0.015625)"/>
     </defs>
     <use xlink:href="#DejaVuSans-43"/>
     <use xlink:href="#DejaVuSans-75" x="69.824219"/>
     <use xlink:href="#DejaVuSans-72" x="133.203125"/>
     <use xlink:href="#DejaVuSans-76" x="174.316406"/>
     <use xlink:href="#DejaVuSans-61" x="233.496094"/>
     <use xlink:href="#DejaVuSans-73" x="294.775391"/>
     <use xlink:href="#DejaVuSans-20" x="346.875"/>
     <use xlink:href="#DejaVuSans-52" x="378.662109"/>
     <use xlink:href="#DejaVuSans-4f" x="448.144531"/>
     <use xlink:href="#DejaVuSans-43" x="526.855469"/>
     <use xlink:href="#DejaVuSans-20" x="596.679688"/>
     <use xlink:href="#DejaVuSans-65" x="628.466797"/>
     <use xlink:href="#DejaVuSans-6e" x="689.990234"/>
     <use xlink:href="#DejaVuSans-20" x="753.369141"/>
     <use xlink:href="#DejaVuSans-65" x="785.15625"/>
     <use xlink:href="#DejaVuSans-6c" x="846.679688"/>
     <use xlink:href="#DejaVuSans-20" x="874.462891"/>
     <use xlink:href="#DejaVuSans-65" x="906.25"/>
     <use xlink:href="#DejaVuSans-6e" x="967.773438"/>
     <use xlink:href="#DejaVuSans-74" x="1031.152344"/>
     <use xlink:href="#DejaVuSans-72" x="1070.361328"/>
     <use xlink:href="#DejaVuSans-65" x="1109.224609"/>
     <use xlink:href="#DejaVuSans-6e" x="1170.748047"/>
     <use xlink:href="#DejaVuSans-61" x="1234.126953"/>
     <use xlink:href="#DejaVuSans-6d" x="1295.40625"/>
     <use xlink:href="#DejaVuSans-69" x="1392.818359"/>
     <use xlink:href="#DejaVuSans-65" x="1420.601562"/>
     <use xlink:href="#DejaVuSans-6e" x="1482.125"/>
     <use xlink:href="#DejaVuSans-74" x="1545.503906"/>
     <use xlink:href="#DejaVuSans-6f" x="1584.712891"/>
     <use xlink:href="#DejaVuSans-20" x="1645.894531"/>
    </g>
   </g>
   <g id="legend_1">
    <g id="patch_7">
     <path d="M 240.100284 373 
L 474.090909 373 
Q 476.090909 373 476.090909 371 
L 476.090909 313.2875 
Q 476.090909 311.2875 474.090909 311.2875 
L 240.100284 311.2875 
Q 238.100284 311.2875 238.100284 313.2875 
L 238.100284 371 
Q 238.100284 373 240.100284 373 
z
" style="fill: #ffffff; opacity: 0.8; stroke: #cccccc; stroke-linejoin: miter"/>
    </g>
    <g id="line2d_29">
     <path d="M 242.100284 319.385938 
L 252.100284 319.385938 
L 262.100284 319.385938 
" style="fill: none; stroke: #1f77b4; stroke-width: 1.5; stroke-linecap: square"/>
    </g>
    <g id="text_16">
     <!-- RandomForestClassifier (AUC = 1.00) -->
     <g transform="translate(270.100284 322.885938) scale(0.1 -0.1)">
      <defs>
       <path id="DejaVuSans-64" d="M 2906 2969 
L 2906 4863 
L 3481 4863 
L 3481 0 
L 2906 0 
L 2906 525 
Q 2725 213 2448 61 
Q 2172 -91 1784 -91 
Q 1150 -91 751 415 
Q 353 922 353 1747 
Q 353 2572 751 3078 
Q 1150 3584 1784 3584 
Q 2172 3584 2448 3432 
Q 2725 3281 2906 2969 
z
M 947 1747 
Q 947 1113 1208 752 
Q 1469 391 1925 391 
Q 2381 391 2643 752 
Q 2906 1113 2906 1747 
Q 2906 2381 2643 2742 
Q 2381 3103 1925 3103 
Q 1469 3103 1208 2742 
Q 947 2381 947 1747 
z
" transform="scale(0.015625)"/>
       <path id="DejaVuSans-66" d="M 2375 4863 
L 2375 4384 
L 1825 4384 
Q 1516 4384 1395 4259 
Q 1275 4134 1275 3809 
L 1275 3500 
L 2222 3500 
L 2222 3053 
L 1275 3053 
L 1275 0 
L 697 0 
L 697 3053 
L 147 3053 
L 147 3500 
L 697 3500 
L 697 3744 
Q 697 4328 969 4595 
Q 1241 4863 1831 4863 
L 2375 4863 
z
" transform="scale(0.015625)"/>
       <path id="DejaVuSans-41" d="M 2188 4044 
L 1331 1722 
L 3047 1722 
L 2188 4044 
z
M 1831 4666 
L 2547 4666 
L 4325 0 
L 3669 0 
L 3244 1197 
L 1141 1197 
L 716 0 
L 50 0 
L 1831 4666 
z
" transform="scale(0.015625)"/>
       <path id="DejaVuSans-55" d="M 556 4666 
L 1191 4666 
L 1191 1831 
Q 1191 1081 1462 751 
Q 1734 422 2344 422 
Q 2950 422 3222 751 
Q 3494 1081 3494 1831 
L 3494 4666 
L 4128 4666 
L 4128 1753 
Q 4128 841 3676 375 
Q 3225 -91 2344 -91 
Q 1459 -91 1007 375 
Q 556 841 556 1753 
L 556 4666 
z
" transform="scale(0.015625)"/>
       <path id="DejaVuSans-3d" d="M 678 2906 
L 4684 2906 
L 4684 2381 
L 678 2381 
L 678 2906 
z
M 678 1631 
L 4684 1631 
L 4684 1100 
L 678 1100 
L 678 1631 
z
" transform="scale(0.015625)"/>
      </defs>
      <use xlink:href="#DejaVuSans-52"/>
      <use xlink:href="#DejaVuSans-61" x="67.232422"/>
      <use xlink:href="#DejaVuSans-6e" x="128.511719"/>
      <use xlink:href="#DejaVuSans-64" x="191.890625"/>
      <use xlink:href="#DejaVuSans-6f" x="255.367188"/>
      <use xlink:href="#DejaVuSans-6d" x="316.548828"/>
      <use xlink:href="#DejaVuSans-46" x="413.960938"/>
      <use xlink:href="#DejaVuSans-6f" x="467.855469"/>
      <use xlink:href="#DejaVuSans-72" x="529.037109"/>
      <use xlink:href="#DejaVuSans-65" x="567.900391"/>
      <use xlink:href="#DejaVuSans-73" x="629.423828"/>
      <use xlink:href="#DejaVuSans-74" x="681.523438"/>
      <use xlink:href="#DejaVuSans-43" x="720.732422"/>
      <use xlink:href="#DejaVuSans-6c" x="790.556641"/>
      <use xlink:href="#DejaVuSans-61" x="818.339844"/>
      <use xlink:href="#DejaVuSans-73" x="879.619141"/>
      <use xlink:href="#DejaVuSans-73" x="931.71875"/>
      <use xlink:href="#DejaVuSans-69" x="983.818359"/>
      <use xlink:href="#DejaVuSans-66" x="1011.601562"/>
      <use xlink:href="#DejaVuSans-69" x="1046.806641"/>
      <use xlink:href="#DejaVuSans-65" x="1074.589844"/>
      <use xlink:href="#DejaVuSans-72" x="1136.113281"/>
      <use xlink:href="#DejaVuSans-20" x="1177.226562"/>
      <use xlink:href="#DejaVuSans-28" x="1209.013672"/>
      <use xlink:href="#DejaVuSans-41" x="1248.027344"/>
      <use xlink:href="#DejaVuSans-55" x="1316.435547"/>
      <use xlink:href="#DejaVuSans-43" x="1389.628906"/>
      <use xlink:href="#DejaVuSans-20" x="1459.453125"/>
      <use xlink:href="#DejaVuSans-3d" x="1491.240234"/>
      <use xlink:href="#DejaVuSans-20" x="1575.029297"/>
      <use xlink:href="#DejaVuSans-31" x="1606.816406"/>
      <use xlink:href="#DejaVuSans-2e" x="1670.439453"/>
      <use xlink:href="#DejaVuSans-30" x="1702.226562"/>
      <use xlink:href="#DejaVuSans-30" x="1765.849609"/>
      <use xlink:href="#DejaVuSans-29" x="1829.472656"/>
     </g>
    </g>
    <g id="line2d_30">
     <path d="M 242.100284 334.064062 
L 252.100284 334.064062 
L 262.100284 334.064062 
" style="fill: none; stroke: #ff7f0e; stroke-width: 1.5; stroke-linecap: square"/>
    </g>
    <g id="text_17">
     <!-- LogisticRegression (AUC = 0.86) -->
     <g transform="translate(270.100284 337.564062) scale(0.1 -0.1)">
      <defs>
       <path id="DejaVuSans-4c" d="M 628 4666 
L 1259 4666 
L 1259 531 
L 3531 531 
L 3531 0 
L 628 0 
L 628 4666 
z
" transform="scale(0.015625)"/>
       <path id="DejaVuSans-67" d="M 2906 1791 
Q 2906 2416 2648 2759 
Q 2391 3103 1925 3103 
Q 1463 3103 1205 2759 
Q 947 2416 947 1791 
Q 947 1169 1205 825 
Q 1463 481 1925 481 
Q 2391 481 2648 825 
Q 2906 1169 2906 1791 
z
M 3481 434 
Q 3481 -459 3084 -895 
Q 2688 -1331 1869 -1331 
Q 1566 -1331 1297 -1286 
Q 1028 -1241 775 -1147 
L 775 -588 
Q 1028 -725 1275 -790 
Q 1522 -856 1778 -856 
Q 2344 -856 2625 -561 
Q 2906 -266 2906 331 
L 2906 616 
Q 2728 306 2450 153 
Q 2172 0 1784 0 
Q 1141 0 747 490 
Q 353 981 353 1791 
Q 353 2603 747 3093 
Q 1141 3584 1784 3584 
Q 2172 3584 2450 3431 
Q 2728 3278 2906 2969 
L 2906 3500 
L 3481 3500 
L 3481 434 
z
" transform="scale(0.015625)"/>
       <path id="DejaVuSans-63" d="M 3122 3366 
L 3122 2828 
Q 2878 2963 2633 3030 
Q 2388 3097 2138 3097 
Q 1578 3097 1268 2742 
Q 959 2388 959 1747 
Q 959 1106 1268 751 
Q 1578 397 2138 397 
Q 2388 397 2633 464 
Q 2878 531 3122 666 
L 3122 134 
Q 2881 22 2623 -34 
Q 2366 -91 2075 -91 
Q 1284 -91 818 406 
Q 353 903 353 1747 
Q 353 2603 823 3093 
Q 1294 3584 2113 3584 
Q 2378 3584 2631 3529 
Q 2884 3475 3122 3366 
z
" transform="scale(0.015625)"/>
      </defs>
      <use xlink:href="#DejaVuSans-4c"/>
      <use xlink:href="#DejaVuSans-6f" x="53.962891"/>
      <use xlink:href="#DejaVuSans-67" x="115.144531"/>
      <use xlink:href="#DejaVuSans-69" x="178.621094"/>
      <use xlink:href="#DejaVuSans-73" x="206.404297"/>
      <use xlink:href="#DejaVuSans-74" x="258.503906"/>
      <use xlink:href="#DejaVuSans-69" x="297.712891"/>
      <use xlink:href="#DejaVuSans-63" x="325.496094"/>
      <use xlink:href="#DejaVuSans-52" x="380.476562"/>
      <use xlink:href="#DejaVuSans-65" x="445.458984"/>
      <use xlink:href="#DejaVuSans-67" x="506.982422"/>
      <use xlink:href="#DejaVuSans-72" x="570.458984"/>
      <use xlink:href="#DejaVuSans-65" x="609.322266"/>
      <use xlink:href="#DejaVuSans-73" x="670.845703"/>
      <use xlink:href="#DejaVuSans-73" x="722.945312"/>
      <use xlink:href="#DejaVuSans-69" x="775.044922"/>
      <use xlink:href="#DejaVuSans-6f" x="802.828125"/>
      <use xlink:href="#DejaVuSans-6e" x="864.009766"/>
      <use xlink:href="#DejaVuSans-20" x="927.388672"/>
      <use xlink:href="#DejaVuSans-28" x="959.175781"/>
      <use xlink:href="#DejaVuSans-41" x="998.189453"/>
      <use xlink:href="#DejaVuSans-55" x="1066.597656"/>
      <use xlink:href="#DejaVuSans-43" x="1139.791016"/>
      <use xlink:href="#DejaVuSans-20" x="1209.615234"/>
      <use xlink:href="#DejaVuSans-3d" x="1241.402344"/>
      <use xlink:href="#DejaVuSans-20" x="1325.191406"/>
      <use xlink:href="#DejaVuSans-30" x="1356.978516"/>
      <use xlink:href="#DejaVuSans-2e" x="1420.601562"/>
      <use xlink:href="#DejaVuSans-38" x="1452.388672"/>
      <use xlink:href="#DejaVuSans-36" x="1516.011719"/>
      <use xlink:href="#DejaVuSans-29" x="1579.634766"/>
     </g>
    </g>
    <g id="line2d_31">
     <path d="M 242.100284 348.742188 
L 252.100284 348.742188 
L 262.100284 348.742188 
" style="fill: none; stroke: #2ca02c; stroke-width: 1.5; stroke-linecap: square"/>
    </g>
    <g id="text_18">
     <!-- SVC (AUC = 0.94) -->
     <g transform="translate(270.100284 352.242188) scale(0.1 -0.1)">
      <defs>
       <path id="DejaVuSans-53" d="M 3425 4513 
L 3425 3897 
Q 3066 4069 2747 4153 
Q 2428 4238 2131 4238 
Q 1616 4238 1336 4038 
Q 1056 3838 1056 3469 
Q 1056 3159 1242 3001 
Q 1428 2844 1947 2747 
L 2328 2669 
Q 3034 2534 3370 2195 
Q 3706 1856 3706 1288 
Q 3706 609 3251 259 
Q 2797 -91 1919 -91 
Q 1588 -91 1214 -16 
Q 841 59 441 206 
L 441 856 
Q 825 641 1194 531 
Q 1563 422 1919 422 
Q 2459 422 2753 634 
Q 3047 847 3047 1241 
Q 3047 1584 2836 1778 
Q 2625 1972 2144 2069 
L 1759 2144 
Q 1053 2284 737 2584 
Q 422 2884 422 3419 
Q 422 4038 858 4394 
Q 1294 4750 2059 4750 
Q 2388 4750 2728 4690 
Q 3069 4631 3425 4513 
z
" transform="scale(0.015625)"/>
       <path id="DejaVuSans-56" d="M 1831 0 
L 50 4666 
L 709 4666 
L 2188 738 
L 3669 4666 
L 4325 4666 
L 2547 0 
L 1831 0 
z
" transform="scale(0.015625)"/>
       <path id="DejaVuSans-39" d="M 703 97 
L 703 672 
Q 941 559 1184 500 
Q 1428 441 1663 441 
Q 2288 441 2617 861 
Q 2947 1281 2994 2138 
Q 2813 1869 2534 1725 
Q 2256 1581 1919 1581 
Q 1219 1581 811 2004 
Q 403 2428 403 3163 
Q 403 3881 828 4315 
Q 1253 4750 1959 4750 
Q 2769 4750 3195 4129 
Q 3622 3509 3622 2328 
Q 3622 1225 3098 567 
Q 2575 -91 1691 -91 
Q 1453 -91 1209 -44 
Q 966 3 703 97 
z
M 1959 2075 
Q 2384 2075 2632 2365 
Q 2881 2656 2881 3163 
Q 2881 3666 2632 3958 
Q 2384 4250 1959 4250 
Q 1534 4250 1286 3958 
Q 1038 3666 1038 3163 
Q 1038 2656 1286 2365 
Q 1534 2075 1959 2075 
z
" transform="scale(0.015625)"/>
      </defs>
      <use xlink:href="#DejaVuSans-53"/>
      <use xlink:href="#DejaVuSans-56" x="63.476562"/>
      <use xlink:href="#DejaVuSans-43" x="131.884766"/>
      <use xlink:href="#DejaVuSans-20" x="201.708984"/>
      <use xlink:href="#DejaVuSans-28" x="233.496094"/>
      <use xlink:href="#DejaVuSans-41" x="272.509766"/>
      <use xlink:href="#DejaVuSans-55" x="340.917969"/>
      <use xlink:href="#DejaVuSans-43" x="414.111328"/>
      <use xlink:href="#DejaVuSans-20" x="483.935547"/>
      <use xlink:href="#DejaVuSans-3d" x="515.722656"/>
      <use xlink:href="#DejaVuSans-20" x="599.511719"/>
      <use xlink:href="#DejaVuSans-30" x="631.298828"/>
      <use xlink:href="#DejaVuSans-2e" x="694.921875"/>
      <use xlink:href="#DejaVuSans-39" x="726.708984"/>
      <use xlink:href="#DejaVuSans-34" x="790.332031"/>
      <use xlink:href="#DejaVuSans-29" x="853.955078"/>
     </g>
    </g>
    <g id="line2d_32">
     <path d="M 242.100284 363.420313 
L 252.100284 363.420313 
L 262.100284 363.420313 
" style="fill: none; stroke: #d62728; stroke-width: 1.5; stroke-linecap: square"/>
    </g>
    <g id="text_19">
     <!-- GradientBoostingClassifier (AUC = 1.00) -->
     <g transform="translate(270.100284 366.920313) scale(0.1 -0.1)">
      <defs>
       <path id="DejaVuSans-47" d="M 3809 666 
L 3809 1919 
L 2778 1919 
L 2778 2438 
L 4434 2438 
L 4434 434 
Q 4069 175 3628 42 
Q 3188 -91 2688 -91 
Q 1594 -91 976 548 
Q 359 1188 359 2328 
Q 359 3472 976 4111 
Q 1594 4750 2688 4750 
Q 3144 4750 3555 4637 
Q 3966 4525 4313 4306 
L 4313 3634 
Q 3963 3931 3569 4081 
Q 3175 4231 2741 4231 
Q 1884 4231 1454 3753 
Q 1025 3275 1025 2328 
Q 1025 1384 1454 906 
Q 1884 428 2741 428 
Q 3075 428 3337 486 
Q 3600 544 3809 666 
z
" transform="scale(0.015625)"/>
       <path id="DejaVuSans-42" d="M 1259 2228 
L 1259 519 
L 2272 519 
Q 2781 519 3026 730 
Q 3272 941 3272 1375 
Q 3272 1813 3026 2020 
Q 2781 2228 2272 2228 
L 1259 2228 
z
M 1259 4147 
L 1259 2741 
L 2194 2741 
Q 2656 2741 2882 2914 
Q 3109 3088 3109 3444 
Q 3109 3797 2882 3972 
Q 2656 4147 2194 4147 
L 1259 4147 
z
M 628 4666 
L 2241 4666 
Q 2963 4666 3353 4366 
Q 3744 4066 3744 3513 
Q 3744 3084 3544 2831 
Q 3344 2578 2956 2516 
Q 3422 2416 3680 2098 
Q 3938 1781 3938 1306 
Q 3938 681 3513 340 
Q 3088 0 2303 0 
L 628 0 
L 628 4666 
z
" transform="scale(0.015625)"/>
      </defs>
      <use xlink:href="#DejaVuSans-47"/>
      <use xlink:href="#DejaVuSans-72" x="77.490234"/>
      <use xlink:href="#DejaVuSans-61" x="118.603516"/>
      <use xlink:href="#DejaVuSans-64" x="179.882812"/>
      <use xlink:href="#DejaVuSans-69" x="243.359375"/>
      <use xlink:href="#DejaVuSans-65" x="271.142578"/>
      <use xlink:href="#DejaVuSans-6e" x="332.666016"/>
      <use xlink:href="#DejaVuSans-74" x="396.044922"/>
      <use xlink:href="#DejaVuSans-42" x="435.253906"/>
      <use xlink:href="#DejaVuSans-6f" x="503.857422"/>
      <use xlink:href="#DejaVuSans-6f" x="565.039062"/>
      <use xlink:href="#DejaVuSans-73" x="626.220703"/>
      <use xlink:href="#DejaVuSans-74" x="678.320312"/>
      <use xlink:href="#DejaVuSans-69" x="717.529297"/>
      <use xlink:href="#DejaVuSans-6e" x="745.3125"/>
      <use xlink:href="#DejaVuSans-67" x="808.691406"/>
      <use xlink:href="#DejaVuSans-43" x="872.167969"/>
      <use xlink:href="#DejaVuSans-6c" x="941.992188"/>
      <use xlink:href="#DejaVuSans-61" x="969.775391"/>
      <use xlink:href="#DejaVuSans-73" x="1031.054688"/>
      <use xlink:href="#DejaVuSans-73" x="1083.154297"/>
      <use xlink:href="#DejaVuSans-69" x="1135.253906"/>
      <use xlink:href="#DejaVuSans-66" x="1163.037109"/>
      <use xlink:href="#DejaVuSans-69" x="1198.242188"/>
      <use xlink:href="#DejaVuSans-65" x="1226.025391"/>
      <use xlink:href="#DejaVuSans-72" x="1287.548828"/>
      <use xlink:href="#DejaVuSans-20" x="1328.662109"/>
      <use xlink:href="#DejaVuSans-28" x="1360.449219"/>
      <use xlink:href="#DejaVuSans-41" x="1399.462891"/>
      <use xlink:href="#DejaVuSans-55" x="1467.871094"/>
      <use xlink:href="#DejaVuSans-43" x="1541.064453"/>
      <use xlink:href="#DejaVuSans-20" x="1610.888672"/>
      <use xlink:href="#DejaVuSans-3d" x="1642.675781"/>
      <use xlink:href="#DejaVuSans-20" x="1726.464844"/>
      <use xlink:href="#DejaVuSans-31" x="1758.251953"/>
      <use xlink:href="#DejaVuSans-2e" x="1821.875"/>
      <use xlink:href="#DejaVuSans-30" x="1853.662109"/>
      <use xlink:href="#DejaVuSans-30" x="1917.285156"/>
      <use xlink:href="#DejaVuSans-29" x="1980.908203"/>
     </g>
    </g>
   </g>
  </g>
  <g id="axes_2">
   <g id="patch_8">
    <path d="M 552.109091 378 
L 907.2 378 
L 907.2 51.84 
L 552.109091 51.84 
z
" style="fill: #ffffff"/>
   </g>
   <g id="matplotlib.axis_3">
    <g id="xtick_7">
     <g id="line2d_33">
      <path d="M 568.249587 378 
L 568.249587 51.84 
" clip-path="url(#pf384b1bb57)" style="fill: none; stroke-dasharray: 2.96,1.28; stroke-dashoffset: 0; stroke: #b0b0b0; stroke-width: 0.8"/>
     </g>
     <g id="line2d_34">
      <g>
       <use xlink:href="#mc4ee222241" x="568.249587" y="378" style="stroke: #000000; stroke-width: 0.8"/>
      </g>
     </g>
     <g id="text_20">
      <!-- 0.0 -->
      <g transform="translate(560.298024 392.598437) scale(0.1 -0.1)">
       <use xlink:href="#DejaVuSans-30"/>
       <use xlink:href="#DejaVuSans-2e" x="63.623047"/>
       <use xlink:href="#DejaVuSans-30" x="95.410156"/>
      </g>
     </g>
    </g>
    <g id="xtick_8">
     <g id="line2d_35">
      <path d="M 632.81157 378 
L 632.81157 51.84 
" clip-path="url(#pf384b1bb57)" style="fill: none; stroke-dasharray: 2.96,1.28; stroke-dashoffset: 0; stroke: #b0b0b0; stroke-width: 0.8"/>
     </g>
     <g id="line2d_36">
      <g>
       <use xlink:href="#mc4ee222241" x="632.81157" y="378" style="stroke: #000000; stroke-width: 0.8"/>
      </g>
     </g>
     <g id="text_21">
      <!-- 0.2 -->
      <g transform="translate(624.860008 392.598437) scale(0.1 -0.1)">
       <use xlink:href="#DejaVuSans-30"/>
       <use xlink:href="#DejaVuSans-2e" x="63.623047"/>
       <use xlink:href="#DejaVuSans-32" x="95.410156"/>
      </g>
     </g>
    </g>
    <g id="xtick_9">
     <g id="line2d_37">
      <path d="M 697.373554 378 
L 697.373554 51.84 
" clip-path="url(#pf384b1bb57)" style="fill: none; stroke-dasharray: 2.96,1.28; stroke-dashoffset: 0; stroke: #b0b0b0; stroke-width: 0.8"/>
     </g>
     <g id="line2d_38">
      <g>
       <use xlink:href="#mc4ee222241" x="697.373554" y="378" style="stroke: #000000; stroke-width: 0.8"/>
      </g>
     </g>
     <g id="text_22">
      <!-- 0.4 -->
      <g transform="translate(689.421991 392.598437) scale(0.1 -0.1)">
       <use xlink:href="#DejaVuSans-30"/>
       <use xlink:href="#DejaVuSans-2e" x="63.623047"/>
       <use xlink:href="#DejaVuSans-34" x="95.410156"/>
      </g>
     </g>
    </g>
    <g id="xtick_10">
     <g id="line2d_39">
      <path d="M 761.935537 378 
L 761.935537 51.84 
" clip-path="url(#pf384b1bb57)" style="fill: none; stroke-dasharray: 2.96,1.28; stroke-dashoffset: 0; stroke: #b0b0b0; stroke-width: 0.8"/>
     </g>
     <g id="line2d_40">
      <g>
       <use xlink:href="#mc4ee222241" x="761.935537" y="378" style="stroke: #000000; stroke-width: 0.8"/>
      </g>
     </g>
     <g id="text_23">
      <!-- 0.6 -->
      <g transform="translate(753.983975 392.598437) scale(0.1 -0.1)">
       <use xlink:href="#DejaVuSans-30"/>
       <use xlink:href="#DejaVuSans-2e" x="63.623047"/>
       <use xlink:href="#DejaVuSans-36" x="95.410156"/>
      </g>
     </g>
    </g>
    <g id="xtick_11">
     <g id="line2d_41">
      <path d="M 826.497521 378 
L 826.497521 51.84 
" clip-path="url(#pf384b1bb57)" style="fill: none; stroke-dasharray: 2.96,1.28; stroke-dashoffset: 0; stroke: #b0b0b0; stroke-width: 0.8"/>
     </g>
     <g id="line2d_42">
      <g>
       <use xlink:href="#mc4ee222241" x="826.497521" y="378" style="stroke: #000000; stroke-width: 0.8"/>
      </g>
     </g>
     <g id="text_24">
      <!-- 0.8 -->
      <g transform="translate(818.545958 392.598437) scale(0.1 -0.1)">
       <use xlink:href="#DejaVuSans-30"/>
       <use xlink:href="#DejaVuSans-2e" x="63.623047"/>
       <use xlink:href="#DejaVuSans-38" x="95.410156"/>
      </g>
     </g>
    </g>
    <g id="xtick_12">
     <g id="line2d_43">
      <path d="M 891.059504 378 
L 891.059504 51.84 
" clip-path="url(#pf384b1bb57)" style="fill: none; stroke-dasharray: 2.96,1.28; stroke-dashoffset: 0; stroke: #b0b0b0; stroke-width: 0.8"/>
     </g>
     <g id="line2d_44">
      <g>
       <use xlink:href="#mc4ee222241" x="891.059504" y="378" style="stroke: #000000; stroke-width: 0.8"/>
      </g>
     </g>
     <g id="text_25">
      <!-- 1.0 -->
      <g transform="translate(883.107942 392.598437) scale(0.1 -0.1)">
       <use xlink:href="#DejaVuSans-31"/>
       <use xlink:href="#DejaVuSans-2e" x="63.623047"/>
       <use xlink:href="#DejaVuSans-30" x="95.410156"/>
      </g>
     </g>
    </g>
    <g id="text_26">
     <!-- False Positive Rate (Positive label: 1) -->
     <g transform="translate(638.28892 406.276563) scale(0.1 -0.1)">
      <use xlink:href="#DejaVuSans-46"/>
      <use xlink:href="#DejaVuSans-61" x="48.394531"/>
      <use xlink:href="#DejaVuSans-6c" x="109.673828"/>
      <use xlink:href="#DejaVuSans-73" x="137.457031"/>
      <use xlink:href="#DejaVuSans-65" x="189.556641"/>
      <use xlink:href="#DejaVuSans-20" x="251.080078"/>
      <use xlink:href="#DejaVuSans-50" x="282.867188"/>
      <use xlink:href="#DejaVuSans-6f" x="339.544922"/>
      <use xlink:href="#DejaVuSans-73" x="400.726562"/>
      <use xlink:href="#DejaVuSans-69" x="452.826172"/>
      <use xlink:href="#DejaVuSans-74" x="480.609375"/>
      <use xlink:href="#DejaVuSans-69" x="519.818359"/>
      <use xlink:href="#DejaVuSans-76" x="547.601562"/>
      <use xlink:href="#DejaVuSans-65" x="606.78125"/>
      <use xlink:href="#DejaVuSans-20" x="668.304688"/>
      <use xlink:href="#DejaVuSans-52" x="700.091797"/>
      <use xlink:href="#DejaVuSans-61" x="767.324219"/>
      <use xlink:href="#DejaVuSans-74" x="828.603516"/>
      <use xlink:href="#DejaVuSans-65" x="867.8125"/>
      <use xlink:href="#DejaVuSans-20" x="929.335938"/>
      <use xlink:href="#DejaVuSans-28" x="961.123047"/>
      <use xlink:href="#DejaVuSans-50" x="1000.136719"/>
      <use xlink:href="#DejaVuSans-6f" x="1056.814453"/>
      <use xlink:href="#DejaVuSans-73" x="1117.996094"/>
      <use xlink:href="#DejaVuSans-69" x="1170.095703"/>
      <use xlink:href="#DejaVuSans-74" x="1197.878906"/>
      <use xlink:href="#DejaVuSans-69" x="1237.087891"/>
      <use xlink:href="#DejaVuSans-76" x="1264.871094"/>
      <use xlink:href="#DejaVuSans-65" x="1324.050781"/>
      <use xlink:href="#DejaVuSans-20" x="1385.574219"/>
      <use xlink:href="#DejaVuSans-6c" x="1417.361328"/>
      <use xlink:href="#DejaVuSans-61" x="1445.144531"/>
      <use xlink:href="#DejaVuSans-62" x="1506.423828"/>
      <use xlink:href="#DejaVuSans-65" x="1569.900391"/>
      <use xlink:href="#DejaVuSans-6c" x="1631.423828"/>
      <use xlink:href="#DejaVuSans-3a" x="1659.207031"/>
      <use xlink:href="#DejaVuSans-20" x="1692.898438"/>
      <use xlink:href="#DejaVuSans-31" x="1724.685547"/>
      <use xlink:href="#DejaVuSans-29" x="1788.308594"/>
     </g>
    </g>
   </g>
   <g id="matplotlib.axis_4">
    <g id="ytick_7">
     <g id="line2d_45">
      <path d="M 552.109091 363.174545 
L 907.2 363.174545 
" clip-path="url(#pf384b1bb57)" style="fill: none; stroke-dasharray: 2.96,1.28; stroke-dashoffset: 0; stroke: #b0b0b0; stroke-width: 0.8"/>
     </g>
     <g id="line2d_46">
      <g>
       <use xlink:href="#mfe9ca496f3" x="552.109091" y="363.174545" style="stroke: #000000; stroke-width: 0.8"/>
      </g>
     </g>
     <g id="text_27">
      <!-- 0.0 -->
      <g transform="translate(529.205966 366.973764) scale(0.1 -0.1)">
       <use xlink:href="#DejaVuSans-30"/>
       <use xlink:href="#DejaVuSans-2e" x="63.623047"/>
       <use xlink:href="#DejaVuSans-30" x="95.410156"/>
      </g>
     </g>
    </g>
    <g id="ytick_8">
     <g id="line2d_47">
      <path d="M 552.109091 303.872727 
L 907.2 303.872727 
" clip-path="url(#pf384b1bb57)" style="fill: none; stroke-dasharray: 2.96,1.28; stroke-dashoffset: 0; stroke: #b0b0b0; stroke-width: 0.8"/>
     </g>
     <g id="line2d_48">
      <g>
       <use xlink:href="#mfe9ca496f3" x="552.109091" y="303.872727" style="stroke: #000000; stroke-width: 0.8"/>
      </g>
     </g>
     <g id="text_28">
      <!-- 0.2 -->
      <g transform="translate(529.205966 307.671946) scale(0.1 -0.1)">
       <use xlink:href="#DejaVuSans-30"/>
       <use xlink:href="#DejaVuSans-2e" x="63.623047"/>
       <use xlink:href="#DejaVuSans-32" x="95.410156"/>
      </g>
     </g>
    </g>
    <g id="ytick_9">
     <g id="line2d_49">
      <path d="M 552.109091 244.570909 
L 907.2 244.570909 
" clip-path="url(#pf384b1bb57)" style="fill: none; stroke-dasharray: 2.96,1.28; stroke-dashoffset: 0; stroke: #b0b0b0; stroke-width: 0.8"/>
     </g>
     <g id="line2d_50">
      <g>
       <use xlink:href="#mfe9ca496f3" x="552.109091" y="244.570909" style="stroke: #000000; stroke-width: 0.8"/>
      </g>
     </g>
     <g id="text_29">
      <!-- 0.4 -->
      <g transform="translate(529.205966 248.370128) scale(0.1 -0.1)">
       <use xlink:href="#DejaVuSans-30"/>
       <use xlink:href="#DejaVuSans-2e" x="63.623047"/>
       <use xlink:href="#DejaVuSans-34" x="95.410156"/>
      </g>
     </g>
    </g>
    <g id="ytick_10">
     <g id="line2d_51">
      <path d="M 552.109091 185.269091 
L 907.2 185.269091 
" clip-path="url(#pf384b1bb57)" style="fill: none; stroke-dasharray: 2.96,1.28; stroke-dashoffset: 0; stroke: #b0b0b0; stroke-width: 0.8"/>
     </g>
     <g id="line2d_52">
      <g>
       <use xlink:href="#mfe9ca496f3" x="552.109091" y="185.269091" style="stroke: #000000; stroke-width: 0.8"/>
      </g>
     </g>
     <g id="text_30">
      <!-- 0.6 -->
      <g transform="translate(529.205966 189.06831) scale(0.1 -0.1)">
       <use xlink:href="#DejaVuSans-30"/>
       <use xlink:href="#DejaVuSans-2e" x="63.623047"/>
       <use xlink:href="#DejaVuSans-36" x="95.410156"/>
      </g>
     </g>
    </g>
    <g id="ytick_11">
     <g id="line2d_53">
      <path d="M 552.109091 125.967273 
L 907.2 125.967273 
" clip-path="url(#pf384b1bb57)" style="fill: none; stroke-dasharray: 2.96,1.28; stroke-dashoffset: 0; stroke: #b0b0b0; stroke-width: 0.8"/>
     </g>
     <g id="line2d_54">
      <g>
       <use xlink:href="#mfe9ca496f3" x="552.109091" y="125.967273" style="stroke: #000000; stroke-width: 0.8"/>
      </g>
     </g>
     <g id="text_31">
      <!-- 0.8 -->
      <g transform="translate(529.205966 129.766491) scale(0.1 -0.1)">
       <use xlink:href="#DejaVuSans-30"/>
       <use xlink:href="#DejaVuSans-2e" x="63.623047"/>
       <use xlink:href="#DejaVuSans-38" x="95.410156"/>
      </g>
     </g>
    </g>
    <g id="ytick_12">
     <g id="line2d_55">
      <path d="M 552.109091 66.665455 
L 907.2 66.665455 
" clip-path="url(#pf384b1bb57)" style="fill: none; stroke-dasharray: 2.96,1.28; stroke-dashoffset: 0; stroke: #b0b0b0; stroke-width: 0.8"/>
     </g>
     <g id="line2d_56">
      <g>
       <use xlink:href="#mfe9ca496f3" x="552.109091" y="66.665455" style="stroke: #000000; stroke-width: 0.8"/>
      </g>
     </g>
     <g id="text_32">
      <!-- 1.0 -->
      <g transform="translate(529.205966 70.464673) scale(0.1 -0.1)">
       <use xlink:href="#DejaVuSans-31"/>
       <use xlink:href="#DejaVuSans-2e" x="63.623047"/>
       <use xlink:href="#DejaVuSans-30" x="95.410156"/>
      </g>
     </g>
    </g>
    <g id="text_33">
     <!-- True Positive Rate (Positive label: 1) -->
     <g transform="translate(523.126278 304.348906) rotate(-90) scale(0.1 -0.1)">
      <use xlink:href="#DejaVuSans-54"/>
      <use xlink:href="#DejaVuSans-72" x="46.333984"/>
      <use xlink:href="#DejaVuSans-75" x="87.447266"/>
      <use xlink:href="#DejaVuSans-65" x="150.826172"/>
      <use xlink:href="#DejaVuSans-20" x="212.349609"/>
      <use xlink:href="#DejaVuSans-50" x="244.136719"/>
      <use xlink:href="#DejaVuSans-6f" x="300.814453"/>
      <use xlink:href="#DejaVuSans-73" x="361.996094"/>
      <use xlink:href="#DejaVuSans-69" x="414.095703"/>
      <use xlink:href="#DejaVuSans-74" x="441.878906"/>
      <use xlink:href="#DejaVuSans-69" x="481.087891"/>
      <use xlink:href="#DejaVuSans-76" x="508.871094"/>
      <use xlink:href="#DejaVuSans-65" x="568.050781"/>
      <use xlink:href="#DejaVuSans-20" x="629.574219"/>
      <use xlink:href="#DejaVuSans-52" x="661.361328"/>
      <use xlink:href="#DejaVuSans-61" x="728.59375"/>
      <use xlink:href="#DejaVuSans-74" x="789.873047"/>
      <use xlink:href="#DejaVuSans-65" x="829.082031"/>
      <use xlink:href="#DejaVuSans-20" x="890.605469"/>
      <use xlink:href="#DejaVuSans-28" x="922.392578"/>
      <use xlink:href="#DejaVuSans-50" x="961.40625"/>
      <use xlink:href="#DejaVuSans-6f" x="1018.083984"/>
      <use xlink:href="#DejaVuSans-73" x="1079.265625"/>
      <use xlink:href="#DejaVuSans-69" x="1131.365234"/>
      <use xlink:href="#DejaVuSans-74" x="1159.148438"/>
      <use xlink:href="#DejaVuSans-69" x="1198.357422"/>
      <use xlink:href="#DejaVuSans-76" x="1226.140625"/>
      <use xlink:href="#DejaVuSans-65" x="1285.320312"/>
      <use xlink:href="#DejaVuSans-20" x="1346.84375"/>
      <use xlink:href="#DejaVuSans-6c" x="1378.630859"/>
      <use xlink:href="#DejaVuSans-61" x="1406.414062"/>
      <use xlink:href="#DejaVuSans-62" x="1467.693359"/>
      <use xlink:href="#DejaVuSans-65" x="1531.169922"/>
      <use xlink:href="#DejaVuSans-6c" x="1592.693359"/>
      <use xlink:href="#DejaVuSans-3a" x="1620.476562"/>
      <use xlink:href="#DejaVuSans-20" x="1654.167969"/>
      <use xlink:href="#DejaVuSans-31" x="1685.955078"/>
      <use xlink:href="#DejaVuSans-29" x="1749.578125"/>
     </g>
    </g>
   </g>
   <g id="line2d_57">
    <path d="M 568.249587 363.174545 
L 568.249587 223.905124 
L 569.765126 223.905124 
L 569.765126 214.92 
L 571.280666 214.92 
L 571.280666 210.427438 
L 572.796205 210.427438 
L 572.796205 204.437355 
L 574.311745 201.442314 
L 574.311745 184.969587 
L 575.827284 184.969587 
L 575.827284 177.481983 
L 577.342824 177.481983 
L 577.342824 162.506777 
L 583.404982 162.506777 
L 583.404982 161.009256 
L 584.920521 161.009256 
L 584.920521 146.03405 
L 586.436061 146.03405 
L 586.436061 140.043967 
L 587.951601 140.043967 
L 587.951601 138.546446 
L 589.46714 138.546446 
L 589.46714 135.551405 
L 590.98268 135.551405 
L 590.98268 132.556364 
L 597.044838 132.556364 
L 597.044838 128.063802 
L 598.560377 128.063802 
L 598.560377 123.57124 
L 600.075917 123.57124 
L 600.075917 122.073719 
L 601.591456 122.073719 
L 601.591456 119.078678 
L 603.106996 119.078678 
L 603.106996 117.581157 
L 604.622535 117.581157 
L 604.622535 111.591074 
L 606.138075 111.591074 
L 606.138075 110.093554 
L 609.169154 110.093554 
L 609.169154 107.098512 
L 610.684693 107.098512 
L 610.684693 104.103471 
L 622.809009 104.103471 
L 624.324549 102.60595 
L 624.324549 101.10843 
L 628.871168 101.10843 
L 628.871168 96.615868 
L 630.386707 96.615868 
L 630.386707 95.118347 
L 634.933326 95.118347 
L 634.933326 93.620826 
L 639.479944 93.620826 
L 639.479944 90.625785 
L 644.026563 90.625785 
L 644.026563 87.630744 
L 645.542102 86.133223 
L 650.088721 86.133223 
L 650.088721 84.635702 
L 653.1198 84.635702 
L 653.1198 81.640661 
L 654.635339 81.640661 
L 654.635339 77.148099 
L 677.368432 77.148099 
L 677.368432 75.650579 
L 698.585985 75.650579 
L 698.585985 74.153058 
L 704.648143 74.153058 
L 704.648143 72.655537 
L 713.741381 72.655537 
L 715.25692 71.158017 
L 716.77246 71.158017 
L 716.77246 69.660496 
L 778.90958 69.660496 
L 778.90958 68.162975 
L 815.282528 68.162975 
L 816.798068 66.665455 
L 891.059504 66.665455 
L 891.059504 66.665455 
" clip-path="url(#pf384b1bb57)" style="fill: none; stroke: #1f77b4; stroke-width: 1.5; stroke-linecap: square"/>
   </g>
   <g id="line2d_58">
    <path d="M 568.249587 363.174545 
L 569.765126 363.174545 
L 569.765126 343.706777 
L 571.280666 343.706777 
L 571.280666 342.209256 
L 572.796205 342.209256 
L 572.796205 324.239008 
L 572.796205 321.243967 
L 572.796205 315.253884 
L 572.796205 312.258843 
L 572.796205 301.776198 
L 574.311745 301.776198 
L 574.311745 298.781157 
L 575.827284 298.781157 
L 575.827284 297.283636 
L 577.342824 297.283636 
L 577.342824 289.796033 
L 578.858363 289.796033 
L 578.858363 268.830744 
L 580.373903 268.830744 
L 580.373903 261.34314 
L 583.404982 261.34314 
L 583.404982 241.875372 
L 583.404982 238.880331 
L 583.404982 219.412562 
L 584.920521 219.412562 
L 584.920521 216.417521 
L 586.436061 216.417521 
L 586.436061 211.924959 
L 589.46714 211.924959 
L 589.46714 208.929917 
L 590.98268 208.929917 
L 590.98268 195.452231 
L 592.498219 195.452231 
L 592.498219 186.467107 
L 594.013759 186.467107 
L 594.013759 177.481983 
L 595.529298 177.481983 
L 595.529298 175.984463 
L 597.044838 175.984463 
L 597.044838 166.999339 
L 598.560377 166.999339 
L 598.560377 152.024132 
L 601.591456 152.024132 
L 601.591456 132.556364 
L 603.106996 132.556364 
L 603.106996 126.566281 
L 606.138075 126.566281 
L 606.138075 123.57124 
L 607.653614 123.57124 
L 607.653614 119.078678 
L 610.684693 119.078678 
L 610.684693 116.083636 
L 612.200233 116.083636 
L 612.200233 113.088595 
L 619.77793 113.088595 
L 619.77793 110.093554 
L 622.809009 110.093554 
L 622.809009 107.098512 
L 625.840088 107.098512 
L 625.840088 105.600992 
L 627.355628 105.600992 
L 627.355628 102.60595 
L 631.902247 102.60595 
L 631.902247 99.610909 
L 633.417786 99.610909 
L 633.417786 98.113388 
L 634.933326 98.113388 
L 634.933326 96.615868 
L 637.964405 96.615868 
L 637.964405 95.118347 
L 642.511023 95.118347 
L 642.511023 92.123306 
L 645.542102 92.123306 
L 645.542102 90.625785 
L 650.088721 90.625785 
L 650.088721 89.128264 
L 651.60426 89.128264 
L 651.60426 86.133223 
L 653.1198 86.133223 
L 653.1198 84.635702 
L 660.697497 84.635702 
L 660.697497 81.640661 
L 666.759655 81.640661 
L 666.759655 80.14314 
L 674.337353 80.14314 
L 674.337353 78.64562 
L 703.132604 78.64562 
L 703.132604 77.148099 
L 725.865697 77.148099 
L 725.865697 75.650579 
L 748.598789 75.650579 
L 748.598789 74.153058 
L 750.114329 74.153058 
L 750.114329 72.655537 
L 762.238645 72.655537 
L 762.238645 71.158017 
L 804.673752 71.158017 
L 804.673752 69.660496 
L 889.543965 69.660496 
L 889.543965 66.665455 
L 891.059504 66.665455 
" clip-path="url(#pf384b1bb57)" style="fill: none; stroke: #ff7f0e; stroke-width: 1.5; stroke-linecap: square"/>
   </g>
   <g id="line2d_59">
    <path d="M 568.249587 363.174545 
L 569.765126 363.174545 
L 569.765126 351.19438 
L 571.280666 351.19438 
L 571.280666 342.209256 
L 572.796205 342.209256 
L 572.796205 331.726612 
L 574.311745 331.726612 
L 574.311745 322.741488 
L 575.827284 322.741488 
L 575.827284 316.751405 
L 575.827284 313.756364 
L 577.342824 313.756364 
L 577.342824 298.781157 
L 577.342824 292.791074 
L 577.342824 283.80595 
L 578.858363 283.80595 
L 578.858363 273.323306 
L 580.373903 273.323306 
L 580.373903 247.865455 
L 581.889442 247.865455 
L 581.889442 228.397686 
L 583.404982 228.397686 
L 583.404982 207.432397 
L 584.920521 207.432397 
L 584.920521 205.934876 
L 586.436061 205.934876 
L 586.436061 202.939835 
L 587.951601 202.939835 
L 587.951601 187.964628 
L 590.98268 187.964628 
L 590.98268 184.969587 
L 592.498219 184.969587 
L 592.498219 183.472066 
L 594.013759 183.472066 
L 594.013759 177.481983 
L 595.529298 177.481983 
L 595.529298 175.984463 
L 597.044838 175.984463 
L 597.044838 172.989421 
L 600.075917 172.989421 
L 600.075917 165.501818 
L 601.591456 165.501818 
L 601.591456 162.506777 
L 603.106996 162.506777 
L 603.106996 161.009256 
L 604.622535 161.009256 
L 604.622535 158.014215 
L 606.138075 158.014215 
L 606.138075 144.536529 
L 609.169154 144.536529 
L 609.169154 132.556364 
L 612.200233 132.556364 
L 612.200233 129.561322 
L 613.715772 129.561322 
L 613.715772 126.566281 
L 615.231312 126.566281 
L 615.231312 120.576198 
L 616.746851 120.576198 
L 616.746851 119.078678 
L 618.262391 119.078678 
L 618.262391 117.581157 
L 619.77793 117.581157 
L 619.77793 114.586116 
L 621.29347 114.586116 
L 621.29347 105.600992 
L 622.809009 105.600992 
L 622.809009 104.103471 
L 624.324549 104.103471 
L 624.324549 102.60595 
L 625.840088 102.60595 
L 625.840088 101.10843 
L 627.355628 101.10843 
L 627.355628 99.610909 
L 630.386707 99.610909 
L 630.386707 98.113388 
L 631.902247 98.113388 
L 631.902247 96.615868 
L 633.417786 96.615868 
L 633.417786 93.620826 
L 637.964405 93.620826 
L 637.964405 92.123306 
L 640.995484 92.123306 
L 640.995484 90.625785 
L 645.542102 89.128264 
L 647.057642 89.128264 
L 647.057642 87.630744 
L 669.790734 87.630744 
L 669.790734 86.133223 
L 674.337353 86.133223 
L 674.337353 84.635702 
L 677.368432 84.635702 
L 677.368432 83.138182 
L 686.461669 83.138182 
L 686.461669 81.640661 
L 687.977209 81.640661 
L 687.977209 80.14314 
L 706.163683 80.14314 
L 706.163683 75.650579 
L 775.878501 75.650579 
L 775.878501 74.153058 
L 804.673752 74.153058 
L 804.673752 72.655537 
L 833.469002 72.655537 
L 833.469002 71.158017 
L 871.35749 71.158017 
L 871.35749 69.660496 
L 875.904109 69.660496 
L 875.904109 68.162975 
L 886.512886 68.162975 
L 886.512886 66.665455 
L 891.059504 66.665455 
" clip-path="url(#pf384b1bb57)" style="fill: none; stroke: #2ca02c; stroke-width: 1.5; stroke-linecap: square"/>
   </g>
   <g id="line2d_60">
    <path d="M 568.249587 363.174545 
L 568.249587 361.677025 
L 568.249587 360.179504 
L 568.249587 357.184463 
L 568.249587 351.19438 
L 568.249587 348.199339 
L 568.249587 238.880331 
L 569.765126 238.880331 
L 569.765126 222.407603 
L 571.280666 222.407603 
L 571.280666 219.412562 
L 571.280666 216.417521 
L 571.280666 214.92 
L 572.796205 214.92 
L 572.796205 213.422479 
L 574.311745 213.422479 
L 574.311745 202.939835 
L 575.827284 202.939835 
L 575.827284 193.954711 
L 577.342824 193.954711 
L 577.342824 178.979504 
L 578.858363 178.979504 
L 578.858363 175.984463 
L 578.858363 172.989421 
L 578.858363 155.019174 
L 580.373903 155.019174 
L 580.373903 147.53157 
L 581.889442 147.53157 
L 581.889442 144.536529 
L 583.404982 144.536529 
L 583.404982 140.043967 
L 584.920521 140.043967 
L 584.920521 137.048926 
L 587.951601 137.048926 
L 587.951601 132.556364 
L 592.498219 132.556364 
L 592.498219 131.058843 
L 594.013759 131.058843 
L 594.013759 128.063802 
L 598.560377 128.063802 
L 598.560377 126.566281 
L 601.591456 126.566281 
L 601.591456 123.57124 
L 603.106996 123.57124 
L 603.106996 122.073719 
L 606.138075 122.073719 
L 606.138075 117.581157 
L 610.684693 117.581157 
L 610.684693 116.083636 
L 612.200233 116.083636 
L 612.200233 114.586116 
L 613.715772 114.586116 
L 613.715772 108.596033 
L 619.77793 108.596033 
L 619.77793 96.615868 
L 621.29347 96.615868 
L 621.29347 95.118347 
L 628.871168 95.118347 
L 628.871168 93.620826 
L 630.386707 93.620826 
L 630.386707 92.123306 
L 633.417786 92.123306 
L 633.417786 90.625785 
L 634.933326 90.625785 
L 634.933326 86.133223 
L 636.448865 86.133223 
L 636.448865 83.138182 
L 639.479944 83.138182 
L 639.479944 81.640661 
L 640.995484 81.640661 
L 640.995484 80.14314 
L 650.088721 80.14314 
L 650.088721 78.64562 
L 662.213037 78.64562 
L 662.213037 77.148099 
L 678.883972 77.148099 
L 678.883972 75.650579 
L 680.399511 75.650579 
L 680.399511 74.153058 
L 703.132604 74.153058 
L 703.132604 72.655537 
L 707.679222 72.655537 
L 707.679222 71.158017 
L 783.456198 71.158017 
L 783.456198 69.660496 
L 791.033896 69.660496 
L 791.033896 68.162975 
L 806.189291 68.162975 
L 806.189291 66.665455 
L 891.059504 66.665455 
" clip-path="url(#pf384b1bb57)" style="fill: none; stroke: #d62728; stroke-width: 1.5; stroke-linecap: square"/>
   </g>
   <g id="patch_9">
    <path d="M 552.109091 378 
L 552.109091 51.84 
" style="fill: none; stroke: #000000; stroke-width: 0.8; stroke-linejoin: miter; stroke-linecap: square"/>
   </g>
   <g id="patch_10">
    <path d="M 907.2 378 
L 907.2 51.84 
" style="fill: none; stroke: #000000; stroke-width: 0.8; stroke-linejoin: miter; stroke-linecap: square"/>
   </g>
   <g id="patch_11">
    <path d="M 552.109091 378 
L 907.2 378 
" style="fill: none; stroke: #000000; stroke-width: 0.8; stroke-linejoin: miter; stroke-linecap: square"/>
   </g>
   <g id="patch_12">
    <path d="M 552.109091 51.84 
L 907.2 51.84 
" style="fill: none; stroke: #000000; stroke-width: 0.8; stroke-linejoin: miter; stroke-linecap: square"/>
   </g>
   <g id="text_34">
    <!-- Curvas ROC en la prueba  -->
    <g transform="translate(652.131733 45.84) scale(0.12 -0.12)">
     <defs>
      <path id="DejaVuSans-70" d="M 1159 525 
L 1159 -1331 
L 581 -1331 
L 581 3500 
L 1159 3500 
L 1159 2969 
Q 1341 3281 1617 3432 
Q 1894 3584 2278 3584 
Q 2916 3584 3314 3078 
Q 3713 2572 3713 1747 
Q 3713 922 3314 415 
Q 2916 -91 2278 -91 
Q 1894 -91 1617 61 
Q 1341 213 1159 525 
z
M 3116 1747 
Q 3116 2381 2855 2742 
Q 2594 3103 2138 3103 
Q 1681 3103 1420 2742 
Q 1159 2381 1159 1747 
Q 1159 1113 1420 752 
Q 1681 391 2138 391 
Q 2594 391 2855 752 
Q 3116 1113 3116 1747 
z
" transform="scale(0.015625)"/>
     </defs>
     <use xlink:href="#DejaVuSans-43"/>
     <use xlink:href="#DejaVuSans-75" x="69.824219"/>
     <use xlink:href="#DejaVuSans-72" x="133.203125"/>
     <use xlink:href="#DejaVuSans-76" x="174.316406"/>
     <use xlink:href="#DejaVuSans-61" x="233.496094"/>
     <use xlink:href="#DejaVuSans-73" x="294.775391"/>
     <use xlink:href="#DejaVuSans-20" x="346.875"/>
     <use xlink:href="#DejaVuSans-52" x="378.662109"/>
     <use xlink:href="#DejaVuSans-4f" x="448.144531"/>
     <use xlink:href="#DejaVuSans-43" x="526.855469"/>
     <use xlink:href="#DejaVuSans-20" x="596.679688"/>
     <use xlink:href="#DejaVuSans-65" x="628.466797"/>
     <use xlink:href="#DejaVuSans-6e" x="689.990234"/>
     <use xlink:href="#DejaVuSans-20" x="753.369141"/>
     <use xlink:href="#DejaVuSans-6c" x="785.15625"/>
     <use xlink:href="#DejaVuSans-61" x="812.939453"/>
     <use xlink:href="#DejaVuSans-20" x="874.21875"/>
     <use xlink:href="#DejaVuSans-70" x="906.005859"/>
     <use xlink:href="#DejaVuSans-72" x="969.482422"/>
     <use xlink:href="#DejaVuSans-75" x="1010.595703"/>
     <use xlink:href="#DejaVuSans-65" x="1073.974609"/>
     <use xlink:href="#DejaVuSans-62" x="1135.498047"/>
     <use xlink:href="#DejaVuSans-61" x="1198.974609"/>
     <use xlink:href="#DejaVuSans-20" x="1260.253906"/>
    </g>
   </g>
   <g id="legend_2">
    <g id="patch_13">
     <path d="M 666.209375 373 
L 900.2 373 
Q 902.2 373 902.2 371 
L 902.2 313.2875 
Q 902.2 311.2875 900.2 311.2875 
L 666.209375 311.2875 
Q 664.209375 311.2875 664.209375 313.2875 
L 664.209375 371 
Q 664.209375 373 666.209375 373 
z
" style="fill: #ffffff; opacity: 0.8; stroke: #cccccc; stroke-linejoin: miter"/>
    </g>
    <g id="line2d_61">
     <path d="M 668.209375 319.385938 
L 678.209375 319.385938 
L 688.209375 319.385938 
" style="fill: none; stroke: #1f77b4; stroke-width: 1.5; stroke-linecap: square"/>
    </g>
    <g id="text_35">
     <!-- RandomForestClassifier (AUC = 0.94) -->
     <g transform="translate(696.209375 322.885938) scale(0.1 -0.1)">
      <use xlink:href="#DejaVuSans-52"/>
      <use xlink:href="#DejaVuSans-61" x="67.232422"/>
      <use xlink:href="#DejaVuSans-6e" x="128.511719"/>
      <use xlink:href="#DejaVuSans-64" x="191.890625"/>
      <use xlink:href="#DejaVuSans-6f" x="255.367188"/>
      <use xlink:href="#DejaVuSans-6d" x="316.548828"/>
      <use xlink:href="#DejaVuSans-46" x="413.960938"/>
      <use xlink:href="#DejaVuSans-6f" x="467.855469"/>
      <use xlink:href="#DejaVuSans-72" x="529.037109"/>
      <use xlink:href="#DejaVuSans-65" x="567.900391"/>
      <use xlink:href="#DejaVuSans-73" x="629.423828"/>
      <use xlink:href="#DejaVuSans-74" x="681.523438"/>
      <use xlink:href="#DejaVuSans-43" x="720.732422"/>
      <use xlink:href="#DejaVuSans-6c" x="790.556641"/>
      <use xlink:href="#DejaVuSans-61" x="818.339844"/>
      <use xlink:href="#DejaVuSans-73" x="879.619141"/>
      <use xlink:href="#DejaVuSans-73" x="931.71875"/>
      <use xlink:href="#DejaVuSans-69" x="983.818359"/>
      <use xlink:href="#DejaVuSans-66" x="1011.601562"/>
      <use xlink:href="#DejaVuSans-69" x="1046.806641"/>
      <use xlink:href="#DejaVuSans-65" x="1074.589844"/>
      <use xlink:href="#DejaVuSans-72" x="1136.113281"/>
      <use xlink:href="#DejaVuSans-20" x="1177.226562"/>
      <use xlink:href="#DejaVuSans-28" x="1209.013672"/>
      <use xlink:href="#DejaVuSans-41" x="1248.027344"/>
      <use xlink:href="#DejaVuSans-55" x="1316.435547"/>
      <use xlink:href="#DejaVuSans-43" x="1389.628906"/>
      <use xlink:href="#DejaVuSans-20" x="1459.453125"/>
      <use xlink:href="#DejaVuSans-3d" x="1491.240234"/>
      <use xlink:href="#DejaVuSans-20" x="1575.029297"/>
      <use xlink:href="#DejaVuSans-30" x="1606.816406"/>
      <use xlink:href="#DejaVuSans-2e" x="1670.439453"/>
      <use xlink:href="#DejaVuSans-39" x="1702.226562"/>
      <use xlink:href="#DejaVuSans-34" x="1765.849609"/>
      <use xlink:href="#DejaVuSans-29" x="1829.472656"/>
     </g>
    </g>
    <g id="line2d_62">
     <path d="M 668.209375 334.064062 
L 678.209375 334.064062 
L 688.209375 334.064062 
" style="fill: none; stroke: #ff7f0e; stroke-width: 1.5; stroke-linecap: square"/>
    </g>
    <g id="text_36">
     <!-- LogisticRegression (AUC = 0.90) -->
     <g transform="translate(696.209375 337.564062) scale(0.1 -0.1)">
      <use xlink:href="#DejaVuSans-4c"/>
      <use xlink:href="#DejaVuSans-6f" x="53.962891"/>
      <use xlink:href="#DejaVuSans-67" x="115.144531"/>
      <use xlink:href="#DejaVuSans-69" x="178.621094"/>
      <use xlink:href="#DejaVuSans-73" x="206.404297"/>
      <use xlink:href="#DejaVuSans-74" x="258.503906"/>
      <use xlink:href="#DejaVuSans-69" x="297.712891"/>
      <use xlink:href="#DejaVuSans-63" x="325.496094"/>
      <use xlink:href="#DejaVuSans-52" x="380.476562"/>
      <use xlink:href="#DejaVuSans-65" x="445.458984"/>
      <use xlink:href="#DejaVuSans-67" x="506.982422"/>
      <use xlink:href="#DejaVuSans-72" x="570.458984"/>
      <use xlink:href="#DejaVuSans-65" x="609.322266"/>
      <use xlink:href="#DejaVuSans-73" x="670.845703"/>
      <use xlink:href="#DejaVuSans-73" x="722.945312"/>
      <use xlink:href="#DejaVuSans-69" x="775.044922"/>
      <use xlink:href="#DejaVuSans-6f" x="802.828125"/>
      <use xlink:href="#DejaVuSans-6e" x="864.009766"/>
      <use xlink:href="#DejaVuSans-20" x="927.388672"/>
      <use xlink:href="#DejaVuSans-28" x="959.175781"/>
      <use xlink:href="#DejaVuSans-41" x="998.189453"/>
      <use xlink:href="#DejaVuSans-55" x="1066.597656"/>
      <use xlink:href="#DejaVuSans-43" x="1139.791016"/>
      <use xlink:href="#DejaVuSans-20" x="1209.615234"/>
      <use xlink:href="#DejaVuSans-3d" x="1241.402344"/>
      <use xlink:href="#DejaVuSans-20" x="1325.191406"/>
      <use xlink:href="#DejaVuSans-30" x="1356.978516"/>
      <use xlink:href="#DejaVuSans-2e" x="1420.601562"/>
      <use xlink:href="#DejaVuSans-39" x="1452.388672"/>
      <use xlink:href="#DejaVuSans-30" x="1516.011719"/>
      <use xlink:href="#DejaVuSans-29" x="1579.634766"/>
     </g>
    </g>
    <g id="line2d_63">
     <path d="M 668.209375 348.742188 
L 678.209375 348.742188 
L 688.209375 348.742188 
" style="fill: none; stroke: #2ca02c; stroke-width: 1.5; stroke-linecap: square"/>
    </g>
    <g id="text_37">
     <!-- SVC (AUC = 0.89) -->
     <g transform="translate(696.209375 352.242188) scale(0.1 -0.1)">
      <use xlink:href="#DejaVuSans-53"/>
      <use xlink:href="#DejaVuSans-56" x="63.476562"/>
      <use xlink:href="#DejaVuSans-43" x="131.884766"/>
      <use xlink:href="#DejaVuSans-20" x="201.708984"/>
      <use xlink:href="#DejaVuSans-28" x="233.496094"/>
      <use xlink:href="#DejaVuSans-41" x="272.509766"/>
      <use xlink:href="#DejaVuSans-55" x="340.917969"/>
      <use xlink:href="#DejaVuSans-43" x="414.111328"/>
      <use xlink:href="#DejaVuSans-20" x="483.935547"/>
      <use xlink:href="#DejaVuSans-3d" x="515.722656"/>
      <use xlink:href="#DejaVuSans-20" x="599.511719"/>
      <use xlink:href="#DejaVuSans-30" x="631.298828"/>
      <use xlink:href="#DejaVuSans-2e" x="694.921875"/>
      <use xlink:href="#DejaVuSans-38" x="726.708984"/>
      <use xlink:href="#DejaVuSans-39" x="790.332031"/>
      <use xlink:href="#DejaVuSans-29" x="853.955078"/>
     </g>
    </g>
    <g id="line2d_64">
     <path d="M 668.209375 363.420313 
L 678.209375 363.420313 
L 688.209375 363.420313 
" style="fill: none; stroke: #d62728; stroke-width: 1.5; stroke-linecap: square"/>
    </g>
    <g id="text_38">
     <!-- GradientBoostingClassifier (AUC = 0.94) -->
     <g transform="translate(696.209375 366.920313) scale(0.1 -0.1)">
      <use xlink:href="#DejaVuSans-47"/>
      <use xlink:href="#DejaVuSans-72" x="77.490234"/>
      <use xlink:href="#DejaVuSans-61" x="118.603516"/>
      <use xlink:href="#DejaVuSans-64" x="179.882812"/>
      <use xlink:href="#DejaVuSans-69" x="243.359375"/>
      <use xlink:href="#DejaVuSans-65" x="271.142578"/>
      <use xlink:href="#DejaVuSans-6e" x="332.666016"/>
      <use xlink:href="#DejaVuSans-74" x="396.044922"/>
      <use xlink:href="#DejaVuSans-42" x="435.253906"/>
      <use xlink:href="#DejaVuSans-6f" x="503.857422"/>
      <use xlink:href="#DejaVuSans-6f" x="565.039062"/>
      <use xlink:href="#DejaVuSans-73" x="626.220703"/>
      <use xlink:href="#DejaVuSans-74" x="678.320312"/>
      <use xlink:href="#DejaVuSans-69" x="717.529297"/>
      <use xlink:href="#DejaVuSans-6e" x="745.3125"/>
      <use xlink:href="#DejaVuSans-67" x="808.691406"/>
      <use xlink:href="#DejaVuSans-43" x="872.167969"/>
      <use xlink:href="#DejaVuSans-6c" x="941.992188"/>
      <use xlink:href="#DejaVuSans-61" x="969.775391"/>
      <use xlink:href="#DejaVuSans-73" x="1031.054688"/>
      <use xlink:href="#DejaVuSans-73" x="1083.154297"/>
      <use xlink:href="#DejaVuSans-69" x="1135.253906"/>
      <use xlink:href="#DejaVuSans-66" x="1163.037109"/>
      <use xlink:href="#DejaVuSans-69" x="1198.242188"/>
      <use xlink:href="#DejaVuSans-65" x="1226.025391"/>
      <use xlink:href="#DejaVuSans-72" x="1287.548828"/>
      <use xlink:href="#DejaVuSans-20" x="1328.662109"/>
      <use xlink:href="#DejaVuSans-28" x="1360.449219"/>
      <use xlink:href="#DejaVuSans-41" x="1399.462891"/>
      <use xlink:href="#DejaVuSans-55" x="1467.871094"/>
      <use xlink:href="#DejaVuSans-43" x="1541.064453"/>
      <use xlink:href="#DejaVuSans-20" x="1610.888672"/>
      <use xlink:href="#DejaVuSans-3d" x="1642.675781"/>
      <use xlink:href="#DejaVuSans-20" x="1726.464844"/>
      <use xlink:href="#DejaVuSans-30" x="1758.251953"/>
      <use xlink:href="#DejaVuSans-2e" x="1821.875"/>
      <use xlink:href="#DejaVuSans-39" x="1853.662109"/>
      <use xlink:href="#DejaVuSans-34" x="1917.285156"/>
      <use xlink:href="#DejaVuSans-29" x="1980.908203"/>
     </g>
    </g>
   </g>
  </g>
 </g>
 <defs>
  <clipPath id="pca15fc0e97">
   <rect x="126" y="51.84" width="355.090909" height="326.16"/>
  </clipPath>
  <clipPath id="pf384b1bb57">
   <rect x="552.109091" y="51.84" width="355.090909" height="326.16"/>
  </clipPath>
 </defs>
</svg>
