<?xml version="1.0" encoding="utf-8" standalone="no"?>
<!DOCTYPE svg PUBLIC "-//W3C//DTD SVG 1.1//EN"
  "http://www.w3.org/Graphics/SVG/1.1/DTD/svg11.dtd">
<svg xmlns:xlink="http://www.w3.org/1999/xlink" width="832.308438pt" height="389.993437pt" viewBox="0 0 832.308438 389.993437" xmlns="http://www.w3.org/2000/svg" version="1.1">
 <metadata>
  <rdf:RDF xmlns:dc="http://purl.org/dc/elements/1.1/" xmlns:cc="http://creativecommons.org/ns#" xmlns:rdf="http://www.w3.org/1999/02/22-rdf-syntax-ns#">
   <cc:Work>
    <dc:type rdf:resource="http://purl.org/dc/dcmitype/StillImage"/>
    <dc:date>2023-11-12T17:46:33.556099</dc:date>
    <dc:format>image/svg+xml</dc:format>
    <dc:creator>
     <cc:Agent>
      <dc:title>Matplotlib v3.7.2, https://matplotlib.org/</dc:title>
     </cc:Agent>
    </dc:creator>
   </cc:Work>
  </rdf:RDF>
 </metadata>
 <defs>
  <style type="text/css">*{stroke-linejoin: round; stroke-linecap: butt}</style>
 </defs>
 <g id="figure_1">
  <g id="patch_1">
   <path d="M 0 389.993437 
L 832.308438 389.993437 
L 832.308438 0 
L 0 0 
z
" style="fill: #ffffff"/>
  </g>
  <g id="axes_1">
   <g id="patch_2">
    <path d="M 43.908438 347.99625 
L 825.108438 347.99625 
L 825.108438 21.83625 
L 43.908438 21.83625 
z
" style="fill: #ffffff"/>
   </g>
   <g id="matplotlib.axis_1">
    <g id="xtick_1">
     <g id="text_1">
      <!-- VsAll -->
      <g style="fill: #262626" transform="translate(87.177031 365.369844) scale(0.11 -0.11)">
       <defs>
        <path id="ArialMT-56" d="M 1803 0 
L 28 4581 
L 684 4581 
L 1875 1253 
Q 2019 853 2116 503 
Q 2222 878 2363 1253 
L 3600 4581 
L 4219 4581 
L 2425 0 
L 1803 0 
z
" transform="scale(0.015625)"/>
        <path id="ArialMT-73" d="M 197 991 
L 753 1078 
Q 800 744 1014 566 
Q 1228 388 1613 388 
Q 2000 388 2187 545 
Q 2375 703 2375 916 
Q 2375 1106 2209 1216 
Q 2094 1291 1634 1406 
Q 1016 1563 777 1677 
Q 538 1791 414 1992 
Q 291 2194 291 2438 
Q 291 2659 392 2848 
Q 494 3038 669 3163 
Q 800 3259 1026 3326 
Q 1253 3394 1513 3394 
Q 1903 3394 2198 3281 
Q 2494 3169 2634 2976 
Q 2775 2784 2828 2463 
L 2278 2388 
Q 2241 2644 2061 2787 
Q 1881 2931 1553 2931 
Q 1166 2931 1000 2803 
Q 834 2675 834 2503 
Q 834 2394 903 2306 
Q 972 2216 1119 2156 
Q 1203 2125 1616 2013 
Q 2213 1853 2448 1751 
Q 2684 1650 2818 1456 
Q 2953 1263 2953 975 
Q 2953 694 2789 445 
Q 2625 197 2315 61 
Q 2006 -75 1616 -75 
Q 969 -75 630 194 
Q 291 463 197 991 
z
" transform="scale(0.015625)"/>
        <path id="ArialMT-41" d="M -9 0 
L 1750 4581 
L 2403 4581 
L 4278 0 
L 3588 0 
L 3053 1388 
L 1138 1388 
L 634 0 
L -9 0 
z
M 1313 1881 
L 2866 1881 
L 2388 3150 
Q 2169 3728 2063 4100 
Q 1975 3659 1816 3225 
L 1313 1881 
z
" transform="scale(0.015625)"/>
        <path id="ArialMT-6c" d="M 409 0 
L 409 4581 
L 972 4581 
L 972 0 
L 409 0 
z
" transform="scale(0.015625)"/>
       </defs>
       <use xlink:href="#ArialMT-56"/>
       <use xlink:href="#ArialMT-73" x="66.699219"/>
       <use xlink:href="#ArialMT-41" x="116.699219"/>
       <use xlink:href="#ArialMT-6c" x="183.398438"/>
       <use xlink:href="#ArialMT-6c" x="205.615234"/>
      </g>
     </g>
    </g>
    <g id="xtick_2">
     <g id="text_2">
      <!-- VsGramN -->
      <g style="fill: #262626" transform="translate(187.168594 365.369844) scale(0.11 -0.11)">
       <defs>
        <path id="ArialMT-47" d="M 2638 1797 
L 2638 2334 
L 4578 2338 
L 4578 638 
Q 4131 281 3656 101 
Q 3181 -78 2681 -78 
Q 2006 -78 1454 211 
Q 903 500 622 1047 
Q 341 1594 341 2269 
Q 341 2938 620 3517 
Q 900 4097 1425 4378 
Q 1950 4659 2634 4659 
Q 3131 4659 3532 4498 
Q 3934 4338 4162 4050 
Q 4391 3763 4509 3300 
L 3963 3150 
Q 3859 3500 3706 3700 
Q 3553 3900 3268 4020 
Q 2984 4141 2638 4141 
Q 2222 4141 1919 4014 
Q 1616 3888 1430 3681 
Q 1244 3475 1141 3228 
Q 966 2803 966 2306 
Q 966 1694 1177 1281 
Q 1388 869 1791 669 
Q 2194 469 2647 469 
Q 3041 469 3416 620 
Q 3791 772 3984 944 
L 3984 1797 
L 2638 1797 
z
" transform="scale(0.015625)"/>
        <path id="ArialMT-72" d="M 416 0 
L 416 3319 
L 922 3319 
L 922 2816 
Q 1116 3169 1280 3281 
Q 1444 3394 1641 3394 
Q 1925 3394 2219 3213 
L 2025 2691 
Q 1819 2813 1613 2813 
Q 1428 2813 1281 2702 
Q 1134 2591 1072 2394 
Q 978 2094 978 1738 
L 978 0 
L 416 0 
z
" transform="scale(0.015625)"/>
        <path id="ArialMT-61" d="M 2588 409 
Q 2275 144 1986 34 
Q 1697 -75 1366 -75 
Q 819 -75 525 192 
Q 231 459 231 875 
Q 231 1119 342 1320 
Q 453 1522 633 1644 
Q 813 1766 1038 1828 
Q 1203 1872 1538 1913 
Q 2219 1994 2541 2106 
Q 2544 2222 2544 2253 
Q 2544 2597 2384 2738 
Q 2169 2928 1744 2928 
Q 1347 2928 1158 2789 
Q 969 2650 878 2297 
L 328 2372 
Q 403 2725 575 2942 
Q 747 3159 1072 3276 
Q 1397 3394 1825 3394 
Q 2250 3394 2515 3294 
Q 2781 3194 2906 3042 
Q 3031 2891 3081 2659 
Q 3109 2516 3109 2141 
L 3109 1391 
Q 3109 606 3145 398 
Q 3181 191 3288 0 
L 2700 0 
Q 2613 175 2588 409 
z
M 2541 1666 
Q 2234 1541 1622 1453 
Q 1275 1403 1131 1340 
Q 988 1278 909 1158 
Q 831 1038 831 891 
Q 831 666 1001 516 
Q 1172 366 1500 366 
Q 1825 366 2078 508 
Q 2331 650 2450 897 
Q 2541 1088 2541 1459 
L 2541 1666 
z
" transform="scale(0.015625)"/>
        <path id="ArialMT-6d" d="M 422 0 
L 422 3319 
L 925 3319 
L 925 2853 
Q 1081 3097 1340 3245 
Q 1600 3394 1931 3394 
Q 2300 3394 2536 3241 
Q 2772 3088 2869 2813 
Q 3263 3394 3894 3394 
Q 4388 3394 4653 3120 
Q 4919 2847 4919 2278 
L 4919 0 
L 4359 0 
L 4359 2091 
Q 4359 2428 4304 2576 
Q 4250 2725 4106 2815 
Q 3963 2906 3769 2906 
Q 3419 2906 3187 2673 
Q 2956 2441 2956 1928 
L 2956 0 
L 2394 0 
L 2394 2156 
Q 2394 2531 2256 2718 
Q 2119 2906 1806 2906 
Q 1569 2906 1367 2781 
Q 1166 2656 1075 2415 
Q 984 2175 984 1722 
L 984 0 
L 422 0 
z
" transform="scale(0.015625)"/>
        <path id="ArialMT-4e" d="M 488 0 
L 488 4581 
L 1109 4581 
L 3516 984 
L 3516 4581 
L 4097 4581 
L 4097 0 
L 3475 0 
L 1069 3600 
L 1069 0 
L 488 0 
z
" transform="scale(0.015625)"/>
       </defs>
       <use xlink:href="#ArialMT-56"/>
       <use xlink:href="#ArialMT-73" x="66.699219"/>
       <use xlink:href="#ArialMT-47" x="116.699219"/>
       <use xlink:href="#ArialMT-72" x="194.482422"/>
       <use xlink:href="#ArialMT-61" x="227.783203"/>
       <use xlink:href="#ArialMT-6d" x="283.398438"/>
       <use xlink:href="#ArialMT-4e" x="366.699219"/>
      </g>
     </g>
    </g>
    <g id="xtick_3">
     <g id="text_3">
      <!-- VsGramP -->
      <g style="fill: #262626" transform="translate(299.071953 365.369844) scale(0.11 -0.11)">
       <defs>
        <path id="ArialMT-50" d="M 494 0 
L 494 4581 
L 2222 4581 
Q 2678 4581 2919 4538 
Q 3256 4481 3484 4323 
Q 3713 4166 3852 3881 
Q 3991 3597 3991 3256 
Q 3991 2672 3619 2267 
Q 3247 1863 2275 1863 
L 1100 1863 
L 1100 0 
L 494 0 
z
M 1100 2403 
L 2284 2403 
Q 2872 2403 3119 2622 
Q 3366 2841 3366 3238 
Q 3366 3525 3220 3729 
Q 3075 3934 2838 4000 
Q 2684 4041 2272 4041 
L 1100 4041 
L 1100 2403 
z
" transform="scale(0.015625)"/>
       </defs>
       <use xlink:href="#ArialMT-56"/>
       <use xlink:href="#ArialMT-73" x="66.699219"/>
       <use xlink:href="#ArialMT-47" x="116.699219"/>
       <use xlink:href="#ArialMT-72" x="194.482422"/>
       <use xlink:href="#ArialMT-61" x="227.783203"/>
       <use xlink:href="#ArialMT-6d" x="283.398438"/>
       <use xlink:href="#ArialMT-50" x="366.699219"/>
      </g>
     </g>
    </g>
    <g id="xtick_4">
     <g id="text_4">
      <!-- VsEscherichia -->
      <g style="fill: #262626" transform="translate(399.661641 365.369844) scale(0.11 -0.11)">
       <defs>
        <path id="ArialMT-45" d="M 506 0 
L 506 4581 
L 3819 4581 
L 3819 4041 
L 1113 4041 
L 1113 2638 
L 3647 2638 
L 3647 2100 
L 1113 2100 
L 1113 541 
L 3925 541 
L 3925 0 
L 506 0 
z
" transform="scale(0.015625)"/>
        <path id="ArialMT-63" d="M 2588 1216 
L 3141 1144 
Q 3050 572 2676 248 
Q 2303 -75 1759 -75 
Q 1078 -75 664 370 
Q 250 816 250 1647 
Q 250 2184 428 2587 
Q 606 2991 970 3192 
Q 1334 3394 1763 3394 
Q 2303 3394 2647 3120 
Q 2991 2847 3088 2344 
L 2541 2259 
Q 2463 2594 2264 2762 
Q 2066 2931 1784 2931 
Q 1359 2931 1093 2626 
Q 828 2322 828 1663 
Q 828 994 1084 691 
Q 1341 388 1753 388 
Q 2084 388 2306 591 
Q 2528 794 2588 1216 
z
" transform="scale(0.015625)"/>
        <path id="ArialMT-68" d="M 422 0 
L 422 4581 
L 984 4581 
L 984 2938 
Q 1378 3394 1978 3394 
Q 2347 3394 2619 3248 
Q 2891 3103 3008 2847 
Q 3125 2591 3125 2103 
L 3125 0 
L 2563 0 
L 2563 2103 
Q 2563 2525 2380 2717 
Q 2197 2909 1863 2909 
Q 1613 2909 1392 2779 
Q 1172 2650 1078 2428 
Q 984 2206 984 1816 
L 984 0 
L 422 0 
z
" transform="scale(0.015625)"/>
        <path id="ArialMT-65" d="M 2694 1069 
L 3275 997 
Q 3138 488 2766 206 
Q 2394 -75 1816 -75 
Q 1088 -75 661 373 
Q 234 822 234 1631 
Q 234 2469 665 2931 
Q 1097 3394 1784 3394 
Q 2450 3394 2872 2941 
Q 3294 2488 3294 1666 
Q 3294 1616 3291 1516 
L 816 1516 
Q 847 969 1125 678 
Q 1403 388 1819 388 
Q 2128 388 2347 550 
Q 2566 713 2694 1069 
z
M 847 1978 
L 2700 1978 
Q 2663 2397 2488 2606 
Q 2219 2931 1791 2931 
Q 1403 2931 1139 2672 
Q 875 2413 847 1978 
z
" transform="scale(0.015625)"/>
        <path id="ArialMT-69" d="M 425 3934 
L 425 4581 
L 988 4581 
L 988 3934 
L 425 3934 
z
M 425 0 
L 425 3319 
L 988 3319 
L 988 0 
L 425 0 
z
" transform="scale(0.015625)"/>
       </defs>
       <use xlink:href="#ArialMT-56"/>
       <use xlink:href="#ArialMT-73" x="66.699219"/>
       <use xlink:href="#ArialMT-45" x="116.699219"/>
       <use xlink:href="#ArialMT-73" x="183.398438"/>
       <use xlink:href="#ArialMT-63" x="233.398438"/>
       <use xlink:href="#ArialMT-68" x="283.398438"/>
       <use xlink:href="#ArialMT-65" x="339.013672"/>
       <use xlink:href="#ArialMT-72" x="394.628906"/>
       <use xlink:href="#ArialMT-69" x="427.929688"/>
       <use xlink:href="#ArialMT-63" x="450.146484"/>
       <use xlink:href="#ArialMT-68" x="500.146484"/>
       <use xlink:href="#ArialMT-69" x="555.761719"/>
       <use xlink:href="#ArialMT-61" x="577.978516"/>
      </g>
     </g>
    </g>
    <g id="xtick_5">
     <g id="text_5">
      <!-- VsPseudomonas -->
      <g style="fill: #262626" transform="translate(504.530156 365.369844) scale(0.11 -0.11)">
       <defs>
        <path id="ArialMT-75" d="M 2597 0 
L 2597 488 
Q 2209 -75 1544 -75 
Q 1250 -75 995 37 
Q 741 150 617 320 
Q 494 491 444 738 
Q 409 903 409 1263 
L 409 3319 
L 972 3319 
L 972 1478 
Q 972 1038 1006 884 
Q 1059 663 1231 536 
Q 1403 409 1656 409 
Q 1909 409 2131 539 
Q 2353 669 2445 892 
Q 2538 1116 2538 1541 
L 2538 3319 
L 3100 3319 
L 3100 0 
L 2597 0 
z
" transform="scale(0.015625)"/>
        <path id="ArialMT-64" d="M 2575 0 
L 2575 419 
Q 2259 -75 1647 -75 
Q 1250 -75 917 144 
Q 584 363 401 755 
Q 219 1147 219 1656 
Q 219 2153 384 2558 
Q 550 2963 881 3178 
Q 1213 3394 1622 3394 
Q 1922 3394 2156 3267 
Q 2391 3141 2538 2938 
L 2538 4581 
L 3097 4581 
L 3097 0 
L 2575 0 
z
M 797 1656 
Q 797 1019 1065 703 
Q 1334 388 1700 388 
Q 2069 388 2326 689 
Q 2584 991 2584 1609 
Q 2584 2291 2321 2609 
Q 2059 2928 1675 2928 
Q 1300 2928 1048 2622 
Q 797 2316 797 1656 
z
" transform="scale(0.015625)"/>
        <path id="ArialMT-6f" d="M 213 1659 
Q 213 2581 725 3025 
Q 1153 3394 1769 3394 
Q 2453 3394 2887 2945 
Q 3322 2497 3322 1706 
Q 3322 1066 3130 698 
Q 2938 331 2570 128 
Q 2203 -75 1769 -75 
Q 1072 -75 642 372 
Q 213 819 213 1659 
z
M 791 1659 
Q 791 1022 1069 705 
Q 1347 388 1769 388 
Q 2188 388 2466 706 
Q 2744 1025 2744 1678 
Q 2744 2294 2464 2611 
Q 2184 2928 1769 2928 
Q 1347 2928 1069 2612 
Q 791 2297 791 1659 
z
" transform="scale(0.015625)"/>
        <path id="ArialMT-6e" d="M 422 0 
L 422 3319 
L 928 3319 
L 928 2847 
Q 1294 3394 1984 3394 
Q 2284 3394 2536 3286 
Q 2788 3178 2913 3003 
Q 3038 2828 3088 2588 
Q 3119 2431 3119 2041 
L 3119 0 
L 2556 0 
L 2556 2019 
Q 2556 2363 2490 2533 
Q 2425 2703 2258 2804 
Q 2091 2906 1866 2906 
Q 1506 2906 1245 2678 
Q 984 2450 984 1813 
L 984 0 
L 422 0 
z
" transform="scale(0.015625)"/>
       </defs>
       <use xlink:href="#ArialMT-56"/>
       <use xlink:href="#ArialMT-73" x="66.699219"/>
       <use xlink:href="#ArialMT-50" x="116.699219"/>
       <use xlink:href="#ArialMT-73" x="183.398438"/>
       <use xlink:href="#ArialMT-65" x="233.398438"/>
       <use xlink:href="#ArialMT-75" x="289.013672"/>
       <use xlink:href="#ArialMT-64" x="344.628906"/>
       <use xlink:href="#ArialMT-6f" x="400.244141"/>
       <use xlink:href="#ArialMT-6d" x="455.859375"/>
       <use xlink:href="#ArialMT-6f" x="539.160156"/>
       <use xlink:href="#ArialMT-6e" x="594.775391"/>
       <use xlink:href="#ArialMT-61" x="650.390625"/>
       <use xlink:href="#ArialMT-73" x="706.005859"/>
      </g>
     </g>
    </g>
    <g id="xtick_6">
     <g id="text_6">
      <!-- VsStaphylococcus -->
      <g style="fill: #262626" transform="translate(612.77 365.503906) scale(0.11 -0.11)">
       <defs>
        <path id="ArialMT-53" d="M 288 1472 
L 859 1522 
Q 900 1178 1048 958 
Q 1197 738 1509 602 
Q 1822 466 2213 466 
Q 2559 466 2825 569 
Q 3091 672 3220 851 
Q 3350 1031 3350 1244 
Q 3350 1459 3225 1620 
Q 3100 1781 2813 1891 
Q 2628 1963 1997 2114 
Q 1366 2266 1113 2400 
Q 784 2572 623 2826 
Q 463 3081 463 3397 
Q 463 3744 659 4045 
Q 856 4347 1234 4503 
Q 1613 4659 2075 4659 
Q 2584 4659 2973 4495 
Q 3363 4331 3572 4012 
Q 3781 3694 3797 3291 
L 3216 3247 
Q 3169 3681 2898 3903 
Q 2628 4125 2100 4125 
Q 1550 4125 1298 3923 
Q 1047 3722 1047 3438 
Q 1047 3191 1225 3031 
Q 1400 2872 2139 2705 
Q 2878 2538 3153 2413 
Q 3553 2228 3743 1945 
Q 3934 1663 3934 1294 
Q 3934 928 3725 604 
Q 3516 281 3123 101 
Q 2731 -78 2241 -78 
Q 1619 -78 1198 103 
Q 778 284 539 648 
Q 300 1013 288 1472 
z
" transform="scale(0.015625)"/>
        <path id="ArialMT-74" d="M 1650 503 
L 1731 6 
Q 1494 -44 1306 -44 
Q 1000 -44 831 53 
Q 663 150 594 308 
Q 525 466 525 972 
L 525 2881 
L 113 2881 
L 113 3319 
L 525 3319 
L 525 4141 
L 1084 4478 
L 1084 3319 
L 1650 3319 
L 1650 2881 
L 1084 2881 
L 1084 941 
Q 1084 700 1114 631 
Q 1144 563 1211 522 
Q 1278 481 1403 481 
Q 1497 481 1650 503 
z
" transform="scale(0.015625)"/>
        <path id="ArialMT-70" d="M 422 -1272 
L 422 3319 
L 934 3319 
L 934 2888 
Q 1116 3141 1344 3267 
Q 1572 3394 1897 3394 
Q 2322 3394 2647 3175 
Q 2972 2956 3137 2557 
Q 3303 2159 3303 1684 
Q 3303 1175 3120 767 
Q 2938 359 2589 142 
Q 2241 -75 1856 -75 
Q 1575 -75 1351 44 
Q 1128 163 984 344 
L 984 -1272 
L 422 -1272 
z
M 931 1641 
Q 931 1000 1190 694 
Q 1450 388 1819 388 
Q 2194 388 2461 705 
Q 2728 1022 2728 1688 
Q 2728 2322 2467 2637 
Q 2206 2953 1844 2953 
Q 1484 2953 1207 2617 
Q 931 2281 931 1641 
z
" transform="scale(0.015625)"/>
        <path id="ArialMT-79" d="M 397 -1278 
L 334 -750 
Q 519 -800 656 -800 
Q 844 -800 956 -737 
Q 1069 -675 1141 -563 
Q 1194 -478 1313 -144 
Q 1328 -97 1363 -6 
L 103 3319 
L 709 3319 
L 1400 1397 
Q 1534 1031 1641 628 
Q 1738 1016 1872 1384 
L 2581 3319 
L 3144 3319 
L 1881 -56 
Q 1678 -603 1566 -809 
Q 1416 -1088 1222 -1217 
Q 1028 -1347 759 -1347 
Q 597 -1347 397 -1278 
z
" transform="scale(0.015625)"/>
       </defs>
       <use xlink:href="#ArialMT-56"/>
       <use xlink:href="#ArialMT-73" x="66.699219"/>
       <use xlink:href="#ArialMT-53" x="116.699219"/>
       <use xlink:href="#ArialMT-74" x="183.398438"/>
       <use xlink:href="#ArialMT-61" x="211.181641"/>
       <use xlink:href="#ArialMT-70" x="266.796875"/>
       <use xlink:href="#ArialMT-68" x="322.412109"/>
       <use xlink:href="#ArialMT-79" x="378.027344"/>
       <use xlink:href="#ArialMT-6c" x="428.027344"/>
       <use xlink:href="#ArialMT-6f" x="450.244141"/>
       <use xlink:href="#ArialMT-63" x="505.859375"/>
       <use xlink:href="#ArialMT-6f" x="555.859375"/>
       <use xlink:href="#ArialMT-63" x="611.474609"/>
       <use xlink:href="#ArialMT-63" x="661.474609"/>
       <use xlink:href="#ArialMT-75" x="711.474609"/>
       <use xlink:href="#ArialMT-73" x="767.089844"/>
      </g>
     </g>
    </g>
    <g id="xtick_7">
     <g id="text_7">
      <!-- VsBacillus -->
      <g style="fill: #262626" transform="translate(743.937969 365.369844) scale(0.11 -0.11)">
       <defs>
        <path id="ArialMT-42" d="M 469 0 
L 469 4581 
L 2188 4581 
Q 2713 4581 3030 4442 
Q 3347 4303 3526 4014 
Q 3706 3725 3706 3409 
Q 3706 3116 3547 2856 
Q 3388 2597 3066 2438 
Q 3481 2316 3704 2022 
Q 3928 1728 3928 1328 
Q 3928 1006 3792 729 
Q 3656 453 3456 303 
Q 3256 153 2954 76 
Q 2653 0 2216 0 
L 469 0 
z
M 1075 2656 
L 2066 2656 
Q 2469 2656 2644 2709 
Q 2875 2778 2992 2937 
Q 3109 3097 3109 3338 
Q 3109 3566 3000 3739 
Q 2891 3913 2687 3977 
Q 2484 4041 1991 4041 
L 1075 4041 
L 1075 2656 
z
M 1075 541 
L 2216 541 
Q 2509 541 2628 563 
Q 2838 600 2978 687 
Q 3119 775 3209 942 
Q 3300 1109 3300 1328 
Q 3300 1584 3169 1773 
Q 3038 1963 2805 2039 
Q 2572 2116 2134 2116 
L 1075 2116 
L 1075 541 
z
" transform="scale(0.015625)"/>
       </defs>
       <use xlink:href="#ArialMT-56"/>
       <use xlink:href="#ArialMT-73" x="66.699219"/>
       <use xlink:href="#ArialMT-42" x="116.699219"/>
       <use xlink:href="#ArialMT-61" x="183.398438"/>
       <use xlink:href="#ArialMT-63" x="239.013672"/>
       <use xlink:href="#ArialMT-69" x="289.013672"/>
       <use xlink:href="#ArialMT-6c" x="311.230469"/>
       <use xlink:href="#ArialMT-6c" x="333.447266"/>
       <use xlink:href="#ArialMT-75" x="355.664062"/>
       <use xlink:href="#ArialMT-73" x="411.279297"/>
      </g>
     </g>
    </g>
    <g id="text_8">
     <!-- Modelo RF de clasificación -->
     <g style="fill: #262626" transform="translate(362.814063 380.408437) scale(0.12 -0.12)">
      <defs>
       <path id="ArialMT-4d" d="M 475 0 
L 475 4581 
L 1388 4581 
L 2472 1338 
Q 2622 884 2691 659 
Q 2769 909 2934 1394 
L 4031 4581 
L 4847 4581 
L 4847 0 
L 4263 0 
L 4263 3834 
L 2931 0 
L 2384 0 
L 1059 3900 
L 1059 0 
L 475 0 
z
" transform="scale(0.015625)"/>
       <path id="ArialMT-20" transform="scale(0.015625)"/>
       <path id="ArialMT-52" d="M 503 0 
L 503 4581 
L 2534 4581 
Q 3147 4581 3465 4457 
Q 3784 4334 3975 4021 
Q 4166 3709 4166 3331 
Q 4166 2844 3850 2509 
Q 3534 2175 2875 2084 
Q 3116 1969 3241 1856 
Q 3506 1613 3744 1247 
L 4541 0 
L 3778 0 
L 3172 953 
Q 2906 1366 2734 1584 
Q 2563 1803 2427 1890 
Q 2291 1978 2150 2013 
Q 2047 2034 1813 2034 
L 1109 2034 
L 1109 0 
L 503 0 
z
M 1109 2559 
L 2413 2559 
Q 2828 2559 3062 2645 
Q 3297 2731 3419 2920 
Q 3541 3109 3541 3331 
Q 3541 3656 3305 3865 
Q 3069 4075 2559 4075 
L 1109 4075 
L 1109 2559 
z
" transform="scale(0.015625)"/>
       <path id="ArialMT-46" d="M 525 0 
L 525 4581 
L 3616 4581 
L 3616 4041 
L 1131 4041 
L 1131 2622 
L 3281 2622 
L 3281 2081 
L 1131 2081 
L 1131 0 
L 525 0 
z
" transform="scale(0.015625)"/>
       <path id="ArialMT-66" d="M 556 0 
L 556 2881 
L 59 2881 
L 59 3319 
L 556 3319 
L 556 3672 
Q 556 4006 616 4169 
Q 697 4388 901 4523 
Q 1106 4659 1475 4659 
Q 1713 4659 2000 4603 
L 1916 4113 
Q 1741 4144 1584 4144 
Q 1328 4144 1222 4034 
Q 1116 3925 1116 3625 
L 1116 3319 
L 1763 3319 
L 1763 2881 
L 1116 2881 
L 1116 0 
L 556 0 
z
" transform="scale(0.015625)"/>
       <path id="ArialMT-f3" d="M 213 1659 
Q 213 2581 725 3025 
Q 1153 3394 1769 3394 
Q 2453 3394 2887 2945 
Q 3322 2497 3322 1706 
Q 3322 1066 3130 698 
Q 2938 331 2570 128 
Q 2203 -75 1769 -75 
Q 1072 -75 642 372 
Q 213 819 213 1659 
z
M 791 1659 
Q 791 1022 1069 705 
Q 1347 388 1769 388 
Q 2188 388 2466 706 
Q 2744 1025 2744 1678 
Q 2744 2294 2464 2611 
Q 2184 2928 1769 2928 
Q 1347 2928 1069 2612 
Q 791 2297 791 1659 
z
M 1454 3731 
L 1869 4606 
L 2607 4606 
L 1919 3731 
L 1454 3731 
z
" transform="scale(0.015625)"/>
      </defs>
      <use xlink:href="#ArialMT-4d"/>
      <use xlink:href="#ArialMT-6f" x="83.300781"/>
      <use xlink:href="#ArialMT-64" x="138.916016"/>
      <use xlink:href="#ArialMT-65" x="194.53125"/>
      <use xlink:href="#ArialMT-6c" x="250.146484"/>
      <use xlink:href="#ArialMT-6f" x="272.363281"/>
      <use xlink:href="#ArialMT-20" x="327.978516"/>
      <use xlink:href="#ArialMT-52" x="355.761719"/>
      <use xlink:href="#ArialMT-46" x="427.978516"/>
      <use xlink:href="#ArialMT-20" x="489.0625"/>
      <use xlink:href="#ArialMT-64" x="516.845703"/>
      <use xlink:href="#ArialMT-65" x="572.460938"/>
      <use xlink:href="#ArialMT-20" x="628.076172"/>
      <use xlink:href="#ArialMT-63" x="655.859375"/>
      <use xlink:href="#ArialMT-6c" x="705.859375"/>
      <use xlink:href="#ArialMT-61" x="728.076172"/>
      <use xlink:href="#ArialMT-73" x="783.691406"/>
      <use xlink:href="#ArialMT-69" x="833.691406"/>
      <use xlink:href="#ArialMT-66" x="855.908203"/>
      <use xlink:href="#ArialMT-69" x="883.691406"/>
      <use xlink:href="#ArialMT-63" x="905.908203"/>
      <use xlink:href="#ArialMT-61" x="955.908203"/>
      <use xlink:href="#ArialMT-63" x="1011.523438"/>
      <use xlink:href="#ArialMT-69" x="1061.523438"/>
      <use xlink:href="#ArialMT-f3" x="1083.740234"/>
      <use xlink:href="#ArialMT-6e" x="1139.355469"/>
     </g>
    </g>
   </g>
   <g id="matplotlib.axis_2">
    <g id="ytick_1">
     <g id="line2d_1">
      <path d="M 43.908438 347.99625 
L 825.108438 347.99625 
" clip-path="url(#pc21b3fb9ff)" style="fill: none; stroke: #cccccc; stroke-linecap: round"/>
     </g>
     <g id="text_9">
      <!-- 0 -->
      <g style="fill: #262626" transform="translate(28.291406 351.933047) scale(0.11 -0.11)">
       <defs>
        <path id="ArialMT-30" d="M 266 2259 
Q 266 3072 433 3567 
Q 600 4063 929 4331 
Q 1259 4600 1759 4600 
Q 2128 4600 2406 4451 
Q 2684 4303 2865 4023 
Q 3047 3744 3150 3342 
Q 3253 2941 3253 2259 
Q 3253 1453 3087 958 
Q 2922 463 2592 192 
Q 2263 -78 1759 -78 
Q 1097 -78 719 397 
Q 266 969 266 2259 
z
M 844 2259 
Q 844 1131 1108 757 
Q 1372 384 1759 384 
Q 2147 384 2411 759 
Q 2675 1134 2675 2259 
Q 2675 3391 2411 3762 
Q 2147 4134 1753 4134 
Q 1366 4134 1134 3806 
Q 844 3388 844 2259 
z
" transform="scale(0.015625)"/>
       </defs>
       <use xlink:href="#ArialMT-30"/>
      </g>
     </g>
    </g>
    <g id="ytick_2">
     <g id="line2d_2">
      <path d="M 43.908438 306.56694 
L 825.108438 306.56694 
" clip-path="url(#pc21b3fb9ff)" style="fill: none; stroke: #cccccc; stroke-linecap: round"/>
     </g>
     <g id="text_10">
      <!-- 10 -->
      <g style="fill: #262626" transform="translate(22.174375 310.503736) scale(0.11 -0.11)">
       <defs>
        <path id="ArialMT-31" d="M 2384 0 
L 1822 0 
L 1822 3584 
Q 1619 3391 1289 3197 
Q 959 3003 697 2906 
L 697 3450 
Q 1169 3672 1522 3987 
Q 1875 4303 2022 4600 
L 2384 4600 
L 2384 0 
z
" transform="scale(0.015625)"/>
       </defs>
       <use xlink:href="#ArialMT-31"/>
       <use xlink:href="#ArialMT-30" x="55.615234"/>
      </g>
     </g>
    </g>
    <g id="ytick_3">
     <g id="line2d_3">
      <path d="M 43.908438 265.137629 
L 825.108438 265.137629 
" clip-path="url(#pc21b3fb9ff)" style="fill: none; stroke: #cccccc; stroke-linecap: round"/>
     </g>
     <g id="text_11">
      <!-- 20 -->
      <g style="fill: #262626" transform="translate(22.174375 269.074426) scale(0.11 -0.11)">
       <defs>
        <path id="ArialMT-32" d="M 3222 541 
L 3222 0 
L 194 0 
Q 188 203 259 391 
Q 375 700 629 1000 
Q 884 1300 1366 1694 
Q 2113 2306 2375 2664 
Q 2638 3022 2638 3341 
Q 2638 3675 2398 3904 
Q 2159 4134 1775 4134 
Q 1369 4134 1125 3890 
Q 881 3647 878 3216 
L 300 3275 
Q 359 3922 746 4261 
Q 1134 4600 1788 4600 
Q 2447 4600 2831 4234 
Q 3216 3869 3216 3328 
Q 3216 3053 3103 2787 
Q 2991 2522 2730 2228 
Q 2469 1934 1863 1422 
Q 1356 997 1212 845 
Q 1069 694 975 541 
L 3222 541 
z
" transform="scale(0.015625)"/>
       </defs>
       <use xlink:href="#ArialMT-32"/>
       <use xlink:href="#ArialMT-30" x="55.615234"/>
      </g>
     </g>
    </g>
    <g id="ytick_4">
     <g id="line2d_4">
      <path d="M 43.908438 223.708319 
L 825.108438 223.708319 
" clip-path="url(#pc21b3fb9ff)" style="fill: none; stroke: #cccccc; stroke-linecap: round"/>
     </g>
     <g id="text_12">
      <!-- 30 -->
      <g style="fill: #262626" transform="translate(22.174375 227.645116) scale(0.11 -0.11)">
       <defs>
        <path id="ArialMT-33" d="M 269 1209 
L 831 1284 
Q 928 806 1161 595 
Q 1394 384 1728 384 
Q 2125 384 2398 659 
Q 2672 934 2672 1341 
Q 2672 1728 2419 1979 
Q 2166 2231 1775 2231 
Q 1616 2231 1378 2169 
L 1441 2663 
Q 1497 2656 1531 2656 
Q 1891 2656 2178 2843 
Q 2466 3031 2466 3422 
Q 2466 3731 2256 3934 
Q 2047 4138 1716 4138 
Q 1388 4138 1169 3931 
Q 950 3725 888 3313 
L 325 3413 
Q 428 3978 793 4289 
Q 1159 4600 1703 4600 
Q 2078 4600 2393 4439 
Q 2709 4278 2876 4000 
Q 3044 3722 3044 3409 
Q 3044 3113 2884 2869 
Q 2725 2625 2413 2481 
Q 2819 2388 3044 2092 
Q 3269 1797 3269 1353 
Q 3269 753 2831 336 
Q 2394 -81 1725 -81 
Q 1122 -81 723 278 
Q 325 638 269 1209 
z
" transform="scale(0.015625)"/>
       </defs>
       <use xlink:href="#ArialMT-33"/>
       <use xlink:href="#ArialMT-30" x="55.615234"/>
      </g>
     </g>
    </g>
    <g id="ytick_5">
     <g id="line2d_5">
      <path d="M 43.908438 182.279008 
L 825.108438 182.279008 
" clip-path="url(#pc21b3fb9ff)" style="fill: none; stroke: #cccccc; stroke-linecap: round"/>
     </g>
     <g id="text_13">
      <!-- 40 -->
      <g style="fill: #262626" transform="translate(22.174375 186.215805) scale(0.11 -0.11)">
       <defs>
        <path id="ArialMT-34" d="M 2069 0 
L 2069 1097 
L 81 1097 
L 81 1613 
L 2172 4581 
L 2631 4581 
L 2631 1613 
L 3250 1613 
L 3250 1097 
L 2631 1097 
L 2631 0 
L 2069 0 
z
M 2069 1613 
L 2069 3678 
L 634 1613 
L 2069 1613 
z
" transform="scale(0.015625)"/>
       </defs>
       <use xlink:href="#ArialMT-34"/>
       <use xlink:href="#ArialMT-30" x="55.615234"/>
      </g>
     </g>
    </g>
    <g id="ytick_6">
     <g id="line2d_6">
      <path d="M 43.908438 140.849698 
L 825.108438 140.849698 
" clip-path="url(#pc21b3fb9ff)" style="fill: none; stroke: #cccccc; stroke-linecap: round"/>
     </g>
     <g id="text_14">
      <!-- 50 -->
      <g style="fill: #262626" transform="translate(22.174375 144.786495) scale(0.11 -0.11)">
       <defs>
        <path id="ArialMT-35" d="M 266 1200 
L 856 1250 
Q 922 819 1161 601 
Q 1400 384 1738 384 
Q 2144 384 2425 690 
Q 2706 997 2706 1503 
Q 2706 1984 2436 2262 
Q 2166 2541 1728 2541 
Q 1456 2541 1237 2417 
Q 1019 2294 894 2097 
L 366 2166 
L 809 4519 
L 3088 4519 
L 3088 3981 
L 1259 3981 
L 1013 2750 
Q 1425 3038 1878 3038 
Q 2478 3038 2890 2622 
Q 3303 2206 3303 1553 
Q 3303 931 2941 478 
Q 2500 -78 1738 -78 
Q 1113 -78 717 272 
Q 322 622 266 1200 
z
" transform="scale(0.015625)"/>
       </defs>
       <use xlink:href="#ArialMT-35"/>
       <use xlink:href="#ArialMT-30" x="55.615234"/>
      </g>
     </g>
    </g>
    <g id="ytick_7">
     <g id="line2d_7">
      <path d="M 43.908438 99.420388 
L 825.108438 99.420388 
" clip-path="url(#pc21b3fb9ff)" style="fill: none; stroke: #cccccc; stroke-linecap: round"/>
     </g>
     <g id="text_15">
      <!-- 60 -->
      <g style="fill: #262626" transform="translate(22.174375 103.357185) scale(0.11 -0.11)">
       <defs>
        <path id="ArialMT-36" d="M 3184 3459 
L 2625 3416 
Q 2550 3747 2413 3897 
Q 2184 4138 1850 4138 
Q 1581 4138 1378 3988 
Q 1113 3794 959 3422 
Q 806 3050 800 2363 
Q 1003 2672 1297 2822 
Q 1591 2972 1913 2972 
Q 2475 2972 2870 2558 
Q 3266 2144 3266 1488 
Q 3266 1056 3080 686 
Q 2894 316 2569 119 
Q 2244 -78 1831 -78 
Q 1128 -78 684 439 
Q 241 956 241 2144 
Q 241 3472 731 4075 
Q 1159 4600 1884 4600 
Q 2425 4600 2770 4297 
Q 3116 3994 3184 3459 
z
M 888 1484 
Q 888 1194 1011 928 
Q 1134 663 1356 523 
Q 1578 384 1822 384 
Q 2178 384 2434 671 
Q 2691 959 2691 1453 
Q 2691 1928 2437 2201 
Q 2184 2475 1800 2475 
Q 1419 2475 1153 2201 
Q 888 1928 888 1484 
z
" transform="scale(0.015625)"/>
       </defs>
       <use xlink:href="#ArialMT-36"/>
       <use xlink:href="#ArialMT-30" x="55.615234"/>
      </g>
     </g>
    </g>
    <g id="ytick_8">
     <g id="line2d_8">
      <path d="M 43.908438 57.991077 
L 825.108438 57.991077 
" clip-path="url(#pc21b3fb9ff)" style="fill: none; stroke: #cccccc; stroke-linecap: round"/>
     </g>
     <g id="text_16">
      <!-- 70 -->
      <g style="fill: #262626" transform="translate(22.174375 61.927874) scale(0.11 -0.11)">
       <defs>
        <path id="ArialMT-37" d="M 303 3981 
L 303 4522 
L 3269 4522 
L 3269 4084 
Q 2831 3619 2401 2847 
Q 1972 2075 1738 1259 
Q 1569 684 1522 0 
L 944 0 
Q 953 541 1156 1306 
Q 1359 2072 1739 2783 
Q 2119 3494 2547 3981 
L 303 3981 
z
" transform="scale(0.015625)"/>
       </defs>
       <use xlink:href="#ArialMT-37"/>
       <use xlink:href="#ArialMT-30" x="55.615234"/>
      </g>
     </g>
    </g>
    <g id="text_17">
     <!-- Valor Medio -->
     <g style="fill: #262626" transform="translate(15.789375 216.4875) rotate(-90) scale(0.12 -0.12)">
      <use xlink:href="#ArialMT-56"/>
      <use xlink:href="#ArialMT-61" x="59.324219"/>
      <use xlink:href="#ArialMT-6c" x="114.939453"/>
      <use xlink:href="#ArialMT-6f" x="137.15625"/>
      <use xlink:href="#ArialMT-72" x="192.771484"/>
      <use xlink:href="#ArialMT-20" x="226.072266"/>
      <use xlink:href="#ArialMT-4d" x="253.855469"/>
      <use xlink:href="#ArialMT-65" x="337.15625"/>
      <use xlink:href="#ArialMT-64" x="392.771484"/>
      <use xlink:href="#ArialMT-69" x="448.386719"/>
      <use xlink:href="#ArialMT-6f" x="470.603516"/>
     </g>
    </g>
   </g>
   <g id="patch_3">
    <path d="M 55.068438 347.99625 
L 67.822723 347.99625 
L 67.822723 323.168223 
L 55.068438 323.168223 
z
" clip-path="url(#pc21b3fb9ff)" style="fill: #aeccdb; stroke: #ffffff; stroke-linejoin: miter"/>
   </g>
   <g id="patch_4">
    <path d="M 166.668438 347.99625 
L 179.422723 347.99625 
L 179.422723 275.897657 
L 166.668438 275.897657 
z
" clip-path="url(#pc21b3fb9ff)" style="fill: #aeccdb; stroke: #ffffff; stroke-linejoin: miter"/>
   </g>
   <g id="patch_5">
    <path d="M 278.268438 347.99625 
L 291.022723 347.99625 
L 291.022723 337.822444 
L 278.268438 337.822444 
z
" clip-path="url(#pc21b3fb9ff)" style="fill: #aeccdb; stroke: #ffffff; stroke-linejoin: miter"/>
   </g>
   <g id="patch_6">
    <path d="M 389.868437 347.99625 
L 402.622723 347.99625 
L 402.622723 338.562149 
L 389.868437 338.562149 
z
" clip-path="url(#pc21b3fb9ff)" style="fill: #aeccdb; stroke: #ffffff; stroke-linejoin: miter"/>
   </g>
   <g id="patch_7">
    <path d="M 0 0 
z
" clip-path="url(#pc21b3fb9ff)" style="fill: #aeccdb; stroke: #ffffff; stroke-linejoin: miter"/>
   </g>
   <g id="patch_8">
    <path d="M 613.068438 347.99625 
L 625.822723 347.99625 
L 625.822723 313.365757 
L 613.068438 313.365757 
z
" clip-path="url(#pc21b3fb9ff)" style="fill: #aeccdb; stroke: #ffffff; stroke-linejoin: miter"/>
   </g>
   <g id="patch_9">
    <path d="M 724.668438 347.99625 
L 737.422723 347.99625 
L 737.422723 279.366428 
L 724.668438 279.366428 
z
" clip-path="url(#pc21b3fb9ff)" style="fill: #aeccdb; stroke: #ffffff; stroke-linejoin: miter"/>
   </g>
   <g id="patch_10">
    <path d="M 67.822723 347.99625 
L 80.577009 347.99625 
L 80.577009 241.484857 
L 67.822723 241.484857 
z
" clip-path="url(#pc21b3fb9ff)" style="fill: #3274a1; stroke: #ffffff; stroke-linejoin: miter"/>
   </g>
   <g id="patch_11">
    <path d="M 179.422723 347.99625 
L 192.177009 347.99625 
L 192.177009 218.429317 
L 179.422723 218.429317 
z
" clip-path="url(#pc21b3fb9ff)" style="fill: #3274a1; stroke: #ffffff; stroke-linejoin: miter"/>
   </g>
   <g id="patch_12">
    <path d="M 291.022723 347.99625 
L 303.777009 347.99625 
L 303.777009 240.114433 
L 291.022723 240.114433 
z
" clip-path="url(#pc21b3fb9ff)" style="fill: #3274a1; stroke: #ffffff; stroke-linejoin: miter"/>
   </g>
   <g id="patch_13">
    <path d="M 402.622723 347.99625 
L 415.377009 347.99625 
L 415.377009 270.762759 
L 402.622723 270.762759 
z
" clip-path="url(#pc21b3fb9ff)" style="fill: #3274a1; stroke: #ffffff; stroke-linejoin: miter"/>
   </g>
   <g id="patch_14">
    <path d="M 514.222723 347.99625 
L 526.977009 347.99625 
L 526.977009 213.754648 
L 514.222723 213.754648 
z
" clip-path="url(#pc21b3fb9ff)" style="fill: #3274a1; stroke: #ffffff; stroke-linejoin: miter"/>
   </g>
   <g id="patch_15">
    <path d="M 625.822723 347.99625 
L 638.577009 347.99625 
L 638.577009 207.207947 
L 625.822723 207.207947 
z
" clip-path="url(#pc21b3fb9ff)" style="fill: #3274a1; stroke: #ffffff; stroke-linejoin: miter"/>
   </g>
   <g id="patch_16">
    <path d="M 737.422723 347.99625 
L 750.177009 347.99625 
L 750.177009 170.627553 
L 737.422723 170.627553 
z
" clip-path="url(#pc21b3fb9ff)" style="fill: #3274a1; stroke: #ffffff; stroke-linejoin: miter"/>
   </g>
   <g id="patch_17">
    <path d="M 80.577009 347.99625 
L 93.331295 347.99625 
L 93.331295 293.880451 
L 80.577009 293.880451 
z
" clip-path="url(#pc21b3fb9ff)" style="fill: #b3d495; stroke: #ffffff; stroke-linejoin: miter"/>
   </g>
   <g id="patch_18">
    <path d="M 192.177009 347.99625 
L 204.931295 347.99625 
L 204.931295 300.996058 
L 192.177009 300.996058 
z
" clip-path="url(#pc21b3fb9ff)" style="fill: #b3d495; stroke: #ffffff; stroke-linejoin: miter"/>
   </g>
   <g id="patch_19">
    <path d="M 303.777009 347.99625 
L 316.531295 347.99625 
L 316.531295 268.694669 
L 303.777009 268.694669 
z
" clip-path="url(#pc21b3fb9ff)" style="fill: #b3d495; stroke: #ffffff; stroke-linejoin: miter"/>
   </g>
   <g id="patch_20">
    <path d="M 415.377009 347.99625 
L 428.131295 347.99625 
L 428.131295 310.279291 
L 415.377009 310.279291 
z
" clip-path="url(#pc21b3fb9ff)" style="fill: #b3d495; stroke: #ffffff; stroke-linejoin: miter"/>
   </g>
   <g id="patch_21">
    <path d="M 526.977009 347.99625 
L 539.731295 347.99625 
L 539.731295 334.942869 
L 526.977009 334.942869 
z
" clip-path="url(#pc21b3fb9ff)" style="fill: #b3d495; stroke: #ffffff; stroke-linejoin: miter"/>
   </g>
   <g id="patch_22">
    <path d="M 638.577009 347.99625 
L 651.331295 347.99625 
L 651.331295 270.847627 
L 638.577009 270.847627 
z
" clip-path="url(#pc21b3fb9ff)" style="fill: #b3d495; stroke: #ffffff; stroke-linejoin: miter"/>
   </g>
   <g id="patch_23">
    <path d="M 750.177009 347.99625 
L 762.931295 347.99625 
L 762.931295 298.779669 
L 750.177009 298.779669 
z
" clip-path="url(#pc21b3fb9ff)" style="fill: #b3d495; stroke: #ffffff; stroke-linejoin: miter"/>
   </g>
   <g id="patch_24">
    <path d="M 93.331295 347.99625 
L 106.08558 347.99625 
L 106.08558 307.656866 
L 93.331295 307.656866 
z
" clip-path="url(#pc21b3fb9ff)" style="fill: #40923a; stroke: #ffffff; stroke-linejoin: miter"/>
   </g>
   <g id="patch_25">
    <path d="M 204.931295 347.99625 
L 217.68558 347.99625 
L 217.68558 276.990964 
L 204.931295 276.990964 
z
" clip-path="url(#pc21b3fb9ff)" style="fill: #40923a; stroke: #ffffff; stroke-linejoin: miter"/>
   </g>
   <g id="patch_26">
    <path d="M 316.531295 347.99625 
L 329.28558 347.99625 
L 329.28558 247.039071 
L 316.531295 247.039071 
z
" clip-path="url(#pc21b3fb9ff)" style="fill: #40923a; stroke: #ffffff; stroke-linejoin: miter"/>
   </g>
   <g id="patch_27">
    <path d="M 428.131295 347.99625 
L 440.88558 347.99625 
L 440.88558 310.202007 
L 428.131295 310.202007 
z
" clip-path="url(#pc21b3fb9ff)" style="fill: #40923a; stroke: #ffffff; stroke-linejoin: miter"/>
   </g>
   <g id="patch_28">
    <path d="M 539.731295 347.99625 
L 552.48558 347.99625 
L 552.48558 335.298622 
L 539.731295 335.298622 
z
" clip-path="url(#pc21b3fb9ff)" style="fill: #40923a; stroke: #ffffff; stroke-linejoin: miter"/>
   </g>
   <g id="patch_29">
    <path d="M 651.331295 347.99625 
L 664.08558 347.99625 
L 664.08558 284.485759 
L 651.331295 284.485759 
z
" clip-path="url(#pc21b3fb9ff)" style="fill: #40923a; stroke: #ffffff; stroke-linejoin: miter"/>
   </g>
   <g id="patch_30">
    <path d="M 762.931295 347.99625 
L 775.68558 347.99625 
L 775.68558 280.023038 
L 762.931295 280.023038 
z
" clip-path="url(#pc21b3fb9ff)" style="fill: #40923a; stroke: #ffffff; stroke-linejoin: miter"/>
   </g>
   <g id="patch_31">
    <path d="M 106.08558 347.99625 
L 118.839866 347.99625 
L 118.839866 312.412743 
L 106.08558 312.412743 
z
" clip-path="url(#pc21b3fb9ff)" style="fill: #efa6a5; stroke: #ffffff; stroke-linejoin: miter"/>
   </g>
   <g id="patch_32">
    <path d="M 217.68558 347.99625 
L 230.439866 347.99625 
L 230.439866 273.698457 
L 217.68558 273.698457 
z
" clip-path="url(#pc21b3fb9ff)" style="fill: #efa6a5; stroke: #ffffff; stroke-linejoin: miter"/>
   </g>
   <g id="patch_33">
    <path d="M 329.28558 347.99625 
L 342.039866 347.99625 
L 342.039866 268.98407 
L 329.28558 268.98407 
z
" clip-path="url(#pc21b3fb9ff)" style="fill: #efa6a5; stroke: #ffffff; stroke-linejoin: miter"/>
   </g>
   <g id="patch_34">
    <path d="M 440.88558 347.99625 
L 453.639866 347.99625 
L 453.639866 287.323673 
L 440.88558 287.323673 
z
" clip-path="url(#pc21b3fb9ff)" style="fill: #efa6a5; stroke: #ffffff; stroke-linejoin: miter"/>
   </g>
   <g id="patch_35">
    <path d="M 552.48558 347.99625 
L 565.239866 347.99625 
L 565.239866 317.256508 
L 552.48558 317.256508 
z
" clip-path="url(#pc21b3fb9ff)" style="fill: #efa6a5; stroke: #ffffff; stroke-linejoin: miter"/>
   </g>
   <g id="patch_36">
    <path d="M 664.08558 347.99625 
L 676.839866 347.99625 
L 676.839866 282.350014 
L 664.08558 282.350014 
z
" clip-path="url(#pc21b3fb9ff)" style="fill: #efa6a5; stroke: #ffffff; stroke-linejoin: miter"/>
   </g>
   <g id="patch_37">
    <path d="M 775.68558 347.99625 
L 788.439866 347.99625 
L 788.439866 311.452576 
L 775.68558 311.452576 
z
" clip-path="url(#pc21b3fb9ff)" style="fill: #efa6a5; stroke: #ffffff; stroke-linejoin: miter"/>
   </g>
   <g id="patch_38">
    <path d="M 118.839866 347.99625 
L 131.594152 347.99625 
L 131.594152 300.794502 
L 118.839866 300.794502 
z
" clip-path="url(#pc21b3fb9ff)" style="fill: #ca3335; stroke: #ffffff; stroke-linejoin: miter"/>
   </g>
   <g id="patch_39">
    <path d="M 230.439866 347.99625 
L 243.194152 347.99625 
L 243.194152 317.798033 
L 230.439866 317.798033 
z
" clip-path="url(#pc21b3fb9ff)" style="fill: #ca3335; stroke: #ffffff; stroke-linejoin: miter"/>
   </g>
   <g id="patch_40">
    <path d="M 342.039866 347.99625 
L 354.794152 347.99625 
L 354.794152 258.751608 
L 342.039866 258.751608 
z
" clip-path="url(#pc21b3fb9ff)" style="fill: #ca3335; stroke: #ffffff; stroke-linejoin: miter"/>
   </g>
   <g id="patch_41">
    <path d="M 453.639866 347.99625 
L 466.394152 347.99625 
L 466.394152 305.493122 
L 453.639866 305.493122 
z
" clip-path="url(#pc21b3fb9ff)" style="fill: #ca3335; stroke: #ffffff; stroke-linejoin: miter"/>
   </g>
   <g id="patch_42">
    <path d="M 565.239866 347.99625 
L 577.994152 347.99625 
L 577.994152 320.14519 
L 565.239866 320.14519 
z
" clip-path="url(#pc21b3fb9ff)" style="fill: #ca3335; stroke: #ffffff; stroke-linejoin: miter"/>
   </g>
   <g id="patch_43">
    <path d="M 676.839866 347.99625 
L 689.594152 347.99625 
L 689.594152 311.233949 
L 676.839866 311.233949 
z
" clip-path="url(#pc21b3fb9ff)" style="fill: #ca3335; stroke: #ffffff; stroke-linejoin: miter"/>
   </g>
   <g id="patch_44">
    <path d="M 788.439866 347.99625 
L 801.194152 347.99625 
L 801.194152 302.637146 
L 788.439866 302.637146 
z
" clip-path="url(#pc21b3fb9ff)" style="fill: #ca3335; stroke: #ffffff; stroke-linejoin: miter"/>
   </g>
   <g id="patch_45">
    <path d="M 0 0 
z
" clip-path="url(#pc21b3fb9ff)" style="fill: #ebbd81; stroke: #ffffff; stroke-linejoin: miter"/>
   </g>
   <g id="patch_46">
    <path d="M 243.194152 347.99625 
L 255.948438 347.99625 
L 255.948438 315.873163 
L 243.194152 315.873163 
z
" clip-path="url(#pc21b3fb9ff)" style="fill: #ebbd81; stroke: #ffffff; stroke-linejoin: miter"/>
   </g>
   <g id="patch_47">
    <path d="M 354.794152 347.99625 
L 367.548438 347.99625 
L 367.548438 281.073183 
L 354.794152 281.073183 
z
" clip-path="url(#pc21b3fb9ff)" style="fill: #ebbd81; stroke: #ffffff; stroke-linejoin: miter"/>
   </g>
   <g id="patch_48">
    <path d="M 466.394152 347.99625 
L 479.148438 347.99625 
L 479.148438 314.252021 
L 466.394152 314.252021 
z
" clip-path="url(#pc21b3fb9ff)" style="fill: #ebbd81; stroke: #ffffff; stroke-linejoin: miter"/>
   </g>
   <g id="patch_49">
    <path d="M 577.994152 347.99625 
L 590.748438 347.99625 
L 590.748438 337.1495 
L 577.994152 337.1495 
z
" clip-path="url(#pc21b3fb9ff)" style="fill: #ebbd81; stroke: #ffffff; stroke-linejoin: miter"/>
   </g>
   <g id="patch_50">
    <path d="M 689.594152 347.99625 
L 702.348438 347.99625 
L 702.348438 293.306089 
L 689.594152 293.306089 
z
" clip-path="url(#pc21b3fb9ff)" style="fill: #ebbd81; stroke: #ffffff; stroke-linejoin: miter"/>
   </g>
   <g id="patch_51">
    <path d="M 0 0 
z
" clip-path="url(#pc21b3fb9ff)" style="fill: #ebbd81; stroke: #ffffff; stroke-linejoin: miter"/>
   </g>
   <g id="line2d_9">
    <path clip-path="url(#pc21b3fb9ff)" style="fill: none; stroke: #008000; stroke-width: 0.75; stroke-linecap: round"/>
   </g>
   <g id="line2d_10">
    <path clip-path="url(#pc21b3fb9ff)" style="fill: none; stroke: #008000; stroke-width: 0.75; stroke-linecap: round"/>
   </g>
   <g id="line2d_11">
    <path clip-path="url(#pc21b3fb9ff)" style="fill: none; stroke: #008000; stroke-width: 0.75; stroke-linecap: round"/>
   </g>
   <g id="line2d_12">
    <path clip-path="url(#pc21b3fb9ff)" style="fill: none; stroke: #008000; stroke-width: 0.75; stroke-linecap: round"/>
   </g>
   <g id="line2d_13">
    <path clip-path="url(#pc21b3fb9ff)" style="fill: none; stroke: #008000; stroke-width: 0.75; stroke-linecap: round"/>
   </g>
   <g id="line2d_14">
    <path clip-path="url(#pc21b3fb9ff)" style="fill: none; stroke: #008000; stroke-width: 0.75; stroke-linecap: round"/>
   </g>
   <g id="line2d_15">
    <path d="M 284.64558 340.716887 
L 284.64558 334.698729 
" clip-path="url(#pc21b3fb9ff)" style="fill: none; stroke: #008000; stroke-width: 0.75; stroke-linecap: round"/>
   </g>
   <g id="line2d_16">
    <path d="M 281.85558 340.716887 
L 287.43558 340.716887 
" clip-path="url(#pc21b3fb9ff)" style="fill: none; stroke: #008000; stroke-width: 0.75; stroke-linecap: round"/>
   </g>
   <g id="line2d_17">
    <path d="M 281.85558 334.698729 
L 287.43558 334.698729 
" clip-path="url(#pc21b3fb9ff)" style="fill: none; stroke: #008000; stroke-width: 0.75; stroke-linecap: round"/>
   </g>
   <g id="line2d_18">
    <path d="M 396.24558 343.239938 
L 396.24558 331.677746 
" clip-path="url(#pc21b3fb9ff)" style="fill: none; stroke: #008000; stroke-width: 0.75; stroke-linecap: round"/>
   </g>
   <g id="line2d_19">
    <path d="M 393.45558 343.239938 
L 399.03558 343.239938 
" clip-path="url(#pc21b3fb9ff)" style="fill: none; stroke: #008000; stroke-width: 0.75; stroke-linecap: round"/>
   </g>
   <g id="line2d_20">
    <path d="M 393.45558 331.677746 
L 399.03558 331.677746 
" clip-path="url(#pc21b3fb9ff)" style="fill: none; stroke: #008000; stroke-width: 0.75; stroke-linecap: round"/>
   </g>
   <g id="line2d_21">
    <path clip-path="url(#pc21b3fb9ff)" style="fill: none; stroke: #008000; stroke-width: 0.75; stroke-linecap: round"/>
   </g>
   <g id="line2d_22">
    <path clip-path="url(#pc21b3fb9ff)" style="fill: none; stroke: #008000; stroke-width: 0.75; stroke-linecap: round"/>
   </g>
   <g id="line2d_23">
    <path clip-path="url(#pc21b3fb9ff)" style="fill: none; stroke: #008000; stroke-width: 0.75; stroke-linecap: round"/>
   </g>
   <g id="line2d_24">
    <path clip-path="url(#pc21b3fb9ff)" style="fill: none; stroke: #008000; stroke-width: 0.75; stroke-linecap: round"/>
   </g>
   <g id="line2d_25">
    <path clip-path="url(#pc21b3fb9ff)" style="fill: none; stroke: #008000; stroke-width: 0.75; stroke-linecap: round"/>
   </g>
   <g id="line2d_26">
    <path clip-path="url(#pc21b3fb9ff)" style="fill: none; stroke: #008000; stroke-width: 0.75; stroke-linecap: round"/>
   </g>
   <g id="line2d_27">
    <path clip-path="url(#pc21b3fb9ff)" style="fill: none; stroke: #008000; stroke-width: 0.75; stroke-linecap: round"/>
   </g>
   <g id="line2d_28">
    <path clip-path="url(#pc21b3fb9ff)" style="fill: none; stroke: #008000; stroke-width: 0.75; stroke-linecap: round"/>
   </g>
   <g id="line2d_29">
    <path clip-path="url(#pc21b3fb9ff)" style="fill: none; stroke: #008000; stroke-width: 0.75; stroke-linecap: round"/>
   </g>
   <g id="line2d_30">
    <path d="M 74.199866 323.12957 
L 74.199866 111.928525 
" clip-path="url(#pc21b3fb9ff)" style="fill: none; stroke: #008000; stroke-width: 0.75; stroke-linecap: round"/>
   </g>
   <g id="line2d_31">
    <path d="M 71.409866 323.12957 
L 76.989866 323.12957 
" clip-path="url(#pc21b3fb9ff)" style="fill: none; stroke: #008000; stroke-width: 0.75; stroke-linecap: round"/>
   </g>
   <g id="line2d_32">
    <path d="M 71.409866 111.928525 
L 76.989866 111.928525 
" clip-path="url(#pc21b3fb9ff)" style="fill: none; stroke: #008000; stroke-width: 0.75; stroke-linecap: round"/>
   </g>
   <g id="line2d_33">
    <path d="M 185.799866 318.399275 
L 185.799866 86.8674 
" clip-path="url(#pc21b3fb9ff)" style="fill: none; stroke: #008000; stroke-width: 0.75; stroke-linecap: round"/>
   </g>
   <g id="line2d_34">
    <path d="M 183.009866 318.399275 
L 188.589866 318.399275 
" clip-path="url(#pc21b3fb9ff)" style="fill: none; stroke: #008000; stroke-width: 0.75; stroke-linecap: round"/>
   </g>
   <g id="line2d_35">
    <path d="M 183.009866 86.8674 
L 188.589866 86.8674 
" clip-path="url(#pc21b3fb9ff)" style="fill: none; stroke: #008000; stroke-width: 0.75; stroke-linecap: round"/>
   </g>
   <g id="line2d_36">
    <path d="M 297.399866 287.964794 
L 297.399866 172.257071 
" clip-path="url(#pc21b3fb9ff)" style="fill: none; stroke: #008000; stroke-width: 0.75; stroke-linecap: round"/>
   </g>
   <g id="line2d_37">
    <path d="M 294.609866 287.964794 
L 300.189866 287.964794 
" clip-path="url(#pc21b3fb9ff)" style="fill: none; stroke: #008000; stroke-width: 0.75; stroke-linecap: round"/>
   </g>
   <g id="line2d_38">
    <path d="M 294.609866 172.257071 
L 300.189866 172.257071 
" clip-path="url(#pc21b3fb9ff)" style="fill: none; stroke: #008000; stroke-width: 0.75; stroke-linecap: round"/>
   </g>
   <g id="line2d_39">
    <path d="M 408.999866 315.571431 
L 408.999866 209.721668 
" clip-path="url(#pc21b3fb9ff)" style="fill: none; stroke: #008000; stroke-width: 0.75; stroke-linecap: round"/>
   </g>
   <g id="line2d_40">
    <path d="M 406.209866 315.571431 
L 411.789866 315.571431 
" clip-path="url(#pc21b3fb9ff)" style="fill: none; stroke: #008000; stroke-width: 0.75; stroke-linecap: round"/>
   </g>
   <g id="line2d_41">
    <path d="M 406.209866 209.721668 
L 411.789866 209.721668 
" clip-path="url(#pc21b3fb9ff)" style="fill: none; stroke: #008000; stroke-width: 0.75; stroke-linecap: round"/>
   </g>
   <g id="line2d_42">
    <path d="M 520.599866 328.324451 
L 520.599866 71.966199 
" clip-path="url(#pc21b3fb9ff)" style="fill: none; stroke: #008000; stroke-width: 0.75; stroke-linecap: round"/>
   </g>
   <g id="line2d_43">
    <path d="M 517.809866 328.324451 
L 523.389866 328.324451 
" clip-path="url(#pc21b3fb9ff)" style="fill: none; stroke: #008000; stroke-width: 0.75; stroke-linecap: round"/>
   </g>
   <g id="line2d_44">
    <path d="M 517.809866 71.966199 
L 523.389866 71.966199 
" clip-path="url(#pc21b3fb9ff)" style="fill: none; stroke: #008000; stroke-width: 0.75; stroke-linecap: round"/>
   </g>
   <g id="line2d_45">
    <path d="M 632.199866 289.799543 
L 632.199866 119.066803 
" clip-path="url(#pc21b3fb9ff)" style="fill: none; stroke: #008000; stroke-width: 0.75; stroke-linecap: round"/>
   </g>
   <g id="line2d_46">
    <path d="M 629.409866 289.799543 
L 634.989866 289.799543 
" clip-path="url(#pc21b3fb9ff)" style="fill: none; stroke: #008000; stroke-width: 0.75; stroke-linecap: round"/>
   </g>
   <g id="line2d_47">
    <path d="M 629.409866 119.066803 
L 634.989866 119.066803 
" clip-path="url(#pc21b3fb9ff)" style="fill: none; stroke: #008000; stroke-width: 0.75; stroke-linecap: round"/>
   </g>
   <g id="line2d_48">
    <path d="M 743.799866 284.658652 
L 743.799866 37.367679 
" clip-path="url(#pc21b3fb9ff)" style="fill: none; stroke: #008000; stroke-width: 0.75; stroke-linecap: round"/>
   </g>
   <g id="line2d_49">
    <path d="M 741.009866 284.658652 
L 746.589866 284.658652 
" clip-path="url(#pc21b3fb9ff)" style="fill: none; stroke: #008000; stroke-width: 0.75; stroke-linecap: round"/>
   </g>
   <g id="line2d_50">
    <path d="M 741.009866 37.367679 
L 746.589866 37.367679 
" clip-path="url(#pc21b3fb9ff)" style="fill: none; stroke: #008000; stroke-width: 0.75; stroke-linecap: round"/>
   </g>
   <g id="line2d_51">
    <path d="M 86.954152 336.768513 
L 86.954152 222.619787 
" clip-path="url(#pc21b3fb9ff)" style="fill: none; stroke: #008000; stroke-width: 0.75; stroke-linecap: round"/>
   </g>
   <g id="line2d_52">
    <path d="M 84.164152 336.768513 
L 89.744152 336.768513 
" clip-path="url(#pc21b3fb9ff)" style="fill: none; stroke: #008000; stroke-width: 0.75; stroke-linecap: round"/>
   </g>
   <g id="line2d_53">
    <path d="M 84.164152 222.619787 
L 89.744152 222.619787 
" clip-path="url(#pc21b3fb9ff)" style="fill: none; stroke: #008000; stroke-width: 0.75; stroke-linecap: round"/>
   </g>
   <g id="line2d_54">
    <path d="M 198.554152 324.029655 
L 198.554152 273.152726 
" clip-path="url(#pc21b3fb9ff)" style="fill: none; stroke: #008000; stroke-width: 0.75; stroke-linecap: round"/>
   </g>
   <g id="line2d_55">
    <path d="M 195.764152 324.029655 
L 201.344152 324.029655 
" clip-path="url(#pc21b3fb9ff)" style="fill: none; stroke: #008000; stroke-width: 0.75; stroke-linecap: round"/>
   </g>
   <g id="line2d_56">
    <path d="M 195.764152 273.152726 
L 201.344152 273.152726 
" clip-path="url(#pc21b3fb9ff)" style="fill: none; stroke: #008000; stroke-width: 0.75; stroke-linecap: round"/>
   </g>
   <g id="line2d_57">
    <path d="M 310.154152 292.652885 
L 310.154152 226.287144 
" clip-path="url(#pc21b3fb9ff)" style="fill: none; stroke: #008000; stroke-width: 0.75; stroke-linecap: round"/>
   </g>
   <g id="line2d_58">
    <path d="M 307.364152 292.652885 
L 312.944152 292.652885 
" clip-path="url(#pc21b3fb9ff)" style="fill: none; stroke: #008000; stroke-width: 0.75; stroke-linecap: round"/>
   </g>
   <g id="line2d_59">
    <path d="M 307.364152 226.287144 
L 312.944152 226.287144 
" clip-path="url(#pc21b3fb9ff)" style="fill: none; stroke: #008000; stroke-width: 0.75; stroke-linecap: round"/>
   </g>
   <g id="line2d_60">
    <path d="M 421.754152 319.304273 
L 421.754152 299.736873 
" clip-path="url(#pc21b3fb9ff)" style="fill: none; stroke: #008000; stroke-width: 0.75; stroke-linecap: round"/>
   </g>
   <g id="line2d_61">
    <path d="M 418.964152 319.304273 
L 424.544152 319.304273 
" clip-path="url(#pc21b3fb9ff)" style="fill: none; stroke: #008000; stroke-width: 0.75; stroke-linecap: round"/>
   </g>
   <g id="line2d_62">
    <path d="M 418.964152 299.736873 
L 424.544152 299.736873 
" clip-path="url(#pc21b3fb9ff)" style="fill: none; stroke: #008000; stroke-width: 0.75; stroke-linecap: round"/>
   </g>
   <g id="line2d_63">
    <path d="M 533.354152 341.362054 
L 533.354152 326.730633 
" clip-path="url(#pc21b3fb9ff)" style="fill: none; stroke: #008000; stroke-width: 0.75; stroke-linecap: round"/>
   </g>
   <g id="line2d_64">
    <path d="M 530.564152 341.362054 
L 536.144152 341.362054 
" clip-path="url(#pc21b3fb9ff)" style="fill: none; stroke: #008000; stroke-width: 0.75; stroke-linecap: round"/>
   </g>
   <g id="line2d_65">
    <path d="M 530.564152 326.730633 
L 536.144152 326.730633 
" clip-path="url(#pc21b3fb9ff)" style="fill: none; stroke: #008000; stroke-width: 0.75; stroke-linecap: round"/>
   </g>
   <g id="line2d_66">
    <path d="M 644.954152 316.862402 
L 644.954152 214.880971 
" clip-path="url(#pc21b3fb9ff)" style="fill: none; stroke: #008000; stroke-width: 0.75; stroke-linecap: round"/>
   </g>
   <g id="line2d_67">
    <path d="M 642.164152 316.862402 
L 647.744152 316.862402 
" clip-path="url(#pc21b3fb9ff)" style="fill: none; stroke: #008000; stroke-width: 0.75; stroke-linecap: round"/>
   </g>
   <g id="line2d_68">
    <path d="M 642.164152 214.880971 
L 647.744152 214.880971 
" clip-path="url(#pc21b3fb9ff)" style="fill: none; stroke: #008000; stroke-width: 0.75; stroke-linecap: round"/>
   </g>
   <g id="line2d_69">
    <path d="M 756.554152 326.710039 
L 756.554152 254.794528 
" clip-path="url(#pc21b3fb9ff)" style="fill: none; stroke: #008000; stroke-width: 0.75; stroke-linecap: round"/>
   </g>
   <g id="line2d_70">
    <path d="M 753.764152 326.710039 
L 759.344152 326.710039 
" clip-path="url(#pc21b3fb9ff)" style="fill: none; stroke: #008000; stroke-width: 0.75; stroke-linecap: round"/>
   </g>
   <g id="line2d_71">
    <path d="M 753.764152 254.794528 
L 759.344152 254.794528 
" clip-path="url(#pc21b3fb9ff)" style="fill: none; stroke: #008000; stroke-width: 0.75; stroke-linecap: round"/>
   </g>
   <g id="line2d_72">
    <path d="M 99.708438 326.035454 
L 99.708438 285.079834 
" clip-path="url(#pc21b3fb9ff)" style="fill: none; stroke: #008000; stroke-width: 0.75; stroke-linecap: round"/>
   </g>
   <g id="line2d_73">
    <path d="M 96.918438 326.035454 
L 102.498438 326.035454 
" clip-path="url(#pc21b3fb9ff)" style="fill: none; stroke: #008000; stroke-width: 0.75; stroke-linecap: round"/>
   </g>
   <g id="line2d_74">
    <path d="M 96.918438 285.079834 
L 102.498438 285.079834 
" clip-path="url(#pc21b3fb9ff)" style="fill: none; stroke: #008000; stroke-width: 0.75; stroke-linecap: round"/>
   </g>
   <g id="line2d_75">
    <path d="M 211.308438 323.616144 
L 211.308438 214.559474 
" clip-path="url(#pc21b3fb9ff)" style="fill: none; stroke: #008000; stroke-width: 0.75; stroke-linecap: round"/>
   </g>
   <g id="line2d_76">
    <path d="M 208.518438 323.616144 
L 214.098437 323.616144 
" clip-path="url(#pc21b3fb9ff)" style="fill: none; stroke: #008000; stroke-width: 0.75; stroke-linecap: round"/>
   </g>
   <g id="line2d_77">
    <path d="M 208.518438 214.559474 
L 214.098437 214.559474 
" clip-path="url(#pc21b3fb9ff)" style="fill: none; stroke: #008000; stroke-width: 0.75; stroke-linecap: round"/>
   </g>
   <g id="line2d_78">
    <path d="M 322.908437 289.873896 
L 322.908437 194.257626 
" clip-path="url(#pc21b3fb9ff)" style="fill: none; stroke: #008000; stroke-width: 0.75; stroke-linecap: round"/>
   </g>
   <g id="line2d_79">
    <path d="M 320.118438 289.873896 
L 325.698438 289.873896 
" clip-path="url(#pc21b3fb9ff)" style="fill: none; stroke: #008000; stroke-width: 0.75; stroke-linecap: round"/>
   </g>
   <g id="line2d_80">
    <path d="M 320.118438 194.257626 
L 325.698438 194.257626 
" clip-path="url(#pc21b3fb9ff)" style="fill: none; stroke: #008000; stroke-width: 0.75; stroke-linecap: round"/>
   </g>
   <g id="line2d_81">
    <path d="M 434.508437 323.212512 
L 434.508437 289.440782 
" clip-path="url(#pc21b3fb9ff)" style="fill: none; stroke: #008000; stroke-width: 0.75; stroke-linecap: round"/>
   </g>
   <g id="line2d_82">
    <path d="M 431.718437 323.212512 
L 437.298437 323.212512 
" clip-path="url(#pc21b3fb9ff)" style="fill: none; stroke: #008000; stroke-width: 0.75; stroke-linecap: round"/>
   </g>
   <g id="line2d_83">
    <path d="M 431.718437 289.440782 
L 437.298437 289.440782 
" clip-path="url(#pc21b3fb9ff)" style="fill: none; stroke: #008000; stroke-width: 0.75; stroke-linecap: round"/>
   </g>
   <g id="line2d_84">
    <path d="M 546.108438 341.320872 
L 546.108438 330.444797 
" clip-path="url(#pc21b3fb9ff)" style="fill: none; stroke: #008000; stroke-width: 0.75; stroke-linecap: round"/>
   </g>
   <g id="line2d_85">
    <path d="M 543.318438 341.320872 
L 548.898438 341.320872 
" clip-path="url(#pc21b3fb9ff)" style="fill: none; stroke: #008000; stroke-width: 0.75; stroke-linecap: round"/>
   </g>
   <g id="line2d_86">
    <path d="M 543.318438 330.444797 
L 548.898438 330.444797 
" clip-path="url(#pc21b3fb9ff)" style="fill: none; stroke: #008000; stroke-width: 0.75; stroke-linecap: round"/>
   </g>
   <g id="line2d_87">
    <path d="M 657.708438 324.266038 
L 657.708438 233.387424 
" clip-path="url(#pc21b3fb9ff)" style="fill: none; stroke: #008000; stroke-width: 0.75; stroke-linecap: round"/>
   </g>
   <g id="line2d_88">
    <path d="M 654.918437 324.266038 
L 660.498438 324.266038 
" clip-path="url(#pc21b3fb9ff)" style="fill: none; stroke: #008000; stroke-width: 0.75; stroke-linecap: round"/>
   </g>
   <g id="line2d_89">
    <path d="M 654.918437 233.387424 
L 660.498438 233.387424 
" clip-path="url(#pc21b3fb9ff)" style="fill: none; stroke: #008000; stroke-width: 0.75; stroke-linecap: round"/>
   </g>
   <g id="line2d_90">
    <path d="M 769.308437 323.209909 
L 769.308437 237.352019 
" clip-path="url(#pc21b3fb9ff)" style="fill: none; stroke: #008000; stroke-width: 0.75; stroke-linecap: round"/>
   </g>
   <g id="line2d_91">
    <path d="M 766.518438 323.209909 
L 772.098438 323.209909 
" clip-path="url(#pc21b3fb9ff)" style="fill: none; stroke: #008000; stroke-width: 0.75; stroke-linecap: round"/>
   </g>
   <g id="line2d_92">
    <path d="M 766.518438 237.352019 
L 772.098438 237.352019 
" clip-path="url(#pc21b3fb9ff)" style="fill: none; stroke: #008000; stroke-width: 0.75; stroke-linecap: round"/>
   </g>
   <g id="line2d_93">
    <path d="M 112.462723 341.731561 
L 112.462723 266.034511 
" clip-path="url(#pc21b3fb9ff)" style="fill: none; stroke: #008000; stroke-width: 0.75; stroke-linecap: round"/>
   </g>
   <g id="line2d_94">
    <path d="M 109.672723 341.731561 
L 115.252723 341.731561 
" clip-path="url(#pc21b3fb9ff)" style="fill: none; stroke: #008000; stroke-width: 0.75; stroke-linecap: round"/>
   </g>
   <g id="line2d_95">
    <path d="M 109.672723 266.034511 
L 115.252723 266.034511 
" clip-path="url(#pc21b3fb9ff)" style="fill: none; stroke: #008000; stroke-width: 0.75; stroke-linecap: round"/>
   </g>
   <g id="line2d_96">
    <path d="M 224.062723 307.844637 
L 224.062723 234.007933 
" clip-path="url(#pc21b3fb9ff)" style="fill: none; stroke: #008000; stroke-width: 0.75; stroke-linecap: round"/>
   </g>
   <g id="line2d_97">
    <path d="M 221.272723 307.844637 
L 226.852723 307.844637 
" clip-path="url(#pc21b3fb9ff)" style="fill: none; stroke: #008000; stroke-width: 0.75; stroke-linecap: round"/>
   </g>
   <g id="line2d_98">
    <path d="M 221.272723 234.007933 
L 226.852723 234.007933 
" clip-path="url(#pc21b3fb9ff)" style="fill: none; stroke: #008000; stroke-width: 0.75; stroke-linecap: round"/>
   </g>
   <g id="line2d_99">
    <path d="M 335.662723 284.001876 
L 335.662723 251.66853 
" clip-path="url(#pc21b3fb9ff)" style="fill: none; stroke: #008000; stroke-width: 0.75; stroke-linecap: round"/>
   </g>
   <g id="line2d_100">
    <path d="M 332.872723 284.001876 
L 338.452723 284.001876 
" clip-path="url(#pc21b3fb9ff)" style="fill: none; stroke: #008000; stroke-width: 0.75; stroke-linecap: round"/>
   </g>
   <g id="line2d_101">
    <path d="M 332.872723 251.66853 
L 338.452723 251.66853 
" clip-path="url(#pc21b3fb9ff)" style="fill: none; stroke: #008000; stroke-width: 0.75; stroke-linecap: round"/>
   </g>
   <g id="line2d_102">
    <path d="M 447.262723 317.647693 
L 447.262723 230.78861 
" clip-path="url(#pc21b3fb9ff)" style="fill: none; stroke: #008000; stroke-width: 0.75; stroke-linecap: round"/>
   </g>
   <g id="line2d_103">
    <path d="M 444.472723 317.647693 
L 450.052723 317.647693 
" clip-path="url(#pc21b3fb9ff)" style="fill: none; stroke: #008000; stroke-width: 0.75; stroke-linecap: round"/>
   </g>
   <g id="line2d_104">
    <path d="M 444.472723 230.78861 
L 450.052723 230.78861 
" clip-path="url(#pc21b3fb9ff)" style="fill: none; stroke: #008000; stroke-width: 0.75; stroke-linecap: round"/>
   </g>
   <g id="line2d_105">
    <path d="M 558.862723 340.389502 
L 558.862723 289.740432 
" clip-path="url(#pc21b3fb9ff)" style="fill: none; stroke: #008000; stroke-width: 0.75; stroke-linecap: round"/>
   </g>
   <g id="line2d_106">
    <path d="M 556.072723 340.389502 
L 561.652723 340.389502 
" clip-path="url(#pc21b3fb9ff)" style="fill: none; stroke: #008000; stroke-width: 0.75; stroke-linecap: round"/>
   </g>
   <g id="line2d_107">
    <path d="M 556.072723 289.740432 
L 561.652723 289.740432 
" clip-path="url(#pc21b3fb9ff)" style="fill: none; stroke: #008000; stroke-width: 0.75; stroke-linecap: round"/>
   </g>
   <g id="line2d_108">
    <path d="M 670.462723 315.069966 
L 670.462723 248.118984 
" clip-path="url(#pc21b3fb9ff)" style="fill: none; stroke: #008000; stroke-width: 0.75; stroke-linecap: round"/>
   </g>
   <g id="line2d_109">
    <path d="M 667.672723 315.069966 
L 673.252723 315.069966 
" clip-path="url(#pc21b3fb9ff)" style="fill: none; stroke: #008000; stroke-width: 0.75; stroke-linecap: round"/>
   </g>
   <g id="line2d_110">
    <path d="M 667.672723 248.118984 
L 673.252723 248.118984 
" clip-path="url(#pc21b3fb9ff)" style="fill: none; stroke: #008000; stroke-width: 0.75; stroke-linecap: round"/>
   </g>
   <g id="line2d_111">
    <path d="M 782.062723 341.958766 
L 782.062723 253.763513 
" clip-path="url(#pc21b3fb9ff)" style="fill: none; stroke: #008000; stroke-width: 0.75; stroke-linecap: round"/>
   </g>
   <g id="line2d_112">
    <path d="M 779.272723 341.958766 
L 784.852723 341.958766 
" clip-path="url(#pc21b3fb9ff)" style="fill: none; stroke: #008000; stroke-width: 0.75; stroke-linecap: round"/>
   </g>
   <g id="line2d_113">
    <path d="M 779.272723 253.763513 
L 784.852723 253.763513 
" clip-path="url(#pc21b3fb9ff)" style="fill: none; stroke: #008000; stroke-width: 0.75; stroke-linecap: round"/>
   </g>
   <g id="line2d_114">
    <path d="M 125.217009 334.027506 
L 125.217009 244.513291 
" clip-path="url(#pc21b3fb9ff)" style="fill: none; stroke: #008000; stroke-width: 0.75; stroke-linecap: round"/>
   </g>
   <g id="line2d_115">
    <path d="M 122.427009 334.027506 
L 128.007009 334.027506 
" clip-path="url(#pc21b3fb9ff)" style="fill: none; stroke: #008000; stroke-width: 0.75; stroke-linecap: round"/>
   </g>
   <g id="line2d_116">
    <path d="M 122.427009 244.513291 
L 128.007009 244.513291 
" clip-path="url(#pc21b3fb9ff)" style="fill: none; stroke: #008000; stroke-width: 0.75; stroke-linecap: round"/>
   </g>
   <g id="line2d_117">
    <path d="M 236.817009 331.411699 
L 236.817009 296.970142 
" clip-path="url(#pc21b3fb9ff)" style="fill: none; stroke: #008000; stroke-width: 0.75; stroke-linecap: round"/>
   </g>
   <g id="line2d_118">
    <path d="M 234.027009 331.411699 
L 239.607009 331.411699 
" clip-path="url(#pc21b3fb9ff)" style="fill: none; stroke: #008000; stroke-width: 0.75; stroke-linecap: round"/>
   </g>
   <g id="line2d_119">
    <path d="M 234.027009 296.970142 
L 239.607009 296.970142 
" clip-path="url(#pc21b3fb9ff)" style="fill: none; stroke: #008000; stroke-width: 0.75; stroke-linecap: round"/>
   </g>
   <g id="line2d_120">
    <path d="M 348.417009 286.123745 
L 348.417009 221.477751 
" clip-path="url(#pc21b3fb9ff)" style="fill: none; stroke: #008000; stroke-width: 0.75; stroke-linecap: round"/>
   </g>
   <g id="line2d_121">
    <path d="M 345.627009 286.123745 
L 351.207009 286.123745 
" clip-path="url(#pc21b3fb9ff)" style="fill: none; stroke: #008000; stroke-width: 0.75; stroke-linecap: round"/>
   </g>
   <g id="line2d_122">
    <path d="M 345.627009 221.477751 
L 351.207009 221.477751 
" clip-path="url(#pc21b3fb9ff)" style="fill: none; stroke: #008000; stroke-width: 0.75; stroke-linecap: round"/>
   </g>
   <g id="line2d_123">
    <path d="M 460.017009 318.899713 
L 460.017009 286.80733 
" clip-path="url(#pc21b3fb9ff)" style="fill: none; stroke: #008000; stroke-width: 0.75; stroke-linecap: round"/>
   </g>
   <g id="line2d_124">
    <path d="M 457.227009 318.899713 
L 462.807009 318.899713 
" clip-path="url(#pc21b3fb9ff)" style="fill: none; stroke: #008000; stroke-width: 0.75; stroke-linecap: round"/>
   </g>
   <g id="line2d_125">
    <path d="M 457.227009 286.80733 
L 462.807009 286.80733 
" clip-path="url(#pc21b3fb9ff)" style="fill: none; stroke: #008000; stroke-width: 0.75; stroke-linecap: round"/>
   </g>
   <g id="line2d_126">
    <path d="M 571.617009 338.029004 
L 571.617009 298.07856 
" clip-path="url(#pc21b3fb9ff)" style="fill: none; stroke: #008000; stroke-width: 0.75; stroke-linecap: round"/>
   </g>
   <g id="line2d_127">
    <path d="M 568.827009 338.029004 
L 574.407009 338.029004 
" clip-path="url(#pc21b3fb9ff)" style="fill: none; stroke: #008000; stroke-width: 0.75; stroke-linecap: round"/>
   </g>
   <g id="line2d_128">
    <path d="M 568.827009 298.07856 
L 574.407009 298.07856 
" clip-path="url(#pc21b3fb9ff)" style="fill: none; stroke: #008000; stroke-width: 0.75; stroke-linecap: round"/>
   </g>
   <g id="line2d_129">
    <path d="M 683.217009 327.190914 
L 683.217009 293.092589 
" clip-path="url(#pc21b3fb9ff)" style="fill: none; stroke: #008000; stroke-width: 0.75; stroke-linecap: round"/>
   </g>
   <g id="line2d_130">
    <path d="M 680.427009 327.190914 
L 686.007009 327.190914 
" clip-path="url(#pc21b3fb9ff)" style="fill: none; stroke: #008000; stroke-width: 0.75; stroke-linecap: round"/>
   </g>
   <g id="line2d_131">
    <path d="M 680.427009 293.092589 
L 686.007009 293.092589 
" clip-path="url(#pc21b3fb9ff)" style="fill: none; stroke: #008000; stroke-width: 0.75; stroke-linecap: round"/>
   </g>
   <g id="line2d_132">
    <path d="M 794.817009 333.631007 
L 794.817009 269.544111 
" clip-path="url(#pc21b3fb9ff)" style="fill: none; stroke: #008000; stroke-width: 0.75; stroke-linecap: round"/>
   </g>
   <g id="line2d_133">
    <path d="M 792.027009 333.631007 
L 797.607009 333.631007 
" clip-path="url(#pc21b3fb9ff)" style="fill: none; stroke: #008000; stroke-width: 0.75; stroke-linecap: round"/>
   </g>
   <g id="line2d_134">
    <path d="M 792.027009 269.544111 
L 797.607009 269.544111 
" clip-path="url(#pc21b3fb9ff)" style="fill: none; stroke: #008000; stroke-width: 0.75; stroke-linecap: round"/>
   </g>
   <g id="line2d_135">
    <path clip-path="url(#pc21b3fb9ff)" style="fill: none; stroke: #008000; stroke-width: 0.75; stroke-linecap: round"/>
   </g>
   <g id="line2d_136">
    <path clip-path="url(#pc21b3fb9ff)" style="fill: none; stroke: #008000; stroke-width: 0.75; stroke-linecap: round"/>
   </g>
   <g id="line2d_137">
    <path clip-path="url(#pc21b3fb9ff)" style="fill: none; stroke: #008000; stroke-width: 0.75; stroke-linecap: round"/>
   </g>
   <g id="line2d_138">
    <path d="M 249.571295 337.824531 
L 249.571295 291.708808 
" clip-path="url(#pc21b3fb9ff)" style="fill: none; stroke: #008000; stroke-width: 0.75; stroke-linecap: round"/>
   </g>
   <g id="line2d_139">
    <path d="M 246.781295 337.824531 
L 252.361295 337.824531 
" clip-path="url(#pc21b3fb9ff)" style="fill: none; stroke: #008000; stroke-width: 0.75; stroke-linecap: round"/>
   </g>
   <g id="line2d_140">
    <path d="M 246.781295 291.708808 
L 252.361295 291.708808 
" clip-path="url(#pc21b3fb9ff)" style="fill: none; stroke: #008000; stroke-width: 0.75; stroke-linecap: round"/>
   </g>
   <g id="line2d_141">
    <path d="M 361.171295 294.740498 
L 361.171295 257.466819 
" clip-path="url(#pc21b3fb9ff)" style="fill: none; stroke: #008000; stroke-width: 0.75; stroke-linecap: round"/>
   </g>
   <g id="line2d_142">
    <path d="M 358.381295 294.740498 
L 363.961295 294.740498 
" clip-path="url(#pc21b3fb9ff)" style="fill: none; stroke: #008000; stroke-width: 0.75; stroke-linecap: round"/>
   </g>
   <g id="line2d_143">
    <path d="M 358.381295 257.466819 
L 363.961295 257.466819 
" clip-path="url(#pc21b3fb9ff)" style="fill: none; stroke: #008000; stroke-width: 0.75; stroke-linecap: round"/>
   </g>
   <g id="line2d_144">
    <path d="M 472.771295 322.906867 
L 472.771295 303.610814 
" clip-path="url(#pc21b3fb9ff)" style="fill: none; stroke: #008000; stroke-width: 0.75; stroke-linecap: round"/>
   </g>
   <g id="line2d_145">
    <path d="M 469.981295 322.906867 
L 475.561295 322.906867 
" clip-path="url(#pc21b3fb9ff)" style="fill: none; stroke: #008000; stroke-width: 0.75; stroke-linecap: round"/>
   </g>
   <g id="line2d_146">
    <path d="M 469.981295 303.610814 
L 475.561295 303.610814 
" clip-path="url(#pc21b3fb9ff)" style="fill: none; stroke: #008000; stroke-width: 0.75; stroke-linecap: round"/>
   </g>
   <g id="line2d_147">
    <path d="M 584.371295 341.016831 
L 584.371295 334.738087 
" clip-path="url(#pc21b3fb9ff)" style="fill: none; stroke: #008000; stroke-width: 0.75; stroke-linecap: round"/>
   </g>
   <g id="line2d_148">
    <path d="M 581.581295 341.016831 
L 587.161295 341.016831 
" clip-path="url(#pc21b3fb9ff)" style="fill: none; stroke: #008000; stroke-width: 0.75; stroke-linecap: round"/>
   </g>
   <g id="line2d_149">
    <path d="M 581.581295 334.738087 
L 587.161295 334.738087 
" clip-path="url(#pc21b3fb9ff)" style="fill: none; stroke: #008000; stroke-width: 0.75; stroke-linecap: round"/>
   </g>
   <g id="line2d_150">
    <path d="M 695.971295 313.103152 
L 695.971295 273.509026 
" clip-path="url(#pc21b3fb9ff)" style="fill: none; stroke: #008000; stroke-width: 0.75; stroke-linecap: round"/>
   </g>
   <g id="line2d_151">
    <path d="M 693.181295 313.103152 
L 698.761295 313.103152 
" clip-path="url(#pc21b3fb9ff)" style="fill: none; stroke: #008000; stroke-width: 0.75; stroke-linecap: round"/>
   </g>
   <g id="line2d_152">
    <path d="M 693.181295 273.509026 
L 698.761295 273.509026 
" clip-path="url(#pc21b3fb9ff)" style="fill: none; stroke: #008000; stroke-width: 0.75; stroke-linecap: round"/>
   </g>
   <g id="line2d_153">
    <path clip-path="url(#pc21b3fb9ff)" style="fill: none; stroke: #008000; stroke-width: 0.75; stroke-linecap: round"/>
   </g>
   <g id="line2d_154">
    <path clip-path="url(#pc21b3fb9ff)" style="fill: none; stroke: #008000; stroke-width: 0.75; stroke-linecap: round"/>
   </g>
   <g id="line2d_155">
    <path clip-path="url(#pc21b3fb9ff)" style="fill: none; stroke: #008000; stroke-width: 0.75; stroke-linecap: round"/>
   </g>
   <g id="patch_52">
    <path d="M 43.908438 347.99625 
L 43.908438 21.83625 
" style="fill: none; stroke: #cccccc; stroke-width: 1.25; stroke-linejoin: miter; stroke-linecap: square"/>
   </g>
   <g id="patch_53">
    <path d="M 43.908438 347.99625 
L 825.108438 347.99625 
" style="fill: none; stroke: #cccccc; stroke-width: 1.25; stroke-linejoin: miter; stroke-linecap: square"/>
   </g>
   <g id="text_18">
    <!-- Importancia promedio según el tipo de descriptor -->
    <g style="fill: #262626" transform="translate(304.44625 15.83625) scale(0.12 -0.12)">
     <defs>
      <path id="ArialMT-49" d="M 597 0 
L 597 4581 
L 1203 4581 
L 1203 0 
L 597 0 
z
" transform="scale(0.015625)"/>
      <path id="ArialMT-67" d="M 319 -275 
L 866 -356 
Q 900 -609 1056 -725 
Q 1266 -881 1628 -881 
Q 2019 -881 2231 -725 
Q 2444 -569 2519 -288 
Q 2563 -116 2559 434 
Q 2191 0 1641 0 
Q 956 0 581 494 
Q 206 988 206 1678 
Q 206 2153 378 2554 
Q 550 2956 876 3175 
Q 1203 3394 1644 3394 
Q 2231 3394 2613 2919 
L 2613 3319 
L 3131 3319 
L 3131 450 
Q 3131 -325 2973 -648 
Q 2816 -972 2473 -1159 
Q 2131 -1347 1631 -1347 
Q 1038 -1347 672 -1080 
Q 306 -813 319 -275 
z
M 784 1719 
Q 784 1066 1043 766 
Q 1303 466 1694 466 
Q 2081 466 2343 764 
Q 2606 1063 2606 1700 
Q 2606 2309 2336 2618 
Q 2066 2928 1684 2928 
Q 1309 2928 1046 2623 
Q 784 2319 784 1719 
z
" transform="scale(0.015625)"/>
      <path id="ArialMT-fa" d="M 2597 0 
L 2597 488 
Q 2209 -75 1544 -75 
Q 1250 -75 995 37 
Q 741 150 617 320 
Q 494 491 444 738 
Q 409 903 409 1263 
L 409 3319 
L 972 3319 
L 972 1478 
Q 972 1038 1006 884 
Q 1059 663 1231 536 
Q 1403 409 1656 409 
Q 1909 409 2131 539 
Q 2353 669 2445 892 
Q 2538 1116 2538 1541 
L 2538 3319 
L 3100 3319 
L 3100 0 
L 2597 0 
z
M 1414 3731 
L 1829 4606 
L 2567 4606 
L 1879 3731 
L 1414 3731 
z
" transform="scale(0.015625)"/>
     </defs>
     <use xlink:href="#ArialMT-49"/>
     <use xlink:href="#ArialMT-6d" x="27.783203"/>
     <use xlink:href="#ArialMT-70" x="111.083984"/>
     <use xlink:href="#ArialMT-6f" x="166.699219"/>
     <use xlink:href="#ArialMT-72" x="222.314453"/>
     <use xlink:href="#ArialMT-74" x="255.615234"/>
     <use xlink:href="#ArialMT-61" x="283.398438"/>
     <use xlink:href="#ArialMT-6e" x="339.013672"/>
     <use xlink:href="#ArialMT-63" x="394.628906"/>
     <use xlink:href="#ArialMT-69" x="444.628906"/>
     <use xlink:href="#ArialMT-61" x="466.845703"/>
     <use xlink:href="#ArialMT-20" x="522.460938"/>
     <use xlink:href="#ArialMT-70" x="550.244141"/>
     <use xlink:href="#ArialMT-72" x="605.859375"/>
     <use xlink:href="#ArialMT-6f" x="639.160156"/>
     <use xlink:href="#ArialMT-6d" x="694.775391"/>
     <use xlink:href="#ArialMT-65" x="778.076172"/>
     <use xlink:href="#ArialMT-64" x="833.691406"/>
     <use xlink:href="#ArialMT-69" x="889.306641"/>
     <use xlink:href="#ArialMT-6f" x="911.523438"/>
     <use xlink:href="#ArialMT-20" x="967.138672"/>
     <use xlink:href="#ArialMT-73" x="994.921875"/>
     <use xlink:href="#ArialMT-65" x="1044.921875"/>
     <use xlink:href="#ArialMT-67" x="1100.537109"/>
     <use xlink:href="#ArialMT-fa" x="1156.152344"/>
     <use xlink:href="#ArialMT-6e" x="1211.767578"/>
     <use xlink:href="#ArialMT-20" x="1267.382812"/>
     <use xlink:href="#ArialMT-65" x="1295.166016"/>
     <use xlink:href="#ArialMT-6c" x="1350.78125"/>
     <use xlink:href="#ArialMT-20" x="1372.998047"/>
     <use xlink:href="#ArialMT-74" x="1400.78125"/>
     <use xlink:href="#ArialMT-69" x="1428.564453"/>
     <use xlink:href="#ArialMT-70" x="1450.78125"/>
     <use xlink:href="#ArialMT-6f" x="1506.396484"/>
     <use xlink:href="#ArialMT-20" x="1562.011719"/>
     <use xlink:href="#ArialMT-64" x="1589.794922"/>
     <use xlink:href="#ArialMT-65" x="1645.410156"/>
     <use xlink:href="#ArialMT-20" x="1701.025391"/>
     <use xlink:href="#ArialMT-64" x="1728.808594"/>
     <use xlink:href="#ArialMT-65" x="1784.423828"/>
     <use xlink:href="#ArialMT-73" x="1840.039062"/>
     <use xlink:href="#ArialMT-63" x="1890.039062"/>
     <use xlink:href="#ArialMT-72" x="1940.039062"/>
     <use xlink:href="#ArialMT-69" x="1973.339844"/>
     <use xlink:href="#ArialMT-70" x="1995.556641"/>
     <use xlink:href="#ArialMT-74" x="2051.171875"/>
     <use xlink:href="#ArialMT-6f" x="2078.955078"/>
     <use xlink:href="#ArialMT-72" x="2134.570312"/>
    </g>
   </g>
   <g id="legend_1">
    <g id="patch_54">
     <path d="M 409.267734 156.029531 
L 459.749141 156.029531 
Q 461.949141 156.029531 461.949141 153.829531 
L 461.949141 29.53625 
Q 461.949141 27.33625 459.749141 27.33625 
L 409.267734 27.33625 
Q 407.067734 27.33625 407.067734 29.53625 
L 407.067734 153.829531 
Q 407.067734 156.029531 409.267734 156.029531 
z
" style="fill: #ffffff; opacity: 0.8; stroke: #cccccc; stroke-linejoin: miter"/>
    </g>
    <g id="text_19">
     <!-- Tipo -->
     <g style="fill: #262626" transform="translate(423.0625 40.325625) scale(0.12 -0.12)">
      <defs>
       <path id="ArialMT-54" d="M 1659 0 
L 1659 4041 
L 150 4041 
L 150 4581 
L 3781 4581 
L 3781 4041 
L 2266 4041 
L 2266 0 
L 1659 0 
z
" transform="scale(0.015625)"/>
      </defs>
      <use xlink:href="#ArialMT-54"/>
      <use xlink:href="#ArialMT-69" x="57.333984"/>
      <use xlink:href="#ArialMT-70" x="79.550781"/>
      <use xlink:href="#ArialMT-6f" x="135.166016"/>
     </g>
    </g>
    <g id="patch_55">
     <path d="M 411.467734 56.084219 
L 433.467734 56.084219 
L 433.467734 48.384219 
L 411.467734 48.384219 
z
" style="fill: #aeccdb; stroke: #ffffff; stroke-linejoin: miter"/>
    </g>
    <g id="text_20">
     <!-- CA -->
     <g style="fill: #262626" transform="translate(442.267734 56.084219) scale(0.11 -0.11)">
      <defs>
       <path id="ArialMT-43" d="M 3763 1606 
L 4369 1453 
Q 4178 706 3683 314 
Q 3188 -78 2472 -78 
Q 1731 -78 1267 223 
Q 803 525 561 1097 
Q 319 1669 319 2325 
Q 319 3041 592 3573 
Q 866 4106 1370 4382 
Q 1875 4659 2481 4659 
Q 3169 4659 3637 4309 
Q 4106 3959 4291 3325 
L 3694 3184 
Q 3534 3684 3231 3912 
Q 2928 4141 2469 4141 
Q 1941 4141 1586 3887 
Q 1231 3634 1087 3207 
Q 944 2781 944 2328 
Q 944 1744 1114 1308 
Q 1284 872 1643 656 
Q 2003 441 2422 441 
Q 2931 441 3284 734 
Q 3638 1028 3763 1606 
z
" transform="scale(0.015625)"/>
      </defs>
      <use xlink:href="#ArialMT-43"/>
      <use xlink:href="#ArialMT-41" x="72.216797"/>
     </g>
    </g>
    <g id="patch_56">
     <path d="M 411.467734 71.644062 
L 433.467734 71.644062 
L 433.467734 63.944062 
L 411.467734 63.944062 
z
" style="fill: #3274a1; stroke: #ffffff; stroke-linejoin: miter"/>
    </g>
    <g id="text_21">
     <!-- P -->
     <g style="fill: #262626" transform="translate(442.267734 71.644062) scale(0.11 -0.11)">
      <use xlink:href="#ArialMT-50"/>
     </g>
    </g>
    <g id="patch_57">
     <path d="M 411.467734 87.203906 
L 433.467734 87.203906 
L 433.467734 79.503906 
L 411.467734 79.503906 
z
" style="fill: #b3d495; stroke: #ffffff; stroke-linejoin: miter"/>
    </g>
    <g id="text_22">
     <!-- O -->
     <g style="fill: #262626" transform="translate(442.267734 87.203906) scale(0.11 -0.11)">
      <defs>
       <path id="ArialMT-4f" d="M 309 2231 
Q 309 3372 921 4017 
Q 1534 4663 2503 4663 
Q 3138 4663 3647 4359 
Q 4156 4056 4423 3514 
Q 4691 2972 4691 2284 
Q 4691 1588 4409 1038 
Q 4128 488 3612 205 
Q 3097 -78 2500 -78 
Q 1853 -78 1343 234 
Q 834 547 571 1087 
Q 309 1628 309 2231 
z
M 934 2222 
Q 934 1394 1379 917 
Q 1825 441 2497 441 
Q 3181 441 3623 922 
Q 4066 1403 4066 2288 
Q 4066 2847 3877 3264 
Q 3688 3681 3323 3911 
Q 2959 4141 2506 4141 
Q 1863 4141 1398 3698 
Q 934 3256 934 2222 
z
" transform="scale(0.015625)"/>
      </defs>
      <use xlink:href="#ArialMT-4f"/>
     </g>
    </g>
    <g id="patch_58">
     <path d="M 411.467734 102.76375 
L 433.467734 102.76375 
L 433.467734 95.06375 
L 411.467734 95.06375 
z
" style="fill: #40923a; stroke: #ffffff; stroke-linejoin: miter"/>
    </g>
    <g id="text_23">
     <!-- H -->
     <g style="fill: #262626" transform="translate(442.267734 102.76375) scale(0.11 -0.11)">
      <defs>
       <path id="ArialMT-48" d="M 513 0 
L 513 4581 
L 1119 4581 
L 1119 2700 
L 3500 2700 
L 3500 4581 
L 4106 4581 
L 4106 0 
L 3500 0 
L 3500 2159 
L 1119 2159 
L 1119 0 
L 513 0 
z
" transform="scale(0.015625)"/>
      </defs>
      <use xlink:href="#ArialMT-48"/>
     </g>
    </g>
    <g id="patch_59">
     <path d="M 411.467734 118.323594 
L 433.467734 118.323594 
L 433.467734 110.623594 
L 411.467734 110.623594 
z
" style="fill: #efa6a5; stroke: #ffffff; stroke-linejoin: miter"/>
    </g>
    <g id="text_24">
     <!-- C -->
     <g style="fill: #262626" transform="translate(442.267734 118.323594) scale(0.11 -0.11)">
      <use xlink:href="#ArialMT-43"/>
     </g>
    </g>
    <g id="patch_60">
     <path d="M 411.467734 133.883437 
L 433.467734 133.883437 
L 433.467734 126.183437 
L 411.467734 126.183437 
z
" style="fill: #ca3335; stroke: #ffffff; stroke-linejoin: miter"/>
    </g>
    <g id="text_25">
     <!-- A -->
     <g style="fill: #262626" transform="translate(442.267734 133.883437) scale(0.11 -0.11)">
      <use xlink:href="#ArialMT-41"/>
     </g>
    </g>
    <g id="patch_61">
     <path d="M 411.467734 149.443281 
L 433.467734 149.443281 
L 433.467734 141.743281 
L 411.467734 141.743281 
z
" style="fill: #ebbd81; stroke: #ffffff; stroke-linejoin: miter"/>
    </g>
    <g id="text_26">
     <!-- B -->
     <g style="fill: #262626" transform="translate(442.267734 149.443281) scale(0.11 -0.11)">
      <use xlink:href="#ArialMT-42"/>
     </g>
    </g>
   </g>
  </g>
 </g>
 <defs>
  <clipPath id="pc21b3fb9ff">
   <rect x="43.908438" y="21.83625" width="781.2" height="326.16"/>
  </clipPath>
 </defs>
</svg>
